<svg width="59" height="59" viewBox="0 0 59 59" fill="none" xmlns="http://www.w3.org/2000/svg">
<g filter="url(#filter0_d_19_11)">
<circle cx="29.5" cy="24.5" r="11.5" fill="#F9AD19"/>
<circle cx="29.5" cy="24.5" r="11" stroke="#F29200" stroke-opacity="0.38"/>
</g>
<path d="M34.6684 23.8709L31.0715 20.274C30.908 20.1019 30.6819 20.0031 30.4445 20.0001C30.2072 19.997 29.9786 20.0899 29.8107 20.2577C29.6428 20.4254 29.5497 20.6539 29.5526 20.8913C29.5555 21.1286 29.654 21.3548 29.826 21.5184L31.9521 23.6414H24.8807C24.5661 23.6414 24.2753 23.8094 24.118 24.0818C23.9607 24.3543 23.9607 24.6899 24.118 24.9624C24.2753 25.2349 24.5661 25.4028 24.8807 25.4028H31.9324L29.826 27.5127C29.6128 27.7369 29.533 28.0566 29.6157 28.3547C29.6984 28.6529 29.9314 28.8857 30.2297 28.9682C30.5278 29.0506 30.8475 28.9705 31.0715 28.7571L34.6684 25.1603C34.8342 24.9955 34.927 24.7712 34.9262 24.5375C34.9269 24.5302 34.9269 24.5229 34.9262 24.5156C34.9268 24.5084 34.9268 24.5011 34.9262 24.4938C34.9262 24.2602 34.8334 24.0363 34.6684 23.871L34.6684 23.8709Z" fill="white"/>
<defs>
<filter id="filter0_d_19_11" x="0" y="0" width="59" height="59" filterUnits="userSpaceOnUse" color-interpolation-filters="sRGB">
<feFlood flood-opacity="0" result="BackgroundImageFix"/>
<feColorMatrix in="SourceAlpha" type="matrix" values="0 0 0 0 0 0 0 0 0 0 0 0 0 0 0 0 0 0 127 0" result="hardAlpha"/>
<feOffset dy="5"/>
<feGaussianBlur stdDeviation="9"/>
<feComposite in2="hardAlpha" operator="out"/>
<feColorMatrix type="matrix" values="0 0 0 0 0.679167 0 0 0 0 0.679167 0 0 0 0 0.679167 0 0 0 0.54 0"/>
<feBlend mode="normal" in2="BackgroundImageFix" result="effect1_dropShadow_19_11"/>
<feBlend mode="normal" in="SourceGraphic" in2="effect1_dropShadow_19_11" result="shape"/>
</filter>
</defs>
</svg>
