<svg width="327" height="171" viewBox="0 0 327 171" fill="none" xmlns="http://www.w3.org/2000/svg">
<path d="M325.459 3.64071C324.538 2.87848 323.435 2.35112 322.145 2.04025C320.846 1.74088 319.474 1.5498 318.03 1.4715C316.584 1.40012 315.248 1.36096 314.03 1.36096C312.814 1.36096 311.592 1.40242 310.373 1.4715C309.155 1.5498 307.935 1.58662 306.716 1.58662C305.65 1.58662 304.623 1.51294 303.631 1.36096C302.645 1.20898 301.607 1.12835 300.55 1.12835C299.937 1.12835 299.403 1.20898 298.945 1.36096C298.493 1.51294 297.95 1.58662 297.346 1.58662H296.209C295.751 1.58662 295.442 1.66492 295.29 1.81691C293.464 1.36096 291.633 1.12835 289.807 1.12835C287.371 1.12835 285.043 1.51292 282.839 2.27054C280.628 3.03507 278.912 4.25558 277.692 5.92741C277.54 7.60615 277.162 9.09369 276.557 10.3856C275.942 11.6843 275.555 13.1697 275.41 14.8438C274.952 15.302 274.689 15.9883 274.609 16.9002C274.535 17.8167 274.454 18.7263 274.383 19.6428C274.3 20.5571 274.155 21.4022 273.922 22.1598C273.694 22.9266 273.199 23.4539 272.439 23.7579C272.131 24.6721 271.979 25.591 271.979 26.5006C271.979 27.4171 272.131 28.3336 272.439 29.2455C272.131 30.01 271.751 30.6939 271.293 31.2996C270.832 31.9144 270.606 32.596 270.606 33.356C270.606 34.8804 270.381 36.2552 269.92 37.4711C269.466 38.6939 269.089 40.0617 268.78 41.5862C268.78 43.7232 268.322 45.5908 267.41 47.1889C266.498 48.7847 266.035 50.3529 266.035 51.8705C266.035 52.3287 266.109 52.711 266.263 53.0172C265.496 54.3851 265.199 56.0247 265.351 57.9268C265.381 58.316 265.372 58.6752 265.338 59.0184C264.725 58.9608 264.124 58.8733 263.527 58.7604C262.385 58.5325 261.28 58.4196 260.216 58.4196C259.148 58.4196 258.16 58.6476 257.243 59.1035C256.635 58.9515 256.02 58.8755 255.419 58.8755C254.802 58.8755 254.121 58.8755 253.356 58.8755C251.677 58.8755 250.006 59.0667 248.329 59.4444C246.65 59.8266 245.126 60.0177 243.76 60.0177C242.996 60.0177 242.236 59.8658 241.474 59.5641C240.709 59.2555 239.947 59.1035 239.187 59.1035C238.425 59.1035 237.736 59.2555 237.131 59.5641C236.518 59.8658 235.91 60.1697 235.304 60.476C234.844 60.172 234.271 59.9441 233.589 59.7921C232.9 59.6355 232.175 59.5641 231.417 59.5641C230.045 59.5641 228.596 59.7092 227.074 60.0177C226.763 59.7092 226.079 59.5641 225.018 59.5641C223.797 59.5641 223.035 59.6355 222.731 59.7921C221.964 59.6355 221.133 59.5641 220.214 59.5641C219.36 59.5641 218.51 59.5641 217.656 59.5641C217.766 58.3574 218.008 57.5054 218.383 57.0218C218.918 56.3333 219.413 55.1542 219.871 53.4778C220.322 51.4974 220.742 49.5561 221.131 47.6471C221.508 45.7427 221.997 43.7278 222.611 41.5908C222.761 40.9852 222.955 40.1861 223.178 39.189C223.413 38.2011 223.712 37.1717 224.099 36.1032C224.479 35.0462 224.857 34.0468 225.237 33.1372C225.617 32.223 226.043 31.6128 226.501 31.3042C226.195 30.8482 226.043 30.1597 226.043 29.2501C226.043 28.4925 226.158 27.7256 226.383 26.9634C226.611 26.2058 226.8 25.439 226.952 24.6768C227.871 24.3728 228.44 23.7625 228.668 22.8483C228.893 21.9364 229.009 20.9854 229.009 19.9906C229.009 19.0073 229.045 18.0125 229.126 17.0246C229.2 16.0367 229.543 15.3067 230.155 14.8484C230.913 14.0908 231.364 12.8703 231.526 11.1962C231.671 9.51745 231.754 8.06897 231.754 6.8554C231.754 5.47833 231.304 4.41674 230.383 3.64991C229.465 2.88769 228.359 2.36033 227.07 2.04945C225.771 1.75009 224.398 1.55901 222.955 1.48071C221.508 1.40932 220.171 1.37017 218.955 1.37017C217.734 1.37017 216.516 1.41163 215.295 1.48071C214.08 1.55901 212.859 1.59582 211.641 1.59582C210.575 1.59582 209.548 1.52215 208.551 1.37017C207.565 1.21818 206.529 1.13755 205.472 1.13755C204.861 1.13755 204.327 1.21818 203.869 1.37017C203.418 1.52215 202.872 1.59582 202.271 1.59582H201.133C200.67 1.59582 200.366 1.67413 200.214 1.82612C198.388 1.37016 196.555 1.13755 194.731 1.13755C192.293 1.13755 189.967 1.52213 187.763 2.27975C185.552 3.04427 183.837 4.26478 182.616 5.93661C182.464 7.61535 182.087 9.10297 181.479 10.3948C180.866 11.6936 180.479 13.1789 180.332 14.853C179.876 15.3112 179.611 15.9975 179.533 16.9094C179.459 17.8259 179.379 18.7355 179.303 19.6521C179.224 20.5663 179.079 21.4114 178.844 22.169C178.616 22.9358 178.124 23.4632 177.364 23.7671C177.055 24.6813 176.901 25.6002 176.901 26.5098C176.901 27.4263 177.055 28.3428 177.364 29.2547C177.055 30.0192 176.675 30.7032 176.215 31.3088C175.754 31.9237 175.528 32.6052 175.528 33.3652C175.528 34.8896 175.305 36.2644 174.844 37.4803C174.391 38.7031 174.013 40.0709 173.705 41.5954C173.705 43.7324 173.246 45.6 172.332 47.1981C171.42 48.7939 170.96 50.3621 170.96 51.8797C170.96 52.3379 171.031 52.7202 171.188 53.0265C170.421 54.3944 170.121 56.0339 170.276 57.936C170.421 59.8428 169.815 61.1761 168.443 61.9383C168.443 64.5313 168.217 66.705 167.756 68.4529C167.305 70.2076 166.538 71.9209 165.474 73.5928C165.781 74.8156 165.933 75.656 165.933 76.1097C165.933 77.9381 165.364 79.3106 164.217 80.2225C163.07 81.1344 162.423 82.4309 162.274 84.1096C161.818 84.7198 161.435 85.0238 161.131 85.0238C160.823 85.0238 160.489 84.6807 160.102 83.9922C159.724 83.3059 159.225 82.8891 158.617 82.7371C158.467 81.6686 157.85 81.0561 156.786 80.9087C155.722 80.7613 155.034 80.2985 154.734 79.5408C155.034 79.3866 155.186 79.0411 155.186 78.5069C155.186 77.9795 155.414 77.7078 155.874 77.7078V77.0193V74.2767C155.874 73.3648 155.722 72.7568 155.414 72.4483C154.656 71.5364 154.239 70.4771 154.156 69.252C154.087 68.0338 153.898 66.8916 153.59 65.8254C153.131 65.0586 152.634 64.4207 152.1 63.8795C151.568 63.3499 151.305 62.6199 151.305 61.7103C151.305 61.4064 151.377 61.0264 151.533 60.5681C151.683 60.1122 151.768 59.7322 151.768 59.4213C151.768 58.3597 151.533 57.335 151.08 56.3379C150.621 55.35 150.384 54.2493 150.384 53.0265C149.627 52.5705 149.168 51.9948 149.014 51.3086C148.869 50.6247 148.752 49.8256 148.673 48.9114C148.6 47.9972 148.528 47.1244 148.452 46.2793C148.372 45.4433 148.102 44.6466 147.648 43.8821C146.882 43.5781 146.502 42.7376 146.502 41.3697V39.7693C146.502 38.7054 146.276 37.9455 145.818 37.4826V36.7986C145.818 35.2742 145.475 34.056 144.795 33.1464C144.1 32.2322 143.759 31.1637 143.759 29.9456V29.485C143.759 28.4211 143.607 27.5852 143.308 26.9726C142.992 26.3624 142.693 25.6048 142.389 24.686C141.783 23.9214 141.512 22.9727 141.585 21.8328C141.668 20.686 141.403 19.7349 140.788 18.975C140.788 16.6883 140.367 14.8577 139.536 13.4921C138.695 12.115 138.278 10.3695 138.278 8.2302C138.278 7.3183 137.938 6.40176 137.251 5.48755C136.563 4.57795 135.835 3.8157 135.075 3.20085C134.318 2.59521 133.512 2.09782 132.68 1.71325C131.844 1.3379 131.347 1.14219 131.193 1.14219C130.426 1.14219 129.705 1.2527 129.017 1.48528C128.33 1.71095 127.683 1.83068 127.078 1.83068C123.575 1.52671 120.141 1.25272 116.791 1.03165C113.44 0.79446 109.931 0.683924 106.283 0.683924C105.056 0.683924 103.801 0.87738 102.507 1.25274C101.208 1.6373 100.027 1.83068 98.9604 1.83068H98.7324C98.4285 3.04886 97.8205 4.03912 96.9086 4.79674C95.9898 5.56588 95.223 6.55606 94.6174 7.77194C93.7055 8.53646 93.3186 9.67631 93.4775 11.2008C93.6249 12.7206 93.4774 13.9434 93.0191 14.853C92.5701 15.9238 92.1074 17.0291 91.6468 18.169C91.1955 19.3066 90.8085 20.4925 90.5092 21.713C90.0486 22.9358 89.8598 24.4142 89.9381 26.1689C90.0118 27.9191 89.4361 29.333 88.2179 30.3946C88.0705 30.7032 88.0267 31.0854 88.1073 31.5391C88.1787 31.9973 87.9899 32.3819 87.5316 32.6812C87.5316 33.4435 87.6099 33.9801 87.7642 34.284C87.9185 34.588 87.9922 35.1199 87.9922 35.8798C87.9922 36.7941 87.8403 37.326 87.534 37.478C86.7741 37.9385 86.1961 38.7008 85.8253 39.7647C85.4384 40.8309 85.1759 42.0559 85.0216 43.4215C84.8696 44.794 84.7153 46.2009 84.5633 47.6471C84.4113 49.1002 84.112 50.4312 83.656 51.6448C83.3428 51.806 83.0343 52.3011 82.7372 53.1324C82.431 53.9729 82.1684 54.9608 81.9358 56.1053C81.7078 57.2521 81.4361 58.3552 81.1368 59.4167C80.8305 60.4875 80.4436 61.3257 79.9923 61.9337C79.8403 62.2399 79.7643 62.5462 79.7643 62.8502C79.7643 63.3039 79.838 63.7253 79.9923 64.1006C80.1443 64.4829 80.2202 64.9043 80.2202 65.3579C80.3699 66.8847 79.9577 68.0683 78.9629 68.8996C77.9681 69.7401 77.4799 70.9215 77.4799 72.4414C77.4799 74.4264 77.1736 76.8696 76.5634 79.7573C75.9531 82.6588 75.2715 84.4136 74.5116 85.0192C73.2888 85.0192 72.3723 84.8304 71.7666 84.4412C71.1541 84.0659 70.7029 83.6145 70.3943 83.0756C70.088 82.5437 69.8186 82.0854 69.5975 81.7032C69.3649 81.3232 69.0217 81.1298 68.5635 81.1298C67.9555 81.1298 67.3453 81.3969 66.7397 81.9334C66.1248 82.47 65.5123 82.8108 64.9043 82.9605C64.2987 82.6612 63.6908 82.5023 63.0805 82.5023C62.468 82.5023 62.164 82.1292 62.164 81.3624C62.164 79.9922 62.9285 79.306 64.4553 79.306C65.9728 79.306 67.3453 79.154 68.5635 78.8477C68.2572 77.7815 68.1467 76.6417 68.2273 75.4189C68.2963 74.203 68.0292 73.2104 67.4236 72.4436C67.4236 71.23 67.0806 70.2399 66.3943 69.4776C65.7081 68.7154 65.2106 67.7989 64.9043 66.735C65.0586 66.279 65.1416 65.6734 65.1416 64.9089C65.1416 63.5364 64.8329 62.2446 64.2227 61.0241C63.6147 59.8059 63.3085 58.4357 63.3085 56.909C63.3085 56.1513 63.3822 55.6125 63.5365 55.3108C62.772 55.0068 62.3551 54.3921 62.2838 53.4824C62.2009 52.5705 61.7127 51.9626 60.7962 51.6494C60.7962 51.0437 60.8745 50.5095 61.0288 50.0512C61.1808 49.5953 61.2545 49.1416 61.2545 48.6834V47.7668C61.2545 47.4629 61.3374 47.2372 61.4825 47.0829C61.6368 46.9355 61.7173 46.703 61.7173 46.3944C61.7173 45.1786 61.3396 44.0801 60.5797 43.083C59.8129 42.0951 59.4329 40.5338 59.4329 38.3945V36.7964C58.8204 36.3381 58.4795 35.6933 58.4058 34.8528C58.3229 34.0145 57.9822 33.2938 57.3765 32.6812C57.6759 31.767 57.8371 31.1591 57.8371 30.8528C57.8371 29.7912 57.5999 28.7964 57.1417 27.8799C56.6903 26.968 56.4646 25.9755 56.4646 24.9139V23.7671C56.4646 22.2473 56.2642 20.7597 55.8865 19.3066C55.5089 17.8651 55.0485 16.4512 54.5142 15.0856C53.9823 13.7154 53.5285 12.2647 53.1393 10.7402C52.7617 9.21809 52.5729 7.46564 52.5729 5.48523C51.3547 3.50943 49.6023 2.17383 47.3202 1.4876C45.0335 0.799061 42.5949 0.455949 40.002 0.455949C37.7222 0.455949 35.4309 0.571113 33.1419 0.796786C30.8575 1.03397 28.5754 1.14219 26.2888 1.14219C24.7643 1.14219 23.2398 0.911903 21.7222 0.455949C20.6491 0.154283 19.5807 0 18.5168 0C17.4506 0 16.3039 0 15.0857 0H8.68623H6.17612C5.40929 0.610241 4.57799 0.992456 3.65687 1.14444C2.74496 1.29873 2.21076 1.98497 2.06569 3.20085C1.75251 3.50942 1.33792 4.3845 0.803674 5.83296C0.264819 7.27911 0 8.16106 0 8.46043C0 9.68091 0.423795 10.8255 1.26201 11.8824C2.10253 12.9532 2.51925 14.2497 2.51925 15.7695C2.51925 16.389 2.43867 16.9164 2.28438 17.3723C2.89693 17.8329 3.32058 18.5168 3.54626 19.4333C3.77423 20.3475 3.96306 21.2571 4.12196 22.1759C4.27164 23.0901 4.46049 23.9675 4.69077 24.8011C4.91875 25.6439 5.40929 26.2887 6.17612 26.7446C6.02183 27.2075 5.94814 27.8154 5.94814 28.5731C5.94814 30.1021 6.28892 31.3157 6.97515 32.2345C7.66369 33.1487 8.23249 34.1389 8.68384 35.2005C8.68384 37.3352 8.95327 39.3133 9.48751 41.1441C10.0218 42.9748 10.6343 44.7663 11.3113 46.5164C12.0045 48.2689 12.6101 49.9845 13.1444 51.6563C13.6763 53.3328 13.9481 55.0875 13.9481 56.9159C14.7057 57.5262 15.2053 58.3252 15.431 59.3177C15.6636 60.3056 15.7742 61.3349 15.7742 62.4011V63.0851C15.7742 63.8519 16.0782 64.4552 16.693 64.9135C17.2987 65.3672 17.6786 66.058 17.8283 66.9676C17.6786 67.4305 17.6025 68.1098 17.6025 69.0286C17.6025 71.3152 18.3625 73.2174 19.8847 74.7372C20.6469 76.2663 21.0338 78.021 21.0338 79.9991C21.0338 81.9818 21.4045 83.5823 22.1691 84.7958C22.4776 85.7078 22.7033 86.7072 22.8576 87.771C23.0096 88.8326 23.2375 89.9034 23.5438 90.9673C24.1494 91.2713 24.61 91.923 24.9163 92.9132C25.2249 93.9057 25.4505 94.9351 25.6025 96.0012C25.7475 97.0628 25.8627 98.0945 25.9433 99.087C26.017 100.075 26.1344 100.798 26.2864 101.254C27.5069 102.631 28.1909 104.34 28.3452 106.398C28.4903 108.455 28.9531 110.318 29.7177 111.999C29.8627 113.06 30.1782 113.977 30.6318 114.741C31.0901 115.506 31.4609 116.34 31.7694 117.249C32.2254 118.32 32.4625 119.54 32.4625 120.911C32.4625 122.278 32.6077 123.577 32.914 124.791C34.4384 126.472 35.3526 128.415 35.6565 130.619C35.9559 132.83 36.4164 135.006 37.0313 137.136C37.9409 138.046 38.4038 139.31 38.4038 140.91C38.4038 142.506 38.6318 143.842 39.0901 144.908C39.3894 145.67 39.767 146.239 40.2253 146.619C40.6882 147.001 41.0566 147.418 41.3721 147.879V148.793C41.3721 150.773 41.752 152.678 42.5119 154.508C42.3577 154.962 42.2862 155.57 42.2862 156.335C42.2862 157.857 42.7422 159.04 43.6564 159.876C44.5684 160.712 45.0289 161.898 45.0289 163.413C45.3375 165.398 46.5925 167.116 48.7963 168.562C51.0093 170.004 52.8031 170.729 54.1756 170.729C55.0806 170.729 56.0363 170.692 57.0288 170.619C58.0213 170.54 58.9701 170.508 59.882 170.508C60.6465 170.508 61.4065 170.543 62.1664 170.619C62.9309 170.692 63.6931 170.729 64.4577 170.729C65.9752 170.729 67.0483 170.651 67.6562 170.506C68.2618 170.651 68.9895 170.729 69.8208 170.729C70.659 170.729 71.465 170.729 72.2226 170.729C73.1391 170.729 74.0166 170.729 74.8502 170.729C75.6907 170.729 76.492 170.651 77.2588 170.506C79.6906 170.045 81.8183 169.82 83.6583 169.82C85.4844 169.82 87.0803 169.778 88.4528 169.705C89.8275 169.619 90.9628 169.325 91.8839 168.786C92.7958 168.258 93.4797 167.303 93.9357 165.93C94.2443 164.56 94.8108 163.303 95.649 162.158C96.4895 161.016 96.98 159.609 97.1366 157.93C97.1366 156.717 97.3645 155.8 97.8228 155.188C98.2833 154.582 98.585 153.668 98.7347 152.445V151.305C98.7347 149.481 99.1954 147.959 100.11 146.736C101.021 145.511 101.482 143.994 101.482 142.161V140.332C101.482 138.661 101.899 137.325 102.735 136.337C103.566 135.344 103.999 134.013 103.999 132.337V130.967C104.45 129.746 104.987 128.148 105.59 126.168C106.203 124.19 106.656 123.193 106.96 123.193C106.96 122.734 106.96 122.278 106.96 121.823C106.96 121.369 106.891 121.065 106.732 120.911C106.583 120.911 106.808 120.19 107.423 118.737C108.026 117.291 108.335 115.96 108.335 114.741C108.335 114.283 108.261 113.825 108.109 113.367C107.955 112.908 107.882 112.535 107.882 112.22C107.882 112.075 108.259 111.499 109.026 110.511C109.779 109.516 110.392 108.72 110.852 108.109C110.852 108.015 110.852 107.709 110.852 107.195C110.852 106.433 110.7 105.977 110.391 105.825V105.367C110.391 104.915 110.166 104.683 109.708 104.683C109.399 104.683 109.1 104.72 108.796 104.793C108.487 104.872 108.181 104.915 107.884 104.915C107.577 104.915 107.188 104.609 106.735 103.997C106.288 103.386 105.97 102.928 105.825 102.629C105.97 102.474 106.053 102.281 106.053 102.053C106.053 101.83 106.203 101.712 106.509 101.712C107.884 101.712 108.752 101.942 109.139 102.398C109.519 102.852 109.86 103.082 110.168 103.082C111.08 103.082 111.686 102.631 111.992 101.712C112.301 100.798 112.568 99.7663 112.796 98.6264C113.021 97.4842 113.401 96.4181 113.942 95.4255C114.474 94.4399 115.34 93.938 116.57 93.938C117.942 93.938 118.737 94.5137 118.972 95.6558C119.195 96.8003 119.614 97.6777 120.227 98.2833C120.832 98.7416 121.247 99.391 121.484 100.229C121.717 101.067 121.825 101.942 121.825 102.852C121.825 103.771 121.862 104.611 121.933 105.369C122.014 106.136 122.359 106.741 122.972 107.197C123.269 109.79 123.957 111.999 125.028 113.825C125.028 115.347 125.256 117.33 125.71 119.773C126.168 122.207 126.935 123.962 127.999 125.026C127.685 125.482 127.54 126.173 127.54 127.082C127.54 128.3 127.881 129.337 128.57 130.166C129.254 131.008 129.671 131.966 129.825 133.03C129.825 134.707 130.124 135.996 130.741 136.91C131.349 137.827 131.656 138.971 131.656 140.337C131.656 140.952 131.573 141.484 131.421 141.94C131.57 142.852 131.877 143.846 132.33 144.913C132.793 145.981 133.251 146.893 133.705 147.651C134.32 148.876 134.624 150.163 134.624 151.54C134.624 152.908 135.004 153.974 135.771 154.736C136.072 155.805 136.298 156.793 136.45 157.709C136.602 158.619 136.678 159.694 136.678 160.91V162.508C138.2 165.251 140.07 167.307 142.281 168.677C144.487 170.05 147.573 170.734 151.538 170.734C152.754 170.734 154.011 170.587 155.312 170.28C156.604 169.972 157.94 169.824 159.312 169.824C160.376 169.824 161.396 169.859 162.398 169.935C163.384 170.008 164.41 170.05 165.479 170.05C166.543 170.05 168.104 170.05 170.17 170.05C172.219 170.05 174.28 170.008 176.337 169.935C178.398 169.856 180.222 169.783 181.82 169.709C183.425 169.624 184.293 169.442 184.447 169.14C184.753 167.92 185.486 167.079 186.621 166.623C187.768 166.165 188.643 165.403 189.251 164.337C189.251 164.035 189.214 163.687 189.14 163.305C189.06 162.93 189.023 162.584 189.023 162.276C189.023 161.518 189.324 160.79 189.935 160.109C190.543 159.42 190.849 158.474 190.849 157.251C190.849 156.947 190.81 156.678 190.738 156.452C190.658 156.222 190.621 155.959 190.621 155.648C190.621 153.672 191.153 152.374 192.217 151.763C192.822 150.849 193.168 149.746 193.246 148.447C193.32 147.158 193.587 145.977 194.05 144.908C194.356 143.531 194.847 142.317 195.54 141.251C196.219 140.187 196.558 138.886 196.558 137.362C196.558 137.062 196.521 136.788 196.443 136.567C196.369 136.337 196.332 136.07 196.332 135.768C196.332 133.783 196.829 132.072 197.813 130.619C198.81 129.178 199.457 127.616 199.763 125.931C199.763 124.107 200.254 122.202 201.246 120.222C202.239 118.246 202.879 116.183 203.197 114.053C203.342 112.832 203.457 111.617 203.533 110.396C203.553 110.074 203.604 109.763 203.671 109.461C204.24 109.44 204.797 109.415 205.338 109.383C206.559 109.305 207.929 109.192 209.456 109.042C210.064 109.648 210.975 109.952 212.196 109.952C212.958 109.952 213.608 109.843 214.139 109.611C214.674 109.385 215.242 109.27 215.85 109.27C216.159 109.27 216.498 109.348 216.88 109.505C217.257 109.65 217.683 109.728 218.135 109.728C219.201 109.728 219.966 109.505 220.424 109.047C221.647 109.047 222.823 109.162 223.965 109.387C225.108 109.613 226.215 109.728 227.277 109.728C228.348 109.728 229.336 109.505 230.252 109.047C230.86 109.199 231.473 109.272 232.076 109.272C232.691 109.272 233.372 109.272 234.139 109.272C235.816 109.272 237.488 109.083 239.164 108.699C240.845 108.319 242.365 108.128 243.735 108.128C244.497 108.128 245.259 108.287 246.019 108.581C246.786 108.892 247.544 109.044 248.308 109.044C249.068 109.044 249.759 108.892 250.362 108.581C250.429 108.549 250.498 108.517 250.563 108.485L248.932 114.534C249.494 114.281 250.054 114.011 250.616 113.712C251.908 113.024 253.015 112.082 253.927 110.859C254.685 110.555 255.415 110.322 256.103 110.17C256.787 110.018 257.278 109.565 257.591 108.802C257.552 108.708 257.529 108.621 257.497 108.526C258.438 108.462 259.41 108.337 260.417 108.13C260.73 108.441 261.414 108.584 262.475 108.584C263.696 108.584 264.458 108.512 264.764 108.358C265.529 108.512 266.362 108.584 267.279 108.584C267.408 108.584 267.537 108.584 267.666 108.584C267.521 108.812 267.366 109.037 267.191 109.261C265.964 109.869 264.555 110.212 262.956 110.285C261.358 110.366 259.79 110.555 258.273 110.861C257.812 111.773 257.593 112.763 257.593 113.832C257.738 114.442 258.346 114.748 259.419 114.748H260.792C261.397 114.748 261.858 114.822 262.155 114.972C262.464 115.133 262.922 115.202 263.53 115.202C263.834 115.202 264.251 115.17 264.785 115.091C265.315 115.013 265.74 114.972 266.047 114.972C266.652 114.972 267.256 115.05 267.873 115.202C268.479 115.354 268.789 115.812 268.789 116.574C268.789 116.883 268.711 117.072 268.557 117.148C268.405 117.226 268.329 117.413 268.329 117.717V117.947C267.562 118.714 266.54 119.172 265.248 119.317C263.951 119.476 262.65 119.662 261.358 119.893C260.06 120.116 258.922 120.54 257.932 121.145C256.939 121.763 256.366 122.976 256.216 124.802C256.829 125.569 257.552 126.062 258.39 126.29C259.221 126.52 259.79 127.013 260.103 127.775C260.103 128.39 260.446 128.922 261.133 129.373C261.812 129.832 262.535 130.06 263.3 130.06C264.366 130.06 265.206 129.643 265.817 128.805C266.422 127.964 267.191 127.547 268.101 127.547C268.709 127.547 269.16 127.626 269.473 127.773C268.557 128.993 267.682 130.248 266.839 131.547C266.001 132.841 264.518 133.486 262.388 133.486C262.079 133.486 261.393 133.408 260.327 133.256C259.261 133.113 258.731 132.881 258.731 132.572C258.731 130.896 258.305 129.716 257.474 129.026C256.635 128.346 255.68 127.393 254.613 126.175C254.459 126.322 254.236 126.4 253.927 126.4C253.621 126.4 253.312 126.285 253.015 126.06C252.709 125.829 252.327 125.719 251.871 125.719C251.562 125.567 251.033 125.449 250.273 125.371C249.506 125.302 248.702 125.219 247.871 125.141C247.217 125.083 246.639 125.03 246.125 124.968L234.883 166.713C235.657 167.475 236.481 168.134 237.359 168.682C239.565 170.055 242.65 170.738 246.616 170.738C247.832 170.738 249.089 170.591 250.39 170.285C251.684 169.976 253.018 169.829 254.39 169.829C255.454 169.829 256.474 169.863 257.476 169.939C258.461 170.013 259.491 170.055 260.557 170.055C261.623 170.055 263.184 170.055 265.248 170.055C267.302 170.055 269.358 170.013 271.415 169.939C273.476 169.861 275.302 169.787 276.898 169.714C278.503 169.629 279.371 169.447 279.525 169.145C279.831 167.924 280.564 167.084 281.703 166.628C282.846 166.17 283.721 165.408 284.329 164.341C284.329 164.04 284.292 163.692 284.218 163.31C284.138 162.934 284.101 162.589 284.101 162.28C284.101 161.523 284.402 160.795 285.013 160.113C285.621 159.425 285.927 158.478 285.927 157.256C285.927 156.952 285.89 156.682 285.816 156.457C285.736 156.226 285.699 155.964 285.699 155.653C285.699 153.677 286.231 152.378 287.295 151.768C287.905 150.854 288.246 149.751 288.326 148.452C288.398 147.162 288.667 145.981 289.13 144.913C289.436 143.536 289.927 142.322 290.618 141.256C291.297 140.192 291.638 138.891 291.638 137.366C291.638 137.067 291.599 136.793 291.52 136.572C291.449 136.342 291.41 136.074 291.41 135.773C291.41 133.788 291.907 132.077 292.891 130.624C293.888 129.182 294.537 127.621 294.841 125.935C294.841 124.111 295.331 122.207 296.324 120.227C297.316 118.251 297.959 116.188 298.274 114.057C298.419 112.837 298.537 111.621 298.611 110.401C298.691 109.18 299.108 108.114 299.875 107.2C300.635 106.898 301.012 106.06 301.012 104.687C301.012 104.383 300.976 104.158 300.902 104.001C300.824 103.854 300.784 103.621 300.784 103.313C300.784 102.099 301.128 101.222 301.814 100.69C302.5 100.153 302.836 99.2021 302.836 97.8297V95.0825C302.836 93.8735 302.988 93.0329 303.301 92.5747C304.819 91.6651 305.544 90.2535 305.468 88.3467C305.388 86.4423 305.657 84.6553 306.265 82.9743C306.878 82.3733 307.299 81.6433 307.527 80.8051C307.755 79.9738 307.868 79.0872 307.868 78.1753C307.868 77.2657 307.942 76.3883 308.096 75.5432C308.243 74.7119 308.556 73.9842 309.008 73.3763C309.613 72.9203 309.92 72.2364 309.92 71.3199V69.2589C309.92 68.1927 310.069 67.3936 310.378 66.8594C310.687 66.332 310.984 65.8346 311.29 65.3718C311.596 64.9181 311.902 64.4276 312.209 63.8864C312.508 63.3568 312.662 62.4841 312.662 61.2636C312.662 59.1243 312.929 57.7219 313.464 57.0357C313.996 56.3471 314.491 55.1681 314.951 53.4917C315.405 51.5112 315.822 49.57 316.211 47.6609C316.589 45.7565 317.079 43.7416 317.692 41.6046C317.846 40.9989 318.035 40.1999 318.258 39.2028C318.495 38.2149 318.792 37.1855 319.179 36.117C319.559 35.06 319.937 34.0606 320.319 33.151C320.699 32.2368 321.123 31.6266 321.581 31.318C321.275 30.8621 321.123 30.1736 321.123 29.2639C321.123 28.5063 321.238 27.7395 321.464 26.9772C321.692 26.2196 321.88 25.4528 322.032 24.6905C322.951 24.3866 323.52 23.7763 323.748 22.8621C323.974 21.9502 324.089 20.9992 324.089 20.0043C324.089 19.0211 324.128 18.0263 324.206 17.0384C324.28 16.0505 324.623 15.3205 325.236 14.8622C325.993 14.1046 326.445 12.8841 326.606 11.21C326.753 9.53123 326.834 8.08282 326.834 6.86924C326.829 5.47145 326.38 4.40754 325.459 3.64071ZM28.1103 52.6695C28.1103 52.8998 27.9537 53.015 27.6566 53.015H26.2841H25.8259C25.5174 52.863 25.2203 52.7478 24.914 52.6695C24.6078 52.5981 24.4603 52.3287 24.4603 51.8681C24.4603 51.4145 24.6883 51.1474 25.1396 51.0737C25.6002 50.9908 25.9801 50.9539 26.2864 50.9539C26.74 50.9539 27.1615 50.9539 27.5438 50.9539C27.9237 50.9539 28.1126 51.1819 28.1126 51.6379C28.4188 51.6379 28.5708 51.8682 28.5708 52.3264C28.2622 52.3264 28.1103 52.4346 28.1103 52.6695ZM31.5391 68.0937C31.2328 68.0937 31.0878 67.8703 31.0878 67.4143C31.0878 67.1104 31.2328 66.8778 31.5391 66.7258C31.8453 66.7258 32.1448 66.7258 32.458 66.7258C32.7551 66.7258 32.9829 66.9538 33.1349 67.4143C32.9829 67.8726 32.4602 68.0937 31.5391 68.0937ZM172.903 77.5835C173.896 77.1989 174.997 77.0055 176.215 77.0055C176.975 77.0055 177.741 77.1206 178.501 77.3509C179.268 77.5835 180.106 77.694 181.018 77.694C181.018 78.0026 181.129 78.2282 181.361 78.3802C181.587 78.5322 181.702 78.7625 181.702 79.0596C181.702 79.679 181.433 80.1304 180.899 80.4366C180.36 80.7452 179.872 80.8926 179.418 80.8926C179.102 80.8926 178.801 80.8189 178.499 80.6646C178.193 80.5126 177.884 80.4343 177.587 80.4343H177.129C176.675 80.4343 175.563 80.1304 173.813 79.5224C172.063 78.9076 170.798 78.4563 170.048 78.1454C170.96 78.1523 171.906 77.9657 172.903 77.5835ZM175.989 95.9828H176.901C177.364 95.9828 177.589 96.2062 177.589 96.6668C177.435 96.9707 177.092 97.0859 176.56 97.0053C176.028 96.9339 175.531 96.9707 175.075 97.125C175.075 96.8211 175.148 96.6299 175.307 96.5516C175.452 96.4779 175.531 96.2845 175.531 95.9828H175.989ZM177.016 88.8971C176.719 88.3122 176.36 87.7273 175.931 87.1378C176.215 87.4141 176.572 87.5869 177.016 87.6375C177.705 87.7112 178.391 87.7895 179.079 87.8632C179.763 87.9438 180.33 88.0589 180.783 88.2109C181.244 88.3583 181.477 88.8165 181.477 89.5787V90.2673C181.018 90.5759 180.558 90.8016 180.106 90.9512C179.646 91.1078 179.031 91.1815 178.273 91.1815C177.822 90.4193 177.389 89.6571 177.016 88.8971ZM168.443 84.0958C169.661 84.0958 170.347 84.4757 170.504 85.238C170.195 85.3922 169.854 85.5466 169.474 85.6917C169.094 85.8505 168.599 85.9265 167.991 85.9265C167.991 85.6225 167.757 85.4682 167.305 85.4682C167.146 85.6202 166.999 85.6917 166.845 85.6917C166.999 85.6917 166.845 85.4683 166.396 85.0123C166.536 84.4067 167.22 84.0958 168.443 84.0958ZM163.872 90.4975C164.18 90.4975 164.489 90.5344 164.784 90.6081C165.092 90.6864 165.396 90.7233 165.705 90.7233C166.004 90.7233 166.193 90.6864 166.271 90.6081C166.345 90.5344 166.462 90.4975 166.612 90.4975C166.921 90.8015 167.526 90.9512 168.438 90.9512C169.205 90.9512 169.811 90.8775 170.271 90.7255C170.729 90.5781 171.264 90.4975 171.867 90.4975H173.242C173.541 90.8015 173.7 91.2552 173.7 91.8654C173.387 92.3214 173.014 92.7842 172.555 93.2379C171.789 94.0024 170.957 94.3824 170.043 94.3824H168.671C168.058 94.3824 167.669 94.4606 167.526 94.608C167.526 94.7669 166.877 94.4975 165.585 93.809C164.284 93.1228 163.252 92.3997 162.504 91.642C162.508 90.8752 162.962 90.4975 163.872 90.4975ZM156.558 86.8338C157.166 86.5322 157.698 86.1499 158.156 85.6893C158.31 85.8482 158.538 85.9242 158.842 85.9242C159.149 85.9242 159.413 85.8873 159.648 85.8137C159.874 85.7308 160.139 85.6917 160.443 85.6917C161.051 85.6917 161.364 85.9265 161.364 86.3825V86.6128C161.048 87.5224 160.406 88.174 159.413 88.554C158.421 88.9362 157.544 89.1274 156.784 89.1274C156.024 89.1274 155.637 88.8994 155.637 88.4366C155.639 87.6743 155.95 87.1424 156.558 86.8338ZM151.305 83.4118C151.605 83.4118 151.766 83.5639 151.766 83.8655C151.766 84.0221 151.72 84.0958 151.646 84.0958C151.566 84.0958 151.531 84.1741 151.531 84.3261C151.077 84.3261 150.764 84.2477 150.619 84.0958C150.619 83.6352 150.845 83.4118 151.305 83.4118ZM149.71 61.9268C150.007 61.9268 150.239 62.0811 150.384 62.3851C150.384 62.8433 150.08 63.069 149.475 63.069C149.166 63.069 149.014 62.8433 149.014 62.3851C149.014 62.0811 149.249 61.9268 149.71 61.9268ZM141.935 77.0055C143.153 75.7919 145.058 75.1816 147.648 75.1816C148.408 75.1816 149.014 75.4856 149.475 76.0958C149.475 77.3186 149.058 78.1523 148.217 78.6082C147.379 79.0619 146.384 79.3728 145.247 79.5271C144.1 79.679 142.919 79.8264 141.7 79.9807C140.482 80.1327 139.497 80.5149 138.73 81.1206C136.904 82.4907 134.315 83.1815 130.958 83.1815C128.98 83.1815 127.299 82.9513 125.935 82.493C125.935 81.5835 126.652 81.1229 128.102 81.1229C129.549 81.1229 130.801 81.1229 131.874 81.1229C132.326 80.3653 132.862 79.6836 133.475 79.0642C134.08 78.4631 134.769 78.1523 135.533 78.1523C135.985 78.1523 136.485 78.2628 137.021 78.4931C137.546 78.7234 137.961 78.8385 138.276 78.8385C139.497 78.8385 140.71 78.2306 141.935 77.0055ZM146.73 87.9806C146.278 88.8971 145.431 89.3508 144.217 89.3508C142.992 89.3508 141.889 89.2725 140.906 89.1251C139.913 88.9754 139.418 88.5149 139.418 87.755C139.879 87.1424 140.413 86.6127 141.016 86.1522H141.935H144.217C145.286 86.1522 146.043 86.3088 146.502 86.6128C146.651 86.9121 146.73 87.375 146.73 87.9806ZM135.073 63.2946H135.533H137.129C137.59 63.2946 137.887 63.3729 138.041 63.5249C137.742 63.8335 137.203 63.9809 136.445 63.9809C135.688 63.9832 135.229 63.7529 135.073 63.2946ZM138.73 71.0666H138.962V71.5225C138.962 71.9808 138.769 72.2479 138.396 72.3216C138.009 72.4022 137.746 72.591 137.592 72.895C137.44 72.895 137.284 72.9733 137.132 73.123C136.828 73.123 136.602 73.0101 136.448 72.7753C136.296 72.5542 136.07 72.4344 135.768 72.4344H135.533C135.533 72.2916 135.49 72.096 135.416 71.8657C135.335 71.6354 135.299 71.4488 135.299 71.2969C135.299 71.1449 135.379 71.0666 135.533 71.0666H135.985C136.293 70.7626 136.6 70.6497 136.901 70.7257C137.203 70.804 137.507 70.7626 137.815 70.6106C137.815 70.9146 137.885 71.0666 138.041 71.0666H138.73ZM120.906 28.7849C121.054 28.7849 121.134 28.9369 121.134 29.2432C120.528 29.2432 120.222 29.1695 120.222 29.0106C120.222 28.8678 120.448 28.7849 120.906 28.7849ZM116.791 44.6696C117.399 44.4416 118.009 44.1791 118.624 43.8682H119.31C119.764 43.8682 120.259 43.8314 120.793 43.7531C121.323 43.684 121.894 43.6426 122.507 43.6426C123.718 43.6426 124.568 44.0271 125.026 44.7848V45.2407C125.026 45.851 124.107 46.3069 122.283 46.6086C120.45 46.9217 118.999 47.0714 117.94 47.0714C117.176 47.0714 116.489 46.8458 115.884 46.3829C115.881 45.4687 116.178 44.8999 116.791 44.6696ZM116.33 55.4098C118.318 55.6378 119.612 56.3609 120.222 57.5814C120.528 57.5814 120.943 57.6183 121.479 57.7012C122.009 57.7749 122.426 57.8094 122.732 57.8094C124.411 57.8094 125.251 56.8192 125.251 54.8388C125.251 54.0742 124.908 53.6966 124.222 53.6966C123.538 53.6966 123.197 53.3926 123.197 52.7824C123.197 52.4784 123.386 52.3633 123.766 52.4346C124.144 52.5198 124.487 52.5567 124.793 52.5567C125.705 52.5567 126.58 52.635 127.421 52.7824C128.261 52.9297 129.136 53.0127 130.048 53.0127C130.806 53.0127 131.536 53.0495 132.222 53.1232C132.908 53.2015 133.629 53.2383 134.398 53.2383C135.156 53.2383 135.796 53.0909 136.339 52.7824C136.867 52.4784 137.286 52.3264 137.594 52.3264C137.442 52.3264 137.594 52.5567 138.046 53.0127C137.594 54.3805 136.563 55.0345 134.965 54.9539C133.362 54.8756 132.026 55.221 130.96 55.9786C129.742 56.8952 128.298 57.738 126.624 58.4956C124.945 59.2625 123.338 59.6424 121.823 59.6424C120.298 59.6424 118.806 59.5203 117.362 59.3016C115.914 59.069 114.815 58.5762 114.048 57.8116H113.136H110.617C109.249 57.8116 108.559 57.4364 108.559 56.6695C108.559 56.3656 108.713 56.1422 109.026 55.9833C109.325 55.8382 109.634 55.6816 109.933 55.525C110.24 55.525 110.465 55.4559 110.617 55.3016C110.771 55.1496 111.006 55.0714 111.308 55.0714C112.676 55.0691 114.355 55.1796 116.33 55.4098ZM109.708 26.0423C110.014 26.0423 110.237 26.2703 110.391 26.7262C110.391 26.8828 110.465 27.0371 110.617 27.1891C110.617 27.3411 110.467 27.4171 110.168 27.4171H109.482H109.028C108.869 27.1131 108.796 26.6526 108.796 26.0446C109.1 26.0423 109.399 26.0423 109.708 26.0423ZM107.992 40.1009C108.07 40.0226 108.109 39.8361 108.109 39.5229H108.559H109.708C110.318 39.5229 110.617 39.7555 110.617 40.2114C110.617 40.3634 110.583 40.4831 110.509 40.5522C110.428 40.6328 110.391 40.7433 110.391 40.8976C110.085 41.0496 109.825 41.2016 109.597 41.3536C109.362 41.5056 109.026 41.5816 108.559 41.5816H108.109V41.1233C108.109 40.976 108.07 40.9345 107.992 41.0082C107.911 41.0911 107.882 40.9737 107.882 40.6674C107.882 40.3634 107.909 40.1792 107.992 40.1009ZM104.909 47.5274C105.21 47.3754 105.519 47.152 105.823 46.8434C106.58 46.8434 107.186 46.8803 107.654 46.9517C108.107 47.0323 108.485 47.3731 108.793 47.9834C108.793 48.8976 108.107 49.5078 106.73 49.8117C106.283 49.6598 105.784 49.4709 105.249 49.2384C104.713 49.0104 104.446 48.6696 104.446 48.209C104.448 47.9097 104.605 47.6794 104.909 47.5274ZM105.134 63.8658C105.588 63.7921 106.048 63.7506 106.507 63.7506H107.882C108.639 63.7506 109.364 63.6032 110.048 63.2946C110.732 62.9907 111.455 62.841 112.222 62.841C112.98 62.841 113.737 63.3338 114.504 64.3286C115.264 65.3165 116.25 65.8116 117.477 65.8116C117.784 65.8116 118.389 65.6642 119.308 65.351C120.059 65.0448 120.904 64.8605 121.82 64.7822C122.732 64.7085 123.499 64.6717 124.102 64.6717C126.235 64.6717 128.181 64.8237 129.935 65.1254C131.679 65.434 132.563 66.6521 132.563 68.7822C132.257 69.2381 131.842 69.4385 131.306 69.3602C130.769 69.275 130.352 69.3164 130.044 69.4684C129.592 69.0125 129.095 68.6648 128.563 68.4391C128.022 68.2111 127.533 67.9463 127.075 67.6354C122.2 67.7897 117.477 68.6371 112.906 70.1524C111.99 69.5467 111.338 68.7431 110.965 67.7529C110.58 66.7673 109.777 66.2676 108.556 66.2676C108.257 66.2676 107.909 66.3459 107.536 66.4956C107.147 66.6498 106.808 66.7258 106.507 66.7258C105.894 66.7258 105.517 66.6521 105.362 66.4956C105.21 66.3459 105.134 66.1915 105.134 66.0418C104.985 66.0418 104.83 66.1156 104.676 66.2676V66.0418C104.676 65.7333 104.632 65.4685 104.568 65.2382C104.487 65.0079 104.448 64.7477 104.448 64.4368C104.448 64.1352 104.676 63.9464 105.134 63.8658ZM112.448 81.8045C112.756 81.8045 113.056 81.8874 113.36 82.0348C113.666 82.1868 113.965 82.2651 114.272 82.2651H114.732C114.732 82.5714 114.583 82.8016 114.272 82.949C113.965 83.1056 113.666 83.329 113.36 83.6329H112.674H111.534C110.769 83.6329 110.389 83.2576 110.389 82.4907C110.698 82.4907 111.004 82.4171 111.303 82.2651C111.916 81.9657 112.298 81.8045 112.448 81.8045ZM109.708 78.3826V79.0619C109.708 79.5271 109.48 79.7481 109.026 79.7481C108.411 79.7481 107.842 79.6376 107.306 79.4073C106.772 79.1793 106.507 78.8385 106.507 78.3826C106.507 78.2306 106.654 78.0026 106.958 77.6963C107.267 78.0049 107.725 78.0786 108.333 77.9266C108.948 77.7723 109.399 77.9266 109.708 78.3826ZM101.134 84.5495C101.208 84.5495 101.254 84.6323 101.254 84.7797C101.254 86.0025 100.639 86.7232 99.4232 86.9535C98.2051 87.1792 97.4452 87.2944 97.1366 87.2944C95.9115 87.2944 94.4308 87.1424 92.6761 86.8338C90.9259 86.5322 90.0486 85.9242 90.0486 85.01C92.6392 84.2455 95.223 83.8632 97.8205 83.8632C99.1953 83.8632 100.252 83.9415 101.019 84.0935V84.3237C101.019 84.4757 101.056 84.5495 101.134 84.5495ZM96.9109 93.0099C96.1418 93.155 95.5753 93.3508 95.1884 93.5833C94.8085 93.809 94.318 93.9195 93.7055 93.9195C93.3992 93.9195 92.9018 93.809 92.2248 93.5833C91.5316 93.3531 91.1954 93.0859 91.1954 92.7842C91.1954 92.174 91.4234 91.8309 91.8817 91.7549C92.333 91.6812 92.7129 91.6444 93.0191 91.6444C94.8522 91.6421 96.1418 92.0957 96.9109 93.0099ZM92.1096 54.1548H93.0215C93.4798 54.1548 93.7884 54.0765 93.9334 53.9246V54.6131C94.0831 54.4588 94.242 54.3805 94.394 54.3805C94.5391 54.3805 94.6196 54.5371 94.6196 54.8388C94.6196 55.1473 94.6196 55.3753 94.6196 55.5204C94.014 55.3753 93.3646 55.3338 92.6761 55.4098C91.9921 55.4927 91.4947 55.2993 91.1954 54.8388C91.1977 54.3805 91.4948 54.1548 92.1096 54.1548ZM91.6491 63.5249H91.8839C92.6415 63.5249 93.367 63.2232 94.0532 62.6061C94.7348 62.005 95.4579 61.6965 96.2247 61.6965C97.284 61.6965 98.2834 62.005 99.1953 62.6061C98.5827 63.5249 97.5166 64.1766 95.9899 64.5497C94.4631 64.9342 93.3186 65.1254 92.5702 65.1254C91.9485 65.1254 91.4947 64.978 91.1954 64.6717C91.1977 63.9072 91.3428 63.5249 91.6491 63.5249ZM79.5386 75.9831C80.4459 75.6031 81.5536 75.2623 82.8524 74.9514C84.1442 74.6474 85.3993 74.3043 86.6174 73.922C87.8379 73.5421 88.7522 73.1229 89.3624 72.6716C89.9773 72.3607 90.4286 72.2134 90.7372 72.2134C91.801 72.2134 92.333 72.6716 92.333 73.5812C92.333 74.0418 92.2523 74.4194 92.1073 74.7211C91.7987 75.032 91.5316 75.4511 91.3082 75.9831C91.0756 76.5173 90.6543 76.7844 90.0463 76.7844H89.36C89.0561 76.7844 88.7913 76.865 88.5656 77.0078C88.3307 77.1597 88.0658 77.245 87.7596 77.245C87.4533 77.245 87.0734 77.162 86.6128 77.0078C86.1615 76.865 85.7746 76.7844 85.4776 76.7844C84.2571 76.7844 83.1126 77.123 82.0487 77.8115C80.9802 78.4954 80.0636 78.8408 79.3037 78.8408C78.9974 78.8408 78.735 78.6497 78.5093 78.2651C78.2744 77.8875 78.1662 77.6226 78.1662 77.4707C78.1685 76.8627 78.6221 76.3653 79.5386 75.9831ZM86.3941 100.547C86.3941 100.856 86.3158 101.086 86.1661 101.236C85.7102 101.848 85.1735 102.152 84.5633 102.152C83.8034 102.152 83.4258 101.922 83.4258 101.466C83.4258 101.01 83.6583 100.628 84.112 100.326C84.2617 100.473 84.4804 100.547 84.7959 100.547C84.9433 100.547 85.0953 100.515 85.2496 100.436C85.4016 100.363 85.6273 100.326 85.9382 100.326C86.2398 100.326 86.3941 100.404 86.3941 100.547ZM57.2499 51.2948C57.4848 51.3731 57.6666 51.2602 57.8278 50.9539H58.0558C58.3529 50.9539 58.5855 50.8803 58.7421 50.7237C58.8872 50.5763 59.1198 50.498 59.4261 50.498L59.654 50.9539C59.654 51.5642 59.3478 51.8681 58.7421 51.8681H57.3673H57.1324C56.9827 51.7162 56.9137 51.5642 56.9137 51.4145C56.916 51.2625 57.0265 51.2211 57.2499 51.2948ZM56.4577 76.5541V76.0982V75.8633H56.9159C57.6667 75.5616 58.4335 75.184 59.2003 74.7211C59.9603 74.2652 60.7916 73.8898 61.7104 73.5812C61.8647 73.5812 62.0097 73.6595 62.164 73.8115C61.2498 74.5783 60.5728 75.2991 60.1053 75.9831C59.6517 76.6647 58.8871 77.0078 57.8278 77.0078C57.213 77.0078 56.7547 76.9364 56.4554 76.7844V76.5541H56.4577ZM58.6246 84.2109C59.9165 84.5955 60.5728 85.3946 60.5728 86.6128C60.5728 87.2184 60.2574 87.5223 59.654 87.5223H58.2838H57.593C56.3771 86.9121 55.5435 86.493 55.076 86.2673C54.6246 86.0371 54.3161 85.8137 54.171 85.5811C54.0121 85.3531 53.9361 85.0906 53.9361 84.7797C53.9361 84.4757 53.8555 84.0221 53.7035 83.4118C53.7035 83.1079 53.8532 82.9513 54.1687 82.9513H55.0737H55.5412C56.2942 83.4119 57.3328 83.8287 58.6246 84.2109ZM53.4802 68.8927C53.6321 68.8213 53.7865 68.6371 53.9385 68.3239H54.3967H55.3086C55.6149 68.3239 55.7623 68.4022 55.7623 68.5542V68.7822C55.1567 69.397 54.468 69.6941 53.7035 69.6941C53.4018 69.6941 53.2499 69.6227 53.2499 69.4684C53.2522 69.1645 53.3236 68.9756 53.4802 68.8927ZM49.8279 71.2969C50.1296 71.2969 50.3184 71.1817 50.3967 70.9515C50.4704 70.7235 50.5856 70.6106 50.7422 70.6106V70.8363C50.7422 70.9929 50.7791 71.0666 50.8504 71.0666C50.931 71.0666 50.9678 71.1449 50.9678 71.2969C50.8135 71.4488 50.5856 71.5225 50.2816 71.5225C49.6668 71.5225 49.3697 71.3751 49.3697 71.0666C49.3697 71.2209 49.5171 71.2969 49.8279 71.2969ZM39.7647 52.4346C39.3134 52.2136 38.8529 52.0938 38.4015 52.0938C37.6347 52.0938 37.2915 51.9096 37.3721 51.5251C37.4458 51.1451 37.3283 50.9517 37.0313 50.9517C37.4826 50.346 38.1666 50.0375 39.0901 50.0375C39.8477 50.0375 40.6467 50.2286 41.4918 50.6108C42.3231 50.9908 43.0462 51.3339 43.6564 51.6356C43.4976 51.9488 43.1222 52.2136 42.5119 52.4346C41.9063 52.6672 41.3721 52.7824 40.9139 52.7824C40.6053 52.7824 40.223 52.6695 39.7647 52.4346ZM44.3404 84.7797C44.3404 85.3945 43.9604 85.8137 43.1936 86.0371C42.4291 86.2673 41.8212 86.3825 41.3698 86.3825C41.2201 86.2305 41.1348 86.0739 41.1348 85.9265C41.1348 85.3163 41.4067 84.8235 41.9386 84.4343C42.4729 84.0589 43.0417 83.8655 43.6542 83.8655C43.7993 83.8655 43.9167 83.907 43.9973 83.9807C44.0687 84.0589 44.1861 84.0958 44.3381 84.0958V84.7797H44.3404ZM45.478 69.0125C45.478 69.3164 45.3328 69.4684 45.0265 69.4684C44.7203 69.4684 44.4117 69.4684 44.1146 69.4684C43.8015 69.4684 43.6564 69.3164 43.6564 69.0125V68.7822C43.6564 68.3262 43.9627 68.0959 44.5683 68.0959C45.174 68.0959 45.4802 68.3262 45.4802 68.7822V69.0125H45.478ZM50.9678 107.863H50.5165C50.201 107.863 50.0559 107.941 50.0559 108.095C50.0559 108.247 49.9776 108.324 49.8279 108.324C49.0634 108.324 48.6858 108.017 48.6858 107.407C48.6858 107.108 48.7157 106.916 48.794 106.838C48.8746 106.765 48.9114 106.573 48.9114 106.265C49.2177 106.417 49.669 106.456 50.2839 106.38C50.8895 106.302 51.2027 106.495 51.2027 106.951C51.2004 107.405 51.1198 107.718 50.9678 107.863ZM52.3403 93.353C51.5758 92.2063 50.3576 91.642 48.6858 91.642C48.3772 91.642 48.1423 91.6789 47.9972 91.7526C47.8453 91.8309 47.6104 91.8631 47.3133 91.8631C47.6104 91.5592 47.7302 91.0641 47.6542 90.3755C47.5736 89.6985 47.843 89.3508 48.4578 89.3508H48.9091C49.2154 89.0468 49.5171 88.8971 49.8257 88.8971C49.8257 89.2011 50.0099 89.3163 50.3945 89.2357C50.7768 89.162 51.1175 89.2725 51.4238 89.5764H51.6517C51.4997 89.5764 51.5734 89.885 51.8797 90.4953C52.186 91.4072 53.1049 92.0934 54.6224 92.5494C56.1492 93.0076 56.9137 93.5396 56.9137 94.1475C56.9137 94.7624 56.6005 95.0571 55.9925 95.0571C54.3161 95.0594 53.1071 94.4952 52.3403 93.353ZM56.3402 114.725C55.502 114.873 54.6984 114.949 53.9385 114.949C53.1717 114.949 52.8009 114.573 52.8009 113.809C52.8009 113.507 53.2913 113.166 54.2838 112.782C55.2763 112.402 56.0685 112.206 56.6833 112.206L56.9182 112.436C57.3695 112.436 57.6344 112.551 57.7127 112.782C57.7864 113.005 57.9776 113.203 58.2862 113.353C57.8279 114.115 57.1785 114.571 56.3402 114.725ZM68.681 133.804C68.6004 133.887 68.5635 133.997 68.5635 134.145C67.6516 134.605 66.8111 134.831 66.0535 134.831C65.4363 134.831 65.0219 134.753 64.787 134.605C64.5682 134.453 64.453 133.995 64.453 133.228H64.6787H65.1392C65.4363 133.228 65.5883 133.085 65.5883 132.775L66.0511 133.007C66.3551 133.007 66.6567 132.963 66.963 132.887C67.2693 132.814 67.5779 132.777 67.8773 132.777C68.4875 132.777 68.7938 133.009 68.7938 133.461C68.7984 133.615 68.7546 133.73 68.681 133.804ZM70.6223 130.377C70.6223 130.914 70.1686 131.179 69.2498 131.179C68.0316 131.179 67.2717 130.642 66.9654 129.581C66.6591 128.514 65.9728 127.982 64.9043 127.982C64.1375 128.284 63.4628 128.63 62.8457 129.005C62.24 129.387 61.5538 129.581 60.7893 129.581C60.179 129.581 59.6494 129.277 59.1981 128.662V128.436C59.1981 128.137 59.1174 127.982 58.9631 127.982C58.8088 127.982 58.7375 127.904 58.7375 127.752C58.7375 127.448 59.0782 127.142 59.7668 126.838C60.4507 126.539 61.1715 126.382 61.9314 126.382C63.1496 126.382 64.1329 126.61 64.8997 127.066C65.5076 127.375 66.2008 127.448 66.9607 127.296C67.7184 127.144 68.3333 127.223 68.7938 127.527C70.164 127.679 70.9952 128.063 71.3038 128.662C70.857 129.274 70.6223 129.845 70.6223 130.377ZM77.3671 126.037C77.2864 126.721 76.8697 127.061 76.1121 127.061C75.1909 126.916 74.279 126.686 73.3671 126.377C72.4552 126.073 71.9946 125.316 71.9946 124.091C71.9946 123.787 72.1835 123.372 72.5634 122.84C72.9434 122.304 73.3671 122.032 73.8208 122.032C74.5853 122.032 75.2738 122.228 75.8841 122.608C76.4897 122.988 77.0217 123.402 77.4799 123.865C77.4822 124.627 77.4384 125.348 77.3671 126.037ZM79.8772 131.404C79.6515 131.713 79.382 131.87 79.0804 131.87C78.6221 131.404 78.3964 131.027 78.3964 130.718C78.3964 130.573 78.4702 130.419 78.6222 130.265C78.9307 129.961 79.1541 129.804 79.3083 129.804C79.6146 129.804 79.914 130.113 80.2202 130.716C80.2202 130.873 80.112 131.103 79.8772 131.404ZM81.3625 118.373C80.7523 119.289 79.8404 119.755 78.6222 119.755C78.0073 119.451 77.6734 118.992 77.5928 118.373C77.5214 117.767 77.3325 117.233 77.024 116.779C77.4822 116.475 77.8945 116.25 78.2813 116.093C78.6613 115.946 79.1564 115.713 79.7689 115.405C80.9871 115.405 81.8207 115.563 82.2882 115.867C82.2836 116.623 81.9727 117.463 81.3625 118.373ZM80.6786 111.064C79.6124 111.064 78.5392 111.331 77.4799 111.863C76.4068 112.402 75.4512 113.088 74.6291 113.924C73.7817 114.764 73.0977 115.605 72.5634 116.436C72.0315 117.277 71.7666 117.922 71.7666 118.375C71.7666 118.833 71.8403 119.147 71.9946 119.292C71.6883 119.6 71.571 120.019 71.6539 120.549C71.7253 121.086 71.4651 121.355 70.8571 121.355H69.024C67.799 121.355 66.6246 121.466 65.4847 121.696C64.3402 121.921 63.1566 122.032 61.9384 122.032C60.7202 122.032 59.5756 121.735 58.5071 121.12C58.6614 120.208 59.0852 119.524 59.7738 119.066C60.4577 118.605 61.0265 118 61.4778 117.233C61.3328 117.086 61.2499 116.858 61.2499 116.549C61.2499 115.177 61.8669 114.226 63.0828 113.691C64.301 113.164 65.7126 112.701 67.3085 112.323C68.9066 111.941 70.4311 111.485 71.8841 110.949C73.3303 110.421 74.1985 109.463 74.514 108.093C74.1985 107.787 73.8207 107.446 73.3671 107.062C72.9065 106.686 72.073 106.493 70.8571 106.493C69.632 106.949 68.3746 107.333 67.0827 107.64C65.7863 107.939 64.6004 108.475 63.5342 109.238C62.9286 109.542 62.3528 109.846 61.8278 110.147C61.2889 110.458 60.6441 110.606 59.8796 110.606C59.5733 110.606 59.1589 110.495 58.6246 110.262C58.0927 110.037 57.8278 109.39 57.8278 108.321C58.4335 107.863 59.1566 107.598 59.9925 107.52C60.8284 107.446 61.6643 107.333 62.5117 107.179C63.343 107.032 64.0685 106.762 64.6787 106.38C65.2867 105.995 65.5907 105.272 65.5907 104.208C65.5907 103.598 65.4387 103.29 65.1416 103.29H64.9043C64.1375 103.29 63.2739 103.181 62.2791 102.953C61.2843 102.721 60.2551 102.613 59.1981 102.613H55.3086C55.4606 101.848 55.7254 101.199 56.1123 100.669C56.483 100.132 56.9159 99.6374 57.3673 99.1814C57.5192 99.1814 57.6666 99.2597 57.8278 99.4117C58.2815 99.4117 58.6592 99.2966 58.9655 99.0709C59.274 98.8406 59.5734 98.7254 59.8774 98.7254C60.1813 98.7254 60.5267 98.8406 60.9044 99.0709C61.2843 99.2966 61.6275 99.4117 61.9338 99.4117C62.5463 99.4117 63.1151 99.2597 63.6494 98.9511C64.1813 98.6472 64.8306 98.4952 65.5883 98.4952C65.4363 98.3478 65.3603 98.1198 65.3603 97.809C65.3603 97.5096 65.434 97.2379 65.5883 97.0076C65.7449 96.7842 65.8255 96.4388 65.8255 95.9852V95.5292C66.8848 94.919 68.1075 94.7301 69.48 94.9512C70.8548 95.1838 71.6032 94.5344 71.7644 93.0122C70.9976 91.4878 69.8599 90.7255 68.3355 90.7255H66.5048C65.8969 90.7255 65.4017 90.6472 65.0194 90.4975C64.6418 90.3455 64.453 89.809 64.453 88.8994C64.7524 88.2891 65.1692 88.0243 65.708 88.098C66.24 88.1763 66.7374 88.0612 67.1887 87.7573C67.4973 88.0612 68.0292 88.1763 68.7961 88.098C69.5537 88.0243 70.0879 88.1395 70.3919 88.4342C71.1518 89.961 71.7206 90.7624 72.1075 90.8384C72.4851 90.9167 73.2106 90.9489 74.2745 90.9489C75.7989 90.9489 77.2818 90.8384 78.7349 90.6081C80.1787 90.3755 81.6665 90.1913 83.1863 90.0393C83.1863 90.645 83.4925 90.9903 84.1073 91.064C84.713 91.1423 85.0192 91.4832 85.0192 92.0934C85.1712 92.7037 85.0193 92.9339 84.561 92.7819C84.1097 92.6299 83.7205 92.7036 83.4234 93.0099C83.1148 93.0099 82.8524 92.9731 82.6175 92.8948C82.3918 92.8211 82.1224 92.7819 81.8138 92.7819C80.4414 92.7819 79.2255 93.0099 78.1662 93.4613C77.0931 93.9172 75.9509 94.1475 74.7373 94.1475C73.9682 94.1475 73.4431 94.0738 73.1369 93.9172C72.2204 94.2258 71.686 94.684 71.5387 95.2943C71.686 95.6028 71.8819 96.0933 72.1099 96.7819C72.3378 97.4635 72.4507 97.8803 72.4507 98.0323C72.4507 98.4905 72.1812 98.7991 71.6493 98.9465C71.1173 99.1031 70.6199 99.1768 70.1639 99.1768C69.8576 99.1768 69.4777 99.1422 69.0194 99.0663C68.5611 98.988 68.1813 98.9465 67.8773 98.9465C66.2031 98.9465 65.3603 99.7871 65.3603 101.464C65.3603 102.23 65.5076 102.907 65.8231 103.52C67.0413 103.216 68.027 102.951 68.7938 102.718C69.5514 102.488 70.537 102.378 71.7621 102.378C73.1346 102.378 74.5807 102.567 76.1074 102.951C77.625 103.324 78.7695 103.672 79.5341 103.976C79.3775 104.588 79.0758 105.157 78.6175 105.694C78.1662 106.223 77.9382 106.797 77.9382 107.402C77.9382 108.319 78.3918 108.779 79.3037 108.779C80.2156 108.779 81.0562 108.701 81.8138 108.549C82.5807 108.397 83.4211 108.319 84.3353 108.319H85.4798C85.1712 108.931 84.7913 109.463 84.3353 109.915C83.8771 110.378 83.4235 110.834 82.9583 111.292C82.3573 111.142 81.5905 111.064 80.6786 111.064ZM79.0804 97.8066C79.0804 98.2649 78.5416 98.4929 77.4823 98.4929H77.024V98.2649C77.024 98.1175 77.1414 97.9655 77.3671 97.8066C77.5927 97.6616 77.7079 97.4267 77.7079 97.125C78.1684 97.125 78.431 97.1665 78.5139 97.2356C78.5853 97.3139 78.7741 97.5073 79.0804 97.8066ZM87.1954 115.745C86.5115 115.674 86.0118 115.789 85.7078 116.093C85.3992 115.488 84.9111 115.289 84.2248 115.52C83.5363 115.745 83.1863 115.563 83.1863 114.946C83.4926 114.345 83.9531 114 84.561 113.922C85.1736 113.843 85.7078 113.659 86.1637 113.348C86.1637 113.657 86.4263 113.806 86.9605 113.806C87.4948 113.806 87.9185 114.189 88.2179 114.946C88.2202 115.563 87.8747 115.826 87.1954 115.745ZM93.4797 109.466C93.3208 109.466 93.1389 109.429 92.904 109.351C92.6761 109.279 92.4872 109.24 92.3352 109.24H92.1096C92.1096 109.392 91.6122 109.24 90.6197 108.782C89.6272 108.321 88.6784 108.095 87.7665 108.095H87.3083C87.4602 107.642 87.8057 107.49 88.3377 107.642C88.8696 107.789 89.3647 107.72 89.8253 107.405C90.5829 107.718 91.1977 108.015 91.6491 108.321C92.1096 108.63 92.5702 108.782 93.0215 108.782H93.9334C93.9334 109.238 93.7883 109.466 93.4797 109.466ZM103.766 99.6374C103.766 99.9483 103.458 100.252 102.852 100.549C102.242 100.858 101.482 101.123 100.561 101.358C99.649 101.586 98.7371 101.774 97.8252 101.926C96.9133 102.078 96.2294 102.157 95.7665 102.157C95.154 102.157 94.3963 102.005 93.4821 101.696C92.5725 101.394 92.1119 101.09 92.1119 100.782C92.1119 99.8699 92.4182 99.5245 93.0238 99.7502C93.6317 99.9805 93.9357 99.7917 93.9357 99.1814C95.1539 99.49 96.0751 99.6374 96.6784 99.6374C97.8966 99.6374 99.0019 99.3748 99.9921 98.8383C100.985 98.3086 101.708 98.0346 102.166 98.0346C102.624 98.0346 102.924 98.1912 103.078 98.4929C103.23 98.8014 103.458 99.1054 103.766 99.4094V99.6374ZM103.647 74.378C102.654 74.1523 101.777 73.6572 101.019 72.895C101.777 72.743 102.624 72.5542 103.538 72.3216C104.45 72.0936 105.362 71.9808 106.283 71.9808C107.34 71.9808 108.179 72.2917 108.793 72.895C108.793 74.1178 108.179 74.7188 106.958 74.7188C105.74 74.7211 104.635 74.6082 103.647 74.378ZM106.507 86.1522C106.507 85.8528 106.7 85.6225 107.078 85.4682C107.458 85.3163 107.799 85.238 108.107 85.238C108.257 85.238 108.485 85.3923 108.793 85.6917C108.485 86.0025 108.296 86.2673 108.222 86.493C108.142 86.7233 107.953 86.8338 107.654 86.8338C106.889 86.8338 106.507 86.6127 106.507 86.1522ZM122.732 86.1522C122.732 86.6127 122.237 87.1078 121.245 87.6398C120.259 88.174 119.114 88.6645 117.823 89.1274C116.524 89.581 115.195 90.0047 113.823 90.3778C112.45 90.7623 111.384 91.1078 110.617 91.4095C110.468 91.7181 110.168 91.8654 109.708 91.8654H108.559H108.109C107.801 91.7181 107.656 91.4855 107.656 91.1815C107.656 89.5051 108.452 88.5931 110.051 88.4342C111.656 88.2892 113.291 88.1372 114.963 87.9806C115.727 87.375 116.489 86.7647 117.254 86.1522C118.012 85.5465 118.926 85.2403 119.99 85.2403C120.298 85.2403 120.676 85.3186 121.134 85.4706C121.595 85.6226 122.129 85.6939 122.732 85.6939V86.1522ZM121.82 77.2427H121.592C121.277 77.2427 121.095 77.321 121.014 77.4707C120.943 77.6226 120.754 77.6963 120.446 77.6963C119.382 77.6963 118.315 77.4706 117.249 77.0078C116.176 76.5541 115.112 76.2502 114.044 76.0982C113.892 76.2502 113.735 76.3238 113.586 76.3238C113.286 76.3238 113.132 76.2133 113.132 75.9831C113.132 75.7528 113.054 75.5616 112.904 75.4096C113.357 74.9514 113.816 74.4194 114.269 73.8115C114.73 73.2012 115.49 72.8973 116.563 72.8973C116.708 72.8973 116.862 72.9387 117.014 73.0124C117.169 73.0907 117.394 73.1253 117.703 73.1253V73.3555C118.161 73.5075 118.919 73.5835 119.985 73.5835C120.593 73.5835 121.169 73.5467 121.707 73.4684C122.235 73.3993 122.804 73.3578 123.414 73.3578C124.941 73.3578 126.304 73.5858 127.531 74.0441C128.137 74.0441 128.517 74.3089 128.669 74.8454C128.821 75.3797 128.897 75.8679 128.897 76.3285C128.897 76.637 128.823 76.789 128.669 76.789L128.441 76.5588C127.989 77.0124 126.99 77.2472 125.473 77.2472H122.963H121.82V77.2427ZM139.653 106.039C138.578 106.647 137.629 107.294 136.791 107.978C135.952 108.664 134.921 109.086 133.703 109.24C133.855 108.174 134.354 107.336 135.19 106.723C136.022 106.117 136.828 105.576 137.592 105.12L138.043 105.351C138.352 105.351 138.575 105.316 138.73 105.235C138.884 105.159 139.11 105.12 139.416 105.12C139.725 105.12 139.877 105.199 139.877 105.351C139.877 105.655 139.794 105.885 139.653 106.039ZM142.845 112.662C142.078 112.662 141.7 112.365 141.7 111.75C141.7 111.446 141.889 111.22 142.276 111.064C142.656 110.916 142.919 110.608 143.073 110.15C143.225 110.15 143.342 110.191 143.423 110.265C143.49 110.345 143.605 110.382 143.759 110.382C144.528 110.382 145.134 109.961 145.592 109.123C146.043 108.291 146.651 107.865 147.418 107.865H147.876C148.788 107.561 149.709 107.407 150.619 107.407C151.377 107.407 152.217 107.559 153.131 107.865V108.554C153.131 109.777 152.6 110.5 151.533 110.718C150.458 110.951 149.323 111.066 148.102 111.066C146.433 111.066 145.366 111.333 144.906 111.865C144.445 112.399 143.759 112.662 142.845 112.662ZM142.845 102.834C142.845 102.38 143.153 102.154 143.757 102.154C144.823 102.154 145.362 102.458 145.362 103.066C145.507 103.22 145.59 103.372 145.59 103.524C145.59 103.676 145.362 103.755 144.903 103.755C144.443 103.755 144.215 103.907 144.215 104.213C143.757 104.213 143.421 104.061 143.188 103.755C142.955 103.449 142.845 103.142 142.845 102.834ZM150.619 140.093H149.247H149.012C149.012 139.789 148.867 139.674 148.56 139.747C148.252 139.828 148.1 139.713 148.1 139.407L148.56 139.169H149.012H150.156C150.916 139.169 151.303 139.407 151.303 139.863C151.153 140.017 150.918 140.093 150.619 140.093ZM159.991 137.12C158.918 137.12 158.232 136.551 157.933 135.404C157.626 134.264 156.86 133.686 155.639 133.686H154.962C154.504 133.686 153.815 133.424 152.903 132.887C151.992 132.358 151.531 131.943 151.531 131.632C151.531 131.328 151.872 131.142 152.558 131.064C153.244 130.985 153.661 130.948 153.813 130.948C154.732 130.948 155.531 131.216 156.215 131.748C156.901 132.286 157.544 132.924 158.156 133.686C158.614 133.845 159.222 133.997 159.989 134.145C160.747 134.301 161.129 134.831 161.129 135.752C161.131 136.664 160.749 137.12 159.991 137.12ZM170.96 140.547C170.96 141.157 170.501 141.574 169.587 141.804C168.675 142.039 167.989 142.145 167.529 142.145C167.068 142.145 166.688 141.997 166.391 141.691C166.075 141.387 165.85 141.235 165.705 141.235C165.55 141.235 165.394 141.313 165.244 141.461V140.547C165.244 139.936 165.55 139.554 166.156 139.407C166.773 139.255 167.303 139.169 167.754 139.169C168.362 139.169 169.279 139.331 170.499 139.637C170.499 139.789 170.577 139.863 170.732 139.863C170.877 139.863 170.96 139.936 170.96 140.093V140.547ZM171.756 131.522C170.918 132.816 169.433 133.461 167.303 133.461C166.997 133.461 166.31 133.383 165.244 133.231C164.178 133.088 163.646 132.855 163.646 132.547C163.646 130.87 163.222 129.691 162.391 129C161.553 128.321 160.597 127.368 159.531 126.149C159.377 126.297 159.149 126.375 158.842 126.375C158.538 126.375 158.23 126.26 157.931 126.034C157.624 125.804 157.242 125.694 156.784 125.694C156.477 125.542 155.948 125.424 155.186 125.346C154.421 125.277 153.617 125.194 152.786 125.116C151.948 125.044 151.222 124.968 150.619 124.892C150.004 124.814 149.707 124.701 149.707 124.547C149.707 124.247 149.822 124.012 150.041 123.863C150.276 123.715 150.458 123.48 150.619 123.174C150.764 123.174 150.882 123.211 150.96 123.292C151.034 123.372 151.151 123.4 151.303 123.4C151.602 123.4 151.764 123.331 151.764 123.174V122.946H151.989C152.289 122.946 152.523 123.027 152.675 123.174C152.821 123.331 153.129 123.4 153.587 123.4C153.433 123.4 153.776 123.372 154.614 123.292C155.455 123.211 156.44 122.985 157.587 122.605C158.729 122.226 159.789 121.77 160.784 121.231C161.778 120.701 162.271 119.973 162.271 119.064C162.271 118.456 162.004 117.843 161.47 117.231C160.938 116.62 160.215 116.321 159.305 116.321C158.384 116.321 157.778 116.584 157.479 117.12C157.164 117.654 156.477 117.919 155.414 117.919C154.195 117.919 152.715 117.963 150.96 118.03C149.201 118.108 147.793 118.371 146.727 118.831C146.879 117.919 147.416 117.233 148.332 116.779C149.244 116.323 150.347 115.867 151.644 115.402C152.94 114.946 154.237 114.378 155.531 113.689C156.823 113 157.931 112.059 158.842 110.836C159.602 110.532 160.33 110.299 161.016 110.147C161.705 109.995 162.195 109.542 162.506 108.779C162.193 108.013 162.119 107.333 162.269 106.721C162.416 106.115 161.504 105.807 159.529 105.807C158.762 105.959 158.112 106.152 157.587 106.38C157.046 106.61 156.404 106.721 155.635 106.721C155.183 106.721 154.803 106.645 154.499 106.493V105.807L154.271 105.574C154.122 105.574 154.036 105.503 154.036 105.348C154.036 105.196 154.119 105.118 154.271 105.118C154.416 105.118 154.499 105.049 154.499 104.897C154.651 103.978 155.105 103.405 155.872 103.179C156.629 102.951 157.477 102.758 158.382 102.61C159.303 102.456 160.137 102.304 160.901 102.152C161.659 102 162.039 101.618 162.039 101.008V99.6351V99.1791C161.739 99.0317 161.587 98.7991 161.587 98.4929C161.587 98.1912 161.433 98.0346 161.129 98.0346H160.901C160.595 98.0346 160.215 98.0024 159.754 97.9241C159.305 97.8435 158.916 97.8066 158.614 97.8066C157.09 97.8066 156.024 98.0346 155.411 98.4929C154.803 98.9488 154.345 99.4508 154.039 99.9781C153.733 100.515 153.507 101.01 153.359 101.466C153.2 101.924 152.901 102.152 152.443 102.152H151.989C151.83 102.152 151.646 102.196 151.414 102.263C151.186 102.348 150.916 102.378 150.617 102.378C150.156 102.378 149.928 102.15 149.928 101.691C149.928 100.929 150.31 100.324 151.075 99.8654C151.828 99.4094 152.215 98.6425 152.215 97.5787C150.84 96.8164 149.281 96.4341 147.531 96.4341C145.776 96.4341 144.063 96.2822 142.384 95.9805C141.617 95.9805 141.166 96.1302 141.012 96.4341C140.867 96.7427 140.676 97.1227 140.443 97.5787C140.215 98.0323 139.874 98.4169 139.414 98.7208C138.96 99.0294 138.041 99.1768 136.673 99.1768C135.605 99.1768 134.999 98.8728 134.847 98.2626V97.8043C134.847 95.8262 134.007 94.8338 132.326 94.8338C131.11 94.8338 129.972 95.0571 128.899 95.5222C127.833 95.9782 126.622 96.2016 125.249 96.2016C124.634 96.2016 124.102 96.1279 123.651 95.9782V95.292V95.0548H123.416C123.264 95.0548 123.193 94.9857 123.193 94.8314C123.193 93.6133 123.987 92.8556 125.59 92.5447C127.188 92.2408 128.517 92.0888 129.59 92.0888C130.35 92.0888 131.107 92.1671 131.872 92.3144C132.632 92.4733 133.39 92.5447 134.159 92.5447C134.767 93.7675 135.683 94.638 136.899 95.1745C138.12 95.7088 139.492 95.9759 141.01 95.9759C141.776 95.3679 142.497 94.7577 143.183 94.1429C143.872 93.5326 144.745 93.1481 145.813 93.003C147.031 93.3116 148.095 93.4566 149.009 93.4566C149.318 93.4566 149.705 93.4221 150.154 93.3461C150.615 93.2724 151.073 93.231 151.529 93.231C154.879 93.231 157.279 93.8021 158.73 94.942C160.178 96.0888 161.813 97.1181 163.644 98.0277C164.095 98.3386 164.781 98.5228 165.705 98.6011C166.614 98.6794 167.529 98.7577 168.44 98.8314C169.359 98.9097 170.163 98.9834 170.842 99.0617C171.377 99.1216 171.692 99.2482 171.814 99.4416C171.759 99.5199 171.669 99.8469 171.538 100.432C171.303 101.424 169.965 101.919 167.531 101.919C167.22 101.919 166.923 101.885 166.617 101.807C166.313 101.726 166.006 101.689 165.707 101.689C164.18 101.689 163.34 102.15 163.188 103.059C163.646 103.826 163.948 104.469 164.1 105.003C164.252 105.539 165.246 105.804 167.07 105.804C168.597 105.804 169.893 105.463 170.96 104.773C172.024 104.093 173.391 103.748 175.072 103.748H175.987C176.595 103.748 177.09 103.706 177.47 103.633C177.847 103.559 178.193 103.518 178.499 103.518C178.957 103.518 179.563 103.748 180.327 104.204C180.178 104.971 179.418 105.344 178.045 105.344C177.431 105.344 177.053 105.265 176.899 105.113C176.747 104.971 176.521 104.892 176.212 104.892H175.303H175.07C174.154 105.344 173.585 105.991 173.359 106.831C173.124 107.672 172.71 108.471 172.102 109.233C170.877 109.841 169.467 110.184 167.869 110.258C166.271 110.338 164.701 110.527 163.185 110.834C162.725 111.745 162.506 112.736 162.506 113.804C162.651 114.414 163.254 114.721 164.328 114.721H165.705C166.31 114.721 166.771 114.794 167.068 114.944C167.376 115.105 167.835 115.174 168.44 115.174C168.747 115.174 169.163 115.142 169.695 115.064C170.227 114.985 170.653 114.944 170.96 114.944C171.565 114.944 172.169 115.022 172.786 115.174C173.391 115.326 173.702 115.785 173.702 116.547C173.702 116.855 173.622 117.044 173.467 117.12C173.318 117.198 173.242 117.385 173.242 117.689V117.919C172.475 118.686 171.452 119.144 170.161 119.289C168.862 119.448 167.563 119.635 166.271 119.865C164.972 120.089 163.832 120.512 162.84 121.118C161.85 121.735 161.279 122.949 161.129 124.775C161.742 125.542 162.462 126.034 163.303 126.262C164.132 126.493 164.701 126.985 165.016 127.748C165.016 128.362 165.359 128.894 166.046 129.346C166.723 129.804 167.448 130.032 168.212 130.032C169.276 130.032 170.117 129.615 170.729 128.777C171.335 127.936 172.102 127.52 173.014 127.52C173.619 127.52 174.073 127.598 174.386 127.745C173.47 128.968 172.595 130.225 171.756 131.522ZM181.016 116.779C180.71 116.323 180.212 115.904 179.528 115.52C178.84 115.147 178.154 114.799 177.467 114.49C176.781 114.189 176.175 113.885 175.644 113.578C175.105 113.275 174.84 112.814 174.84 112.201C174.84 111.444 175.3 111.062 176.21 111.062C177.428 111.062 178.19 111.711 178.497 113C178.801 114.302 179.641 114.944 181.014 114.944C181.313 115.253 181.619 115.485 181.926 115.633C182.234 115.785 182.379 116.015 182.379 116.319C182.237 116.623 181.778 116.779 181.016 116.779ZM198.386 53.2406C198.386 52.7847 198.692 52.559 199.298 52.559C199.45 52.559 199.606 52.6004 199.756 52.6695C199.901 52.7478 199.984 53.1669 199.984 53.9246C199.832 53.9246 199.756 53.966 199.756 54.0397C199.756 54.118 199.678 54.1548 199.521 54.1548C199.215 54.1548 199.072 54.0397 199.072 53.814C199.072 53.5837 198.911 53.4732 198.612 53.4732H198.384V53.2406H198.386ZM183.987 62.6061C183.987 62.1524 184.288 61.8485 184.903 61.6965C185.509 61.5445 186.045 61.4662 186.499 61.4662C186.805 61.4662 187.075 61.5076 187.303 61.5836C187.528 61.6642 187.793 61.6965 188.097 61.6965V61.9268L188.332 62.3851C188.18 62.9907 187.871 63.297 187.413 63.297C186.962 63.297 186.501 63.4512 186.048 63.7529C185.741 63.4512 185.327 63.297 184.793 63.297C184.251 63.2946 183.987 63.0689 183.987 62.6061ZM186.959 109.691H185.587H185.127V109.463C185.127 109.159 185.163 109.044 185.246 109.118C185.325 109.201 185.364 109.083 185.364 108.779H185.813H187.411C187.869 108.779 188.178 108.931 188.33 109.238C188.021 109.542 187.565 109.691 186.959 109.691ZM189.133 95.2966C188.901 95.6052 188.636 95.7502 188.33 95.7502C187.717 95.7502 187.411 95.444 187.411 94.8383C187.411 94.2304 187.793 93.9218 188.558 93.9218C188.864 93.9218 189.09 94.0047 189.244 94.1521C189.396 94.3041 189.622 94.4606 189.928 94.608C189.622 94.7646 189.359 94.9903 189.133 95.2966ZM191.989 79.2968C190.768 79.2968 189.702 79.1034 188.779 78.7234C187.867 78.3434 187.409 77.5398 187.409 76.3216C187.409 75.5593 187.95 75.1816 189.014 75.1816C189.774 75.1816 190.46 75.4096 191.072 75.861C191.537 76.2133 192.063 76.5081 192.622 76.7683V79.2484C192.433 79.2761 192.226 79.2968 191.989 79.2968ZM213.128 87.6697C212.822 87.6697 212.675 87.4441 212.675 86.9789C212.521 86.8315 212.445 86.6772 212.445 86.5253H212.901H213.584C213.584 86.9789 213.435 87.3657 213.128 87.6697ZM217.932 81.0446C217.776 80.5886 217.665 80.2409 217.591 80.0106C217.513 79.7803 217.474 79.5132 217.474 79.2115C217.474 79.0595 217.548 78.7165 217.702 78.1845C217.859 77.6503 218.082 77.3854 218.393 77.3854C218.538 77.3854 218.618 77.4959 218.618 77.7239C218.618 77.9588 218.768 78.0648 219.077 78.0648C219.074 79.2852 218.692 80.2778 217.932 81.0446ZM230.045 90.4055C230.045 90.5621 229.891 90.6403 229.584 90.6403C229.584 90.1844 229.739 89.9587 230.045 89.9587V90.4055ZM233.126 81.6111C233.052 81.3808 232.935 81.192 232.787 81.0423C232.787 80.4274 232.822 79.5892 232.9 78.5254C232.974 77.4569 233.246 76.9272 233.704 76.9272C234.008 76.9272 234.27 77.1897 234.503 77.7217C234.738 78.2513 234.844 78.9053 234.844 79.6698C234.844 80.7291 234.538 81.4959 233.932 81.9565H233.702C233.395 81.9588 233.204 81.8391 233.126 81.6111ZM235.988 96.5862V98.8659C235.988 99.3288 235.91 99.6972 235.756 100.013C235.452 100.312 235.226 100.466 235.072 100.466C234.459 100.466 234.045 100.086 233.812 99.3288C233.587 98.562 233.469 97.9563 233.469 97.4957C233.469 97.1918 233.589 96.6552 233.812 95.8976C234.045 95.1308 234.388 94.7532 234.842 94.7532C235.302 94.7532 235.532 94.9051 235.532 95.2114C235.532 95.52 235.678 95.7456 235.986 95.8976V96.5862H235.988ZM239.42 89.0353C238.653 89.0353 238.155 88.8165 237.93 88.3514C237.699 87.8977 237.589 87.52 237.589 87.2114C237.589 86.6012 237.895 86.2995 238.501 86.2995C238.655 86.2995 238.922 86.6012 239.304 87.2114C239.68 87.8171 239.875 88.2776 239.875 88.5816C239.871 88.7382 239.719 88.881 239.42 89.0353ZM243.185 96.0128C242.959 96.8441 242.842 97.7283 242.842 98.6379C242.538 97.4128 242.082 96.2385 241.474 95.1009C240.861 93.9564 240.562 92.7727 240.562 91.5546C240.562 90.9397 240.787 90.638 241.246 90.638C242.003 90.638 242.579 91.0134 242.961 91.7802C243.339 92.547 243.532 93.1504 243.532 93.6063C243.53 94.3732 243.417 95.1676 243.185 96.0128ZM242.839 81.9588C241.927 81.6502 241.471 80.6577 241.471 78.9882C241.775 78.6704 241.927 78.2536 241.927 77.7239C241.927 77.192 242.307 76.9295 243.067 76.9295C243.219 76.9295 243.373 77.3463 243.528 78.1845C243.675 79.0227 243.758 79.5915 243.758 79.9001C243.76 80.6554 243.452 81.3463 242.839 81.9588ZM246.501 84.7014C246.346 84.7014 246.27 84.3906 246.27 83.7849C246.574 83.7849 246.726 84.006 246.726 84.4689L246.501 84.7014ZM245.692 140.093H244.32H244.085C244.085 139.789 243.94 139.674 243.636 139.747C243.327 139.828 243.173 139.713 243.173 139.407L243.636 139.169H244.085H245.23C245.989 139.169 246.376 139.407 246.376 139.863C246.227 140.017 245.992 140.093 245.692 140.093ZM255.065 137.12C253.992 137.12 253.305 136.551 253.006 135.404C252.7 134.264 251.935 133.686 250.715 133.686H250.035C249.577 133.686 248.891 133.424 247.977 132.887C247.065 132.358 246.604 131.943 246.604 131.632C246.604 131.328 246.945 131.142 247.631 131.064C248.32 130.985 248.734 130.948 248.889 130.948C249.807 130.948 250.604 131.216 251.291 131.748C251.974 132.286 252.617 132.924 253.229 133.686C253.69 133.845 254.296 133.997 255.062 134.145C255.82 134.301 256.202 134.831 256.202 135.752C256.205 136.664 255.822 137.12 255.065 137.12ZM266.033 140.547C266.033 141.157 265.575 141.574 264.66 141.804C263.749 142.039 263.062 142.145 262.602 142.145C262.141 142.145 261.761 141.997 261.464 141.691C261.149 141.387 260.925 141.235 260.778 141.235C260.624 141.235 260.469 141.313 260.317 141.461V140.547C260.317 139.936 260.624 139.554 261.229 139.407C261.846 139.255 262.379 139.169 262.828 139.169C263.435 139.169 264.354 139.331 265.572 139.637C265.572 139.789 265.651 139.863 265.805 139.863C265.95 139.863 266.033 139.936 266.033 140.093V140.547ZM257.81 90.9051C258.028 90.6334 258.406 90.4975 258.947 90.4975C259.254 90.4975 259.562 90.5344 259.859 90.6081C260.004 90.6449 260.149 90.6703 260.292 90.691C260.078 91.0894 259.898 91.5269 259.76 92.0105C259.659 92.3628 259.523 92.7059 259.371 93.0421C258.669 92.5885 258.065 92.1256 257.586 91.642C257.586 91.4509 257.616 91.2921 257.667 91.1516C257.713 91.0687 257.761 90.988 257.81 90.9051ZM267.224 77.8391C267.251 77.9128 267.279 77.9819 267.297 78.0671C267.369 78.4217 267.422 78.7395 267.456 79.0273C266.597 78.7234 265.909 78.4655 265.395 78.2651C265.409 78.2191 265.425 78.1776 265.443 78.1362C266.021 78.1062 266.613 78.0164 267.224 77.8391ZM257.117 99.1791C257.149 99.3196 257.186 99.4462 257.241 99.5545C257.241 99.764 257.195 99.946 257.117 100.105V99.6351V99.1791ZM257.013 98.1797C257.013 98.578 257.05 98.9097 257.117 99.1814C256.815 99.0294 256.665 98.8015 256.665 98.4952C256.665 98.2626 256.571 98.1221 256.398 98.0645C256.449 97.9909 256.502 97.9172 256.552 97.8389C256.716 97.5948 256.838 97.3346 256.942 97.0675C257.001 97.102 257.059 97.1388 257.117 97.1711C257.054 97.4958 257.013 97.8296 257.013 98.1797ZM263.387 101.901C263.7 101.33 263.871 100.556 263.871 99.5545V98.8659C264.64 98.9327 265.328 98.9995 265.92 99.0686C266.044 99.0801 266.16 99.1031 266.261 99.1216C266.093 99.9368 265.757 100.427 265.245 100.579C264.7 100.74 264.366 101.169 264.209 101.832C263.954 101.864 263.682 101.885 263.387 101.901ZM282.843 77.3854V77.8598C282.604 77.4569 282.487 76.9479 282.487 76.3238C282.487 76.3077 282.491 76.2939 282.491 76.2801C282.719 76.3676 282.843 76.7222 282.843 77.3854ZM256.552 76.9295C256.552 76.7706 256.704 76.7015 257.013 76.7015C257.773 76.7015 258.231 77.0746 258.383 77.8391C258.535 78.6059 258.618 79.2852 258.618 79.9001C258.618 80.1925 258.579 80.5587 258.514 80.9824C258.093 81.5074 257.784 82.1154 257.586 82.8085C257.478 82.8454 257.367 82.8684 257.243 82.8684C256.939 82.2559 256.635 81.6502 256.329 81.0446C256.02 80.4298 255.878 79.7481 255.878 78.9882C255.878 78.3733 256.182 77.7608 256.79 77.1552C256.785 76.9986 256.707 76.9295 256.552 76.9295ZM250.155 98.1797C249.243 97.7306 248.787 96.7382 248.787 95.2091C249.087 95.0571 249.317 94.8683 249.469 94.6311C249.621 94.41 249.847 94.2972 250.155 94.2972C250.461 94.2972 250.733 94.4492 250.957 94.7508C251.189 95.0548 251.3 95.3634 251.3 95.6674C251.3 96.8902 250.917 97.7283 250.155 98.1797ZM276.092 116.779C275.785 116.323 275.29 115.904 274.604 115.52C273.918 115.147 273.229 114.799 272.543 114.49C271.857 114.189 271.251 113.885 270.719 113.578C270.18 113.275 269.916 112.814 269.916 112.201C269.916 111.444 270.376 111.062 271.288 111.062C272.504 111.062 273.266 111.711 273.572 113C273.879 114.302 274.717 114.944 276.089 114.944C276.391 115.253 276.697 115.485 277.001 115.633C277.307 115.785 277.455 116.015 277.455 116.319C277.31 116.623 276.854 116.779 276.092 116.779ZM282.035 109.691H280.66H280.202V109.463C280.202 109.159 280.237 109.044 280.319 109.118C280.398 109.201 280.437 109.083 280.437 108.779H280.888H282.487C282.942 108.779 283.251 108.931 283.403 109.238C283.099 109.542 282.639 109.691 282.035 109.691ZM294.832 54.0397C294.832 54.118 294.756 54.1548 294.597 54.1548C294.293 54.1548 294.146 54.0397 294.146 53.814C294.146 53.5837 293.989 53.4732 293.687 53.4732H293.459V53.243C293.459 52.787 293.766 52.5613 294.371 52.5613C294.526 52.5613 294.68 52.6027 294.829 52.6718C294.979 52.7501 295.057 53.1693 295.057 53.9269C294.908 53.9223 294.832 53.966 294.832 54.0397Z" fill="#010101"/>
</svg>
