<svg width="16" height="16" viewBox="0 0 16 16" fill="none" xmlns="http://www.w3.org/2000/svg">
<path d="M2.84991 0.0940303C2.00839 0.626835 0.160377 1.91962 0.03069 3.07634C-0.569315 8.23324 7.76675 16.5693 12.9219 15.9693C14.0884 15.8397 15.3764 13.9934 15.906 13.1502C15.9797 13.0333 16.0115 12.895 15.9961 12.7577C15.9807 12.6204 15.919 12.4925 15.8211 12.395L13.5092 10.0798C13.3947 9.96437 13.2389 9.89942 13.0764 9.89942C12.9139 9.89942 12.7581 9.96437 12.6436 10.0798L11.3428 11.3966C11.1971 11.5423 11.0836 11.651 10.9971 11.7166C9.91229 11.8318 7.88682 11.1854 6.34109 9.63657C4.79542 8.08778 4.15067 6.0654 4.26105 4.97882C4.33783 4.89243 4.44341 4.78038 4.58905 4.63484L5.91072 3.3596C6.02578 3.24487 6.09041 3.08918 6.09041 2.9268C6.09041 2.76442 6.02579 2.60859 5.91072 2.49399L3.60667 0.180345C3.50923 0.0819073 3.38111 0.0196297 3.24349 0.00389239C3.10588 -0.0117329 2.96704 0.019964 2.84986 0.0939589L2.84991 0.0940303Z" fill="white"/>
</svg>
