<svg width="26" height="27" viewBox="0 0 26 27" fill="none" xmlns="http://www.w3.org/2000/svg">
<path d="M11.8317 9.358H13.502V10.578H11.8317V9.358Z" fill="white"/>
<path d="M9.53166 12.9357C9.53187 12.9414 9.53373 12.9466 9.53373 12.9524V26.999H10.8558V22.8773C10.8558 22.6367 11.0506 22.4419 11.2912 22.4419H14.0421C14.2827 22.4419 14.4775 22.6367 14.4775 22.8773V26.999H15.7995V12.9524C15.7995 12.9489 15.8008 12.9458 15.8008 12.9423V7.0584L9.53146 7.05861L9.53166 12.9357ZM10.9605 8.92297C10.9605 8.68235 11.1553 8.48758 11.3959 8.48758H13.9371C14.1777 8.48758 14.3725 8.68235 14.3725 8.92297V11.0138C14.3725 11.2544 14.1777 11.4492 13.9371 11.4492H11.3959C11.1553 11.4492 10.9605 11.2544 10.9605 11.0138V8.92297ZM10.9605 13.3134C10.9605 13.0728 11.1553 12.878 11.3959 12.878H13.9371C14.1777 12.878 14.3725 13.0728 14.3725 13.3134V15.4048C14.3725 15.6455 14.1777 15.8402 13.9371 15.8402H11.3959C11.1553 15.8402 10.9605 15.6455 10.9605 15.4048V13.3134ZM10.9605 17.7045C10.9605 17.4638 11.1553 17.2691 11.3959 17.2691H13.9371C14.1777 17.2691 14.3725 17.4638 14.3725 17.7045V19.7957C14.3725 20.0363 14.1777 20.2311 13.9371 20.2311H11.3959C11.1553 20.2311 10.9605 20.0363 10.9605 19.7957V17.7045Z" fill="white"/>
<path d="M11.8317 13.7481H13.502V14.9686H11.8317V13.7481Z" fill="white"/>
<path d="M11.727 23.3138H13.607V27.0001H11.727V23.3138Z" fill="white"/>
<path d="M16.6718 27H20.7928V10.5883L16.6718 13.192V27ZM18.3035 16.543H19.1598C19.4004 16.543 19.5952 16.7378 19.5952 16.9784C19.5952 17.219 19.4004 17.4138 19.1598 17.4138H18.3035C18.0629 17.4138 17.8681 17.219 17.8681 16.9784C17.8679 16.7378 18.0627 16.543 18.3035 16.543ZM18.3035 19.3551H19.1598C19.4004 19.3551 19.5952 19.5499 19.5952 19.7905C19.5952 20.0311 19.4004 20.2259 19.1598 20.2259H18.3035C18.0629 20.2259 17.8681 20.0311 17.8681 19.7905C17.8679 19.5499 18.0627 19.3551 18.3035 19.3551ZM18.3035 22.1675H19.1598C19.4004 22.1675 19.5952 22.3623 19.5952 22.6029C19.5952 22.8436 19.4004 23.0383 19.1598 23.0383H18.3035C18.0629 23.0383 17.8681 22.8436 17.8681 22.6029C17.8679 22.3623 18.0627 22.1675 18.3035 22.1675ZM18.3035 24.9796H19.1598C19.4004 24.9796 19.5952 25.1744 19.5952 25.415C19.5952 25.6556 19.4004 25.8504 19.1598 25.8504H18.3035C18.0629 25.8504 17.8681 25.6556 17.8681 25.415C17.8679 25.1744 18.0627 24.9796 18.3035 24.9796Z" fill="white"/>
<path d="M14.3194 3.66305C14.3194 3.52963 14.1442 3.38112 13.8925 3.38112H11.4423C11.1905 3.38112 11.0153 3.52963 11.0153 3.66305V6.18431H14.3194L14.3194 3.66305Z" fill="white"/>
<path d="M21.6635 17.763V26.9975H25.3341L25.3339 15.8928L21.6635 17.763ZM23.927 25.848H23.0707C22.83 25.848 22.6353 25.6533 22.6353 25.4126C22.6353 25.172 22.83 24.9772 23.0707 24.9772H23.927C24.1676 24.9772 24.3624 25.172 24.3624 25.4126C24.3624 25.6533 24.1676 25.848 23.927 25.848ZM23.927 22.8765H23.0707C22.83 22.8765 22.6353 22.6818 22.6353 22.4411C22.6353 22.2005 22.83 22.0058 23.0707 22.0058H23.927C24.1676 22.0058 24.3624 22.2005 24.3624 22.4411C24.3624 22.6818 24.1676 22.8765 23.927 22.8765ZM23.927 19.905H23.0707C22.83 19.905 22.6353 19.7103 22.6353 19.4697C22.6353 19.229 22.83 19.0343 23.0707 19.0343H23.927C24.1676 19.0343 24.3624 19.229 24.3624 19.4697C24.3624 19.7103 24.1676 19.905 23.927 19.905Z" fill="white"/>
<path d="M11.8317 18.1392H13.502V19.3597H11.8317V18.1392Z" fill="white"/>
<path d="M4.54141 17.4983V26.9998H8.66107V13.1912L4.54141 10.5883V17.4983ZM6.17433 16.5429H7.03026C7.27088 16.5429 7.46565 16.7376 7.46565 16.9783C7.46565 17.2189 7.27088 17.4136 7.03026 17.4136H6.17433C5.93371 17.4136 5.73894 17.2189 5.73894 16.9783C5.73894 16.7376 5.93371 16.5429 6.17433 16.5429ZM6.17433 19.3549H7.03026C7.27088 19.3549 7.46565 19.5497 7.46565 19.7903C7.46565 20.031 7.27088 20.2257 7.03026 20.2257H6.17433C5.93371 20.2257 5.73894 20.031 5.73894 19.7903C5.73894 19.5497 5.93371 19.3549 6.17433 19.3549ZM6.17433 22.1674H7.03026C7.27088 22.1674 7.46565 22.3622 7.46565 22.6028C7.46565 22.8434 7.27088 23.0382 7.03026 23.0382H6.17433C5.93371 23.0382 5.73894 22.8434 5.73894 22.6028C5.73894 22.3622 5.93371 22.1674 6.17433 22.1674ZM6.17433 24.9795H7.03026C7.27088 24.9795 7.46565 25.1742 7.46565 25.4149C7.46565 25.6555 7.27088 25.8502 7.03026 25.8502H6.17433C5.93371 25.8502 5.73894 25.6555 5.73894 25.4149C5.73894 25.1742 5.93371 24.9795 6.17433 24.9795Z" fill="white"/>
<path d="M0 26.9971H3.67065L3.67044 17.7626L4.8408e-06 15.8928L0 26.9971ZM1.45384 19.0337H2.31014C2.55076 19.0337 2.74553 19.2285 2.74553 19.4691C2.74553 19.7097 2.55076 19.9045 2.31014 19.9045H1.45384C1.21321 19.9045 1.01845 19.7097 1.01845 19.4691C1.01845 19.2285 1.21321 19.0337 1.45384 19.0337ZM1.45384 22.0052H2.31014C2.55076 22.0052 2.74553 22.2 2.74553 22.4406C2.74553 22.6812 2.55076 22.876 2.31014 22.876H1.45384C1.21321 22.876 1.01845 22.6812 1.01845 22.4406C1.01845 22.2 1.21321 22.0052 1.45384 22.0052ZM1.45384 24.9767H2.31014C2.55076 24.9767 2.74553 25.1715 2.74553 25.4121C2.74553 25.6527 2.55076 25.8475 2.31014 25.8475H1.45384C1.21321 25.8475 1.01845 25.6527 1.01845 25.4121C1.01845 25.1715 1.21321 24.9767 1.45384 24.9767Z" fill="white"/>
<path d="M13.1007 0.435389C13.1007 0.195805 12.909 0 12.6653 0C12.4257 0 12.2299 0.196005 12.2299 0.435389V2.51235H13.1007L13.1007 0.435389Z" fill="white"/>
</svg>
