<svg width="18" height="18" viewBox="0 0 18 18" fill="none" xmlns="http://www.w3.org/2000/svg">
<path d="M12.7778 13.0248C12.0798 15.8711 10.6672 17.7805 8.99901 17.7805C7.33079 17.7805 5.91824 15.8708 5.22025 13.023C4.23807 13.5575 3.38002 14.2936 2.70231 15.183C2.66672 15.2289 2.63666 15.2775 2.60234 15.3237C3.71949 16.4568 5.11759 17.2729 6.65374 17.6882C8.18968 18.1037 9.80854 18.1037 11.3444 17.6882C12.8805 17.2729 14.2786 16.4568 15.3958 15.3237C15.3619 15.2779 15.3323 15.2301 15.2976 15.1852C14.6193 14.2958 13.7606 13.5596 12.7779 13.0252L12.7778 13.0248Z" fill="#F9F9F9"/>
<path d="M5.90024 8.94436C5.89897 9.79763 5.96136 10.6499 6.08658 11.4941C7.97516 10.8519 10.0233 10.8519 11.9117 11.4941C12.037 10.6499 12.0994 9.79763 12.0981 8.94436C12.0992 8.12697 12.0426 7.31073 11.9288 6.50143C10.9859 6.82461 9.99592 6.98927 8.99915 6.98884C8.00209 6.98955 7.01186 6.82491 6.06867 6.50187C5.95508 7.31103 5.89878 8.12726 5.9002 8.94436H5.90024Z" fill="#F9F9F9"/>
<path d="M6.28291 12.5462C6.85171 15.0603 7.96562 16.6343 8.99895 16.6343C10.0323 16.6343 11.1462 15.0605 11.715 12.5462V12.5461C9.95967 11.9129 8.03823 11.9129 6.28299 12.5461L6.28291 12.5462Z" fill="#F9F9F9"/>
<path d="M15.2954 2.81709C15.331 2.77129 15.361 2.72265 15.3958 2.67642C14.2786 1.54323 12.8804 0.727138 11.3444 0.311615C9.80833 -0.103872 8.18958 -0.103872 6.65368 0.311615C5.11763 0.727101 3.71939 1.54323 2.60228 2.67642C2.63617 2.72222 2.66581 2.76959 2.70055 2.81497C3.3743 3.69756 4.22556 4.42903 5.1995 4.96221C5.88642 2.06179 7.3116 0.106337 8.99932 0.106337C10.687 0.106337 12.1123 2.06172 12.801 4.96294C13.7735 4.42986 14.6232 3.69872 15.2957 2.81696L15.2954 2.81709Z" fill="#F9F9F9"/>
<path d="M16.1092 3.49465C15.2847 4.56827 14.2277 5.44125 13.0175 6.04776C13.1712 7.00554 13.2481 7.97421 13.2469 8.94433C13.2481 9.94948 13.1654 10.9529 12.9996 11.9441C14.217 12.5515 15.2805 13.4277 16.1092 14.5066C16.1177 14.496 16.1265 14.4859 16.135 14.4749C17.3435 12.9065 17.9991 10.9823 17.9993 9.00219C17.9997 7.02213 17.345 5.09782 16.1371 3.52881C16.1283 3.51704 16.1181 3.50598 16.1092 3.49449L16.1092 3.49465Z" fill="#F9F9F9"/>
<path d="M11.7377 5.44637C11.176 2.87214 10.0465 1.25375 8.99912 1.25375C7.9517 1.25375 6.82221 2.87206 6.2605 5.44673C7.13787 5.7675 8.06501 5.93101 8.99912 5.9296C9.93319 5.93059 10.8604 5.76709 11.7377 5.44633V5.44637Z" fill="#F9F9F9"/>
<path d="M1.88873 14.5065C2.71789 13.4272 3.7816 12.5508 4.99957 11.9436C4.67582 9.99213 4.66986 8.00106 4.9817 6.0476C3.77136 5.44065 2.71404 4.56782 1.88873 3.49449C1.88022 3.50555 1.87143 3.51562 1.86292 3.52626C0.655013 5.09509 0 7.01928 0 8.99928C0 10.9792 0.655013 12.9033 1.86292 14.4723C1.87001 14.4841 1.87979 14.4951 1.88873 14.5066L1.88873 14.5065Z" fill="#F9F9F9"/>
</svg>
