<svg width="17" height="12" viewBox="0 0 17 12" fill="none" xmlns="http://www.w3.org/2000/svg">
<path d="M7.99211 6.6005C8.10314 6.70377 8.24914 6.76109 8.40076 6.76109C8.55238 6.76109 8.69838 6.70377 8.80941 6.6005L15.7429 0.163808C15.5103 0.0569227 15.2574 0.00106981 15.0013 0H1.80013C1.54404 0.00107152 1.29115 0.0569262 1.0585 0.163808L7.99211 6.6005Z" fill="white"/>
<path d="M9.62592 7.48108C9.29201 7.78874 8.8547 7.95937 8.40065 7.95937C7.94659 7.95937 7.50927 7.78873 7.17537 7.48108L0.195552 0.999817C0.0687113 1.2472 0.00174187 1.52097 0 1.79905V10.1998C0 10.6773 0.189658 11.1351 0.52719 11.4728C0.864855 11.8103 1.32265 12 1.80016 12H15.0013C15.4788 12 15.9366 11.8103 16.2743 11.4728C16.6118 11.1351 16.8015 10.6773 16.8015 10.1998V1.79905C16.7997 1.52099 16.7328 1.24721 16.6059 0.999817L9.62592 7.48108Z" fill="white"/>
</svg>
