<svg width="375" height="299" viewBox="0 0 375 299" fill="none" xmlns="http://www.w3.org/2000/svg">
<path d="M63.9383 291.371C64.0518 289.925 63.7168 288.266 63.4134 286.599C62.2052 279.914 62.1511 273.132 61.8992 266.376C61.8556 265.151 61.7646 263.915 61.8477 262.696C62.1775 257.61 61.0669 252.703 60.1212 247.761C59.2863 243.399 58.946 238.962 58.4592 234.551C57.7167 227.781 56.9675 221.017 56.2051 214.247C55.9598 212.069 55.63 209.897 55.3939 207.707C55.3042 206.905 55.3293 206.031 56.4267 205.846C57.4436 205.669 57.8591 206.301 58.1348 207.148C59.0963 210.096 59.521 213.165 59.835 216.224C60.7464 224.97 61.576 233.726 62.6708 242.456C63.7761 251.226 64.495 260.041 64.9658 268.875C65.012 269.795 65.2204 270.714 65.3826 271.63C65.4209 271.866 65.4697 272.178 65.8047 272.162C66.116 272.149 66.178 271.85 66.2215 271.607C66.3943 270.523 66.5645 269.436 66.7109 268.343C67.9402 259.129 69.3515 249.929 69.4214 240.591C69.4398 238.157 69.6667 235.692 70.2866 233.298C70.3618 233.013 70.4053 232.713 70.5346 232.449C70.8643 231.752 71.2891 230.958 72.124 231.022C72.9721 231.08 72.9351 232.028 73.0512 232.647C73.2464 233.719 73.3862 234.823 73.4047 235.917C73.497 242.368 74.6749 248.704 75.4729 255.079C76.0704 259.904 76.6429 264.733 77.1995 269.561C77.4422 271.62 77.6097 273.687 77.8405 275.743C77.8998 276.263 77.8563 277.109 78.4248 277.136C79.0328 277.167 79.0144 276.319 79.0869 275.817C79.4945 272.85 79.9166 269.875 80.2107 266.89C81.2158 256.435 81.2356 245.934 81.7816 235.463C82.271 226.006 83.0571 216.559 83.7034 207.107C83.7522 206.43 83.8379 205.771 84.657 205.698C85.4708 205.618 86.1462 205.974 86.5683 206.694C86.8083 207.107 86.836 207.578 86.8083 208.048C85.5764 229.204 84.7375 250.383 83.0888 271.516C82.4622 279.528 81.3398 287.489 80.1567 295.431C79.9021 297.14 78.9511 298.273 77.3155 298.842C76.2076 299.227 75.6285 298.919 75.4294 297.731C75.345 297.235 75.3542 296.719 75.3489 296.213C75.2869 284.699 74.6195 273.215 73.6764 261.744C73.5115 259.728 73.3651 257.694 72.8415 255.72C72.7465 255.37 72.769 254.836 72.2796 254.843C71.6386 254.849 71.8417 255.459 71.7797 255.828C69.6641 268.523 68.7117 281.347 67.7476 294.163C67.7146 294.63 67.6394 295.086 67.5695 295.547C67.4535 296.342 67.0617 296.893 66.207 296.961C65.3549 297.029 64.7416 296.653 64.3723 295.878C63.9515 294.994 63.8354 293.938 63.9383 291.371Z" fill="#F2F2F2"/>
<path d="M179.912 298.974C178.387 298.974 176.861 298.984 175.341 298.967C173.698 298.947 173.206 298.337 173.509 296.726C174.577 291.127 175.742 285.539 176.704 279.917C177.98 272.503 179.107 265.06 180.282 257.63C181.323 251.035 182.366 244.435 183.556 237.864C185.029 229.712 186.454 221.557 187.861 213.396C188.183 211.516 187.778 211.093 185.899 211.1C183.32 211.104 180.747 211.137 178.163 211.154C177.911 211.154 177.652 211.15 177.406 211.119C176.46 210.983 175.319 211.083 175.235 209.715C175.157 208.62 176.165 207.847 177.618 207.828C178.592 207.815 179.566 207.792 180.537 207.89C183.74 208.21 186.926 208.353 190.113 207.684C190.481 207.601 190.875 207.593 191.246 207.643C192.165 207.774 192.686 208.578 192.362 209.319C190.772 212.995 190.005 216.906 189.299 220.81C187.375 231.502 185.867 242.253 183.91 252.937C182.107 262.795 180.599 272.704 179.272 282.638C178.808 286.108 177.791 289.506 178.072 293.058C178.1 293.434 178.09 293.818 178.11 294.198C178.188 295.31 178.718 295.878 179.893 295.852C182.264 295.796 184.631 295.799 187.001 295.774C187.501 295.77 188.026 295.662 188.493 295.923C189.066 296.246 189.348 296.762 189.191 297.412C188.988 298.273 188.343 298.616 187.512 298.7C184.982 298.945 182.45 299.052 179.912 298.974Z" fill="#F2F2F2"/>
<path d="M152.637 267.695C152.9 277.12 153.16 286.551 153.41 295.975C153.426 296.518 153.438 297.086 153.302 297.605C153.083 298.469 152.454 298.999 151.559 298.999C150.659 298.999 150.267 298.312 150.026 297.549C149.804 296.83 150.047 296.121 150.047 295.404C150.071 287.748 150.466 280.071 149.982 272.452C149.555 265.645 149.928 258.842 149.464 252.051C149.391 250.961 149.507 249.858 149.904 248.805C150.034 248.46 150.142 248.026 150.046 247.689C149.37 245.266 149.626 242.789 149.904 240.38C150.386 236.161 149.662 232.026 149.423 227.86C149.077 221.817 149.114 215.765 148.944 209.722C148.917 208.551 148.906 207.348 149.55 206.269C150.423 204.804 151.582 204.411 153.112 205.143C153.682 205.414 154.269 205.33 154.856 205.364C157.126 205.487 159.421 205.123 161.651 205.879C162.527 206.173 163.246 206.541 163.092 207.625C162.943 208.704 162.397 209.462 161.203 209.444C158.879 209.411 156.548 209.478 154.232 209.204C152.226 208.965 151.581 209.561 151.743 211.603C152.135 216.573 152.457 221.556 153.073 226.506C153.211 227.593 153.645 228.253 154.819 228.23C155.603 228.211 156.313 228.514 157.019 228.779C157.879 229.102 158.676 230.503 158.423 231.247C158.095 232.23 157.225 232.386 156.36 232.364C153.938 232.315 153.922 232.288 153.317 234.666C152.838 236.549 152.593 238.455 152.52 240.419C152.185 249.516 152.607 258.603 152.637 267.695Z" fill="#F2F2F2"/>
<path d="M134.703 242.362C134.92 252.678 135.131 263.002 135.35 273.319C135.377 274.642 135.265 275.929 134.798 277.186C134.502 277.983 134.504 278.848 134.546 279.696C134.709 283.544 134.755 287.393 134.695 291.243C134.655 294.313 135.708 295.431 138.782 295.675C139.58 295.741 140.384 295.804 141.185 295.878C142.161 295.974 143.006 296.347 142.963 297.457C142.922 298.53 142.069 298.946 141.103 298.981C139.921 299.02 138.733 298.984 137.551 298.926C136.159 298.851 134.775 298.671 133.378 298.625C132.061 298.583 131.48 297.819 131.304 296.664C131.18 295.828 131.131 294.978 131.137 294.135C131.215 284.578 131.269 275.013 131.428 265.458C131.482 262.288 131.621 259.115 132.15 255.972C132.577 253.425 131.807 250.925 131.511 248.417C131.109 245.041 130.885 241.7 131.306 238.309C131.916 233.377 131.779 228.427 131.525 223.48C131.257 218.408 131.39 213.329 131.324 208.257C131.308 207.28 132.135 206.469 133.179 206.444C134.152 206.416 134.135 207.226 134.251 207.873C134.972 211.727 134.786 215.634 134.767 219.519C134.72 227.132 134.541 234.746 134.703 242.362Z" fill="#F2F2F2"/>
<path d="M116.971 250.583C117.095 246.536 116.458 242.471 116.538 238.421C116.654 232.465 116.551 226.509 116.703 219.576C116.371 216.988 116.113 213.391 114.746 210.012C114.161 208.589 113.403 207.277 112.105 206.361C111.427 205.882 110.703 205.542 109.854 205.725C108.872 205.944 107.888 206.212 106.907 206.46C105.099 206.918 103.877 208.009 103.179 209.754C101.35 214.298 100.563 218.984 100.85 223.891C101.345 232.424 101.345 240.966 101.223 249.515C101.169 253.481 100.837 257.44 101.469 261.413C101.812 263.574 101.901 265.783 101.655 267.991C101.271 271.581 101.449 275.186 101.792 278.761C102.132 282.321 101.432 285.899 102.206 289.446C102.606 291.258 102.776 293.118 103.509 294.852C104.29 296.674 105.423 298.143 107.415 298.733C111.701 300.02 116.496 296.396 116.396 291.937C116.301 287.788 116.228 283.641 116.517 279.506C117.179 269.871 116.662 260.222 116.971 250.583ZM114.186 248.917C113.824 255.07 114.416 261.189 113.978 267.316C113.54 273.473 113.573 279.659 113.403 285.834C113.367 287.14 113.338 288.459 113.367 289.765C113.411 291.597 112.594 293.041 111.34 294.244C109.478 296.029 106.664 295.27 105.878 292.807C105.381 291.275 105.2 289.67 105.018 288.081C104.402 282.815 104.488 277.526 104.48 272.24C104.475 265.18 104.475 258.114 104.475 251.053H104.323C104.323 241.362 104.305 231.678 104.341 221.995C104.352 218.773 104.818 215.619 105.846 212.534C106.441 210.736 107.876 210.06 109.265 209.223C109.619 209.011 109.894 209.308 110.179 209.471C112.191 210.6 112.73 212.629 113.312 214.619C113.941 216.751 114.118 218.96 113.993 221.148C113.465 230.422 114.725 239.693 114.186 248.917Z" fill="#F2F2F2"/>
<path d="M276.631 271.955C276.971 269.615 277.231 267.368 277.636 265.14C279.362 255.44 279.498 245.595 280.361 235.823C280.469 234.647 280.644 233.476 281.201 232.412C281.444 231.953 281.825 231.507 282.417 231.507C283.136 231.507 283.133 232.173 283.311 232.636C283.83 234.045 283.857 235.538 283.879 236.997C283.966 243.789 285.357 250.434 286.076 257.149C286.66 262.643 287.315 268.138 287.93 273.622C288.068 274.813 288.06 276.044 288.884 277.29C289.522 276.233 289.592 275.233 289.706 274.274C290.489 267.794 291.115 261.294 291.368 254.769C291.965 239.307 292.597 223.846 293.928 208.429C294.015 207.456 293.876 206.316 295.438 206.391C296.933 206.463 297.1 207.42 297.03 208.588C296.757 213.462 296.481 218.339 296.219 223.21C295.498 236.548 294.859 249.886 294.055 263.219C293.414 273.906 292.081 284.528 290.562 295.123C290.346 296.635 289.784 297.964 288.287 298.684C286.797 299.39 285.881 298.894 285.819 297.23C285.687 294.06 285.635 290.88 285.525 287.703C285.184 278.067 284.787 268.425 283.729 258.826C283.6 257.612 283.487 256.4 282.73 255.238C281.962 256.093 282.032 257.086 281.897 257.974C280.092 269.723 279.219 281.577 278.257 293.418C278.187 294.118 278.173 294.83 278.057 295.52C277.918 296.355 277.464 296.939 276.546 296.972C275.665 297.005 275.081 296.556 274.825 295.739C274.644 295.181 274.42 294.582 274.469 294.022C274.745 290.521 273.858 287.143 273.431 283.717C272.46 276.06 272.426 268.336 272.352 260.636C272.311 256.227 271.27 252.024 270.582 247.741C269.4 240.418 268.85 233.024 268.019 225.662C267.419 220.401 266.886 215.141 266.087 209.902C265.984 209.263 265.963 208.616 265.932 207.972C265.886 207.178 266.138 206.556 267.017 206.436C267.849 206.314 268.325 206.752 268.606 207.512C269.281 209.406 269.69 211.371 269.914 213.35C270.631 219.6 271.247 225.862 271.928 232.115C272.812 240.305 273.912 248.465 274.533 256.676C274.861 260.956 275.167 265.24 275.507 269.519C275.569 270.366 275.397 271.33 276.631 271.955Z" fill="#F2F2F2"/>
<path d="M208.476 239.084C208.267 247.105 207.781 254.74 207.889 262.39C207.915 264.093 208.162 265.788 208.329 267.482C208.505 269.323 209.669 270.142 211.387 270.296C213.576 270.486 215.743 270.263 217.871 269.779C219.711 269.365 219.711 267.885 219.7 266.437C219.665 261.968 219.59 257.498 219.579 253.027C219.566 239.491 219.057 225.98 217.982 212.484C217.897 211.419 217.86 210.352 218.26 209.351C218.515 208.73 218.987 208.239 219.739 208.302C220.496 208.368 220.847 208.883 220.919 209.608C220.96 210.017 221.051 210.427 221.068 210.836C221.714 223.346 222.722 235.839 222.774 248.372C222.782 251.134 222.417 253.892 222.349 256.65C222.292 258.808 222.419 260.929 222.813 263.105C223.226 265.403 222.783 267.873 222.891 270.283C223.226 278.154 222.588 286.041 222.964 293.918C223.018 295.076 222.75 296.255 222.564 297.418C222.443 298.15 222.369 299.037 221.286 298.998C220.332 298.954 219.74 298.351 219.586 297.476C219.408 296.441 219.328 295.369 219.313 294.315C219.218 289.023 219.164 283.736 219.094 278.437C219.08 277.908 219.088 277.378 219.047 276.85C218.826 273.776 218.507 273.488 215.397 273.623C214.159 273.678 212.931 273.75 211.702 273.85C209.148 274.062 208.721 274.521 208.707 277.16C208.674 282.749 208.674 288.336 208.65 293.922C208.647 294.686 208.674 295.461 208.547 296.209C208.258 297.99 207.21 298.375 205.858 297.221C204.701 296.226 204.361 294.893 204.384 293.414C204.56 282.302 204.722 271.187 204.895 260.069C204.922 258.304 204.978 256.553 204.549 254.81C204.193 253.333 205.085 251.947 205.044 250.461C204.949 246.462 204.971 242.464 204.843 238.464C204.645 232.522 204.444 226.593 204.924 220.652C205.199 217.189 204.51 213.724 204.959 210.255C205.016 209.848 205.016 209.432 205.07 209.023C205.181 208.186 205.595 207.508 206.472 207.468C207.315 207.432 207.591 208.153 207.807 208.868C208.556 211.305 208.94 213.815 208.796 216.346C208.378 224.05 208.422 231.752 208.476 239.084Z" fill="#F2F2F2"/>
<path d="M314.586 210.865C314.908 213.444 314.851 216.035 314.792 218.623C314.444 236.39 315.271 254.146 315.209 271.903C315.185 278.319 314.768 284.775 314.717 291.219C314.704 293.138 315.247 294.686 317.055 295.597C317.828 295.907 318.637 295.968 319.461 295.968C319.928 295.968 320.404 295.945 320.872 295.982C321.897 296.051 322.83 296.442 322.823 297.575C322.818 298.681 321.81 298.937 320.912 298.942C319.209 298.956 317.504 299.099 315.806 298.855C315.693 298.838 315.579 298.817 315.461 298.803C311.645 298.453 311.468 298.178 311.388 294.294C311.182 284.069 311.766 273.851 311.802 263.627C311.807 261.12 311.877 258.597 312.232 256.083C312.561 253.748 312.193 251.362 311.802 249.079C311.07 244.853 311.315 240.706 311.763 236.485C312.228 232.169 311.985 227.797 311.861 223.456C311.804 221.578 311.745 219.698 311.766 217.821C311.802 214.942 311.658 212.069 311.558 209.196C311.525 208.128 311.887 207.488 312.955 207.349C314.246 207.182 314.041 208.273 314.3 208.981C314.529 209.591 314.217 210.283 314.586 210.865Z" fill="#F2F2F2"/>
<path d="M314.586 210.692C314.364 209.964 314.135 209.24 313.921 208.512C313.774 208.006 313.723 207.409 312.975 207.477C312.285 207.547 311.908 207.967 311.867 208.633C311.818 209.279 311.803 209.932 311.837 210.576C312.339 219.271 312.091 227.976 312.064 236.676C312.058 238.42 311.564 240.157 311.464 241.912C311.28 245.099 312.156 248.205 312.342 251.373C312.474 253.606 312.62 255.833 312.306 258.053C312.211 258.692 312.142 259.339 312.142 259.988C312.169 271.45 311.564 282.908 311.731 294.373C311.78 297.74 311.904 297.86 315.215 298.31C317.028 298.564 318.842 298.672 320.666 298.568C321.493 298.529 322.496 298.373 322.475 297.311C322.448 296.218 321.437 296.218 320.602 296.162C319.388 296.083 318.113 296.259 317.056 295.418C318.285 295.447 319.527 295.441 320.751 295.523C321.859 295.601 322.948 295.884 322.977 297.276C322.998 298.703 321.898 298.997 320.782 298.997C318.667 298.997 316.547 298.972 314.437 298.812C311.869 298.614 311.152 297.805 311.144 295.218C311.098 286.395 311.315 277.579 311.392 268.759C311.439 262.938 312.673 257.085 311.722 251.329C310.249 242.378 312.301 233.495 311.65 224.579C311.293 219.657 311.392 214.705 311.293 209.769C311.28 209.241 311.28 208.707 311.369 208.188C311.549 207.196 312.394 206.929 313.209 206.811C314.079 206.691 314.219 207.497 314.409 208.079C314.678 208.92 314.735 209.808 314.586 210.692Z" fill="#F2F2F2"/>
<path d="M253.191 252.408C253.366 243.852 252.318 235.267 252.888 228.173C252.764 221.21 252.914 215.722 250.858 210.492C249.263 206.453 246.238 205.26 242.357 207.225C240.744 208.038 239.778 209.434 239.119 211.043C237.656 214.57 237.011 218.266 237.091 222.072C237.218 227.485 237.599 232.899 237.491 238.306C237.256 250.889 237.844 263.456 237.875 276.034C237.896 278.564 238.237 281.095 238.153 283.612C238.042 286.884 238.385 290.095 239.183 293.228C239.848 295.847 240.943 298.303 244.059 298.868C248.617 299.705 252.62 296.315 252.584 291.57C252.566 288.811 252.262 286.041 252.497 283.281C253.361 273.012 252.981 262.699 253.191 252.408ZM250.186 258.883C250.346 269.357 250.037 279.821 249.491 290.288C249.455 291.057 249.316 291.774 248.921 292.469C247.672 294.662 246.359 295.613 244.699 295.272C242.626 294.855 242.01 293.312 241.71 291.423C240.67 285.003 240.641 278.535 240.637 272.068C240.631 265.187 240.637 258.303 240.637 251.419H240.567C240.567 241.831 240.58 232.24 240.559 222.647C240.546 219.565 241.002 216.56 241.865 213.614C242.048 213.002 242.318 212.395 242.661 211.856C244.245 209.333 246.469 209.23 248.061 211.732C249.465 213.944 250.148 216.442 250.156 219.075C250.172 225.37 249.937 231.679 250.202 237.961C250.504 244.944 250.075 251.908 250.186 258.883Z" fill="#F2F2F2"/>
<path d="M74.8841 134.839C74.5359 134.839 74.3196 134.881 74.2246 134.976C74.1415 135.064 73.9252 135.101 73.5757 135.101C73.2222 135.276 72.9676 135.368 72.7869 135.368C72.7869 136.065 72.8793 136.669 73.0547 137.202C73.4003 136.853 73.8435 136.763 74.3579 136.938C74.8828 137.109 75.3233 136.938 75.6742 136.415C75.8496 136.237 75.934 135.889 75.934 135.369C75.9353 135.017 75.5819 134.839 74.8841 134.839Z" fill="#F2F2F2"/>
<path d="M289.447 140.472C290.756 140.039 291.969 139.515 293.107 138.899C294.246 138.291 294.813 137.459 294.813 136.415C294.813 135.719 294.507 135.017 293.894 134.315C293.283 133.618 292.456 133.273 291.413 133.273C290.356 133.273 289.664 133.575 289.321 134.187C288.96 134.801 288.174 135.102 286.956 135.102C286.115 135.102 285.153 135.121 284.096 135.15L282.421 141.375C282.648 141.347 282.774 141.265 282.774 141.124V140.864H283.034C283.375 140.864 283.645 140.955 283.818 141.124C283.988 141.305 284.339 141.383 284.864 141.383C284.688 141.383 285.08 141.351 286.044 141.257C287.004 141.166 288.136 140.906 289.447 140.472Z" fill="#F2F2F2"/>
<path d="M372.838 4.18778C371.781 3.31593 370.519 2.71184 369.041 2.35308C367.551 2.00882 365.981 1.79119 364.327 1.70282C362.67 1.62104 361.14 1.57488 359.743 1.57488C358.349 1.57488 356.951 1.62104 355.554 1.70282C354.157 1.79119 352.762 1.83471 351.365 1.83471C350.143 1.83471 348.967 1.75029 347.83 1.57618C346.702 1.40076 345.511 1.30975 344.3 1.30975C343.6 1.30975 342.987 1.40076 342.46 1.57618C341.942 1.75029 341.322 1.83471 340.628 1.83471H339.325C338.8 1.83471 338.447 1.92439 338.271 2.0985C336.179 1.57618 334.082 1.30842 331.99 1.30842C329.2 1.30842 326.531 1.74897 324.006 2.61687C321.474 3.49268 319.508 4.89212 318.109 6.80598C317.934 8.72775 317.501 10.4319 316.809 11.9118C316.105 13.3996 315.662 15.1011 315.495 17.0176C314.97 17.5413 314.668 18.3287 314.578 19.3733C314.494 20.4246 314.4 21.4666 314.321 22.5152C314.226 23.5624 314.061 24.5306 313.793 25.3985C313.533 26.2756 312.964 26.8797 312.096 27.2292C311.742 28.2778 311.568 29.3291 311.568 30.3711C311.568 31.421 311.744 32.4722 312.096 33.5169C311.742 34.3927 311.307 35.1762 310.782 35.8686C310.254 36.573 309.996 37.3525 309.996 38.2244C309.996 39.9707 309.739 41.5456 309.21 42.9384C308.689 44.3392 308.256 45.9062 307.904 47.6512C307.904 50.0992 307.379 52.2386 306.336 54.0694C305.292 55.8988 304.762 57.6927 304.762 59.4324C304.762 59.9574 304.847 60.3953 305.022 60.7448C304.144 62.3118 303.803 64.1887 303.976 66.3703C304.009 66.8175 304 67.2277 303.96 67.6194C303.26 67.5521 302.569 67.4545 301.887 67.3226C300.578 67.0628 299.313 66.9309 298.095 66.9309C296.871 66.9309 295.74 67.1907 294.689 67.7144C293.994 67.5389 293.287 67.4545 292.6 67.4545C291.894 67.4545 291.111 67.4545 290.237 67.4545C288.313 67.4545 286.399 67.6722 284.48 68.1061C282.558 68.544 280.812 68.7616 279.245 68.7616C278.369 68.7616 277.499 68.5862 276.625 68.2406C275.75 67.8872 274.876 67.7144 274.006 67.7144C273.133 67.7144 272.344 67.8885 271.652 68.2406C270.951 68.5862 270.252 68.9344 269.56 69.284C269.032 68.9344 268.375 68.6746 267.594 68.5005C266.806 68.3211 265.973 68.2406 265.105 68.2406C263.534 68.2406 261.875 68.4068 260.131 68.7616C259.775 68.4068 258.993 68.2406 257.777 68.2406C256.378 68.2406 255.504 68.3224 255.158 68.5005C254.279 68.3211 253.325 68.2406 252.274 68.2406C251.296 68.2406 250.322 68.2406 249.342 68.2406C249.469 66.8583 249.747 65.8823 250.177 65.327C250.79 64.5369 251.357 63.1889 251.882 61.2671C252.401 58.9972 252.88 56.776 253.325 54.5878C253.758 52.4075 254.317 50.0992 255.02 47.6499C255.193 46.9561 255.415 46.0407 255.669 44.8985C255.937 43.7668 256.283 42.5876 256.726 41.3636C257.161 40.1514 257.594 39.0091 258.029 37.9671C258.464 36.9199 258.951 36.2221 259.477 35.866C259.126 35.3437 258.952 34.5562 258.952 33.5142C258.952 32.6463 259.084 31.7679 259.344 30.8947C259.604 30.0281 259.82 29.1484 259.996 28.2765C261.049 27.927 261.701 27.2279 261.961 26.1807C262.218 25.1347 262.353 24.0478 262.353 22.9069C262.353 21.7805 262.394 20.6409 262.487 19.5105C262.572 18.3788 262.963 17.5426 263.668 17.0176C264.536 16.1497 265.054 14.7516 265.236 12.8324C265.403 10.908 265.496 9.25008 265.496 7.85854C265.496 6.28235 264.98 5.06492 263.928 4.18647C262.874 3.31462 261.609 2.71051 260.13 2.35175C258.641 2.00749 257.07 1.78986 255.416 1.70149C253.759 1.61971 252.227 1.57355 250.833 1.57355C249.433 1.57355 248.04 1.61971 246.641 1.70149C245.247 1.78986 243.851 1.8334 242.454 1.8334C241.233 1.8334 240.056 1.74898 238.914 1.57488C237.786 1.39945 236.598 1.30842 235.387 1.30842C234.689 1.30842 234.076 1.39945 233.55 1.57488C233.031 1.74898 232.409 1.8334 231.718 1.8334H230.415C229.884 1.8334 229.536 1.92308 229.361 2.09719C227.269 1.57487 225.169 1.30712 223.08 1.30712C220.287 1.30712 217.62 1.74767 215.096 2.61556C212.563 3.49137 210.598 4.89081 209.199 6.80467C209.023 8.72644 208.591 10.4306 207.895 11.9105C207.195 13.3983 206.752 15.0998 206.582 17.0163C206.059 17.5399 205.757 18.3274 205.668 19.372C205.583 20.4233 205.49 21.4653 205.405 22.5139C205.315 23.5611 205.151 24.5293 204.88 25.3972C204.62 26.2743 204.053 26.8784 203.185 27.2279C202.832 28.2765 202.655 29.3278 202.655 30.3698C202.655 31.4197 202.833 32.4709 203.185 33.5156C202.832 34.3914 202.397 35.1748 201.869 35.8673C201.341 36.5717 201.083 37.3512 201.083 38.223C201.083 39.9694 200.828 41.5443 200.299 42.9371C199.778 44.3379 199.346 45.9048 198.994 47.6499C198.994 50.0979 198.469 52.2373 197.423 54.0681C196.377 55.8975 195.852 57.6914 195.852 59.4311C195.852 59.9561 195.935 60.394 196.112 60.7435C195.233 62.3105 194.89 64.1874 195.066 66.369C195.233 68.5532 194.538 70.0806 192.966 70.9538C192.966 73.9242 192.709 76.4157 192.18 78.4153C191.661 80.4255 190.783 82.3881 189.565 84.3046C189.916 85.7067 190.09 86.6683 190.09 87.1879C190.09 89.2838 189.439 90.8534 188.125 91.8981C186.811 92.944 186.069 94.4292 185.899 96.351C185.376 97.0487 184.937 97.3996 184.59 97.3996C184.237 97.3996 183.853 97.0065 183.41 96.2177C182.977 95.4303 182.405 94.9542 181.709 94.7801C181.537 93.556 180.831 92.8543 179.612 92.6842C178.394 92.514 177.606 91.9864 177.263 91.1172C177.606 90.9405 177.782 90.5448 177.782 89.9328C177.782 89.3287 178.041 89.0187 178.57 89.0187V88.2286V85.0868C178.57 84.0435 178.395 83.3471 178.043 82.9909C177.175 81.9476 176.697 80.7315 176.602 79.3294C176.522 77.9339 176.306 76.6255 175.953 75.4041C175.428 74.5256 174.859 73.7949 174.245 73.1763C173.635 72.5682 173.337 71.732 173.337 70.69C173.337 70.3405 173.42 69.9065 173.596 69.3829C173.769 68.8606 173.864 68.4253 173.864 68.0705C173.864 66.8544 173.596 65.6792 173.075 64.5369C172.55 63.4052 172.279 62.1456 172.279 60.7435C171.411 60.2212 170.885 59.5617 170.71 58.7756C170.543 57.9921 170.408 57.078 170.319 56.0294C170.234 54.9821 170.151 53.9823 170.067 53.0142C169.974 52.0566 169.664 51.1426 169.147 50.2681C168.269 49.9185 167.834 48.957 167.834 47.3887V45.554C167.834 44.3352 167.577 43.4634 167.05 42.9358V42.151C167.05 40.406 166.656 39.0078 165.878 37.9658C165.081 36.9186 164.691 35.6945 164.691 34.3004V33.7728C164.691 32.554 164.515 31.5977 164.172 30.8934C163.812 30.1943 163.469 29.3264 163.118 28.2752C162.426 27.4007 162.113 26.3125 162.199 25.0054C162.294 23.6917 161.991 22.6035 161.288 21.7317C161.288 19.1122 160.806 17.0163 159.853 15.4506C158.89 13.8745 158.412 11.8722 158.412 9.42287C158.412 8.37691 158.02 7.32831 157.234 6.28103C156.446 5.23902 155.612 4.36585 154.74 3.66283C153.872 2.96904 152.95 2.39924 151.997 1.96001C151.038 1.53134 150.469 1.30712 150.294 1.30712C149.415 1.30712 148.588 1.43505 147.8 1.70149C147.013 1.96001 146.272 2.09719 145.578 2.09719C141.565 1.74766 137.634 1.43505 133.794 1.18312C129.956 0.912726 125.937 0.784801 121.759 0.784801C120.353 0.784801 118.915 1.00771 117.434 1.43506C115.945 1.8756 114.593 2.09719 113.371 2.09719H113.111C112.763 3.49268 112.065 4.62702 111.022 5.49492C109.968 6.376 109.09 7.50901 108.397 8.9045C107.351 9.77899 106.908 11.0848 107.092 12.8324C107.262 14.5735 107.092 15.9756 106.567 17.0176C106.051 18.2443 105.523 19.5105 104.996 20.8163C104.477 22.1182 104.034 23.478 103.692 24.8748C103.165 26.2756 102.949 27.9705 103.038 29.9793C103.123 31.9855 102.463 33.6039 101.068 34.8214C100.898 35.1749 100.849 35.6127 100.941 36.1311C101.024 36.6561 100.807 37.0953 100.282 37.4396C100.282 38.3114 100.371 38.9274 100.547 39.2769C100.725 39.6251 100.807 40.2345 100.807 41.1063C100.807 42.1536 100.631 42.7643 100.282 42.9384C99.411 43.466 98.7489 44.3392 98.3242 45.5566C97.881 46.778 97.5803 48.1801 97.4049 49.7471C97.2294 51.318 97.054 52.9311 96.8799 54.5891C96.7045 56.255 96.3615 57.7784 95.8419 59.1699C95.4844 59.3559 95.1309 59.9204 94.788 60.8741C94.4371 61.8356 94.1364 62.9699 93.8713 64.2797C93.6114 65.5921 93.2988 66.857 92.9572 68.0731C92.6064 69.3011 92.1632 70.2587 91.6461 70.9564C91.4707 71.3086 91.3863 71.6568 91.3863 72.0064C91.3863 72.526 91.4707 73.0101 91.6461 73.4401C91.8216 73.878 91.906 74.3608 91.906 74.8804C92.0788 76.6294 91.6039 77.9854 90.4656 78.9377C89.3273 79.8992 88.7681 81.2551 88.7681 82.9949C88.7681 85.2688 88.4173 88.069 87.7169 91.3757C87.0191 94.6996 86.2383 96.7097 85.3677 97.4022C83.9656 97.4022 82.9184 97.1859 82.2219 96.7401C81.5215 96.3114 81.0032 95.7917 80.651 95.1744C80.3002 94.5651 79.9915 94.0401 79.7396 93.6022C79.4745 93.1683 79.0801 92.9467 78.5551 92.9467C77.86 92.9467 77.1583 93.2527 76.4659 93.866C75.7628 94.4807 75.0598 94.8724 74.3634 95.0425C73.6709 94.6983 72.9719 94.5176 72.2741 94.5176C71.5737 94.5176 71.2229 94.0902 71.2229 93.2118C71.2229 91.6422 72.0987 90.8574 73.8477 90.8574C75.5861 90.8574 77.1584 90.682 78.5538 90.3337C78.203 89.1124 78.0777 87.8052 78.17 86.4045C78.2505 85.0103 77.9431 83.8746 77.2507 82.9962C77.2507 81.6047 76.8563 80.473 76.0702 79.5985C75.284 78.7266 74.7156 77.6754 74.3621 76.4553C74.5401 75.933 74.6325 75.2392 74.6325 74.3621C74.6325 72.7912 74.279 71.3099 73.5786 69.9118C72.8835 68.515 72.53 66.948 72.53 65.1977C72.53 64.3298 72.6144 63.7125 72.7898 63.367C71.914 63.0174 71.4379 62.3144 71.3548 61.2711C71.2598 60.2251 70.7006 59.5313 69.6493 59.1713C69.6493 58.4788 69.739 57.8655 69.9144 57.3405C70.0899 56.8182 70.1716 56.2985 70.1716 55.7735V54.7223C70.1716 54.3728 70.2666 54.1142 70.4315 53.9388C70.6095 53.7687 70.6992 53.5049 70.6992 53.1501C70.6992 51.7572 70.2666 50.4989 69.3961 49.3566C68.5176 48.225 68.0823 46.4351 68.0823 43.987V42.1549C67.382 41.6313 66.9902 40.8913 66.9045 39.9285C66.8095 38.9683 66.4204 38.1426 65.724 37.4409C66.0669 36.3923 66.2516 35.6985 66.2516 35.345C66.2516 34.1276 65.9812 32.9906 65.4549 31.9394C64.9366 30.896 64.6794 29.7591 64.6794 28.5416V27.2292C64.6794 25.4895 64.4498 23.7854 64.0172 22.1195C63.5846 20.4681 63.0557 18.8497 62.4463 17.2827C61.8356 15.7131 61.3185 14.0512 60.8727 12.3049C60.4401 10.5612 60.2238 8.55366 60.2238 6.28499C58.827 4.02028 56.8208 2.49156 54.2052 1.70413C51.5857 0.914051 48.7921 0.522315 45.8231 0.522315C43.2115 0.522315 40.5854 0.654211 37.9658 0.914052C35.349 1.18445 32.7334 1.30975 30.1165 1.30975C28.3702 1.30975 26.6238 1.04595 24.8841 0.522315C23.6548 0.17674 22.4321 0 21.2133 0C19.9919 0 18.6782 0 17.2827 0H9.95044H7.07505C6.1966 0.697746 5.24298 1.13565 4.18911 1.30975C3.14579 1.4865 2.53246 2.27261 2.36495 3.66547C2.0075 4.02027 1.53002 5.02007 0.919325 6.67937C0.300718 8.33734 0 9.34636 0 9.6893C0 11.0874 0.484041 12.3985 1.44559 13.6107C2.40845 14.8387 2.88594 16.3225 2.88594 18.0623C2.88594 18.7706 2.7936 19.3747 2.61818 19.8983C3.31856 20.4259 3.80528 21.2094 4.0638 22.258C4.32365 23.3053 4.53996 24.3472 4.7233 25.3998C4.89609 26.4471 5.11239 27.4535 5.37487 28.4058C5.63471 29.3713 6.1966 30.1086 7.07505 30.6322C6.89698 31.1612 6.81522 31.8602 6.81522 32.7281C6.81522 34.4784 7.20697 35.8699 7.99308 36.9238C8.78184 37.9711 9.43339 39.1041 9.95044 40.3215C9.95044 42.767 10.2591 45.033 10.8698 47.1289C11.4805 49.2247 12.1835 51.2784 12.9591 53.282C13.7531 55.2881 14.4482 57.2561 15.0589 59.1713C15.6696 61.0917 15.9782 63.1019 15.9782 65.1964C16.8461 65.8955 17.4186 66.8109 17.6758 67.9491C17.9409 69.0808 18.0702 70.26 18.0702 71.4827V72.2662C18.0702 73.1433 18.4184 73.8358 19.124 74.3621C19.8165 74.8818 20.2518 75.6731 20.4246 76.7151C20.2518 77.2441 20.1673 78.0236 20.1673 79.0748C20.1673 81.693 21.0379 83.8746 22.7816 85.6144C23.6548 87.3647 24.098 89.3762 24.098 91.6409C24.098 93.9135 24.5227 95.7443 25.3985 97.1371C25.752 98.1818 26.0118 99.3253 26.1872 100.545C26.3626 101.761 26.6225 102.989 26.9733 104.206C27.6658 104.555 28.1947 105.299 28.5443 106.433C28.8978 107.569 29.1576 108.749 29.3304 109.971C29.4979 111.188 29.6298 112.369 29.7221 113.506C29.8066 114.637 29.9411 115.464 30.1165 115.988C31.5159 117.564 32.2981 119.523 32.4736 121.883C32.6411 124.237 33.1686 126.373 34.0444 128.298C34.212 129.516 34.5721 130.564 35.0931 131.441C35.618 132.316 36.0441 133.273 36.3962 134.315C36.9186 135.543 37.1903 136.939 37.1903 138.511C37.1903 140.078 37.3551 141.565 37.7086 142.956C39.455 144.882 40.5009 147.108 40.8518 149.633C41.1947 152.167 41.7223 154.658 42.4253 157.098C43.466 158.14 43.9963 159.59 43.9963 161.421C43.9963 163.25 44.2561 164.78 44.7824 166.002C45.1253 166.873 45.5579 167.526 46.0829 167.96C46.6131 168.398 47.0365 168.874 47.3966 169.403V170.452C47.3966 172.721 47.8319 174.901 48.7024 177.001C48.5243 177.52 48.4452 178.218 48.4452 179.093C48.4452 180.836 48.9676 182.192 50.0135 183.15C51.0595 184.107 51.5844 185.466 51.5844 187.202C51.9379 189.477 53.3743 191.445 55.8988 193.1C58.4339 194.753 60.4889 195.583 62.0611 195.583C63.0965 195.583 64.1913 195.54 65.3309 195.455C66.4666 195.366 67.5547 195.327 68.6007 195.327C69.4765 195.327 70.3471 195.365 71.2176 195.455C72.0934 195.539 72.9666 195.583 73.8424 195.583C75.5808 195.583 76.8101 195.494 77.5052 195.328C78.1977 195.494 79.0326 195.583 79.9863 195.583C80.9478 195.583 81.8698 195.583 82.7377 195.583C83.7889 195.583 84.794 195.583 85.7463 195.583C86.7091 195.583 87.6272 195.494 88.5056 195.328C91.29 194.802 93.7301 194.541 95.8379 194.541C97.9298 194.541 99.7592 194.494 101.33 194.409C102.904 194.312 104.206 193.975 105.261 193.355C106.307 192.751 107.09 191.657 107.61 190.085C107.963 188.515 108.612 187.075 109.573 185.765C110.535 184.457 111.097 182.844 111.278 180.922C111.278 179.531 111.538 178.482 112.064 177.78C112.592 177.086 112.937 176.04 113.11 174.637V173.331C113.11 171.241 113.638 169.5 114.684 168.097C115.727 166.695 116.255 164.954 116.255 162.855V160.759C116.255 158.845 116.731 157.315 117.69 156.182C118.643 155.045 119.138 153.52 119.138 151.6V150.03C119.656 148.632 120.268 146.802 120.962 144.532C121.662 142.266 122.183 141.124 122.53 141.124C122.53 140.601 122.53 140.077 122.53 139.555C122.53 139.035 122.45 138.687 122.27 138.511C122.098 138.511 122.358 137.686 123.062 136.02C123.752 134.363 124.105 132.84 124.105 131.441C124.105 130.918 124.021 130.39 123.848 129.867C123.67 129.342 123.588 128.914 123.588 128.554C123.588 128.389 124.021 127.73 124.899 126.598C125.762 125.46 126.464 124.544 126.991 123.847C126.991 123.739 126.991 123.386 126.991 122.798C126.991 121.926 126.816 121.401 126.464 121.228V120.704C126.464 120.186 126.206 119.92 125.68 119.92C125.327 119.92 124.985 119.962 124.634 120.048C124.281 120.138 123.931 120.186 123.588 120.186C123.237 120.186 122.791 119.834 122.272 119.133C121.759 118.435 121.396 117.909 121.231 117.566C121.396 117.389 121.491 117.167 121.491 116.905C121.491 116.649 121.664 116.513 122.013 116.513C123.587 116.513 124.581 116.777 125.025 117.301C125.46 117.82 125.852 118.084 126.205 118.084C127.251 118.084 127.943 117.566 128.294 116.514C128.648 115.467 128.954 114.287 129.214 112.979C129.471 111.671 129.906 110.45 130.527 109.314C131.138 108.185 132.13 107.61 133.536 107.61C135.107 107.61 136.02 108.269 136.287 109.578C136.542 110.889 137.025 111.895 137.725 112.588C138.418 113.111 138.895 113.857 139.165 114.816C139.431 115.777 139.557 116.777 139.557 117.819C139.557 118.871 139.598 119.833 139.681 120.702C139.773 121.581 140.168 122.274 140.871 122.798C141.211 125.77 141.999 128.3 143.225 130.392C143.225 132.135 143.485 134.407 144.006 137.204C144.531 139.992 145.41 142.004 146.628 143.221C146.271 143.744 146.103 144.534 146.103 145.576C146.103 146.973 146.495 148.157 147.284 149.109C148.067 150.073 148.543 151.171 148.722 152.39C148.722 154.309 149.064 155.786 149.773 156.835C150.468 157.886 150.821 159.194 150.821 160.76C150.821 161.464 150.726 162.072 150.554 162.597C150.726 163.643 151.076 164.782 151.594 166.003C152.125 167.227 152.651 168.273 153.168 169.141C153.871 170.543 154.222 172.02 154.222 173.596C154.222 175.163 154.657 176.383 155.535 177.258C155.881 178.483 156.138 179.612 156.314 180.664C156.489 181.706 156.573 182.939 156.573 184.329V186.161C158.317 189.303 160.458 191.659 162.99 193.228C165.518 194.8 169.052 195.583 173.594 195.583C174.988 195.583 176.427 195.412 177.916 195.063C179.395 194.709 180.925 194.541 182.5 194.541C183.718 194.541 184.888 194.579 186.034 194.669C187.162 194.753 188.34 194.802 189.564 194.802C190.783 194.802 192.57 194.802 194.938 194.802C197.284 194.802 199.646 194.754 202.001 194.669C204.361 194.58 206.45 194.494 208.282 194.41C210.122 194.314 211.115 194.104 211.291 193.758C211.641 192.36 212.48 191.399 213.782 190.875C215.096 190.35 216.098 189.477 216.793 188.257C216.793 187.911 216.752 187.514 216.667 187.075C216.574 186.646 216.532 186.249 216.532 185.896C216.532 185.028 216.878 184.196 217.576 183.414C218.271 182.625 218.624 181.541 218.624 180.14C218.624 179.79 218.581 179.484 218.497 179.225C218.405 178.962 218.363 178.659 218.363 178.304C218.363 176.04 218.974 174.553 220.192 173.855C220.885 172.806 221.282 171.543 221.373 170.056C221.457 168.579 221.765 167.226 222.292 166.003C222.643 164.427 223.204 163.035 224 161.814C224.779 160.594 225.168 159.105 225.168 157.358C225.168 157.014 225.127 156.703 225.036 156.448C224.951 156.184 224.909 155.878 224.909 155.534C224.909 153.259 225.479 151.3 226.604 149.634C227.745 147.983 228.488 146.194 228.837 144.265C228.837 142.175 229.399 139.995 230.535 137.725C231.67 135.46 232.405 133.097 232.768 130.658C232.935 129.258 233.067 127.868 233.151 126.468C233.175 126.098 233.235 125.741 233.308 125.395C233.96 125.371 234.6 125.344 235.217 125.307C236.616 125.217 238.185 125.089 239.934 124.915C240.629 125.608 241.675 125.957 243.074 125.957C243.947 125.957 244.693 125.833 245.301 125.565C245.914 125.307 246.563 125.174 247.261 125.174C247.614 125.174 248.003 125.263 248.441 125.441C248.874 125.608 249.361 125.696 249.879 125.696C251.1 125.696 251.976 125.441 252.501 124.914C253.903 124.914 255.25 125.046 256.558 125.305C257.867 125.564 259.134 125.696 260.35 125.696C261.577 125.696 262.707 125.441 263.759 124.914C264.454 125.088 265.158 125.172 265.848 125.172C266.551 125.172 267.334 125.172 268.21 125.172C270.129 125.172 272.046 124.956 273.965 124.517C275.892 124.081 277.63 123.864 279.203 123.864C280.076 123.864 280.949 124.046 281.82 124.383C282.698 124.74 283.566 124.914 284.442 124.914C285.312 124.914 286.104 124.738 286.794 124.383C286.871 124.348 286.948 124.31 287.023 124.271L285.155 131.203C285.799 130.911 286.441 130.605 287.085 130.26C288.564 129.471 289.834 128.391 290.88 126.99C291.748 126.64 292.583 126.374 293.374 126.2C294.157 126.024 294.719 125.506 295.077 124.633C295.033 124.525 295.004 124.424 294.969 124.316C296.048 124.241 297.161 124.1 298.312 123.863C298.67 124.219 299.453 124.382 300.669 124.382C302.069 124.382 302.942 124.299 303.291 124.124C304.167 124.3 305.124 124.382 306.172 124.382C306.319 124.382 306.469 124.382 306.615 124.382C306.45 124.642 306.272 124.902 306.072 125.158C304.666 125.854 303.053 126.246 301.221 126.332C299.389 126.423 297.593 126.64 295.855 126.99C295.327 128.036 295.077 129.167 295.077 130.392C295.244 131.089 295.939 131.443 297.169 131.443H298.74C299.432 131.443 299.961 131.527 300.301 131.697C300.655 131.883 301.18 131.961 301.875 131.961C302.223 131.961 302.699 131.925 303.313 131.833C303.921 131.743 304.407 131.696 304.758 131.696C305.451 131.696 306.144 131.784 306.85 131.96C307.543 132.134 307.901 132.659 307.901 133.531C307.901 133.885 307.812 134.102 307.636 134.186C307.461 134.275 307.376 134.488 307.376 134.838V135.1C306.498 135.979 305.325 136.502 303.847 136.669C302.36 136.852 300.871 137.064 299.39 137.328C297.901 137.583 296.6 138.071 295.463 138.764C294.328 139.47 293.671 140.862 293.498 142.954C294.198 143.832 295.028 144.398 295.99 144.658C296.943 144.922 297.595 145.487 297.952 146.359C297.952 147.064 298.347 147.672 299.133 148.191C299.911 148.715 300.741 148.979 301.616 148.979C302.838 148.979 303.801 148.503 304.5 147.541C305.192 146.578 306.073 146.101 307.117 146.101C307.812 146.101 308.33 146.189 308.687 146.359C307.636 147.757 306.634 149.195 305.671 150.682C304.709 152.163 303.012 152.904 300.573 152.904C300.22 152.904 299.435 152.814 298.213 152.64C296.992 152.477 296.384 152.21 296.384 151.857C296.384 149.938 295.897 148.587 294.944 147.796C293.982 147.017 292.887 145.925 291.667 144.53C291.489 144.7 291.235 144.788 290.881 144.788C290.53 144.788 290.178 144.656 289.835 144.397C289.484 144.133 289.046 144.005 288.524 144.005C288.171 143.831 287.563 143.697 286.692 143.606C285.814 143.527 284.894 143.432 283.941 143.344C283.191 143.277 282.529 143.216 281.941 143.146L269.062 190.969C269.949 191.841 270.894 192.596 271.898 193.224C274.425 194.797 277.96 195.579 282.502 195.579C283.896 195.579 285.335 195.409 286.824 195.059C288.305 194.706 289.832 194.537 291.407 194.537C292.626 194.537 293.796 194.575 294.942 194.665C296.07 194.749 297.251 194.798 298.472 194.798C299.693 194.798 301.481 194.798 303.845 194.798C306.197 194.798 308.554 194.75 310.909 194.665C313.268 194.576 315.36 194.491 317.19 194.406C319.03 194.31 320.023 194.1 320.198 193.755C320.549 192.356 321.388 191.395 322.695 190.871C324.004 190.346 325.006 189.473 325.701 188.253C325.701 187.907 325.66 187.51 325.575 187.071C325.482 186.643 325.44 186.245 325.44 185.892C325.44 185.024 325.786 184.192 326.483 183.41C327.178 182.621 327.532 181.537 327.532 180.136C327.532 179.786 327.491 179.48 327.405 179.221C327.313 178.958 327.271 178.655 327.271 178.3C327.271 176.037 327.881 174.549 329.1 173.851C329.798 172.802 330.19 171.539 330.282 170.052C330.365 168.575 330.674 167.222 331.201 165.999C331.552 164.423 332.113 163.031 332.907 161.81C333.685 160.59 334.077 159.101 334.077 157.354C334.077 157.01 334.033 156.699 333.942 156.444C333.859 156.18 333.816 155.874 333.816 155.53C333.816 153.255 334.385 151.296 335.51 149.63C336.651 147.979 337.397 146.19 337.744 144.261C337.744 142.171 338.305 139.991 339.441 137.721C340.577 135.456 341.314 133.093 341.674 130.654C341.842 129.255 341.976 127.864 342.058 126.464C342.15 125.065 342.628 123.845 343.506 122.797C344.377 122.451 344.809 121.491 344.809 119.917C344.809 119.568 344.768 119.309 344.683 119.13C344.593 118.96 344.548 118.696 344.548 118.34C344.548 116.948 344.943 115.945 345.729 115.337C346.515 114.722 346.901 113.632 346.901 112.06V108.913C346.901 107.527 347.077 106.565 347.434 106.039C349.173 104.997 350.002 103.379 349.918 101.194C349.826 99.014 350.134 96.9669 350.829 95.0412C351.53 94.3527 352.014 93.5165 352.275 92.5549C352.535 91.6013 352.667 90.587 352.667 89.5437C352.667 88.5017 352.751 87.4953 352.926 86.5298C353.097 85.5761 353.454 84.7439 353.972 84.0461C354.665 83.5238 355.018 82.7403 355.018 81.6917V79.332C355.018 78.1106 355.191 77.1966 355.543 76.5819C355.897 75.9765 356.236 75.4067 356.589 74.8791C356.94 74.3594 357.29 73.7989 357.643 73.1789C357.986 72.5709 358.164 71.5711 358.164 70.1743C358.164 67.7249 358.47 66.1171 359.081 65.3296C359.692 64.5396 360.259 63.1915 360.784 61.2698C361.305 58.9998 361.781 56.7786 362.227 54.5904C362.659 52.4101 363.221 50.1019 363.922 47.6525C364.1 46.9587 364.316 46.0433 364.571 44.9011C364.841 43.7694 365.184 42.5902 365.627 41.3662C366.062 40.154 366.495 39.0118 366.933 37.9698C367.368 36.9225 367.852 36.2248 368.378 35.8686C368.028 35.3463 367.854 34.5589 367.854 33.5169C367.854 32.649 367.985 31.7705 368.245 30.8974C368.505 30.0308 368.721 29.151 368.897 28.2792C369.951 27.9296 370.602 27.2306 370.862 26.1833C371.119 25.1373 371.254 24.0505 371.254 22.9095C371.254 21.7831 371.297 20.6435 371.388 19.5131C371.473 18.3814 371.865 17.5452 372.569 17.0203C373.437 16.1524 373.955 14.7542 374.137 12.8351C374.307 10.9107 374.397 9.25271 374.397 7.86118C374.406 6.28366 373.891 5.06623 372.838 4.18778ZM32.2084 60.3504C32.2084 60.6129 32.0277 60.7461 31.6874 60.7461H30.1165H29.5916C29.2381 60.5707 28.8991 60.4401 28.5456 60.3504C28.1948 60.2687 28.0246 59.9587 28.0246 59.4337C28.0246 58.9141 28.2844 58.608 28.8028 58.5236C29.3304 58.43 29.7656 58.3865 30.1165 58.3865C30.6375 58.3865 31.1189 58.3865 31.5569 58.3865C31.9921 58.3865 32.2084 58.6463 32.2084 59.1699C32.5593 59.1699 32.7334 59.4337 32.7334 59.96C32.3825 59.9587 32.2084 60.084 32.2084 60.3504ZM36.1364 78.021C35.7855 78.021 35.618 77.7664 35.618 77.2414C35.618 76.8919 35.7855 76.6268 36.1364 76.4514C36.4872 76.4514 36.8289 76.4514 37.1903 76.4514C37.5306 76.4514 37.7904 76.7112 37.9658 77.2414C37.7904 77.7664 37.1902 78.021 36.1364 78.021ZM198.077 88.8921C199.212 88.4515 200.475 88.23 201.869 88.23C202.739 88.23 203.618 88.3632 204.488 88.6257C205.367 88.8921 206.328 89.02 207.372 89.02C207.372 89.3735 207.498 89.6334 207.766 89.8075C208.023 89.9829 208.158 90.2454 208.158 90.587C208.158 91.2953 207.849 91.815 207.239 92.1632C206.62 92.5167 206.061 92.6855 205.544 92.6855C205.184 92.6855 204.838 92.6011 204.49 92.4257C204.139 92.2516 203.787 92.1632 203.444 92.1632H202.919C202.398 92.1632 201.126 91.8136 199.119 91.1199C197.114 90.4168 195.667 89.8972 194.806 89.5437C195.85 89.5437 196.935 89.33 198.077 88.8921ZM201.61 109.97H202.654C203.184 109.97 203.443 110.225 203.443 110.753C203.264 111.103 202.873 111.233 202.262 111.141C201.651 111.059 201.082 111.103 200.562 111.278C200.562 110.928 200.646 110.711 200.827 110.622C200.992 110.538 201.082 110.316 201.082 109.971H201.61V109.97ZM202.788 101.854C202.448 101.184 202.036 100.514 201.547 99.8397C201.872 100.156 202.282 100.355 202.788 100.412C203.577 100.495 204.362 100.588 205.151 100.669C205.934 100.76 206.583 100.894 207.103 101.068C207.63 101.238 207.897 101.76 207.897 102.635V103.423C207.372 103.778 206.843 104.037 206.328 104.207C205.801 104.386 205.097 104.471 204.229 104.471C203.71 103.596 203.216 102.722 202.788 101.854ZM192.966 96.3523C194.363 96.3523 195.147 96.7863 195.325 97.6608C194.972 97.8388 194.582 98.0142 194.145 98.1804C193.71 98.3638 193.143 98.4482 192.447 98.4482C192.447 98.0986 192.18 97.9245 191.661 97.9245C191.478 98.1 191.31 98.1804 191.134 98.1804C191.312 98.1804 191.134 97.9245 190.618 97.4009C190.783 96.7071 191.566 96.3523 192.966 96.3523ZM187.731 103.685C188.084 103.685 188.436 103.727 188.777 103.813C189.13 103.902 189.477 103.946 189.833 103.946C190.176 103.946 190.392 103.904 190.482 103.813C190.567 103.728 190.701 103.685 190.874 103.685C191.227 104.034 191.922 104.204 192.966 104.204C193.844 104.204 194.537 104.12 195.066 103.946C195.591 103.776 196.201 103.686 196.895 103.686H198.469C198.812 104.035 198.994 104.554 198.994 105.253C198.636 105.775 198.207 106.305 197.682 106.825C196.804 107.701 195.85 108.135 194.804 108.135H193.234C192.533 108.135 192.087 108.223 191.922 108.393C191.922 108.575 191.179 108.265 189.699 107.479C188.207 106.692 187.028 105.865 186.169 104.997C186.169 104.119 186.687 103.685 187.731 103.685ZM179.352 99.4902C180.048 99.1446 180.658 98.7067 181.185 98.1804C181.363 98.3638 181.622 98.4482 181.971 98.4482C182.322 98.4482 182.625 98.406 182.893 98.3203C183.15 98.2266 183.455 98.1804 183.801 98.1804C184.497 98.1804 184.858 98.4482 184.858 98.9718V99.2356C184.498 100.278 183.761 101.024 182.625 101.459C181.489 101.897 180.484 102.115 179.614 102.115C178.743 102.115 178.3 101.855 178.3 101.322C178.299 100.452 178.655 99.8424 179.352 99.4902ZM173.335 95.5688C173.678 95.5688 173.863 95.7429 173.863 96.0885C173.863 96.2679 173.811 96.3523 173.726 96.3523C173.633 96.3523 173.594 96.4407 173.594 96.6161C173.073 96.6161 172.715 96.5264 172.548 96.3523C172.549 95.8234 172.806 95.5688 173.335 95.5688ZM171.506 70.9551C171.846 70.9551 172.114 71.1332 172.279 71.4801C172.279 72.0037 171.93 72.2635 171.238 72.2635C170.885 72.2635 170.71 72.005 170.71 71.4801C170.709 71.1332 170.978 70.9551 171.506 70.9551ZM162.6 88.23C163.997 86.8384 166.178 86.1407 169.146 86.1407C170.017 86.1407 170.71 86.4902 171.238 87.1879C171.238 88.59 170.762 89.5423 169.798 90.0673C168.836 90.587 167.698 90.9431 166.395 91.1199C165.081 91.2953 163.729 91.4628 162.332 91.6395C160.935 91.815 159.808 92.2529 158.929 92.9453C156.837 94.5149 153.872 95.305 150.026 95.305C147.759 95.305 145.834 95.0412 144.274 94.5149C144.274 93.4729 145.093 92.9453 146.758 92.9453C148.414 92.9453 149.849 92.9453 151.077 92.9453C151.596 92.0788 152.208 91.2953 152.912 90.587C153.604 89.8985 154.393 89.5437 155.269 89.5437C155.787 89.5437 156.358 89.6716 156.974 89.9354C157.575 90.1992 158.051 90.3311 158.412 90.3311C159.808 90.3298 161.197 89.6334 162.6 88.23ZM168.092 100.803C167.574 101.854 166.603 102.372 165.214 102.372C163.811 102.372 162.549 102.284 161.419 102.114C160.284 101.942 159.714 101.416 159.714 100.544C160.242 99.8437 160.852 99.2356 161.546 98.7067H162.6H165.214C166.438 98.7067 167.306 98.8861 167.831 99.2343C168.003 99.5786 168.092 100.109 168.092 100.803ZM154.74 72.5234H155.268H157.097C157.625 72.5234 157.965 72.6118 158.143 72.7872C157.8 73.1407 157.182 73.3095 156.314 73.3095C155.443 73.3109 154.918 73.047 154.74 72.5234ZM158.929 81.4266H159.194V81.9489C159.194 82.4725 158.973 82.7799 158.545 82.8643C158.102 82.9553 157.801 83.1716 157.626 83.5211C157.451 83.5211 157.273 83.6095 157.098 83.781C156.75 83.781 156.49 83.6517 156.315 83.3827C156.14 83.1294 155.882 82.9909 155.537 82.9909H155.269C155.269 82.8274 155.22 82.6031 155.134 82.3393C155.042 82.0769 155 81.8632 155 81.6891C155 81.5137 155.092 81.4253 155.268 81.4253H155.786C156.14 81.0758 156.489 80.9491 156.837 81.0335C157.183 81.1232 157.53 81.0757 157.886 80.9016C157.886 81.2512 157.966 81.424 158.143 81.424H158.929V81.4266ZM138.51 32.9906C138.68 32.9906 138.77 33.1647 138.77 33.5156C138.077 33.5156 137.726 33.4311 137.726 33.2491C137.728 33.0856 137.985 32.9906 138.51 32.9906ZM133.796 51.1874C134.491 50.9276 135.193 50.6255 135.896 50.2707H136.682C137.203 50.2707 137.769 50.2285 138.379 50.1375C138.987 50.0583 139.639 50.0095 140.342 50.0095C141.731 50.0095 142.702 50.4501 143.228 51.318V51.8403C143.228 52.538 142.174 53.063 140.085 53.4073C137.985 53.766 136.323 53.9362 135.111 53.9362C134.235 53.9362 133.449 53.6777 132.756 53.1474C132.755 52.1015 133.095 51.4512 133.796 51.1874ZM133.268 63.4923C135.546 63.7521 137.027 64.5818 137.728 65.9799C138.079 65.9799 138.555 66.0221 139.168 66.1171C139.776 66.2015 140.252 66.2411 140.603 66.2411C142.525 66.2411 143.489 65.1067 143.489 62.8394C143.489 61.9649 143.095 61.5309 142.309 61.5309C141.525 61.5309 141.133 61.1814 141.133 60.4836C141.133 60.1341 141.35 60.0035 141.785 60.0853C142.218 60.1816 142.609 60.2238 142.963 60.2238C144.009 60.2238 145.011 60.3122 145.971 60.4823C146.932 60.6525 147.937 60.7461 148.98 60.7461C149.848 60.7461 150.686 60.7883 151.472 60.8741C152.258 60.9624 153.085 61.006 153.966 61.006C154.834 61.006 155.568 60.8358 156.19 60.4836C156.792 60.1341 157.274 59.9613 157.627 59.9613C157.452 59.9613 157.627 60.2251 158.146 60.7488C157.627 62.3157 156.448 63.0662 154.616 62.9726C152.779 62.8842 151.249 63.2786 150.027 64.1478C148.631 65.199 146.977 66.1619 145.06 67.0311C143.138 67.9096 141.296 68.3435 139.56 68.3435C137.813 68.3435 136.105 68.205 134.451 67.9518C132.792 67.6853 131.532 67.1195 130.654 66.2437H129.608H126.722C125.155 66.2437 124.365 65.8137 124.365 64.9352C124.365 64.5857 124.543 64.3311 124.901 64.1478C125.243 63.9816 125.596 63.8022 125.939 63.6242C126.289 63.6242 126.549 63.5437 126.722 63.3696C126.9 63.1955 127.168 63.1058 127.513 63.1058C129.082 63.1005 131.006 63.2272 133.268 63.4923ZM125.681 29.8474C126.032 29.8474 126.289 30.1073 126.465 30.6309C126.465 30.8116 126.549 30.9871 126.722 31.1598C126.722 31.3353 126.549 31.4197 126.206 31.4197H125.42H124.899C124.716 31.0702 124.634 30.5452 124.634 29.8474C124.985 29.8474 125.328 29.8474 125.681 29.8474ZM123.716 45.9536C123.806 45.864 123.851 45.6516 123.851 45.2915H124.366H125.683C126.38 45.2915 126.723 45.5566 126.723 46.0816C126.723 46.2557 126.685 46.3915 126.599 46.4733C126.507 46.5657 126.465 46.6936 126.465 46.869C126.114 47.0431 125.816 47.2186 125.556 47.3913C125.288 47.5668 124.902 47.6512 124.366 47.6512H123.851V47.1275C123.851 46.9574 123.807 46.9112 123.716 46.9956C123.624 47.0893 123.589 46.9574 123.589 46.6039C123.589 46.2544 123.622 46.042 123.716 45.9536ZM120.184 54.4611C120.529 54.2857 120.882 54.0312 121.232 53.6777C122.1 53.6777 122.794 53.7199 123.33 53.803C123.851 53.894 124.283 54.2857 124.635 54.9848C124.635 56.0321 123.849 56.7311 122.273 57.0807C121.76 56.9066 121.189 56.6889 120.578 56.4238C119.962 56.164 119.659 55.7722 119.659 55.2446C119.658 54.899 119.836 54.6352 120.184 54.4611ZM120.444 73.1776C120.965 73.0932 121.492 73.0457 122.015 73.0457H123.588C124.456 73.0457 125.286 72.8756 126.072 72.5234C126.855 72.1739 127.685 72.0037 128.563 72.0037C129.431 72.0037 130.299 72.5696 131.178 73.7078C132.048 74.8382 133.177 75.4054 134.583 75.4054C134.934 75.4054 135.627 75.2353 136.68 74.8778C137.54 74.527 138.51 74.3159 139.558 74.2275C140.602 74.1431 141.48 74.0996 142.173 74.0996C144.615 74.0996 146.846 74.2737 148.855 74.6193C150.852 74.9728 151.863 76.3669 151.863 78.8084C151.513 79.3307 151.036 79.5589 150.423 79.4705C149.807 79.3742 149.331 79.4217 148.977 79.5958C148.459 79.0735 147.891 78.6765 147.283 78.4167C146.661 78.1568 146.102 77.8508 145.577 77.496C139.992 77.6728 134.582 78.6422 129.344 80.3806C128.293 79.6882 127.549 78.7662 127.12 77.6305C126.68 76.5015 125.761 75.9304 124.361 75.9304C124.018 75.9304 123.618 76.0187 123.191 76.1902C122.745 76.3683 122.356 76.4527 122.011 76.4527C121.31 76.4527 120.878 76.3683 120.7 76.1902C120.524 76.0187 120.44 75.8407 120.44 75.6705C120.267 75.6705 120.091 75.7549 119.915 75.929V75.6705C119.915 75.3157 119.866 75.015 119.791 74.7512C119.698 74.4874 119.654 74.1893 119.654 73.8345C119.658 73.485 119.919 73.2686 120.444 73.1776ZM128.822 93.7275C129.175 93.7275 129.517 93.8212 129.868 93.9913C130.219 94.1667 130.56 94.2551 130.911 94.2551H131.439C131.439 94.6059 131.266 94.8698 130.911 95.0399C130.56 95.2193 130.219 95.4739 129.868 95.8234H129.082H127.776C126.9 95.8234 126.465 95.3947 126.465 94.5149C126.818 94.5149 127.168 94.4305 127.513 94.2564C128.211 93.9109 128.649 93.7275 128.822 93.7275ZM125.681 89.8075V90.587C125.681 91.1199 125.422 91.3744 124.901 91.3744C124.198 91.3744 123.546 91.2465 122.93 90.9827C122.317 90.7228 122.016 90.3311 122.016 89.8075C122.016 89.6334 122.186 89.3735 122.534 89.02C122.888 89.3735 123.413 89.4579 124.108 89.2838C124.811 89.1084 125.328 89.2838 125.681 89.8075ZM115.86 96.8707C115.945 96.8707 115.997 96.9656 115.997 97.1345C115.997 98.5365 115.294 99.3609 113.9 99.626C112.503 99.8846 111.633 100.018 111.281 100.018C109.877 100.018 108.181 99.8424 106.172 99.4902C104.167 99.1446 103.164 98.4482 103.164 97.4009C106.131 96.5264 109.091 96.0885 112.067 96.0885C113.64 96.0885 114.851 96.1769 115.73 96.3523V96.6161C115.73 96.7862 115.771 96.8707 115.86 96.8707ZM111.023 106.564C110.142 106.731 109.493 106.956 109.05 107.219C108.615 107.478 108.053 107.606 107.353 107.606C107.002 107.606 106.433 107.478 105.658 107.219C104.864 106.956 104.477 106.648 104.477 106.304C104.477 105.605 104.737 105.213 105.263 105.124C105.782 105.039 106.217 104.996 106.567 104.996C108.662 104.996 110.142 105.515 111.023 106.564ZM105.523 62.0519H106.567C107.092 62.0519 107.445 61.9636 107.613 61.7881V62.5782C107.785 62.4015 107.966 62.3131 108.14 62.3131C108.305 62.3131 108.397 62.4938 108.397 62.838C108.397 63.1915 108.397 63.454 108.397 63.6202C107.705 63.454 106.96 63.4079 106.171 63.4923C105.387 63.5859 104.819 63.3643 104.476 62.838C104.477 62.3118 104.819 62.0519 105.523 62.0519ZM104.994 72.7872H105.262C106.13 72.7872 106.96 72.4416 107.748 71.7333C108.529 71.0461 109.359 70.6913 110.237 70.6913C111.451 70.6913 112.594 71.0461 113.64 71.7333C112.94 72.7872 111.719 73.5311 109.97 73.9598C108.221 74.4003 106.91 74.618 106.051 74.618C105.34 74.618 104.819 74.4478 104.477 74.0983C104.477 73.2264 104.645 72.7872 104.994 72.7872ZM91.1225 87.0574C92.1605 86.6234 93.4307 86.2317 94.9199 85.8755C96.3985 85.526 97.8388 85.1343 99.233 84.6964C100.632 84.2624 101.678 83.7823 102.379 83.2626C103.082 82.9065 103.6 82.739 103.952 82.739C105.171 82.739 105.782 83.2626 105.782 84.3059C105.782 84.8322 105.689 85.2675 105.525 85.6118C105.171 85.9679 104.865 86.448 104.61 87.0574C104.345 87.6694 103.861 87.9754 103.165 87.9754H102.379C102.031 87.9754 101.727 88.0664 101.47 88.23C101.202 88.4054 100.898 88.5004 100.548 88.5004C100.198 88.5004 99.7619 88.4054 99.2343 88.23C98.7159 88.0664 98.2728 87.9754 97.9338 87.9754C96.5343 87.9754 95.2232 88.3632 94.0045 89.1519C92.7805 89.9354 91.7292 90.3311 90.8587 90.3311C90.5078 90.3311 90.2071 90.1108 89.9499 89.6716C89.6822 89.239 89.5555 88.9356 89.5555 88.7628C89.5529 88.0664 90.0713 87.4953 91.1225 87.0574ZM98.9745 115.198C98.9745 115.553 98.8847 115.817 98.7146 115.987C98.1923 116.688 97.579 117.038 96.8773 117.038C96.0067 117.038 95.5741 116.776 95.5741 116.251C95.5741 115.728 95.8392 115.289 96.3602 114.945C96.533 115.115 96.7823 115.198 97.1437 115.198C97.3139 115.198 97.4866 115.162 97.6647 115.071C97.8401 114.987 98.0973 114.943 98.4534 114.943C98.799 114.943 98.9745 115.033 98.9745 115.198ZM65.5895 58.7769C65.8572 58.8653 66.0656 58.7386 66.2516 58.3851H66.5115C66.8517 58.3851 67.1195 58.3007 67.2975 58.1213C67.465 57.9512 67.7302 57.8628 68.0811 57.8628L68.3409 58.3851C68.3409 59.0829 67.99 59.4324 67.2975 59.4324H65.724H65.4562C65.2834 59.257 65.2069 59.0829 65.2069 58.9127C65.2056 58.7386 65.3323 58.6925 65.5895 58.7769ZM64.6807 87.7116V87.1893V86.9215H65.2056C66.0656 86.5759 66.9441 86.142 67.8225 85.6131C68.693 85.0907 69.6467 84.6594 70.6979 84.3073C70.876 84.3073 71.0409 84.3956 71.2189 84.5711C70.1703 85.4495 69.3947 86.2752 68.8619 87.0587C68.3409 87.8409 67.465 88.2326 66.2516 88.2326C65.5486 88.2326 65.0223 88.1508 64.6807 87.978V87.7116ZM67.1643 96.4829C68.6429 96.9234 69.3948 97.8375 69.3948 99.2343C69.3948 99.9268 69.0347 100.276 68.3409 100.276H66.7726H65.9812C64.587 99.5786 63.6347 99.0971 63.0979 98.8386C62.5795 98.5748 62.2273 98.3189 62.0625 98.0512C61.8791 97.7913 61.7947 97.4879 61.7947 97.1345C61.7947 96.7849 61.7024 96.2666 61.5296 95.5675C61.5296 95.218 61.7024 95.0399 62.0625 95.0399H63.0979H63.6334C64.4947 95.5688 65.6831 96.045 67.1643 96.4829ZM61.2698 78.9363C61.4452 78.8546 61.6206 78.6422 61.7947 78.2861H62.3197H63.3656C63.7165 78.2861 63.8866 78.3745 63.8866 78.5486V78.8084C63.1942 79.5127 62.4054 79.8544 61.5296 79.8544C61.184 79.8544 61.0086 79.7713 61.0086 79.5958C61.0099 79.2463 61.0917 79.03 61.2698 78.9363ZM57.0859 81.6904C57.4315 81.6904 57.6478 81.5585 57.7375 81.2947C57.8219 81.0348 57.9538 80.9029 58.1345 80.9029V81.1615C58.1345 81.3409 58.1754 81.4253 58.2585 81.4253C58.3508 81.4253 58.3931 81.5137 58.3931 81.6891C58.215 81.8632 57.9551 81.9476 57.6069 81.9476C56.9039 81.9476 56.561 81.7775 56.561 81.4253C56.5597 81.602 56.7298 81.6904 57.0859 81.6904ZM45.5579 60.084C45.0396 59.8321 44.5146 59.6923 43.9963 59.6923C43.1178 59.6923 42.7234 59.4825 42.8158 59.042C42.9002 58.6081 42.7669 58.3865 42.424 58.3865C42.9424 57.694 43.7245 57.3392 44.7811 57.3392C45.649 57.3392 46.5643 57.5568 47.5325 57.9947C48.4861 58.4287 49.3131 58.8244 50.0135 59.1699C49.8302 59.5287 49.4002 59.8321 48.7024 60.084C48.0099 60.3504 47.3966 60.4823 46.8703 60.4823C46.5208 60.481 46.0829 60.3504 45.5579 60.084ZM50.7996 97.1345C50.7996 97.8375 50.3643 98.3189 49.4859 98.5748C48.6101 98.8386 47.915 98.9705 47.3966 98.9705C47.2238 98.7964 47.1289 98.617 47.1289 98.4482C47.1289 97.7504 47.4401 97.1846 48.0482 96.7388C48.6615 96.3101 49.3131 96.0885 50.0135 96.0885C50.181 96.0885 50.3155 96.1347 50.4079 96.2204C50.491 96.3101 50.6242 96.3536 50.7996 96.3536V97.1345ZM52.1041 79.0722C52.1041 79.4217 51.9392 79.5945 51.5857 79.5945C51.2349 79.5945 50.8827 79.5945 50.5398 79.5945C50.1823 79.5945 50.0148 79.4204 50.0148 79.0722V78.8084C50.0148 78.2861 50.3657 78.021 51.0608 78.021C51.7532 78.021 52.1041 78.2848 52.1041 78.8084V79.0722ZM58.3917 123.578H57.8734C57.5133 123.578 57.3458 123.666 57.3458 123.843C57.3458 124.018 57.2561 124.103 57.0859 124.103C56.2101 124.103 55.7775 123.75 55.7775 123.053C55.7775 122.708 55.8105 122.491 55.9015 122.402C55.9938 122.318 56.036 122.1 56.036 121.747C56.3868 121.922 56.9039 121.964 57.6069 121.88C58.2994 121.79 58.6608 122.012 58.6608 122.534C58.6595 123.054 58.5672 123.413 58.3917 123.578ZM59.964 106.956C59.0881 105.643 57.6914 104.997 55.7775 104.997C55.424 104.997 55.1536 105.039 54.9887 105.125C54.8133 105.213 54.5455 105.253 54.2052 105.253C54.5455 104.903 54.6814 104.339 54.597 103.549C54.5046 102.772 54.8133 102.374 55.5163 102.374H56.0347C56.3855 102.024 56.7298 101.854 57.0859 101.854C57.0859 102.203 57.297 102.334 57.7375 102.242C58.1754 102.157 58.5671 102.284 58.918 102.633H59.1779C59.0024 102.633 59.0882 102.988 59.4377 103.686C59.7885 104.729 60.8411 105.517 62.5808 106.039C64.3298 106.564 65.2056 107.172 65.2056 107.871C65.2056 108.575 64.8482 108.913 64.1491 108.913C62.2273 108.912 60.8424 108.265 59.964 106.956ZM64.5461 131.439C63.5846 131.609 62.6652 131.693 61.7947 131.693C60.9163 131.693 60.4916 131.263 60.4916 130.388C60.4916 130.042 61.0535 129.65 62.1891 129.21C63.3248 128.776 64.2348 128.55 64.9379 128.55L65.2056 128.814C65.724 128.814 66.0247 128.947 66.1144 129.21C66.1989 129.466 66.4178 129.692 66.7713 129.863C66.2516 130.741 65.5077 131.263 64.5461 131.439ZM78.6844 153.297C78.5921 153.391 78.5499 153.519 78.5499 153.689C77.5065 154.216 76.5437 154.476 75.6745 154.476C74.9688 154.476 74.4926 154.388 74.2236 154.218C73.9743 154.042 73.8424 153.52 73.8424 152.642H74.0996H74.6272C74.9675 152.642 75.1429 152.478 75.1429 152.122L75.6731 152.387C76.0214 152.387 76.3656 152.338 76.7165 152.25C77.0673 152.165 77.4195 152.122 77.7651 152.122C78.4628 152.122 78.8163 152.387 78.8163 152.905C78.8176 153.079 78.7662 153.211 78.6844 153.297ZM80.9069 149.369C80.9069 149.985 80.3859 150.286 79.336 150.286C77.9392 150.286 77.0686 149.671 76.7191 148.454C76.3682 147.232 75.5835 146.622 74.3594 146.622C73.481 146.967 72.7081 147.364 72.0024 147.794C71.3099 148.232 70.5238 148.454 69.648 148.454C68.9502 148.454 68.3422 148.104 67.8238 147.4V147.141C67.8238 146.798 67.7315 146.622 67.5561 146.622C67.3807 146.622 67.2989 146.533 67.2989 146.358C67.2989 146.008 67.6906 145.66 68.4794 145.311C69.2629 144.966 70.0899 144.788 70.9604 144.788C72.3572 144.788 73.4823 145.048 74.3607 145.572C75.0559 145.925 75.8525 146.01 76.7204 145.836C77.5883 145.66 78.2914 145.751 78.8203 146.099C80.3886 146.273 81.3422 146.714 81.6957 147.4C81.176 148.106 80.9069 148.761 80.9069 149.369ZM88.6336 144.397C88.5412 145.18 88.0637 145.572 87.1958 145.572C86.1393 145.406 85.096 145.142 84.0501 144.788C83.0041 144.439 82.4791 143.571 82.4791 142.17C82.4791 141.821 82.6954 141.348 83.1307 140.736C83.566 140.12 84.0501 139.81 84.5711 139.81C85.4469 139.81 86.2356 140.036 86.936 140.47C87.6285 140.904 88.2392 141.38 88.7654 141.91C88.7654 142.783 88.7154 143.608 88.6336 144.397ZM91.509 150.547C91.2518 150.9 90.9418 151.079 90.5975 151.079C90.0726 150.547 89.8141 150.113 89.8141 149.761C89.8141 149.593 89.8985 149.418 90.0713 149.241C90.4248 148.892 90.6819 148.715 90.8574 148.715C91.2082 148.715 91.5498 149.068 91.9033 149.761C91.902 149.938 91.7794 150.201 91.509 150.547ZM93.2118 135.619C92.514 136.669 91.4681 137.2 90.0713 137.2C89.3682 136.851 88.9844 136.327 88.8907 135.619C88.8076 134.926 88.5914 134.313 88.2392 133.793C88.7641 133.444 89.2364 133.185 89.6795 133.006C90.1148 132.836 90.6819 132.572 91.3823 132.216C92.7791 132.216 93.7314 132.398 94.2683 132.746C94.267 133.615 93.9095 134.577 93.2118 135.619ZM92.4283 127.246C91.2069 127.246 89.9789 127.552 88.7654 128.16C87.5361 128.777 86.4414 129.562 85.4983 130.519C84.5275 131.481 83.744 132.445 83.1307 133.399C82.52 134.36 82.2193 135.1 82.2193 135.62C82.2193 136.145 82.3037 136.504 82.4791 136.67C82.1283 137.023 81.9951 137.504 82.0874 138.112C82.1705 138.728 81.8711 139.034 81.176 139.034H79.0762C77.6728 139.034 76.3274 139.161 75.0216 139.425C73.7105 139.684 72.3559 139.812 70.9591 139.812C69.5622 139.812 68.2512 139.471 67.0285 138.766C67.2066 137.721 67.6906 136.938 68.4794 136.414C69.2629 135.888 69.9144 135.193 70.4315 134.314C70.2666 134.144 70.1716 133.885 70.1716 133.531C70.1716 131.96 70.8773 130.869 72.2715 130.257C73.6683 129.653 75.2827 129.124 77.1122 128.69C78.9442 128.252 80.6906 127.728 82.3552 127.116C84.0118 126.512 85.0063 125.416 85.3664 123.847C85.0063 123.496 84.5724 123.104 84.0527 122.665C83.5251 122.236 82.5715 122.015 81.1773 122.015C79.7739 122.537 78.3335 122.976 76.8549 123.327C75.3684 123.67 74.0112 124.285 72.7898 125.158C72.0974 125.506 71.4379 125.854 70.8351 126.2C70.2165 126.556 69.4805 126.725 68.6047 126.725C68.2538 126.725 67.7776 126.597 67.167 126.33C66.5563 126.072 66.2556 125.331 66.2556 124.105C66.948 123.58 67.7777 123.277 68.7366 123.188C69.6955 123.104 70.6504 122.976 71.6225 122.797C72.5762 122.627 73.4058 122.321 74.1062 121.883C74.8013 121.443 75.1495 120.613 75.1495 119.395C75.1495 118.697 74.9741 118.341 74.6338 118.341H74.3634C73.485 118.341 72.4957 118.216 71.3574 117.956C70.2191 117.691 69.0386 117.564 67.8278 117.564H63.3709C63.5463 116.69 63.8471 115.945 64.2902 115.338C64.715 114.723 65.2096 114.156 65.7279 113.634C65.9034 113.634 66.0709 113.722 66.2556 113.898C66.7766 113.898 67.2092 113.764 67.5587 113.506C67.9122 113.242 68.2538 113.11 68.6047 113.11C68.9529 113.11 69.3486 113.242 69.7825 113.506C70.2178 113.764 70.6122 113.898 70.963 113.898C71.6634 113.898 72.315 113.722 72.9283 113.37C73.539 113.02 74.2803 112.848 75.1495 112.848C74.9741 112.677 74.8897 112.418 74.8897 112.062C74.8897 111.719 74.9741 111.407 75.1495 111.143C75.3302 110.889 75.4199 110.492 75.4199 109.972V109.45C76.6334 108.752 78.0341 108.536 79.6064 108.788C81.1799 109.054 82.0386 108.312 82.2233 106.567C81.3448 104.82 80.0416 103.948 78.294 103.948H76.1968C75.5017 103.948 74.9319 103.859 74.4966 103.689C74.064 103.514 73.8477 102.898 73.8477 101.856C74.1906 101.159 74.6667 100.853 75.2853 100.938C75.896 101.027 76.4659 100.896 76.9803 100.547C77.3337 100.896 77.9431 101.027 78.8216 100.938C79.6895 100.854 80.3002 100.985 80.651 101.325C81.5216 103.074 82.1731 103.991 82.6163 104.08C83.049 104.17 83.8786 104.208 85.1 104.208C86.8463 104.208 88.5439 104.08 90.2085 103.816C91.8625 103.551 93.5679 103.34 95.3063 103.166C95.3063 103.859 95.6572 104.256 96.3628 104.341C97.0553 104.43 97.4062 104.822 97.4062 105.521C97.5816 106.22 97.4062 106.483 96.8812 106.309C96.3629 106.135 95.9183 106.221 95.578 106.569C95.2246 106.569 94.9238 106.527 94.6561 106.437C94.3989 106.353 94.0889 106.308 93.7367 106.308C92.1658 106.308 90.7716 106.568 89.5582 107.088C88.3289 107.61 87.0204 107.875 85.6289 107.875C84.7478 107.875 84.1477 107.791 83.7942 107.611C82.743 107.966 82.1322 108.488 81.9621 109.187C82.1322 109.541 82.3565 110.101 82.6163 110.89C82.8762 111.672 83.0081 112.149 83.0081 112.324C83.0081 112.849 82.6994 113.202 82.0913 113.373C81.4807 113.552 80.9109 113.636 80.3912 113.636C80.0403 113.636 79.6051 113.598 79.0801 113.508C78.5551 113.419 78.1186 113.371 77.7717 113.371C75.8552 113.371 74.8883 114.333 74.8883 116.255C74.8883 117.132 75.0585 117.91 75.4186 118.61C76.8154 118.261 77.9431 117.959 78.8216 117.694C79.6895 117.43 80.8185 117.302 82.2219 117.302C83.7928 117.302 85.4495 117.518 87.1985 117.959C88.9369 118.386 90.2493 118.784 91.1251 119.134C90.9444 119.836 90.6002 120.486 90.0739 121.102C89.5555 121.71 89.2957 122.365 89.2957 123.058C89.2957 124.108 89.8167 124.634 90.86 124.634C91.906 124.634 92.8662 124.546 93.7354 124.37C94.6139 124.196 95.5767 124.108 96.6227 124.108H97.9338C97.5803 124.81 97.145 125.418 96.6227 125.937C96.0977 126.466 95.5767 126.991 95.0465 127.513C94.3501 127.335 93.4716 127.246 92.4283 127.246ZM90.5962 112.059C90.5962 112.584 89.9776 112.845 88.7642 112.845H88.2392V112.585C88.2392 112.415 88.3737 112.241 88.6336 112.06C88.8908 111.893 89.0253 111.626 89.0253 111.278C89.5529 111.278 89.855 111.324 89.9473 111.406C90.0291 111.493 90.2467 111.716 90.5962 112.059ZM99.8938 132.609C99.1103 132.526 98.5392 132.658 98.191 133.007C97.8375 132.315 97.2795 132.086 96.4934 132.35C95.7047 132.609 95.3037 132.399 95.3037 131.695C95.6545 131.006 96.1822 130.61 96.8773 130.519C97.5777 130.431 98.191 130.217 98.7146 129.864C98.7146 130.219 99.0167 130.388 99.626 130.388C100.235 130.388 100.723 130.825 101.066 131.693C101.066 132.399 100.672 132.7 99.8938 132.609ZM107.092 125.414C106.908 125.414 106.7 125.371 106.432 125.282C106.172 125.2 105.956 125.154 105.78 125.154H105.523C105.523 125.328 104.953 125.154 103.815 124.63C102.679 124.104 101.591 123.843 100.545 123.843H100.02C100.196 123.323 100.59 123.15 101.201 123.323C101.812 123.492 102.379 123.411 102.906 123.053C103.774 123.411 104.477 123.75 104.996 124.103C105.523 124.456 106.052 124.629 106.567 124.629H107.613C107.613 125.155 107.445 125.414 107.092 125.414ZM118.875 114.155C118.875 114.511 118.522 114.859 117.827 115.198C117.129 115.553 116.258 115.855 115.202 116.123C114.159 116.382 113.113 116.599 112.067 116.774C111.023 116.948 110.237 117.037 109.71 117.037C109.009 117.037 108.141 116.863 107.093 116.51C106.052 116.165 105.525 115.817 105.525 115.463C105.525 114.419 105.875 114.023 106.568 114.281C107.263 114.545 107.614 114.329 107.614 113.631C109.011 113.985 110.063 114.153 110.757 114.153C112.154 114.153 113.419 113.851 114.554 113.239C115.69 112.631 116.52 112.319 117.046 112.319C117.572 112.319 117.914 112.499 118.089 112.844C118.265 113.197 118.525 113.545 118.878 113.895V114.155H118.875ZM118.738 85.22C117.603 84.9615 116.598 84.3943 115.73 83.5225C116.598 83.3484 117.57 83.1307 118.616 82.8656C119.659 82.6058 120.705 82.4739 121.761 82.4739C122.972 82.4739 123.932 82.83 124.637 83.5225C124.637 84.9232 123.934 85.6118 122.534 85.6118C121.136 85.6118 119.87 85.4838 118.738 85.22ZM122.015 98.7067C122.015 98.3625 122.236 98.0986 122.669 97.9232C123.104 97.7491 123.496 97.6608 123.849 97.6608C124.022 97.6608 124.282 97.8388 124.635 98.1804C124.282 98.5379 124.066 98.8399 123.981 99.0984C123.889 99.3623 123.673 99.4902 123.33 99.4902C122.454 99.4902 122.015 99.2343 122.015 98.7067ZM140.602 98.7067C140.602 99.2343 140.035 99.8001 138.896 100.411C137.769 101.024 136.456 101.586 134.975 102.114C133.486 102.633 131.966 103.12 130.392 103.547C128.821 103.988 127.599 104.384 126.721 104.729C126.548 105.083 126.205 105.252 125.68 105.252H124.364H123.848C123.495 105.081 123.327 104.818 123.327 104.468C123.327 102.548 124.238 101.504 126.07 101.321C127.91 101.155 129.782 100.981 131.697 100.801C132.573 100.109 133.446 99.4071 134.322 98.7054C135.19 98.0129 136.236 97.6594 137.457 97.6594C137.811 97.6594 138.243 97.7478 138.768 97.9219C139.296 98.0973 139.907 98.1778 140.6 98.1778V98.7067H140.602ZM139.558 88.5017H139.299C138.939 88.5017 138.729 88.59 138.637 88.7615C138.553 88.9356 138.337 89.02 137.985 89.02C136.766 89.02 135.545 88.7615 134.325 88.23C133.095 87.7103 131.878 87.362 130.654 87.1879C130.479 87.362 130.301 87.4465 130.129 87.4465C129.786 87.4465 129.608 87.3185 129.608 87.0561C129.608 86.7923 129.518 86.5746 129.348 86.4005C129.869 85.8755 130.394 85.2662 130.913 84.5684C131.44 83.8707 132.312 83.5211 133.54 83.5211C133.705 83.5211 133.883 83.5673 134.058 83.6531C134.236 83.7427 134.494 83.7823 134.847 83.7823V84.0448C135.372 84.2202 136.241 84.3046 137.461 84.3046C138.156 84.3046 138.816 84.2624 139.435 84.1714C140.037 84.091 140.689 84.0435 141.389 84.0435C143.138 84.0435 144.7 84.3033 146.106 84.8309C146.798 84.8309 147.234 85.133 147.409 85.7476C147.585 86.3609 147.669 86.9189 147.669 87.4452C147.669 87.8 147.585 87.9727 147.409 87.9727L147.149 87.7089C146.631 88.2286 145.487 88.499 143.749 88.499H140.874H139.558V88.5017ZM159.986 121.488C158.754 122.185 157.667 122.926 156.707 123.71C155.745 124.496 154.566 124.98 153.169 125.155C153.345 123.934 153.916 122.975 154.875 122.272C155.828 121.578 156.75 120.958 157.626 120.434L158.144 120.698C158.498 120.698 158.755 120.659 158.931 120.566C159.109 120.481 159.366 120.433 159.717 120.433C160.07 120.433 160.244 120.522 160.244 120.697C160.243 121.049 160.148 121.314 159.986 121.488ZM163.643 129.075C162.765 129.075 162.332 128.734 162.332 128.032C162.332 127.682 162.549 127.424 162.992 127.244C163.427 127.074 163.729 126.722 163.903 126.196C164.079 126.196 164.212 126.242 164.305 126.328C164.383 126.419 164.514 126.462 164.689 126.462C165.57 126.462 166.263 125.979 166.789 125.018C167.307 124.064 168.003 123.578 168.881 123.578H169.406C170.449 123.228 171.506 123.054 172.549 123.054C173.417 123.054 174.381 123.229 175.427 123.578V124.366C175.427 125.767 174.816 126.594 173.595 126.847C172.363 127.114 171.063 127.246 169.664 127.246C167.753 127.246 166.529 127.552 166.004 128.16C165.475 128.777 164.689 129.075 163.643 129.075ZM163.643 117.816C163.643 117.297 163.997 117.037 164.689 117.037C165.911 117.037 166.529 117.386 166.529 118.08C166.697 118.257 166.789 118.431 166.789 118.605C166.789 118.779 166.529 118.867 166.003 118.867C165.475 118.867 165.214 119.043 165.214 119.391C164.689 119.391 164.305 119.216 164.036 118.867C163.77 118.521 163.643 118.172 163.643 117.816ZM172.549 160.5H170.978H170.71C170.71 160.151 170.543 160.02 170.192 160.104C169.839 160.197 169.664 160.066 169.664 159.713L170.192 159.442H170.71H172.021C172.892 159.442 173.335 159.713 173.335 160.236C173.16 160.412 172.892 160.5 172.549 160.5ZM183.284 157.094C182.055 157.094 181.27 156.443 180.927 155.13C180.576 153.825 179.698 153.163 178.3 153.163H177.524C176.999 153.163 176.211 152.862 175.167 152.249C174.121 151.64 173.596 151.168 173.596 150.811C173.596 150.461 173.988 150.248 174.774 150.159C175.56 150.071 176.037 150.027 176.212 150.027C177.266 150.027 178.18 150.333 178.963 150.941C179.749 151.559 180.485 152.289 181.187 153.163C181.712 153.345 182.409 153.519 183.287 153.688C184.155 153.867 184.593 154.475 184.593 155.529C184.59 156.571 184.152 157.094 183.284 157.094ZM195.85 161.02C195.85 161.719 195.325 162.196 194.279 162.46C193.234 162.728 192.447 162.852 191.922 162.852C191.395 162.852 190.96 162.682 190.619 162.332C190.259 161.983 189.998 161.81 189.833 161.81C189.655 161.81 189.477 161.898 189.306 162.068V161.02C189.306 160.322 189.656 159.884 190.349 159.714C191.055 159.539 191.663 159.444 192.181 159.444C192.876 159.444 193.927 159.63 195.327 159.978C195.327 160.152 195.416 160.236 195.592 160.236C195.759 160.236 195.852 160.321 195.852 160.5V161.02H195.85ZM196.762 150.682C195.8 152.163 194.1 152.904 191.661 152.904C191.31 152.904 190.526 152.814 189.304 152.64C188.083 152.477 187.472 152.21 187.472 151.857C187.472 149.938 186.988 148.587 186.034 147.796C185.073 147.017 183.978 145.925 182.758 144.53C182.58 144.7 182.32 144.788 181.969 144.788C181.621 144.788 181.269 144.656 180.926 144.397C180.575 144.133 180.137 144.005 179.612 144.005C179.261 143.831 178.653 143.697 177.78 143.606C176.904 143.527 175.985 143.432 175.031 143.344C174.07 143.262 173.242 143.174 172.548 143.088C171.845 143 171.504 142.868 171.504 142.692C171.504 142.348 171.636 142.08 171.886 141.909C172.153 141.739 172.362 141.471 172.548 141.12C172.715 141.12 172.85 141.162 172.94 141.255C173.024 141.347 173.158 141.38 173.334 141.38C173.677 141.38 173.862 141.301 173.862 141.121V140.862H174.119C174.462 140.862 174.732 140.953 174.905 141.121C175.072 141.302 175.426 141.38 175.951 141.38C175.773 141.38 176.167 141.348 177.129 141.255C178.092 141.164 179.221 140.903 180.534 140.469C181.843 140.035 183.056 139.511 184.194 138.895C185.333 138.287 185.897 137.455 185.897 136.411C185.897 135.715 185.591 135.013 184.981 134.312C184.37 133.614 183.543 133.27 182.5 133.27C181.443 133.27 180.751 133.572 180.408 134.184C180.048 134.797 179.261 135.098 178.04 135.098C176.643 135.098 174.948 135.146 172.94 135.226C170.925 135.315 169.312 135.617 168.091 136.142C168.266 135.098 168.88 134.31 169.931 133.792C170.977 133.27 172.239 132.746 173.726 132.216C175.21 131.693 176.696 131.042 178.177 130.254C179.656 129.466 180.926 128.385 181.969 126.985C182.84 126.635 183.675 126.369 184.461 126.194C185.25 126.019 185.81 125.501 186.169 124.628C185.812 123.749 185.726 122.971 185.899 122.269C186.069 121.575 185.023 121.222 182.758 121.222C181.88 121.396 181.136 121.618 180.534 121.877C179.913 122.14 179.18 122.269 178.299 122.269C177.78 122.269 177.345 122.183 176.998 122.009V121.222L176.738 120.955C176.565 120.955 176.47 120.872 176.47 120.697C176.47 120.522 176.565 120.433 176.738 120.433C176.906 120.433 176.998 120.354 176.998 120.181C177.173 119.127 177.691 118.472 178.569 118.213C179.437 117.953 180.409 117.73 181.444 117.562C182.501 117.385 183.453 117.211 184.33 117.037C185.198 116.863 185.633 116.425 185.633 115.727V114.155V113.632C185.291 113.462 185.115 113.198 185.115 112.845C185.115 112.499 184.937 112.32 184.59 112.32H184.33C183.979 112.32 183.544 112.284 183.017 112.193C182.501 112.102 182.055 112.059 181.711 112.059C179.964 112.059 178.743 112.319 178.043 112.845C177.348 113.367 176.821 113.942 176.472 114.546C176.121 115.162 175.861 115.728 175.694 116.251C175.51 116.774 175.169 117.038 174.642 117.038H174.121C173.938 117.038 173.727 117.087 173.462 117.166C173.202 117.262 172.892 117.299 172.55 117.299C172.023 117.299 171.762 117.039 171.762 116.512C171.762 115.64 172.2 114.945 173.075 114.42C173.938 113.898 174.381 113.019 174.381 111.802C172.808 110.93 171.019 110.491 169.016 110.491C167.007 110.491 165.043 110.316 163.118 109.971C162.24 109.971 161.722 110.142 161.547 110.491C161.38 110.845 161.161 111.279 160.896 111.802C160.636 112.321 160.244 112.762 159.715 113.11C159.194 113.464 158.144 113.632 156.575 113.632C155.351 113.632 154.658 113.283 154.483 112.585V112.06C154.483 109.793 153.52 108.658 151.596 108.658C150.201 108.658 148.898 108.913 147.669 109.449C146.448 109.971 145.059 110.228 143.488 110.228C142.785 110.228 142.174 110.144 141.656 109.972V109.185V108.914H141.388C141.213 108.914 141.133 108.834 141.133 108.66C141.133 107.264 142.042 106.396 143.88 106.042C145.712 105.692 147.234 105.519 148.463 105.519C149.334 105.519 150.201 105.608 151.077 105.778C151.948 105.96 152.816 106.042 153.697 106.042C154.392 107.444 155.443 108.438 156.837 109.054C158.237 109.668 159.808 109.972 161.546 109.972C162.425 109.276 163.252 108.577 164.038 107.872C164.826 107.175 165.825 106.734 167.049 106.567C168.446 106.92 169.663 107.086 170.709 107.086C171.063 107.086 171.506 107.048 172.02 106.958C172.548 106.874 173.074 106.826 173.594 106.826C177.432 106.826 180.181 107.481 181.843 108.786C183.502 110.099 185.375 111.279 187.472 112.321C187.991 112.677 188.775 112.89 189.832 112.978C190.873 113.068 191.921 113.158 192.964 113.242C194.018 113.33 194.938 113.416 195.716 113.506C196.329 113.576 196.689 113.718 196.829 113.94C196.764 114.028 196.662 114.404 196.513 115.073C196.245 116.208 194.712 116.776 191.922 116.776C191.566 116.776 191.227 116.737 190.874 116.646C190.526 116.554 190.176 116.51 189.833 116.51C188.084 116.51 187.12 117.037 186.947 118.08C187.472 118.958 187.818 119.694 187.991 120.306C188.166 120.921 189.304 121.223 191.394 121.223C193.143 121.223 194.626 120.831 195.85 120.041C197.069 119.263 198.635 118.866 200.562 118.866H201.61C202.306 118.866 202.873 118.82 203.308 118.734C203.741 118.65 204.138 118.602 204.488 118.602C205.013 118.602 205.707 118.865 206.583 119.39C206.41 120.268 205.542 120.696 203.969 120.696C203.266 120.696 202.833 120.607 202.655 120.432C202.48 120.268 202.222 120.18 201.869 120.18H200.828H200.563C199.512 120.697 198.863 121.438 198.603 122.401C198.335 123.364 197.859 124.279 197.163 125.152C195.759 125.849 194.146 126.241 192.314 126.326C190.482 126.417 188.684 126.635 186.949 126.985C186.421 128.031 186.17 129.162 186.17 130.386C186.335 131.084 187.028 131.437 188.257 131.437H189.833C190.526 131.437 191.055 131.522 191.395 131.692C191.748 131.878 192.273 131.956 192.966 131.956C193.317 131.956 193.795 131.92 194.403 131.828C195.014 131.738 195.501 131.691 195.852 131.691C196.544 131.691 197.238 131.779 197.944 131.955C198.636 132.129 198.995 132.654 198.995 133.525C198.995 133.88 198.903 134.097 198.727 134.181C198.554 134.269 198.47 134.483 198.47 134.833V135.095C197.591 135.973 196.419 136.497 194.94 136.663C193.451 136.847 191.965 137.059 190.483 137.323C188.994 137.577 187.691 138.065 186.553 138.759C185.42 139.465 184.766 140.856 184.593 142.948C185.293 143.827 186.12 144.393 187.084 144.652C188.035 144.916 188.687 145.482 189.047 146.354C189.047 147.058 189.441 147.666 190.228 148.186C191.003 148.71 191.835 148.973 192.711 148.973C193.93 148.973 194.893 148.497 195.595 147.536C196.287 146.573 197.165 146.095 198.211 146.095C198.904 146.095 199.425 146.184 199.782 146.354C198.726 147.756 197.723 149.195 196.762 150.682ZM207.37 133.793C207.02 133.271 206.451 132.789 205.668 132.349C204.879 131.922 204.094 131.523 203.308 131.17C202.522 130.824 201.829 130.476 201.219 130.126C200.6 129.777 200.299 129.252 200.299 128.55C200.299 127.682 200.827 127.244 201.868 127.244C203.264 127.244 204.138 127.988 204.487 129.467C204.835 130.957 205.798 131.693 207.37 131.693C207.713 132.047 208.063 132.313 208.414 132.483C208.767 132.658 208.935 132.921 208.935 133.271C208.767 133.615 208.242 133.793 207.37 133.793ZM227.269 61.0047C227.269 60.4823 227.62 60.2225 228.315 60.2225C228.49 60.2225 228.668 60.2687 228.84 60.3504C229.007 60.4388 229.1 60.9202 229.1 61.7881C228.924 61.7881 228.84 61.8356 228.84 61.9214C228.84 62.0097 228.75 62.0532 228.572 62.0532C228.221 62.0532 228.056 61.9214 228.056 61.6615C228.056 61.3977 227.87 61.2698 227.529 61.2698H227.269V61.0047ZM210.772 71.7347C210.772 71.215 211.118 70.8668 211.823 70.6926C212.516 70.5172 213.132 70.4288 213.653 70.4288C214.004 70.4288 214.312 70.475 214.572 70.5647C214.829 70.657 215.134 70.694 215.481 70.694V70.9564L215.749 71.4814C215.573 72.1752 215.221 72.5247 214.695 72.5247C214.176 72.5247 213.652 72.7028 213.131 73.047C212.78 72.7015 212.303 72.5247 211.693 72.5247C211.076 72.5234 210.772 72.2636 210.772 71.7347ZM214.178 125.673H212.607H212.079V125.414C212.079 125.064 212.12 124.934 212.216 125.018C212.306 125.112 212.351 124.98 212.351 124.63H212.867H214.699C215.224 124.63 215.577 124.806 215.753 125.154C215.395 125.502 214.873 125.673 214.178 125.673ZM216.668 109.182C216.403 109.536 216.098 109.702 215.749 109.702C215.048 109.702 214.695 109.351 214.695 108.657C214.695 107.961 215.133 107.606 216.009 107.606C216.359 107.606 216.619 107.7 216.795 107.87C216.97 108.045 217.227 108.223 217.578 108.392C217.227 108.574 216.927 108.833 216.668 109.182ZM219.94 90.8547C218.541 90.8547 217.321 90.6332 216.264 90.1992C215.221 89.7653 214.696 88.8446 214.696 87.4478C214.696 86.5759 215.317 86.142 216.536 86.142C217.407 86.142 218.193 86.4018 218.893 86.9215C219.426 87.3264 220.026 87.6628 220.669 87.9596V90.7993C220.447 90.831 220.211 90.8547 219.94 90.8547ZM244.156 100.446C243.805 100.446 243.635 100.188 243.635 99.6551C243.457 99.4849 243.372 99.3095 243.372 99.1354H243.895H244.678C244.679 99.6564 244.507 100.098 244.156 100.446ZM249.659 92.8557C249.478 92.3333 249.353 91.935 249.267 91.6712C249.177 91.4074 249.132 91.1001 249.132 90.7571C249.132 90.5817 249.217 90.19 249.392 89.5793C249.573 88.9673 249.827 88.6652 250.184 88.6652C250.351 88.6652 250.441 88.7932 250.441 89.053C250.441 89.3208 250.614 89.4447 250.966 89.4447C250.967 90.8415 250.529 91.9772 249.659 92.8557ZM263.533 103.58C263.533 103.76 263.355 103.848 263.006 103.848C263.006 103.326 263.184 103.066 263.533 103.066V103.58ZM267.065 93.5059C266.981 93.2434 266.846 93.0258 266.676 92.8557C266.676 92.1513 266.715 91.1898 266.806 89.9723C266.89 88.7483 267.203 88.1403 267.725 88.1403C268.073 88.1403 268.374 88.4423 268.639 89.0504C268.907 89.6584 269.031 90.405 269.031 91.2808C269.031 92.4943 268.68 93.3727 267.987 93.9003H267.725C267.373 93.9029 267.154 93.7671 267.065 93.5059ZM270.343 110.659V113.271C270.343 113.8 270.253 114.225 270.078 114.583C269.73 114.928 269.47 115.103 269.294 115.103C268.594 115.103 268.117 114.669 267.852 113.801C267.594 112.923 267.457 112.229 267.457 111.701C267.457 111.352 267.594 110.74 267.852 109.869C268.117 108.992 268.511 108.558 269.032 108.558C269.56 108.558 269.823 108.734 269.823 109.082C269.823 109.435 269.988 109.694 270.344 109.869V110.659H270.343ZM274.274 102.009C273.395 102.009 272.825 101.76 272.566 101.226C272.303 100.706 272.174 100.272 272.174 99.9202C272.174 99.2224 272.525 98.8769 273.217 98.8769C273.395 98.8769 273.699 99.2224 274.137 99.9202C274.566 100.613 274.791 101.142 274.791 101.49C274.792 101.67 274.617 101.834 274.274 102.009ZM278.587 110.004C278.33 110.958 278.192 111.969 278.192 113.011C277.844 111.608 277.322 110.262 276.625 108.959C275.925 107.648 275.579 106.294 275.579 104.898C275.579 104.194 275.837 103.848 276.363 103.848C277.231 103.848 277.89 104.278 278.328 105.157C278.761 106.034 278.982 106.726 278.982 107.25C278.982 108.124 278.855 109.036 278.587 110.004ZM278.192 93.9029C277.149 93.5494 276.625 92.4112 276.625 90.5013C276.974 90.1372 277.148 89.6597 277.148 89.0517C277.148 88.4423 277.583 88.1416 278.454 88.1416C278.629 88.1416 278.804 88.6177 278.981 89.5793C279.151 90.5395 279.244 91.1911 279.244 91.5433C279.246 92.4111 278.893 93.2012 278.192 93.9029ZM282.385 97.0448C282.207 97.0448 282.123 96.6873 282.123 95.9935C282.471 95.9935 282.645 96.2468 282.645 96.777L282.385 97.0448ZM281.461 160.5H279.89H279.622C279.622 160.151 279.455 160.02 279.106 160.104C278.753 160.197 278.576 160.066 278.576 159.713L279.106 159.442H279.622H280.933C281.804 159.442 282.247 159.713 282.247 160.236C282.072 160.412 281.804 160.5 281.461 160.5ZM292.196 157.094C290.967 157.094 290.182 156.443 289.839 155.13C289.488 153.825 288.612 153.163 287.214 153.163H286.436C285.911 153.163 285.125 152.862 284.079 152.249C283.036 151.64 282.508 151.168 282.508 150.811C282.508 150.461 282.9 150.248 283.686 150.159C284.475 150.071 284.951 150.027 285.126 150.027C286.18 150.027 287.092 150.333 287.878 150.941C288.661 151.559 289.397 152.289 290.099 153.163C290.626 153.345 291.32 153.519 292.199 153.688C293.067 153.867 293.505 154.475 293.505 155.529C293.502 156.571 293.064 157.094 292.196 157.094ZM304.762 161.02C304.762 161.719 304.237 162.196 303.191 162.46C302.148 162.728 301.359 162.852 300.834 162.852C300.307 162.852 299.871 162.682 299.531 162.332C299.171 161.983 298.912 161.81 298.745 161.81C298.567 161.81 298.391 161.898 298.217 162.068V161.02C298.217 160.322 298.568 159.884 299.261 159.714C299.966 159.539 300.577 159.444 301.093 159.444C301.788 159.444 302.842 159.63 304.238 159.978C304.238 160.152 304.328 160.236 304.504 160.236C304.671 160.236 304.763 160.321 304.763 160.5V161.02H304.762ZM295.342 104.151C295.591 103.842 296.025 103.685 296.645 103.685C296.996 103.685 297.348 103.727 297.688 103.813C297.853 103.855 298.021 103.884 298.183 103.906C297.938 104.364 297.732 104.864 297.572 105.418C297.456 105.823 297.302 106.214 297.126 106.6C296.323 106.08 295.629 105.548 295.081 104.996C295.081 104.778 295.114 104.595 295.173 104.434C295.231 104.34 295.285 104.246 295.342 104.151ZM306.125 89.1836C306.155 89.268 306.189 89.3458 306.209 89.4434C306.292 89.8497 306.35 90.2137 306.392 90.5435C305.408 90.1939 304.62 89.9011 304.033 89.6703C304.049 89.6175 304.066 89.5714 304.087 89.5239C304.748 89.4909 305.427 89.388 306.125 89.1836ZM294.548 113.631C294.583 113.791 294.628 113.937 294.689 114.061C294.689 114.301 294.638 114.51 294.548 114.693V114.155V113.631ZM294.429 112.485C294.429 112.943 294.47 113.321 294.548 113.631C294.202 113.457 294.03 113.197 294.03 112.844C294.03 112.577 293.921 112.418 293.724 112.352C293.783 112.267 293.842 112.182 293.902 112.093C294.09 111.814 294.229 111.515 294.347 111.209C294.417 111.248 294.482 111.291 294.548 111.329C294.475 111.701 294.429 112.084 294.429 112.485ZM301.73 116.751C302.087 116.096 302.284 115.209 302.284 114.062V113.272C303.165 113.349 303.954 113.425 304.63 113.504C304.771 113.519 304.903 113.543 305.022 113.566C304.829 114.5 304.444 115.062 303.857 115.236C303.231 115.422 302.85 115.912 302.67 116.671C302.38 116.707 302.067 116.731 301.73 116.751ZM324.019 88.6652V89.2073C323.746 88.7457 323.609 88.1614 323.609 87.4478C323.609 87.4293 323.614 87.4148 323.614 87.3977C323.876 87.4992 324.019 87.9055 324.019 88.6652ZM293.902 88.1416C293.902 87.9582 294.077 87.8817 294.429 87.8817C295.3 87.8817 295.826 88.3078 295.997 89.1836C296.173 90.062 296.265 90.8416 296.265 91.5433C296.265 91.8796 296.222 92.2977 296.147 92.7831C295.665 93.3832 295.309 94.0797 295.082 94.875C294.958 94.9173 294.833 94.9449 294.688 94.9449C294.339 94.2432 293.993 93.5495 293.639 92.8557C293.286 92.1513 293.121 91.3692 293.121 90.5013C293.121 89.7969 293.469 89.0952 294.164 88.4001C294.167 88.2234 294.077 88.1416 293.902 88.1416ZM286.572 112.485C285.526 111.969 285.005 110.833 285.005 109.083C285.348 108.908 285.613 108.691 285.786 108.421C285.961 108.168 286.218 108.04 286.572 108.04C286.923 108.04 287.234 108.215 287.489 108.56C287.754 108.909 287.883 109.261 287.883 109.611C287.883 111.008 287.445 111.97 286.572 112.485ZM316.284 133.793C315.933 133.271 315.367 132.789 314.581 132.349C313.795 131.922 313.007 131.523 312.221 131.17C311.435 130.824 310.742 130.476 310.132 130.126C309.513 129.777 309.212 129.252 309.212 128.55C309.212 127.682 309.74 127.244 310.783 127.244C312.178 127.244 313.051 127.988 313.4 129.467C313.751 130.957 314.711 131.693 316.284 131.693C316.629 132.047 316.979 132.313 317.329 132.483C317.68 132.658 317.85 132.921 317.85 133.271C317.679 133.615 317.157 133.793 316.284 133.793ZM323.092 125.673H321.519H320.994V125.414C320.994 125.064 321.032 124.934 321.128 125.018C321.218 125.112 321.263 124.98 321.263 124.63H321.781H323.613C324.136 124.63 324.489 124.806 324.664 125.154C324.311 125.502 323.785 125.673 323.092 125.673ZM337.753 61.92C337.753 62.0084 337.666 62.0519 337.485 62.0519C337.137 62.0519 336.967 61.92 336.967 61.6602C336.967 61.3964 336.786 61.2684 336.442 61.2684H336.182V61.0047C336.182 60.4823 336.533 60.2225 337.228 60.2225C337.406 60.2225 337.581 60.2687 337.753 60.3504C337.926 60.4388 338.013 60.9202 338.013 61.7881C337.837 61.7881 337.753 61.8356 337.753 61.92Z" fill="#F2F2F2"/>
</svg>
