<svg xmlns="http://www.w3.org/2000/svg" data-name="Layer 1" viewBox="0 0 32 32"><path d="M24.28,6.11A2.82,2.82,0,0,0,24.5,5a3,3,0,0,0-3.17-3A3,3,0,0,0,16.5.77a3,3,0,0,0-4.89,1.45A2.82,2.82,0,0,0,10.5,2a3,3,0,0,0-3,3,2.77,2.77,0,0,0,.22,1.1A3,3,0,0,0,5.5,9a3,3,0,0,0,1,2.19L8.55,32h14.9l2.08-20.81a3,3,0,0,0-1.25-5.08ZM7.55,12h2L10,16.74A6.51,6.51,0,0,0,8.21,18.6Zm1.9,19-.68-6.87a7.33,7.33,0,0,0,2.16,1.67l.52,5.2Zm3,0L12,26.28a10.39,10.39,0,0,0,2.29.59l.2,4.13Zm4.07,0h-1l-.21-4c.24,0,.49,0,.73,0s.49,0,.73,0Zm3,0h-2l.2-4.13A10.39,10.39,0,0,0,20,26.28Zm3,0h-2l.52-5.2a7.33,7.33,0,0,0,2.16-1.67ZM16,26c-4.14,0-7.5-2.24-7.5-5s3.36-5,7.5-5,7.5,2.24,7.5,5S20.14,26,16,26ZM10.55,12h3l.17,3.23a10.27,10.27,0,0,0-2.72.94Zm4,0h2.94l-.15,3.08a10.93,10.93,0,0,0-2.64,0Zm3.78,3.23L18.48,12h3L21,16.17A10.27,10.27,0,0,0,18.31,15.23Zm5.48,3.37A6.51,6.51,0,0,0,22,16.74L22.45,12h2ZM23.5,11H8.5a2,2,0,1,1,0-4A.47.47,0,0,0,9,6.72a.49.49,0,0,0-.05-.52A2,2,0,0,1,8.5,5a2,2,0,0,1,2-2,2,2,0,0,1,1.2.41.49.49,0,0,0,.52,0A.5.5,0,0,0,12.5,3a2,2,0,0,1,3.6-1.19.51.51,0,0,0,.8,0A2,2,0,0,1,18.5,1a2,2,0,0,1,2,1.65.51.51,0,0,0,.22.33.47.47,0,0,0,.38.07,2.37,2.37,0,0,1,.44,0,2,2,0,0,1,2,2,2,2,0,0,1-.41,1.2.47.47,0,0,0,0,.52A.5.5,0,0,0,23.5,7a2,2,0,0,1,0,4ZM12,23.5h8v-5H12Zm1-4h6v3H13ZM21.8,7.18a2.3,2.3,0,0,0-1.53-2.81,2.77,2.77,0,0,0-2.09-.07,1.74,1.74,0,0,0-1,.94l0,0a2.44,2.44,0,0,0-2,.3A2.82,2.82,0,0,0,13.43,5a2.3,2.3,0,0,0-2.5,2V7a2.18,2.18,0,0,0-2,2,.5.5,0,0,0,.5.5.5.5,0,0,0,.5-.5c0-.54.69-1,1.5-1l0-.44h0l.07.45A.54.54,0,0,0,12,7.79a.5.5,0,0,0,0-.5A.67.67,0,0,1,11.93,7c0-.54.69-1,1.5-1s1.5.46,1.5,1a.68.68,0,0,1-.11.37.48.48,0,0,0,.27.73c.51.18.84.53.84.9a.5.5,0,0,0,.5.5.5.5,0,0,0,.5-.5,1.9,1.9,0,0,0-1-1.63,1.5,1.5,0,0,0,0-.37,1.64,1.64,0,0,0-.13-.62,1.69,1.69,0,0,1,1.48,0l.12,0a.49.49,0,0,0,.47-.07.5.5,0,0,0,.19-.43.79.79,0,0,1,.06-.29.82.82,0,0,1,.44-.41,1.8,1.8,0,0,1,1.32.07c.75.32,1.2,1,1,1.5a.68.68,0,0,1-.26.3.51.51,0,0,0,0,.78A1.09,1.09,0,0,1,21,9a.49.49,0,0,0,.26.66.43.43,0,0,0,.19,0,.49.49,0,0,0,.46-.3,1.91,1.91,0,0,0-.32-1.91A1.77,1.77,0,0,0,21.8,7.18Z"/></svg>