<svg xmlns="http://www.w3.org/2000/svg" data-name="Layer 1" viewBox="0 0 32 32"><path d="M21,7h1V6h1V5H22V4H21V5H20V6h1Zm-1,6h1V12h1V11H21V10H20v1H19v1h1ZM10,7h1V6h1V5H11V4H10V5H9V6h1Zm19,6V4.5A4.51,4.51,0,0,0,24.5,0H7.5A4.51,4.51,0,0,0,3,4.5V13H0v3H1v5.5A2.5,2.5,0,0,0,3,24v.55A2.5,2.5,0,0,0,5,27V31H3v1h8V31H9V27H23v4H21v1h8V31H27V27a2.5,2.5,0,0,0,2-2.45V24a2.5,2.5,0,0,0,2-2.45V16h1V13ZM4,4.5A3.5,3.5,0,0,1,7.5,1h17A3.5,3.5,0,0,1,28,4.5V13H24v3h1v1.51A2.51,2.51,0,0,0,23.5,17H8.5a2.51,2.51,0,0,0-1.5.51V16H8V13H4Zm21,15V23H7V19.5A1.5,1.5,0,0,1,8.5,18h15A1.5,1.5,0,0,1,25,19.5ZM1,15V14H7v1Zm2.5,8A1.5,1.5,0,0,1,2,21.5V16H6v7ZM8,31H6V27H8Zm18,0H24V27h2Zm2-6.5A1.5,1.5,0,0,1,26.5,26H5.5A1.5,1.5,0,0,1,4,24.5V24H28Zm2-3A1.5,1.5,0,0,1,28.5,23H26V16h4ZM31,15H25V14h6ZM12,10H11v1H10v1h1v1h1V12h1V11H12Z"/></svg>