<svg xmlns="http://www.w3.org/2000/svg" width="64" height="64" enable-background="new 0 0 64 64" viewBox="0 0 64 64"><path fill="#ffffff" d="M62.882,14.191c-0.74-0.77-1.736-1.203-2.805-1.225c-1.07-0.004-2.08,0.375-2.85,1.117
		c-0.846,0.814-1.242,1.914-1.209,3.004l-1.275,1.23c-0.928,0.895-1.068,2.303-0.402,3.354c-1.561,2.688-2.441,6.232-2.492,6.445
		c-0.865,4.703-4.424,6.748-6.619,7.287c-0.363-0.258-0.68-0.65-1.01-1.064l-0.209-0.26c-1.354-1.658-2.586-3.314-2.795-5.34
		c-0.137-1.33-0.043-2.662,0.059-4.072c0.049-0.697,0.098-1.395,0.119-2.094c0.004-0.117,0.004-0.234,0.006-0.352
		c0.998-0.387,1.709-1.352,1.709-2.482v-1.768c0.813-0.732,1.332-1.781,1.332-2.959c0-2.205-1.793-3.998-3.998-3.998
		c-2.207,0-4,1.793-4,3.998c0,1.176,0.52,2.223,1.328,2.955v1.771c0,1.125,0.703,2.084,1.689,2.477
		c-0.002,0.1-0.002,0.201-0.006,0.301c-0.02,0.67-0.066,1.342-0.115,2.012c-0.102,1.432-0.207,2.912-0.053,4.41
		c0.264,2.555,1.736,4.547,3.223,6.367l0.197,0.246c0.391,0.488,0.83,1.023,1.408,1.432v15.357c0,2.191-1.285,4.135-3.195,4.838
		c-1.041,0.379-1.992,0.342-2.904-0.109c-1.355-0.684-2.225-2.193-2.213-3.844c0.217-20.619,0.205-26.563-0.115-28.4h0.043
		c0.006-0.311-0.002-3.074-1.764-4.393c-0.531-0.396-1.404-0.771-2.676-0.588V8.23c0-1.992-1.619-3.611-3.611-3.611H3.612
		c-1.992,0-3.613,1.619-3.613,3.611v44.205c0,1.99,1.621,3.609,3.613,3.609h24.066c1.992,0,3.611-1.619,3.611-3.609V21.816
		c0.965-0.227,1.373,0.064,1.512,0.17c0.824,0.613,0.994,2.277,0.988,2.811c-0.002,0.133,0.023,0.264,0.072,0.385
		c0.186,1.707,0.137,15.16,0,28.027c-0.016,2.385,1.271,4.58,3.285,5.596c0.771,0.383,1.572,0.576,2.395,0.576
		c0.668,0,1.35-0.127,2.043-0.379c2.674-0.982,4.469-3.66,4.469-6.66V37.184c2.703-0.791,6.705-3.291,7.689-8.66
		c0.01-0.037,0.818-3.283,2.182-5.711c0.221,0.057,0.445,0.096,0.672,0.096c0.664,0,1.332-0.246,1.85-0.744l1.273-1.225
		c0.068,0.004,0.135,0.021,0.205,0.023c0.025,0,0.051,0,0.078,0c1.039,0,2.02-0.395,2.771-1.117c0.77-0.742,1.203-1.736,1.225-2.805
		C64.019,15.973,63.622,14.961,62.882,14.191z M40.442,12.955c1.135,0,2.059,0.924,2.059,2.059s-0.924,2.061-2.059,2.061
		c-1.137,0-2.061-0.926-2.061-2.061S39.306,12.955,40.442,12.955z M40.442,19.014c0.248,0,0.49-0.031,0.727-0.074v0.801
		c0,0.402-0.326,0.729-0.729,0.729s-0.73-0.326-0.73-0.729v-0.801C39.948,18.984,40.19,19.014,40.442,19.014z M29.351,52.436
		c0,0.92-0.75,1.67-1.672,1.67H3.612c-0.924,0-1.674-0.75-1.674-1.67V8.23c0-0.924,0.75-1.674,1.674-1.674h24.066
		c0.922,0,1.672,0.75,1.672,1.674V52.436z M57.101,20.768c-0.287,0.279-0.75,0.271-1.031-0.02c-0.279-0.291-0.271-0.754,0.02-1.033
		l0.576-0.555c0.133,0.201,0.281,0.398,0.455,0.578c0.172,0.178,0.359,0.334,0.557,0.475L57.101,20.768z M61.429,18.447
		c-0.387,0.373-0.893,0.576-1.428,0.576c-0.014,0-0.027,0-0.039,0c-0.551-0.01-1.064-0.234-1.445-0.629
		c-0.381-0.398-0.586-0.918-0.574-1.469c0.01-0.551,0.234-1.063,0.629-1.443c0.389-0.373,0.893-0.578,1.428-0.578
		c0.014,0,0.027,0,0.041,0.002c0.551,0.01,1.063,0.234,1.443,0.631c0.383,0.396,0.586,0.918,0.576,1.467
		C62.05,17.555,61.825,18.066,61.429,18.447z"/><path fill="#ffffff" d="M12.958,31.424c0.148,0.086,0.316,0.129,0.484,0.129s0.334-0.043,0.484-0.129l5.875-3.391
		c0.301-0.174,0.484-0.494,0.484-0.84c0-0.348-0.184-0.668-0.484-0.84l-5.875-3.393c-0.299-0.172-0.67-0.172-0.969,0
		c-0.301,0.174-0.486,0.494-0.486,0.84v6.783C12.472,30.93,12.657,31.25,12.958,31.424z M14.411,25.48l2.967,1.713l-2.967,1.711
		V25.48z"/><path fill="#ffffff" d="M15.646,34.639c4.105,0,7.445-3.34,7.445-7.445c0-4.107-3.34-7.447-7.445-7.447S8.2,23.086,8.2,27.193
		C8.2,31.299,11.54,34.639,15.646,34.639z M15.646,21.686c3.035,0,5.506,2.471,5.506,5.508c0,3.035-2.471,5.506-5.506,5.506
		s-5.506-2.471-5.506-5.506C10.14,24.156,12.61,21.686,15.646,21.686z"/><path fill="#ffffff" d="M26.579 10.373H4.712c-.535 0-.969.434-.969.969v31.701c0 .535.434.969.969.969h21.867c.535 0 .969-.434.969-.969V11.342C27.548 10.807 27.114 10.373 26.579 10.373zM25.61 42.072H5.683v-29.76H25.61V42.072zM15.646 45.301c-1.91 0-3.465 1.555-3.465 3.465s1.555 3.465 3.465 3.465 3.465-1.555 3.465-3.465S17.556 45.301 15.646 45.301zM15.646 50.291c-.842 0-1.525-.684-1.525-1.525s.684-1.525 1.525-1.525 1.525.684 1.525 1.525S16.487 50.291 15.646 50.291zM25.698 47.795h-3.523c-.535 0-.969.436-.969.971s.434.969.969.969h3.523c.537 0 .971-.434.971-.969S26.235 47.795 25.698 47.795zM9.114 47.795H5.593c-.535 0-.971.436-.971.971s.436.969.971.969h3.521c.535 0 .971-.434.971-.969S9.649 47.795 9.114 47.795z"/></svg>