<svg xmlns="http://www.w3.org/2000/svg" fill-rule="evenodd" stroke-linejoin="round" stroke-miterlimit="2" clip-rule="evenodd" viewBox="0 0 134 134"><path d="M127.016,53.849c-0,-3.766 -1.496,-7.377 -4.159,-10.04c-2.662,-2.662 -6.274,-4.158 -10.039,-4.158c-22.404,-0 -69.898,-0 -92.302,-0c-3.766,-0 -7.377,1.496 -10.04,4.158c-2.663,2.663 -4.158,6.274 -4.158,10.04c-0,15.793 -0,43.176 -0,58.969c-0,3.765 1.495,7.377 4.158,10.039c2.663,2.663 6.274,4.159 10.04,4.159c22.404,-0 69.898,-0 92.302,-0c3.765,-0 7.377,-1.496 10.039,-4.159c2.663,-2.662 4.159,-6.274 4.159,-10.039c-0,-15.793 -0,-43.176 -0,-58.969Zm-4.032,-0c0,15.793 0,43.176 0,58.969c0,2.696 -1.071,5.282 -2.977,7.189c-1.907,1.906 -4.493,2.977 -7.189,2.977c-22.404,0 -69.898,0 -92.302,0c-2.697,0 -5.283,-1.071 -7.189,-2.977c-1.907,-1.907 -2.978,-4.493 -2.978,-7.189c0,-15.793 0,-43.176 0,-58.969c0,-2.696 1.071,-5.282 2.978,-7.189c1.906,-1.907 4.492,-2.978 7.189,-2.978c22.404,0 69.898,0 92.302,0c2.696,0 5.282,1.071 7.189,2.978c1.906,1.907 2.977,4.493 2.977,7.189Z"/><path d="M102.016 58.401c0-3.452-2.798-6.25-6.25-6.25-13.736 0-56.963 0-70.699 0-3.451 0-6.249 2.798-6.249 6.25 0 10.767 0 39.098 0 49.865 0 3.451 2.798 6.25 6.249 6.25 13.736 0 56.963 0 70.699 0 3.452 0 6.25-2.799 6.25-6.25l0-49.865zm-4.032 0l0 49.865c0 1.225-.993 2.218-2.218 2.218-13.736 0-56.963 0-70.699 0-1.225 0-2.218-.993-2.218-2.218 0-10.767 0-39.098 0-49.865 0-1.225.993-2.219 2.218-2.219 13.736 0 56.963 0 70.699 0 1.225 0 2.218.994 2.218 2.219zM85.349 41.667c0 0 0 0 0 0 0-8.017-6.499-14.516-14.516-14.516-2.727 0-5.614 0-8.341 0-3.848 0-7.538 1.528-10.259 4.249-2.72 2.721-4.249 6.411-4.249 10.258 0 .006 0 .009 0 .009 0 1.113.903 2.015 2.016 2.015l33.333 0 0-2.015 2.016 0zm-4.226-2.016c-.939-4.826-5.189-8.469-10.29-8.469-2.727 0-5.614 0-8.341 0-2.779 0-5.443 1.104-7.408 3.069-1.485 1.484-2.478 3.369-2.874 5.4l28.913 0z"/><path d="M66.667 25.78l28.031-19.112c.919-.627 2.174-.389 2.801.53.626.919.389 2.174-.53 2.801l-29.167 19.886c-.685.467-1.586.467-2.271 0l-29.167-19.886c-.919-.627-1.156-1.882-.529-2.801.626-.919 1.881-1.157 2.801-.53l28.031 19.112zM118.682 70.833c0-1.113-.902-2.015-2.015-2.015l-8.334 0c-1.113 0-2.015.902-2.015 2.015l0 8.334c0 1.113.902 2.015 2.015 2.015l8.334 0c1.113 0 2.015-.902 2.015-2.015l0-8.334zm-8.333 2.016l0 4.302 4.302 0 0-4.302-4.302 0zM118.682 87.5c0-1.113-.902-2.016-2.015-2.016l-8.334 0c-1.113 0-2.015.903-2.015 2.016l0 8.333c0 1.114.902 2.016 2.015 2.016l8.334 0c1.113 0 2.015-.902 2.015-2.016l0-8.333zm-8.333 2.016l0 4.302 4.302 0 0-4.302-4.302 0z"/></svg>