<svg xmlns="http://www.w3.org/2000/svg" data-name="Layer 1" viewBox="0 0 32 32"><path d="M10,11h3.18l.82-.74V8H10Zm1-2h2v.81l-.21.19H11Zm11,2V8H18v2.26l.82.74ZM19,9h2v1H19.21L19,9.81Zm5.4,9.43-5.13-1a5.89,5.89,0,0,0,1.08-1.05l.18-.24a7.81,7.81,0,0,0,.7-1A10.33,10.33,0,0,0,22.09,13H24V6h-.78V6a12.14,12.14,0,0,0,0-2.25A4.45,4.45,0,0,0,22,1.19,4.77,4.77,0,0,0,17.92.06,9.36,9.36,0,0,0,13.46,2l-.18.14a3.22,3.22,0,0,1-1,.62,1.8,1.8,0,0,1-1.35-.21A4.78,4.78,0,0,1,9.65,1.38L8.86.49,8.77,1.68a10.94,10.94,0,0,0,.53,4l.07.23a.14.14,0,0,0,0,.06H8v7h2a10.44,10.44,0,0,0,1.61,3.37,5.29,5.29,0,0,0,1.07,1.05l-5.11,1a5.51,5.51,0,0,0-4.43,5.4V32H28.83V23.83A5.51,5.51,0,0,0,24.4,18.43Zm-14-15a2.88,2.88,0,0,0,2.12.3,4,4,0,0,0,1.36-.81l.18-.13a8.4,8.4,0,0,1,4-1.72,3.81,3.81,0,0,1,3.25.84,3.52,3.52,0,0,1,.88,2,10.77,10.77,0,0,1,0,2.05V6H10.44c0-.11-.08-.22-.12-.35l-.07-.23A11.44,11.44,0,0,1,9.77,3,5,5,0,0,0,10.41,3.41ZM9,12V7H23v5H17.31L16,9.38,14.69,12Zm3.44,3.77A9.69,9.69,0,0,1,11.07,13h4.24L16,11.62,16.69,13H21a9.6,9.6,0,0,1-.68,1.63,8.87,8.87,0,0,1-.62.89l-.19.25A4.65,4.65,0,0,1,16,17.54,4.64,4.64,0,0,1,12.44,15.77ZM18,18.13V20a2,2,0,1,1-4,0V18.15a5.89,5.89,0,0,0,2,.39A5.24,5.24,0,0,0,18,18.13ZM27.83,31H23.67V27.61h-1V31H9.33V27.61h-1V31H4.17V23.83a4.52,4.52,0,0,1,3.62-4.42l5.24-1V20a3,3,0,1,0,6,0V18.39l5.18,1a4.52,4.52,0,0,1,3.62,4.42Z"/></svg>