<svg xmlns="http://www.w3.org/2000/svg" data-name="Layer 1" viewBox="0 0 32 32"><path d="M11.5,21h9V17h-9Zm1-3h7v2h-7ZM6,21H7V11H6Zm3-6H23V11H9Zm1-3H22v2H10Zm15,9h1V11H25Zm6.5-9.84H32V8.38h-.5A1.8,1.8,0,0,1,29.81,6.5V6H2.19v.5A1.8,1.8,0,0,1,.5,8.38H0v2.78H.5a.63.63,0,0,1,.59.68.64.64,0,0,1-.59.69H0v2.78H.5a.7.7,0,0,1,0,1.38H0v2.78H.5a.64.64,0,0,1,.59.69.63.63,0,0,1-.59.68H0v2.79H.5A1.79,1.79,0,0,1,2.19,25.5V26H29.81v-.5a1.79,1.79,0,0,1,1.69-1.87H32V20.84h-.5a.63.63,0,0,1-.59-.68.64.64,0,0,1,.59-.69H32V16.69h-.5a.7.7,0,0,1,0-1.38H32V12.53h-.5a.64.64,0,0,1-.59-.69A.63.63,0,0,1,31.5,11.16Zm-.5-.92a1.73,1.73,0,0,0,0,3.21v1a1.72,1.72,0,0,0,0,3.2v.95a1.73,1.73,0,0,0,0,3.21v.91A2.84,2.84,0,0,0,28.85,25H3.15A2.84,2.84,0,0,0,1,22.67v-.91a1.69,1.69,0,0,0,1.09-1.6A1.7,1.7,0,0,0,1,18.55V17.6a1.72,1.72,0,0,0,0-3.2v-1a1.7,1.7,0,0,0,1.09-1.61A1.69,1.69,0,0,0,1,10.24V9.33A2.84,2.84,0,0,0,3.15,7h25.7A2.84,2.84,0,0,0,31,9.33ZM26.81,8.5V8H5.19v.5A1.8,1.8,0,0,1,3.5,10.38H3V21.63h.5A1.79,1.79,0,0,1,5.19,23.5V24H26.81v-.5a1.79,1.79,0,0,1,1.69-1.87H29V10.38h-.5A1.8,1.8,0,0,1,26.81,8.5ZM28,20.67A2.84,2.84,0,0,0,25.85,23H6.15A2.84,2.84,0,0,0,4,20.67V11.33A2.84,2.84,0,0,0,6.15,9h19.7A2.84,2.84,0,0,0,28,11.33Z"/></svg>