<svg xmlns="http://www.w3.org/2000/svg" data-name="Layer 1" viewBox="0 0 512 512"><path d="M221.03931,71.5h15v-15h-15Zm54,0h15v-15h-15Zm19,170.37793a12.48865,12.48865,0,0,0-7.50025,22.48279v37.7799l-23.5,11.18067V219.73877l9.64649,10.40185a7.49968,7.49968,0,1,0,10.998-10.19921l-22.6455-24.41895c-.0293-.03149-.06055-.05987-.09131-.089-.07032-.0733-.1416-.145-.21485-.21533-.03076-.03223-.0603-.065-.09326-.09558-.0249-.023-.05176-.04181-.0769-.06439s-.05152-.04273-.07691-.06458q-.18713-.16425-.38427-.31555c-.042-.03357-.083-.06854-.126-.1001-.02808-.02069-.05762-.03876-.08618-.05853-.12427-.08875-.25171-.17236-.38159-.25354-.05323-.03491-.106-.07117-.16065-.10346-.02856-.0169-.05835-.03118-.0874-.04718-.12842-.07373-.26025-.14166-.39356-.20782-.05908-.03076-.11767-.06311-.178-.091-.02759-.0127-.05567-.02314-.0835-.035-.13672-.06134-.27637-.11633-.41748-.16961-.0603-.02393-.11987-.04987-.18091-.07111-.02783-.0097-.05615-.01715-.08447-.02594-.14282-.04791-.28809-.089-.43482-.12836-.05957-.017-.1184-.03631-.17871-.05084-.031-.00751-.06225-.01269-.0935-.0191-.14185-.03241-.28589-.0586-.43067-.08283-.06128-.01129-.12231-.0249-.18408-.03369-.03979-.00568-.07983-.0086-.11963-.01269-.13428-.01679-.26953-.02857-.40576-.03821-.0625-.0055-.12451-.01319-.18726-.016-.05419-.00251-.10864-.00153-.16284-.00159-.062-.00153-.12231-.00934-.18457-.00934-.06885,0-.13525.00842-.20361.01025-.05469.00055-.10913-.001-.16357.00165-.06324.00305-.126.01013-.189.01618-.13477.01-.26831.02276-.40112.03967-.041.00458-.08228.00714-.12305.01306-.06323.00916-.12573.02234-.18823.03449-.14234.02429-.28345.05114-.42285.08331-.03174.00683-.064.01184-.09571.01959-.06176.01514-.1228.03436-.18408.05237-.144.03924-.28662.08069-.427.12805-.02832.0091-.05689.01636-.085.02619-.06226.02178-.12305.0476-.18433.07238-.13867.05292-.27612.10791-.41064.1687-.02857.01239-.05762.02283-.08594.036-.062.02887-.12256.06177-.18359.09375-.13111.06562-.26026.13361-.387.20655-.02856.016-.05786.0299-.08618.04663-.05469.03235-.10742.0683-.16089.10339-.12915.08124-.25561.16528-.37939.254-.02759.01941-.0564.03668-.08374.05688-.04151.03052-.08106.064-.12134.09656-.13257.102-.261.20783-.38647.31824-.02491.02167-.05127.04126-.07593.0636-.0232.02093-.0481.03827-.07105.05957-.03174.02948-.0603.061-.08984.092q-.1106.10656-.21729.21728c-.031.02954-.06274.05817-.09228.09009l-22.64453,24.41895a7.49968,7.49968,0,1,0,10.998,10.19921l9.64551-10.40136v123.582l-23.5-11.18067V294.36108a12.5,12.5,0,1,0-15-.00036v42.51721a7.50088,7.50088,0,0,0,4.27735,6.77246l34.22265,16.28235v49.4624a12.5,12.5,0,1,0,15-.00036v-79.462l34.22266-16.28235a7.50089,7.50089,0,0,0,4.27734-6.77246V264.36108a12.48864,12.48864,0,0,0-7.49975-22.48315Zm59.656-122.272A22.3502,22.3502,0,0,0,337.76953,113h-2.73047V22.5a22.52554,22.52554,0,0,0-22.5-22.5h-114a22.52554,22.52554,0,0,0-22.5,22.5V113h-1.26953a22.53472,22.53472,0,0,0-22.5,22.45557l-.53906,272.33886a103.99971,103.99971,0,1,0,207.999.41162l.54-272.66113A22.35,22.35,0,0,0,353.69531,119.606ZM191.03906,22.5a7.5082,7.5082,0,0,1,7.5-7.5h114a7.5082,7.5082,0,0,1,7.5,7.5V113h-129ZM344.72949,408.17676a88.99969,88.99969,0,1,1-177.999-.353l.53906-272.33838a7.51171,7.51171,0,0,1,7.5-7.48535h163a7.50029,7.50029,0,0,1,7.5,7.51514Z"/></svg>