<svg xmlns="http://www.w3.org/2000/svg" viewBox="0 0 50 50"><path d="M12 27C5.935 27 1 31.935 1 38s4.935 11 11 11c3.71 0 7.187-1.902 9.209-5h7.581c2.023 3.098 5.5 5 9.209 5 6.065 0 11-4.935 11-11s-4.935-11-11-11H26v-2c0-2.206-1.794-4-4-4h-4c-1.103 0-2-.897-2-2s.897-2 2-2h14c2.206 0 4-1.794 4-4s-1.794-4-4-4h-4c-1.103 0-2-.897-2-2V1h-2v6c0 2.206 1.794 4 4 4h4c1.103 0 2 .897 2 2s-.897 2-2 2H18c-2.206 0-4 1.794-4 4s1.794 4 4 4h4c1.103 0 2 .897 2 2v2H12zm35 11c0 4.962-4.038 9-9 9a9.032 9.032 0 0 1-7.786-4.501L29.926 42h-9.85l-.289.499A9.034 9.034 0 0 1 12 47c-4.962 0-9-4.038-9-9s4.038-9 9-9h26c4.962 0 9 4.038 9 9z"/><path d="M11 34v3H8v2h3v3h2v-3h3v-2h-3v-3zM21 38h3v2h-3zM26 38h3v2h-3zM35 34h2v2h-2zM40 33h2v2h-2zM35 39h2v2h-2zM40 38h2v2h-2z"/></svg>