<svg xmlns="http://www.w3.org/2000/svg" data-name="Layer 1" viewBox="0 0 32 32"><path d="M23,13V4H23A4.49,4.49,0,0,0,18.5,0h-5A4.49,4.49,0,0,0,9.05,4H9v9H7v3.5A6.51,6.51,0,0,0,13.5,23h1v6H10v3H22V29H17.5V23h1A6.51,6.51,0,0,0,25,16.5V13ZM10,7h5V6H10V5h5V4H10.05A3.48,3.48,0,0,1,11.5,1.64V3h1V1.16a3.67,3.67,0,0,1,1-.16V3h1V1h1V3h1V1h1V3h1V1a3.67,3.67,0,0,1,1,.16V3h1V1.64A3.48,3.48,0,0,1,22,4H17V5h5V6H17V7h5V8H10Zm8.45,3A2.54,2.54,0,0,0,18,9h4v1ZM22,11v1H18a2.54,2.54,0,0,0,.46-1Zm-4.5-.5A1.5,1.5,0,1,1,16,9,1.5,1.5,0,0,1,17.5,10.5ZM10,9h4a2.54,2.54,0,0,0-.46,1H10Zm0,2h3.55A2.54,2.54,0,0,0,14,12H10Zm0,4h5V14H10V13H22v1H17v1h5v1H17v1H22a3.48,3.48,0,0,1-1.45,2.36V18h-1v1.84a3.67,3.67,0,0,1-1,.16V18h-1v2h-1V18h-1v2h-1V18h-1v2a3.67,3.67,0,0,1-1-.16V18h-1v1.36A3.48,3.48,0,0,1,10.05,17H15V16H10ZM21,30v1H11V30Zm-5.5-1V23h1v6ZM24,16.5A5.51,5.51,0,0,1,18.5,22h-5A5.51,5.51,0,0,1,8,16.5V14H9v3h.05a4.49,4.49,0,0,0,4.45,4h5A4.49,4.49,0,0,0,23,17H23V14h1Z"/></svg>