<svg xmlns="http://www.w3.org/2000/svg" data-name="Layer 1" viewBox="0 0 32 32"><path d="M31.5,19H29V9.5a.5.5,0,0,0-.5-.5H28V8a2.5,2.5,0,1,0-1,0V9h-.5a.5.5,0,0,0-.5.5v.85C22.63,15.93,16.07,16,16,16c-6.12,0-9.5-4.88-10-5.64V9.5A.5.5,0,0,0,5.5,9H5V8A2.5,2.5,0,1,0,4,8V9H3.5a.5.5,0,0,0-.5.5V19H.5a.5.5,0,0,0-.5.5v12a.5.5,0,0,0,.5.5h8a.5.5,0,0,0,.5-.5V31H23v.5a.5.5,0,0,0,.5.5h8a.5.5,0,0,0,.5-.5v-12A.5.5,0,0,0,31.5,19ZM26,5.5A1.5,1.5,0,1,1,27.5,7,1.5,1.5,0,0,1,26,5.5ZM27,10h1V28H27ZM6,12a13,13,0,0,0,10,5,13.6,13.6,0,0,0,10-4.9V19H6ZM3,5.5A1.5,1.5,0,1,1,4.5,7,1.5,1.5,0,0,1,3,5.5ZM4,10H5V28H4ZM1,20H3v8.14l-2,.67ZM8,31H1V29.86L3.58,29H5.42L8,29.86Zm15.34-2a.5.5,0,0,0-.34.47V30H9v-.5A.5.5,0,0,0,8.66,29L6,28.14V20H26v8.14ZM31,31H24V29.86L26.58,29h1.84l2.58.86Zm0-2.19-2-.67V20h2Z"/></svg>