<svg xmlns="http://www.w3.org/2000/svg" viewBox="0 0 48 48"><path d="M37,16H36A12,12,0,0,0,25.79,5.15L25.91,4H33a1,1,0,0,0,0-2H25a1,1,0,0,0-1,.9L23.8,5A12,12,0,0,0,12.05,16H11a1,1,0,0,0-1,1v4a1,1,0,0,0,1,1h1.08l1.77,21.25a3,3,0,0,0,3,2.75H31.16a3,3,0,0,0,3-2.75L35.92,22H37a1,1,0,0,0,1-1V17A1,1,0,0,0,37,16ZM24,7a10,10,0,0,1,10,9H14.05A10,10,0,0,1,24,7Zm8.83,28H30.71a7,7,0,0,0,0-4h2.45ZM29,33a5,5,0,1,1-5-5A5,5,0,0,1,29,33ZM17.29,35H15.17l-.33-4h2.45a7,7,0,0,0,0,4Zm13.87,9H16.84a1,1,0,0,1-1-.92L15.34,37h2.92a7,7,0,0,0,11.48,0h2.92l-.5,6.08A1,1,0,0,1,31.16,44Zm2.17-15H29.74a7,7,0,0,0-11.48,0H14.67l-.58-7H33.91ZM36,20H12V18H36Z" data-name="Layer 24"/></svg>