<svg xmlns="http://www.w3.org/2000/svg" data-name="Layer 1" viewBox="0 0 64 64"><path d="M51.14,6.16a1,1,0,0,0-.93-.06L44.89,8.52A5.87,5.87,0,0,0,43,6.76l2.45-5.38a1,1,0,0,0-.07-.93A1,1,0,0,0,44.6,0H19.4a1,1,0,0,0-.82.45,1,1,0,0,0-.07.93L21,6.76a5.87,5.87,0,0,0-1.85,1.76L13.79,6.1a1,1,0,0,0-.93.06,1,1,0,0,0-.45.82V32.19a1,1,0,0,0,.45.82,1,1,0,0,0,.53.15.92.92,0,0,0,.4-.08l5.32-2.42A6,6,0,0,0,21,32.42l-2.45,5.37a1,1,0,0,0,.07.94,1,1,0,0,0,.82.44H28a4.92,4.92,0,0,0-1,3,5,5,0,0,0,3.39,4.7L18.18,62.82,19.73,64l11.2-14.68V63.41h2V49.08L44.27,64l1.55-1.18-12.19-16a4.92,4.92,0,0,0,2.2-7.67H44.6a1,1,0,0,0,.82-.44,1,1,0,0,0,.07-.94L43,32.42a6,6,0,0,0,1.85-1.76l5.32,2.42a.92.92,0,0,0,.4.08,1,1,0,0,0,.53-.15,1,1,0,0,0,.45-.82V7A1,1,0,0,0,51.14,6.16ZM18.3,28.88l-3.94,1.79V8.5l3.94,1.79a6.09,6.09,0,0,0-.21,1.54V27.34A6,6,0,0,0,18.3,28.88ZM20.91,2H43.09L41.23,6A5.86,5.86,0,0,0,40,5.89H24A5.86,5.86,0,0,0,22.77,6Zm11,43.27a3,3,0,1,1,3-3A3,3,0,0,1,31.91,45.22Zm11.18-8H20.91l1.86-4.07a6.57,6.57,0,0,0,1.26.13H40a6.57,6.57,0,0,0,1.26-.13ZM44,27.34a4,4,0,0,1-4,4H24a4,4,0,0,1-4-4V11.83a4,4,0,0,1,4-4H40a4,4,0,0,1,4,4Zm5.68,3.33L45.7,28.88a6,6,0,0,0,.21-1.54V11.83a6.09,6.09,0,0,0-.21-1.54L49.64,8.5Z"/><path d="M32,11.37a8.22,8.22,0,1,0,8.22,8.22A8.23,8.23,0,0,0,32,11.37Zm0,14.49a6.27,6.27,0,1,1,6.27-6.27A6.27,6.27,0,0,1,32,25.86Z"/></svg>