<svg xmlns="http://www.w3.org/2000/svg" data-name="Layer 1" viewBox="0 0 64 64"><path d="M60.813,5.2H3.187A1.485,1.485,0,0,0,1.7,6.678v39a1.484,1.484,0,0,0,1.484,1.482H23.573V50.91H18.818a1,1,0,0,0-.922.615l-2.465,5.894a1,1,0,0,0,.923,1.386h31.3a1,1,0,0,0,.923-1.386l-2.465-5.894a1,1,0,0,0-.923-.615H40.427V47.158H60.813A1.484,1.484,0,0,0,62.3,45.676v-39A1.485,1.485,0,0,0,60.813,5.2ZM60.3,13.527h-5.61V7.2H60.3ZM9.312,21.858H3.7V15.527H9.312Zm0,2v6.33H3.7v-6.33Zm0,8.33v6.331H3.7V32.188Zm2-24.993H52.687V38.519H11.312ZM54.687,32.188H60.3v6.331h-5.61Zm0-2v-6.33H60.3v6.33Zm0-8.33V15.527H60.3v6.331ZM9.312,7.2v6.332H3.7V7.2Zm36.844,49.61h-28.3l1.629-3.9H44.527Zm-7.729-5.9H25.573V47.158H38.427ZM3.7,45.158V40.519H60.3v4.639Z"/><path d="M41.369,22.386,26.611,13.834a1,1,0,0,0-1.5.865V31.8a1,1,0,0,0,1.5.865l14.758-8.552a1,1,0,0,0,0-1.73ZM27.11,30.068V16.435l11.764,6.816Z"/></svg>