<svg xmlns="http://www.w3.org/2000/svg" data-name="Layer 1" viewBox="0 0 32 32"><path d="M31.5,10h-2a.48.48,0,0,0-.26.07L24.36,13H23V9.5a.5.5,0,0,0-.5-.5H21a5,5,0,1,0-8-4H12A5,5,0,1,0,4,9H3.5a.5.5,0,0,0-.5.5v4.19L.72,12.55a.48.48,0,0,0-.48,0A.52.52,0,0,0,0,13v5a.52.52,0,0,0,.24.43.48.48,0,0,0,.26.07.54.54,0,0,0,.22-.05L3,17.31V21.5a.5.5,0,0,0,.5.5H9.05a3.49,3.49,0,0,0,2.15,2.74L4.65,31.29l.7.71,7-7h.13v7h1V25h.13l7,7,.7-.71L14.8,24.74A3.49,3.49,0,0,0,17,22H22.5a.5.5,0,0,0,.5-.5V18h1.36l4.88,2.93a.48.48,0,0,0,.26.07h2a.5.5,0,0,0,.5-.5v-10A.5.5,0,0,0,31.5,10ZM3,16.19l-2,1V13.81l2,1ZM18,1a4,4,0,1,1-2,7.46v-3a.5.5,0,0,0-.5-.5H14A4,4,0,0,1,18,1ZM15,6V8.74a.5.5,0,0,0,.08.26H10V6ZM3,5a4,4,0,0,1,8,0H9.5a.5.5,0,0,0-.5.5V8.45A4,4,0,0,1,3,5ZM4,15H17v1H4Zm13.5-1H6V12H20v7H6V17H17.5a.5.5,0,0,0,.5-.5v-2A.5.5,0,0,0,17.5,14Zm-4,10h-1a2.5,2.5,0,0,1-2.45-2H16A2.5,2.5,0,0,1,13.5,24ZM22,21H4V17H5v2.5a.5.5,0,0,0,.5.5h15a.5.5,0,0,0,.5-.5v-8a.5.5,0,0,0-.5-.5H5.5a.5.5,0,0,0-.5.5V14H4V10H22Zm2-4H23V14h1Zm5,2.62-4-2.4V13.78l4-2.4ZM31,20H30V11h1ZM7,6.5A1.5,1.5,0,1,0,5.5,5,1.5,1.5,0,0,0,7,6.5Zm0-2a.5.5,0,1,1-.5.5A.5.5,0,0,1,7,4.5Zm11,2A1.5,1.5,0,1,0,16.5,5,1.5,1.5,0,0,0,18,6.5Zm0-2a.5.5,0,1,1-.5.5A.5.5,0,0,1,18,4.5Z"/></svg>