<svg xmlns="http://www.w3.org/2000/svg" enable-background="new 0 0 64 64" viewBox="0 0 64 64"><path d="M56.47,52.27c-0.25,0-0.5-0.09-0.69-0.28l-0.04-0.04l-0.61-0.5c-7.76-6.32-15.09-12.3-48.05-12.42c-1.65-0.01-3-1.35-3-3
			V17.5c0-1.65,1.34-2.99,3-3c32.96-0.12,40.29-6.1,48.05-12.42l0.65-0.53c0.42-0.34,1.03-0.27,1.36,0.14
			c0.34,0.42,0.27,1.03-0.14,1.36l-0.65,0.53c-8.03,6.55-15.63,12.73-49.27,12.85c-0.59,0-1.07,0.48-1.07,1.06v18.54
			c0,0.58,0.48,1.06,1.07,1.06c33.64,0.13,41.23,6.31,49.27,12.85l0.65,0.53c0.03,0.02,0.05,0.04,0.07,0.07l0.07,0.07
			c0.38,0.38,0.38,0.99,0,1.37C56.96,52.18,56.72,52.27,56.47,52.27z"/><path d="M57.61,52.84c-5.05,0-6.39-17.06-6.39-26.07c0-9.02,1.33-26.07,6.39-26.07C62.67,0.7,64,17.75,64,26.77
			C64,35.79,62.67,52.84,57.61,52.84z M57.61,2.63c-1.51,0-4.45,8.52-4.45,24.13c0,15.62,2.94,24.13,4.45,24.13
			c1.51,0,4.45-8.52,4.45-24.13C62.06,11.15,59.12,2.63,57.61,2.63z"/><path d="M52.71 34.08c-.18 0-.36-.01-.55-.04-.52-.1-.86-.61-.76-1.13.1-.52.6-.87 1.14-.77.06.01.11.01.16 0 2.17 0 3.93-2.41 3.93-5.38 0-2.96-1.76-5.36-3.93-5.36-.06 0-.11-.01-.16 0-.53.1-1.03-.25-1.14-.77-.1-.52.23-1.03.76-1.13.18-.04.36-.04.55-.04 3.24 0 5.87 3.28 5.87 7.3C58.58 30.8 55.95 34.08 52.71 34.08zM5.05 36.44h-3C.92 36.44 0 35.48 0 34.29V19.25c0-1.19.92-2.15 2.05-2.15h3c.54 0 .97.43.97.97 0 .54-.43.97-.97.97h-3c-.03 0-.11.08-.11.21v15.04c0 .13.08.21.11.21h3c.54 0 .97.43.97.97C6.02 36.01 5.59 36.44 5.05 36.44zM22.34 63.3h-7.01c-1.52 0-2.85-1.04-3.24-2.53L7.08 38.29c-.12-.52.21-1.04.73-1.16.52-.12 1.04.21 1.16.74l5.01 22.46c.16.6.71 1.04 1.35 1.04h7.01c.29 0 .56-.11.76-.32.2-.21.31-.48.31-.77-.02-.57-.5-1.04-1.07-1.04h-1.17c-.5 0-.93-.39-.97-.89l-1.6-19.56c-.04-.53.35-1 .89-1.05.53-.04 1 .35 1.05.89l1.52 18.66h.28c1.63 0 2.95 1.29 3 2.93.02.83-.29 1.6-.86 2.18C23.92 62.98 23.15 63.3 22.34 63.3zM22.53 39.64c-.54 0-.97-.43-.97-.97V14.88c0-.54.43-.97.97-.97s.97.43.97.97v23.79C23.5 39.21 23.07 39.64 22.53 39.64zM17.42 20.95H9.74c-.54 0-.97-.43-.97-.97 0-.54.43-.97.97-.97h7.68c.54 0 .97.43.97.97C18.39 20.51 17.95 20.95 17.42 20.95zM17.42 25.48H9.74c-.54 0-.97-.43-.97-.97 0-.54.43-.97.97-.97h7.68c.54 0 .97.43.97.97C18.39 25.04 17.95 25.48 17.42 25.48zM17.42 30.01H9.74c-.54 0-.97-.43-.97-.97 0-.54.43-.97.97-.97h7.68c.54 0 .97.43.97.97C18.39 29.58 17.95 30.01 17.42 30.01zM17.42 34.54H9.74c-.54 0-.97-.43-.97-.97 0-.54.43-.97.97-.97h7.68c.54 0 .97.43.97.97C18.39 34.11 17.95 34.54 17.42 34.54z"/></svg>