<svg xmlns="http://www.w3.org/2000/svg" width="100" height="100" enable-background="new 0 0 100 100" viewBox="0 0 100 100"><path d="M11.829,86h76.723C92.729,86,96,82.327,96,77.639V41.573V41.5V28.573V15.427c0-0.829-0.671-1.5-1.5-1.5h-6.899H71.262
			H54.924H38.586H22.248h-11.68C6.395,13.927,3,17.321,3,21.494v7.079V41.5v0.073v36.065C3,81.937,7.291,86,11.829,86z M93,40
			h-4.497l-8.567-9.927H93V40z M84.541,40H72.164l-4.458-5.164l-4.11-4.763h12.377L84.541,40z M59.633,30.073l1.984,2.299L68.201,40
			H55.833l-2.383-2.759l-6.192-7.168H59.633z M43.293,30.073L51.869,40H39.494l-8.576-9.927H43.293z M26.954,30.073l2.446,2.832
			L35.529,40H23.153l-8.575-9.927H26.954z M10.613,30.073L19.188,40H6v-9.927H10.613z M88.552,83H11.829C8.941,83,6,80.294,6,77.639
			V43.073h16.53h16.34h0.02h16.32h16.33h0.02h16.32h0.02H93v34.565C93,80.274,91.336,83,88.552,83z M93,27.073H79.521l8.766-10.146
			H93V27.073z M75.556,27.073H63.183l8.766-10.146h12.374L75.556,27.073z M59.218,27.073H46.844l8.766-10.146h12.374L59.218,27.073z
			 M42.879,27.073H30.506l1.462-1.692l7.304-8.454h12.373L42.879,27.073z M35.308,16.927l-1.462,1.692l-7.304,8.454H14.167
			l8.767-10.146H35.308z M6,21.494c0-2.519,2.049-4.567,4.567-4.567h8.402l-8.767,10.146H6V21.494z"/><path d="M82.501,49.59H18.793c-0.829,0-1.5,0.671-1.5,1.5v11.124c0,0.829,0.671,1.5,1.5,1.5h63.708c0.829,0,1.5-0.671,1.5-1.5
			V51.09C84.001,50.261,83.33,49.59,82.501,49.59z M81.001,60.714H20.293V52.59h60.708V60.714z"/></svg>