<svg xmlns="http://www.w3.org/2000/svg" viewBox="0 0 64 64"><path fill="#ffffff" d="M46,55H18a9,9,0,0,1-9-9V18a9,9,0,0,1,9-9H46a9,9,0,0,1,9,9V46A9,9,0,0,1,46,55ZM18,11a7,7,0,0,0-7,7V46a7,7,0,0,0,7,7H46a7,7,0,0,0,7-7V18a7,7,0,0,0-7-7Z"/><path fill="#ffffff" d="M47.52 40.91a21.76 21.76 0 0 1-14.16-5.14c-11.3-9.42-22.39-3.25-22.86-3a1 1 0 1 1-1-1.73 22.71 22.71 0 0 1 25.14 3.17c8.8 7.34 18.92 3.79 19 3.76a1 1 0 1 1 .68 1.88A21.52 21.52 0 0 1 47.52 40.91zM42 30a6 6 0 1 1 6-6A6 6 0 0 1 42 30zm0-10a4 4 0 1 0 4 4A4 4 0 0 0 42 20z"/></svg>