<svg xmlns="http://www.w3.org/2000/svg" data-name="Layer 1" viewBox="0 0 64 64"><path fill="#fff" d="M26.4,41.69a1.06,1.06,0,0,1-.51-.14C8.94,31.4,9.31,22,10.26,18.36c1.23-4.66,5.5-8.25,9.93-8.36a6.93,6.93,0,0,1,6.23,3.35A6.84,6.84,0,0,1,31.8,10c3.86-.33,7.94,2.18,9.91,6.07,2.51,4.95,1.18,11-3.66,16.56a1,1,0,1,1-1.51-1.31C42.4,24.6,41.18,19.47,39.93,17c-1.59-3.14-5-5.24-8-5a5.22,5.22,0,0,0-4.6,4,1,1,0,0,1-.95.7,1,1,0,0,1-1-.7c-.84-2.68-2.69-4.14-5.22-4.06a9.09,9.09,0,0,0-8,6.87c-.83,3.15-1.06,11.51,14.73,21a1,1,0,0,1,.34,1.37A1,1,0,0,1,26.4,41.69Z"/><path fill="#ffffff" d="M17.22 28.68a1 1 0 01-.82-.42c-2.22-3.15-3-6.25-2.25-9A7.42 7.42 0 0119 14.21a1 1 0 01.57 1.92 5.4 5.4 0 00-3.48 3.7c-.59 2.12.09 4.63 2 7.27a1 1 0 01-.24 1.39A.93.93 0 0117.22 28.68zM42.21 55.11a1 1 0 01-.67-.26l-2.89-2.63c-1.79.06-7.88.06-9.69-2.57a3.37 3.37 0 01-.13-3.48c.69-1.53 2.32-1.78 3.72-1.67l-5.29-9.42A3.08 3.08 0 0127 32.76a3 3 0 011.44-1.84 3.08 3.08 0 012.32-.27 3 3 0 011.83 1.44L35.34 37a3.26 3.26 0 011.48-1.17 2.6 2.6 0 011.83 0 4 4 0 012-1.32 3.37 3.37 0 012 .17 3.91 3.91 0 012-1.3 3.57 3.57 0 012.9.63 1.07 1.07 0 01.26.26c.23.33 5.59 8.16 5.15 14.36a1 1 0 01-.51.8L42.7 55A1 1 0 0142.21 55.11zM39 50.2a1 1 0 01.68.26l2.66 2.42L51.09 48c0-5-4-11.3-4.71-12.39a1.51 1.51 0 00-1.16-.24 2.5 2.5 0 00-1.31 1.12 1 1 0 01-.65.49 1 1 0 01-.79-.14 1.6 1.6 0 00-1.31-.34 2.42 2.42 0 00-1.32 1.13 1 1 0 01-.65.48A1 1 0 0138.4 38c-.55-.37-.81-.27-.9-.24-.56.2-1 1.23-1.15 1.69a1 1 0 01-1.84.22l-3.67-6.56a1.08 1.08 0 00-.63-.5 1.07 1.07 0 00-.8.1 1.08 1.08 0 00-.5.63 1.07 1.07 0 00.1.8l6.34 11.32a1 1 0 01-.1 1.13 1 1 0 01-1.09.31c-1-.36-3.14-.68-3.51.13s-.21 1.28 0 1.52c1 1.44 5.47 1.85 8.35 1.69z"/></svg>