<svg xmlns="http://www.w3.org/2000/svg" data-name="Layer 1" viewBox="0 0 128 128"><path d="M89.10144 76.66425a1.99927 1.99927 0 0 0 0 2.82813l5.6568 5.65723a1.99981 1.99981 0 0 0 2.82819-2.82812l-5.6568-5.65723A1.99934 1.99934 0 0 0 89.10144 76.66425zM107.48639 74.42206a2 2 0 0 0 1.41406-3.41406l-5.6568-5.65723a1.99979 1.99979 0 0 0-2.82812 2.82813l5.6568 5.65723A1.99269 1.99269 0 0 0 107.48639 74.42206zM91.22308 67.47186a1.99916 1.99916 0 0 0 0 2.82813L103.95074 83.0285a1.99979 1.99979 0 0 0 2.82813-2.82812L94.05121 67.47186A1.99927 1.99927 0 0 0 91.22308 67.47186z"/><path d="M124.91217,56.03131C123.95947,54.97583,91.17523,32.381,91.17523,32.381a2.00048,2.00048,0,0,0-3.17438,1.61914v8.5A2.00146,2.00146,0,0,0,88.64,43.966l9.72919,8.03418H30.489l8.8537-7.01758a1.99933,1.99933,0,0,0,.65771-1.48242v-8a2.00021,2.00021,0,0,0-3.12842-1.65137L8.84528,52.00018H4.00006a4,4,0,0,0-4.00006,4v14a4,4,0,0,0,4.00006,4H42.50043a2.0001,2.0001,0,0,0,2-2v-10a2.0001,2.0001,0,0,0-2-2H28.00024v-4h87.803a8.09846,8.09846,0,0,1,8.15594,8.84L121.913,84.76947a8.13757,8.13757,0,0,1-8.15582,7.23071H84.9704a8.13763,8.13763,0,0,1-8.15588-7.23071L75.46265,71.60211a4.0674,4.0674,0,0,0-4.08588-3.60193H60.62451a4.0673,4.0673,0,0,0-4.08582,3.60193L55.18677,84.76947a8.13757,8.13757,0,0,1-8.15582,7.23071H18.24408a8.13757,8.13757,0,0,1-8.15582-7.23071l-.7464-7.26929h-4.021l.78827,7.6778a12.10222,12.10222,0,0,0,12.13495,10.8222H47.03094A12.10216,12.10216,0,0,0,59.16583,85.178l1.35083-13.15625.00208.00061a.31465.31465,0,0,1,.10577-.02216H71.37677a.14405.14405,0,0,1,.11755.04236L72.83545,85.178A12.10222,12.10222,0,0,0,84.9704,96.00018h28.7868A12.10222,12.10222,0,0,0,125.89215,85.178l2.04614-19.92932A11.9614,11.9614,0,0,0,124.91217,56.03131ZM24.00024,70.00018H4.00006v-14H24.00024Zm16.50012-6v6H28.00024v-6Zm-15.9704-12H15.9353L36.00037,39.28925v3.32422Zm79.71814,0L92.00092,41.62811v-3.707l20.79041,14.0791Z"/><path d="M29.17169 85.73553a2 2 0 0 0 1.41406-3.41406l-4.321-4.32129H21.52234a1.98768 1.98768 0 0 0 .57849 1.49219l5.65674 5.65723A1.99283 1.99283 0 0 0 29.17169 85.73553zM39.7782 83.0285a1.99927 1.99927 0 0 0 0-2.82812l-2.2-2.2002H31.92206l5.028 5.02832a1.99927 1.99927 0 0 0 2.82813 0z"/></svg>