<svg xmlns="http://www.w3.org/2000/svg" data-name="Layer 1" viewBox="0 0 32 32"><path d="M25,5h4V2H25Zm1-2h2V4H26ZM1,31.5H2V.5H1ZM3,20H7V17H3Zm1-2H6v1H4ZM3,30H7V27H3Zm1-2H6v1H4ZM30,.5v31h1V.5ZM3,25H7V22H3Zm1-2H6v1H4ZM3,5H7V2H3ZM4,3H6V4H4ZM23,2H9V.5H8v31H9V30H23v1.5h1V.5H23Zm0,27H9V18H23Zm0-12H9V15H23Zm0-3H9V3H23Zm2,6h4V17H25Zm1-2h2v1H26Zm-1-3h4V12H25Zm1-2h2v1H26ZM25,30h4V27H25Zm1-2h2v1H26ZM3,15H7V12H3Zm1-2H6v1H4Zm21-3h4V7H25Zm1-2h2V9H26ZM25,25h4V22H25Zm1-2h2v1H26ZM3,10H7V7H3ZM4,8H6V9H4Z"/></svg>