<svg xmlns="http://www.w3.org/2000/svg" width="100" height="100" viewBox="0 0 100 100"><path d="M23.421 56.947c3.604-.657 6.551-3.229 7.69-6.714.169-.52.294-1.045.375-1.571.574-3.682-.95-7.398-4.057-9.604-.001 0-.002-.001-.003-.002-.001-.001-.003-.002-.005-.004-.007-.005-.016-.008-.023-.013-.814-.582-1.711-1.035-2.663-1.341-.999-.324-2.033-.488-3.074-.488-4.322 0-8.124 2.762-9.459 6.874-1.694 5.211 1.17 10.83 6.38 12.524.996.327 2.035.493 3.086.493C22.247 57.101 22.832 57.05 23.421 56.947zM27.934 50.109c-.039.082-.083.161-.125.241-.092.177-.189.35-.295.517-.054.085-.11.169-.167.252-.112.161-.231.314-.355.464-.059.07-.114.143-.175.211-.186.207-.38.404-.588.587-.029.025-.061.046-.09.071-.184.157-.376.303-.576.44-.085.058-.174.11-.262.165-.153.095-.309.185-.47.268-.099.051-.199.1-.3.146-.058.026-.118.047-.177.072-.074-.645-.112-1.297-.112-1.952 0-3.244.886-6.344 2.576-9.057.101.112.202.223.294.34.068.086.141.17.205.26.176.247.335.503.476.769.016.029.036.056.051.085.153.297.279.607.387.922.032.093.053.19.081.285.066.226.125.454.168.687.021.118.037.237.052.357.029.218.047.437.055.657.004.123.008.246.006.369-.004.233-.025.466-.053.7-.013.108-.02.217-.038.325-.057.34-.133.68-.243 1.016C28.168 49.582 28.056 49.849 27.934 50.109zM15.055 45.011c.933-2.872 3.588-4.801 6.606-4.801.727 0 1.449.115 2.152.343.193.062.375.151.562.23-2.054 3.228-3.134 6.93-3.134 10.807 0 .838.068 1.67.171 2.494-.646-.024-1.284-.127-1.899-.329C15.872 52.572 13.872 48.649 15.055 45.011zM57.143 61.071c-3.096-1.16-6.642-.686-9.319 1.259-.302.218-.589.452-.861.699-1.643 1.492-2.73 3.489-3.103 5.692-.06.355-.104.715-.126 1.079-.134 2.282.535 4.562 1.885 6.422 1.863 2.564 4.872 4.094 8.047 4.094 2.111 0 4.131-.658 5.842-1.9 2.145-1.554 3.556-3.852 3.972-6.47.418-2.627-.214-5.259-1.778-7.412C60.552 62.953 58.975 61.754 57.143 61.071zM53.643 63.436c.074 0 .146.018.22.02-1.85 1.947-4.118 3.424-6.636 4.321.002-.006.004-.013.006-.019.111-.272.24-.535.384-.79.04-.071.086-.138.129-.208.111-.183.23-.361.358-.533.06-.08.122-.158.185-.235.131-.161.271-.315.417-.464.064-.065.125-.132.192-.195.216-.203.442-.397.686-.574C50.776 63.893 52.179 63.436 53.643 63.436zM60.517 71.475c-.291 1.827-1.274 3.429-2.771 4.513-1.196.869-2.607 1.329-4.08 1.329-2.218 0-4.319-1.068-5.62-2.857-.731-1.008-1.167-2.193-1.287-3.415 4.052-1.102 7.637-3.438 10.3-6.712.868.486 1.624 1.152 2.215 1.966C60.367 67.802 60.809 69.641 60.517 71.475zM35.068 62.353c-1.675-1.217-3.695-1.86-5.731-1.887-.86-.011-1.721.095-2.561.306-.354.089-.706.19-1.05.319-1.808.679-3.376 1.875-4.537 3.462-1.562 2.143-2.194 4.768-1.781 7.39.413 2.625 1.824 4.93 3.973 6.492 1.708 1.242 3.726 1.898 5.834 1.898 3.178 0 6.19-1.533 8.057-4.102 1.349-1.857 2.018-4.138 1.884-6.425C38.971 66.813 37.48 64.096 35.068 62.353zM29.123 63.465c.198-.003.395.014.592.028.175.012.351.016.523.041.209.03.415.085.62.135.151.037.306.062.455.109.244.077.478.181.712.285.105.046.215.08.318.132.334.168.658.363.965.586.243.176.469.37.685.572.066.062.126.128.189.192.147.15.288.304.42.466.062.076.123.152.181.23.129.173.25.353.362.537.041.067.086.132.125.201.145.256.275.519.386.792.002.005.003.01.005.016-2.522-.897-4.794-2.372-6.647-4.312C29.05 63.474 29.086 63.466 29.123 63.465zM29.214 77.333c-1.47 0-2.877-.458-4.07-1.325-1.5-1.09-2.484-2.7-2.773-4.532-.289-1.83.153-3.662 1.241-5.154.597-.816 1.349-1.481 2.204-1.966 2.668 3.266 6.257 5.597 10.315 6.7-.12 1.223-.556 2.407-1.286 3.413C33.54 76.263 31.436 77.333 29.214 77.333zM41.419 42.726c.575 0 1.141-.049 1.692-.143 3.858-.658 7.019-3.535 7.967-7.435 0-.001 0-.003.001-.005 0-.002.001-.003.001-.005 0-.001 0-.003 0-.005.187-.75.282-1.541.282-2.351 0-5.483-4.461-9.943-9.944-9.943s-9.943 4.46-9.943 9.943c0 .82.096 1.619.283 2.366C32.847 39.61 36.82 42.726 41.419 42.726zM40.308 39.632c-.119-.019-.231-.053-.348-.078-.241-.051-.481-.108-.713-.184-.131-.043-.256-.096-.383-.146-.209-.083-.415-.171-.614-.273-.125-.064-.246-.133-.366-.204-.192-.114-.377-.236-.557-.368-.109-.08-.218-.159-.322-.245-.182-.15-.352-.312-.518-.48-.084-.086-.173-.167-.253-.258-.188-.21-.357-.437-.519-.67-.043-.062-.094-.119-.135-.183-.19-.297-.358-.611-.503-.939 4.016-1.608 8.663-1.612 12.688-.007-.144.326-.311.638-.5.933-.055.087-.123.164-.182.248-.148.21-.3.416-.469.607-.089.1-.187.191-.281.286-.158.158-.319.313-.491.455-.109.091-.224.175-.339.259-.175.127-.354.247-.541.357-.124.073-.248.145-.376.21-.197.101-.4.188-.606.27-.129.051-.256.105-.389.148-.231.075-.469.131-.71.183-.117.025-.231.059-.35.078-.363.058-.734.094-1.112.094S40.671 39.69 40.308 39.632zM41.419 25.839c3.773 0 6.847 3.026 6.936 6.778-2.208-.811-4.528-1.225-6.925-1.225-2.406 0-4.733.417-6.946 1.232C34.569 28.869 37.644 25.839 41.419 25.839zM51.749 50.204c.285.874.682 1.69 1.175 2.433 1.48 2.229 3.818 3.797 6.527 4.282 0 0 .001 0 .002 0 0 0 0 0 .001 0s.001 0 .002 0c.576.104 1.164.157 1.747.157 1.033 0 2.064-.163 3.07-.487 5.213-1.694 8.078-7.317 6.386-12.534-1.334-4.106-5.134-6.865-9.454-6.865-1.043 0-2.08.165-3.077.488-.964.31-1.875.771-2.7 1.365C51.873 41.562 50.394 46.048 51.749 50.204zM54.326 46.213c.015-.118.03-.236.051-.353.044-.237.103-.47.171-.7.026-.088.046-.179.075-.266.108-.319.236-.631.391-.931.006-.012.015-.023.021-.035.149-.285.32-.558.509-.821.056-.078.119-.15.178-.226.097-.124.205-.241.312-.359 1.694 2.711 2.583 5.815 2.583 9.069 0 .642-.037 1.284-.108 1.923-.064-.027-.13-.048-.193-.077-.088-.04-.175-.083-.261-.126-.179-.091-.352-.19-.521-.296-.074-.046-.149-.09-.221-.138-.225-.152-.442-.315-.647-.492-.008-.007-.018-.013-.025-.021-.214-.186-.413-.389-.603-.6-.055-.061-.105-.127-.158-.19-.13-.156-.255-.317-.371-.485-.055-.08-.108-.16-.16-.242-.108-.17-.208-.347-.301-.527-.041-.078-.084-.155-.122-.235-.123-.261-.235-.53-.326-.809-.109-.335-.186-.674-.243-1.013-.019-.109-.025-.218-.039-.327-.028-.232-.048-.463-.053-.694-.002-.124.001-.247.005-.37C54.279 46.649 54.297 46.431 54.326 46.213zM61.205 40.189c3.017 0 5.669 1.926 6.601 4.792 1.182 3.644-.819 7.571-4.455 8.753-.624.201-1.261.303-1.9.326.101-.821.167-1.645.167-2.47 0-3.889-1.083-7.596-3.144-10.822.191-.082.378-.173.576-.237C59.751 40.304 60.476 40.189 61.205 40.189zM47.984 51.586c0-3.614-2.94-6.555-6.555-6.555s-6.555 2.94-6.555 6.555 2.94 6.555 6.555 6.555S47.984 55.2 47.984 51.586zM41.43 55.141c-1.96 0-3.555-1.595-3.555-3.555s1.595-3.555 3.555-3.555 3.555 1.595 3.555 3.555S43.39 55.141 41.43 55.141z"/><path d="M95.039,86.477H56.204c13.574-5.77,23.117-19.236,23.117-34.891c0-20.893-16.998-37.891-37.891-37.891    S3.539,30.693,3.539,51.586S20.537,89.477,41.43,89.477h53.609c0.829,0,1.5-0.671,1.5-1.5S95.868,86.477,95.039,86.477z     M6.539,51.586c0-19.239,15.652-34.891,34.891-34.891c19.239,0,34.891,15.652,34.891,34.891S60.669,86.477,41.43,86.477    C22.191,86.477,6.539,70.825,6.539,51.586z"/></svg>