<svg width="19" height="92" viewBox="0 0 19 92" fill="none" xmlns="http://www.w3.org/2000/svg">
<path d="M4.47574 32.0839C4.26734 40.1047 3.78067 47.7403 3.88882 55.3905C3.9152 57.0933 4.16183 58.7882 4.32935 60.4818C4.50477 62.3231 5.66943 63.1422 7.38676 63.2965C9.57628 63.4864 11.7434 63.2635 13.8709 62.7795C15.7109 62.3653 15.7109 60.8854 15.7004 59.4371C15.6648 54.9684 15.5896 50.4983 15.579 46.027C15.5658 32.4915 15.0567 18.9797 13.9817 5.48381C13.8973 4.41938 13.8604 3.35232 14.26 2.3512C14.5146 1.72996 14.9868 1.23927 15.7386 1.30259C16.4957 1.36854 16.8466 1.88297 16.9191 2.60841C16.96 3.0173 17.051 3.42751 17.0681 3.8364C17.7144 16.3457 18.7222 28.8392 18.7736 41.3722C18.7815 44.1342 18.4175 46.8922 18.3489 49.6502C18.2922 51.8081 18.4188 53.929 18.8132 56.1054C19.226 58.403 18.7829 60.8735 18.891 63.2833C19.226 71.1537 18.5876 79.0413 18.9635 86.9183C19.0176 88.0764 18.7499 89.2556 18.5639 90.4176C18.4425 91.1497 18.3687 92.0373 17.2858 91.9978C16.3322 91.9542 15.7399 91.3514 15.5856 90.4756C15.4075 89.4415 15.3284 88.3692 15.3126 87.3153C15.2176 82.0235 15.1635 76.7357 15.0936 71.4373C15.0805 70.9084 15.0884 70.3782 15.0475 69.8506C14.8259 66.776 14.5067 66.4885 11.3965 66.623C10.1593 66.6784 8.93131 66.7496 7.70201 66.8499C5.14845 67.0622 4.7211 67.5212 4.70659 70.1605C4.67362 75.7491 4.67362 81.3363 4.64988 86.9223C4.64724 87.686 4.67361 88.4615 4.54699 89.2094C4.25813 90.99 3.20953 91.3752 1.85757 90.2211C0.700812 89.2265 0.360507 87.8931 0.384248 86.4145C0.559674 75.302 0.721901 64.1868 0.894689 53.069C0.922388 51.3042 0.977794 49.5526 0.549122 47.8102C0.192995 46.333 1.08463 44.9467 1.04374 43.4615C0.948776 39.4623 0.971189 35.4645 0.843247 31.464C0.645398 25.5219 0.443599 19.593 0.923711 13.6523C1.19938 10.1886 0.509559 6.72365 0.959335 3.25471C1.01605 2.84846 1.01603 2.43167 1.07011 2.02278C1.1809 1.18654 1.59509 0.508559 2.47222 0.46767C3.31506 0.432058 3.59072 1.15356 3.80703 1.86845C4.55622 4.30463 4.94004 6.81468 4.79627 9.34582C4.37815 17.0501 4.42167 24.7516 4.47574 32.0839Z" fill="#F2F2F2"/>
</svg>
