<svg width="17" height="94" viewBox="0 0 17 94" fill="none" xmlns="http://www.w3.org/2000/svg">
<path d="M16.9708 45.5831C17.0948 41.5365 16.4577 37.4713 16.5381 33.4207C16.6542 27.4655 16.5513 21.5089 16.703 14.5763C16.3706 11.9884 16.1135 8.39154 14.7457 5.01228C14.1614 3.58909 13.4029 2.27669 12.105 1.36131C11.4271 0.882515 10.7029 0.542223 9.85351 0.725562C8.87218 0.944515 7.8882 1.21224 6.90687 1.46021C5.09854 1.9179 3.87716 3.00872 3.17942 4.75374C1.34998 9.29766 0.562552 13.984 0.850092 18.8907C1.34471 27.4245 1.3447 35.9663 1.22335 44.5147C1.16927 48.4809 0.836894 52.4405 1.46869 56.4133C1.81163 58.5739 1.90131 60.7832 1.65466 62.9912C1.27083 66.5814 1.4489 70.1862 1.79184 73.7607C2.13214 77.3206 1.43175 80.8991 2.20599 84.4458C2.60565 86.2581 2.77581 88.1179 3.50917 89.8524C4.29001 91.6739 5.42302 93.1432 7.4147 93.7328C11.7014 95.0202 16.4959 91.3956 16.3957 86.9374C16.3007 82.7879 16.2282 78.6409 16.5171 74.5059C17.1792 64.8707 16.6621 55.2223 16.9708 45.5831ZM14.1864 43.9172C13.8237 50.0703 14.4159 56.1891 13.978 62.3158C13.5401 68.4728 13.5731 74.6589 13.4029 80.8344C13.3673 82.1402 13.3383 83.4592 13.3673 84.765C13.4108 86.5971 12.5944 88.0414 11.34 89.2443C9.47762 91.0289 6.66418 90.2705 5.87806 87.8066C5.3808 86.2753 5.20013 84.6701 5.01811 83.0807C4.40214 77.8153 4.48785 72.5261 4.47993 67.2396C4.47466 60.1804 4.47466 53.1145 4.47466 46.0527H4.32299C4.32299 36.362 4.30453 26.678 4.34147 16.9953C4.35202 13.773 4.81761 10.6193 5.84642 7.53417C6.44129 5.73639 7.87636 5.05974 9.26526 4.2235C9.61875 4.01114 9.89441 4.30794 10.1793 4.47149C12.1908 5.60055 12.7302 7.62913 13.3119 9.61949C13.9411 11.751 14.1178 13.9603 13.9925 16.1485C13.4649 25.4223 14.7245 34.6935 14.1864 43.9172Z" fill="#F2F2F2"/>
</svg>
