<svg width="20" height="92" viewBox="0 0 20 92" fill="none" xmlns="http://www.w3.org/2000/svg">
<path d="M6.91177 91.974C5.38701 91.974 3.86095 91.9845 2.34147 91.9674C0.698005 91.9476 0.206052 91.3369 0.50942 89.7264C1.57648 84.1273 2.74247 78.5387 3.70401 72.9172C4.97948 65.5032 6.10719 58.0601 7.28241 50.6302C8.3231 44.0353 9.36641 37.435 10.5561 30.8638C12.0295 22.7125 13.454 14.5571 14.8613 6.39654C15.1832 4.51566 14.7782 4.09359 12.8987 4.10018C10.32 4.10414 7.7467 4.13714 5.1628 4.15428C4.91087 4.15428 4.65234 4.15031 4.40569 4.11866C3.45998 3.9828 2.31905 4.08305 2.23464 2.71526C2.15682 1.6205 3.16454 0.84757 4.61806 0.827785C5.59148 0.814595 6.56623 0.792168 7.53701 0.889774C10.7395 1.21029 13.9262 1.35273 17.1129 0.684003C17.4809 0.600907 17.8752 0.592985 18.2459 0.643107C19.1652 0.773687 19.6862 1.57827 19.3618 2.31954C17.7724 5.99556 17.0047 9.90638 16.299 13.8106C14.3746 24.5023 12.867 35.2534 10.9096 45.9372C9.10658 55.7954 7.59898 65.7036 6.27208 75.6383C5.80779 79.1085 4.79084 82.5062 5.07179 86.0583C5.09949 86.4342 5.09024 86.818 5.11003 87.1979C5.18785 88.3098 5.71811 88.8783 6.89333 88.8519C9.26356 88.7965 11.6311 88.7992 14.0013 88.7741C14.5012 88.7701 15.0262 88.662 15.4931 88.9232C16.0656 89.2463 16.3478 89.762 16.1909 90.4123C15.9877 91.2736 15.3428 91.6165 14.5118 91.6996C11.982 91.9449 9.44951 92.0518 6.91177 91.974Z" fill="#F2F2F2"/>
</svg>
