<svg width="12" height="93" viewBox="0 0 12 93" fill="none" xmlns="http://www.w3.org/2000/svg">
<path d="M3.70331 36.3624C3.91963 46.6782 4.13069 57.002 4.34964 67.3191C4.37734 68.6421 4.26523 69.9294 3.79831 71.1864C3.50154 71.983 3.50416 72.8483 3.54637 73.6964C3.7086 77.5439 3.75478 81.3927 3.69542 85.2429C3.65453 88.3135 4.7084 89.4307 7.78164 89.6747C8.57963 89.7406 9.3842 89.804 10.1848 89.8778C11.1609 89.9741 12.0064 90.3474 11.9629 91.4566C11.922 92.5303 11.0686 92.9458 10.1031 92.9814C8.92126 93.0197 7.73282 92.984 6.55101 92.926C5.15947 92.8508 3.77453 92.6714 2.37772 92.6252C1.06137 92.583 0.479705 91.8193 0.30428 90.6639C0.180295 89.8277 0.131514 88.9783 0.13679 88.1354C0.21461 78.578 0.268659 69.0127 0.428257 59.4579C0.482336 56.2884 0.620826 53.1149 1.14974 49.9718C1.57709 47.4248 0.806832 44.9253 0.511378 42.4166C0.109086 39.0413 -0.11515 35.7003 0.305608 32.3091C0.916301 27.3774 0.779106 22.4273 0.524541 17.4797C0.256786 12.4082 0.390033 7.32878 0.324084 2.25726C0.308256 1.27989 1.13523 0.468707 2.17855 0.443647C3.15197 0.415948 3.13484 1.22583 3.25092 1.87345C3.9724 5.72754 3.78641 9.6344 3.76663 13.5188C3.72046 21.132 3.54108 28.7466 3.70331 36.3624Z" fill="#F2F2F2"/>
</svg>
