<svg width="16" height="95" viewBox="0 0 16 95" fill="none" xmlns="http://www.w3.org/2000/svg">
<path d="M4.63748 63.6948C4.89996 73.1203 5.1598 82.5511 5.41041 91.9753C5.42624 92.5187 5.43811 93.0858 5.30225 93.6055C5.0833 94.4695 4.45415 94.9997 3.55856 94.9997C2.65901 94.9997 2.26724 94.3125 2.02587 93.5488C1.80428 92.83 2.04696 92.1216 2.04696 91.4041C2.0707 83.7487 2.46642 76.0709 1.98235 68.4524C1.555 61.6451 1.92827 54.8417 1.46398 48.0516C1.39144 46.9608 1.50749 45.858 1.90451 44.8055C2.03377 44.4599 2.14196 44.026 2.04567 43.6897C1.37035 41.2667 1.6262 38.7896 1.90451 36.3798C2.38594 32.1617 1.66183 28.0267 1.42309 23.86C1.07751 17.8177 1.11444 11.7648 0.944286 5.72252C0.916587 4.55126 0.906054 3.34832 1.54972 2.26939C2.42289 0.803989 3.58227 0.410925 5.1123 1.14296C5.68211 1.41468 6.26908 1.33026 6.85604 1.36455C9.12602 1.48722 11.421 1.1232 13.6514 1.87898C14.5273 2.17311 15.2461 2.54112 15.0918 3.62533C14.9428 4.70426 14.3967 5.46268 13.203 5.44421C10.8789 5.41124 8.54827 5.4785 6.23212 5.20415C4.22594 4.96541 3.58096 5.5616 3.7432 7.60339C4.13494 12.5733 4.45676 17.5565 5.07273 22.5067C5.21123 23.5935 5.64518 24.253 6.81908 24.2306C7.60256 24.2108 8.3135 24.5142 9.01916 24.7793C9.87914 25.1024 10.6758 26.5032 10.4226 27.2471C10.0955 28.2298 9.22492 28.3867 8.35966 28.3643C5.938 28.3155 5.92216 28.2878 5.31674 30.666C4.83795 32.5495 4.59261 34.4554 4.52007 36.4194C4.18504 45.5165 4.60715 54.603 4.63748 63.6948Z" fill="#F2F2F2"/>
</svg>
