<svg width="32" height="94" viewBox="0 0 32 94" fill="none" xmlns="http://www.w3.org/2000/svg">
<path d="M8.93832 86.371C9.05175 84.9254 8.71676 83.2661 8.41339 81.5989C7.20519 74.9143 7.1511 68.132 6.89917 61.3761C6.85565 60.1508 6.76463 58.9149 6.84773 57.6962C7.17748 52.6101 6.0669 47.7035 5.12119 42.7612C4.28626 38.3993 3.94595 33.9622 3.45924 29.5515C2.71665 22.7811 1.96749 16.0173 1.20511 9.24696C0.959778 7.0693 0.630003 4.89695 0.393904 2.70743C0.304213 1.90548 0.3293 1.03098 1.4267 0.846317C2.44364 0.669572 2.8591 1.30137 3.13477 2.14816C4.09631 5.09611 4.52103 8.16541 4.83495 11.2242C5.74637 19.9704 6.57601 28.7258 7.67077 37.4562C8.77609 46.2262 9.49496 55.041 9.96584 63.8756C10.012 64.795 10.2204 65.7143 10.3826 66.6297C10.4209 66.8658 10.4697 67.1784 10.8047 67.1625C11.116 67.1493 11.178 66.8499 11.2215 66.6072C11.3943 65.523 11.5645 64.4362 11.7109 63.3427C12.9402 54.1296 14.3515 44.9296 14.4214 35.5912C14.4398 33.1577 14.6667 30.6924 15.2866 28.2985C15.3618 28.0136 15.4053 27.7129 15.5346 27.4491C15.8643 26.7526 16.2891 25.9586 17.124 26.0219C17.9721 26.0799 17.9351 27.0283 18.0512 27.6469C18.2464 28.7192 18.3862 29.8232 18.4047 30.9167C18.497 37.3679 19.6749 43.7043 20.4729 50.079C21.0704 54.9038 21.6429 59.7327 22.1995 64.5615C22.4422 66.6204 22.6097 68.6873 22.8405 70.7436C22.8998 71.2633 22.8563 72.1088 23.4248 72.1365C24.0328 72.1668 24.0144 71.3187 24.0869 70.8175C24.4945 67.8498 24.9166 64.8754 25.2107 61.8906C26.2158 51.4349 26.2356 40.9344 26.7816 30.463C27.271 21.0058 28.0571 11.5592 28.7034 2.10726C28.7522 1.43062 28.8379 0.771135 29.657 0.69859C30.4708 0.618132 31.1462 0.974266 31.5683 1.69444C31.8083 2.10728 31.836 2.57816 31.8083 3.04772C30.5764 24.2043 29.7375 45.3834 28.0888 66.5162C27.4622 74.5278 26.3398 82.4892 25.1567 90.4309C24.9021 92.1403 23.9511 93.2733 22.3155 93.8418C21.2076 94.2269 20.6285 93.9196 20.4294 92.7312C20.345 92.2352 20.3542 91.7195 20.3489 91.213C20.2869 79.6996 19.6195 68.2151 18.6764 56.7438C18.5115 54.7284 18.3651 52.6946 17.8415 50.72C17.7465 50.3705 17.769 49.8363 17.2796 49.8429C16.6386 49.8495 16.8417 50.4589 16.7797 50.8282C14.6641 63.5235 13.7117 76.3467 12.7476 89.1633C12.7146 89.6303 12.6394 90.0866 12.5695 90.5469C12.4535 91.3423 12.0617 91.8936 11.207 91.9609C10.3549 92.0295 9.7416 91.6536 9.37228 90.878C8.95152 89.9943 8.83544 88.9378 8.93832 86.371Z" fill="#F2F2F2"/>
</svg>
