<svg width="339" height="273" viewBox="0 0 339 273" fill="none" xmlns="http://www.w3.org/2000/svg">
<g filter="url(#filter0_d_159_35026)">
<path d="M61.8082 255.335C61.9072 254.073 61.6149 252.624 61.35 251.169C60.2953 245.334 60.247 239.413 60.0283 233.516C59.9891 232.447 59.9108 231.367 59.9822 230.303C60.27 225.864 59.3006 221.58 58.4762 217.265C57.7485 213.458 57.4514 209.585 57.0254 205.735C56.3783 199.826 55.7243 193.922 55.0588 188.01C54.8446 186.108 54.5568 184.213 54.3496 182.302C54.2713 181.602 54.2942 180.839 55.2522 180.676C56.1411 180.522 56.5027 181.072 56.7422 181.813C57.5804 184.388 57.9511 187.066 58.2274 189.735C59.0242 197.369 59.7473 205.012 60.7029 212.634C61.6678 220.291 62.2942 227.984 62.7064 235.697C62.7478 236.5 62.9298 237.302 63.0702 238.101C63.1048 238.306 63.1462 238.58 63.4386 238.566C63.7104 238.554 63.7657 238.292 63.8025 238.082C63.9522 237.136 64.1018 236.187 64.2308 235.234C65.3039 227.19 66.536 219.16 66.5958 211.008C66.612 208.885 66.81 206.732 67.3512 204.641C67.4156 204.392 67.4548 204.13 67.5676 203.899C67.8555 203.292 68.2261 202.598 68.9561 202.654C69.6953 202.704 69.6654 203.531 69.7667 204.072C69.9371 205.007 70.0592 205.972 70.0753 206.928C70.1559 212.558 71.183 218.092 71.8807 223.655C72.4035 227.867 72.9008 232.083 73.3867 236.298C73.5986 238.094 73.7436 239.899 73.9463 241.693C73.9969 242.147 73.9602 242.886 74.4576 242.909C74.9872 242.936 74.9734 242.195 75.0355 241.757C75.3902 239.167 75.7587 236.572 76.0166 233.965C76.894 224.839 76.9123 215.671 77.3889 206.529C77.8173 198.274 78.5012 190.027 79.0677 181.777C79.1114 181.187 79.1852 180.611 79.899 180.547C80.6106 180.478 81.1978 180.786 81.5685 181.415C81.7781 181.777 81.8034 182.186 81.7781 182.596C80.7027 201.065 79.9704 219.552 78.5312 238.002C77.9854 244.995 77.0044 251.945 75.9727 258.876C75.7494 260.369 74.9204 261.359 73.4927 261.854C72.5255 262.19 72.0189 261.921 71.8461 260.884C71.7725 260.452 71.7817 260.003 71.7771 259.558C71.7242 249.509 71.1415 239.482 70.3171 229.47C70.172 227.71 70.0454 225.935 69.5894 224.21C69.5065 223.906 69.5272 223.439 69.0989 223.443C68.5393 223.448 68.7167 223.98 68.6638 224.305C66.8169 235.388 65.9856 246.58 65.1451 257.769C65.1151 258.176 65.0506 258.575 64.9907 258.975C64.8894 259.669 64.5487 260.15 63.8003 260.21C63.0565 260.27 62.5199 259.94 62.1998 259.263C61.8198 258.497 61.7184 257.573 61.8082 255.335Z" fill="#010101"/>
<path d="M163.046 261.973C161.715 261.973 160.384 261.983 159.058 261.969C157.623 261.953 157.192 261.418 157.46 260.011C158.39 255.123 159.41 250.245 160.248 245.338C161.361 238.865 162.346 232.369 163.371 225.882C164.28 220.125 165.19 214.363 166.229 208.627C167.516 201.511 168.759 194.391 169.987 187.268C170.268 185.627 169.915 185.258 168.273 185.263C166.021 185.265 163.776 185.295 161.519 185.311C161.298 185.311 161.075 185.309 160.858 185.279C160.034 185.161 159.037 185.247 158.963 184.054C158.896 183.098 159.776 182.423 161.043 182.407C161.892 182.396 162.742 182.375 163.59 182.46C166.385 182.741 169.167 182.863 171.949 182.281C172.271 182.207 172.614 182.2 172.939 182.244C173.743 182.357 174.196 183.059 173.913 183.708C172.524 186.918 171.854 190.331 171.239 193.739C169.561 203.073 168.244 212.456 166.535 221.785C164.96 230.391 163.645 239.04 162.487 247.712C162.081 250.74 161.192 253.709 161.439 256.808C161.464 257.138 161.455 257.472 161.473 257.803C161.54 258.773 162.003 259.27 163.03 259.247C165.098 259.199 167.166 259.201 169.234 259.18C169.669 259.178 170.13 259.083 170.535 259.311C171.035 259.595 171.281 260.044 171.145 260.61C170.968 261.363 170.406 261.663 169.678 261.734C167.472 261.948 165.261 262.042 163.046 261.973Z" fill="#010101"/>
<path d="M139.238 234.667C139.468 242.895 139.693 251.128 139.912 259.356C139.926 259.83 139.938 260.325 139.818 260.779C139.627 261.534 139.079 261.995 138.296 261.995C137.511 261.995 137.17 261.396 136.958 260.728C136.764 260.102 136.976 259.482 136.976 258.856C136.997 252.173 137.342 245.47 136.921 238.819C136.548 232.876 136.873 226.937 136.47 221.012C136.407 220.058 136.509 219.096 136.854 218.179C136.967 217.878 137.061 217.5 136.979 217.205C136.389 215.091 136.612 212.929 136.854 210.824C137.276 207.142 136.642 203.531 136.433 199.895C136.131 194.619 136.163 189.337 136.014 184.063C135.988 183.041 135.979 181.991 136.541 181.049C137.303 179.769 138.316 179.425 139.652 180.066C140.149 180.303 140.661 180.229 141.174 180.259C143.155 180.365 145.158 180.05 147.106 180.708C147.871 180.964 148.497 181.286 148.364 182.233C148.232 183.174 147.756 183.835 146.715 183.819C144.686 183.789 142.65 183.849 140.628 183.61C138.876 183.402 138.314 183.921 138.457 185.705C138.798 190.044 139.081 194.394 139.618 198.714C139.74 199.663 140.117 200.238 141.142 200.217C141.826 200.201 142.445 200.464 143.063 200.696C143.813 200.98 144.509 202.2 144.288 202.852C144.002 203.711 143.242 203.847 142.487 203.826C140.373 203.782 140.359 203.759 139.832 205.836C139.413 207.48 139.201 209.145 139.136 210.859C138.844 218.799 139.212 226.732 139.238 234.667Z" fill="#010101"/>
<path d="M123.583 212.556C123.772 221.562 123.956 230.573 124.147 239.579C124.173 240.733 124.074 241.857 123.666 242.955C123.408 243.651 123.41 244.406 123.445 245.147C123.588 248.505 123.627 251.865 123.576 255.227C123.539 257.907 124.46 258.881 127.143 259.095C127.841 259.153 128.541 259.208 129.241 259.273C130.093 259.358 130.83 259.683 130.793 260.652C130.756 261.589 130.013 261.951 129.17 261.983C128.138 262.018 127.102 261.985 126.068 261.935C124.854 261.87 123.643 261.711 122.425 261.672C121.276 261.635 120.767 260.968 120.615 259.959C120.507 259.229 120.465 258.488 120.47 257.753C120.536 249.41 120.585 241.06 120.723 232.719C120.771 229.951 120.891 227.183 121.352 224.438C121.725 222.216 121.052 220.033 120.795 217.843C120.444 214.898 120.249 211.98 120.615 209.019C121.147 204.713 121.029 200.393 120.806 196.072C120.571 191.646 120.688 187.211 120.631 182.783C120.617 181.929 121.34 181.222 122.25 181.199C123.1 181.173 123.083 181.88 123.185 182.447C123.813 185.811 123.652 189.222 123.634 192.614C123.597 199.26 123.44 205.905 123.583 212.556Z" fill="#010101"/>
<path d="M108.104 219.731C108.212 216.199 107.657 212.65 107.726 209.115C107.827 203.918 107.738 198.716 107.871 192.664C107.581 190.405 107.355 187.264 106.163 184.316C105.651 183.073 104.99 181.928 103.857 181.129C103.266 180.71 102.635 180.413 101.891 180.574C101.034 180.765 100.175 181 99.3186 181.215C97.7388 181.613 96.675 182.566 96.0648 184.091C94.469 188.058 93.7804 192.148 94.0314 196.431C94.4644 203.881 94.4643 211.337 94.3584 218.798C94.31 222.26 94.0222 225.716 94.5726 229.186C94.8719 231.072 94.9502 233.002 94.7338 234.93C94.3976 238.064 94.5542 241.212 94.8535 244.332C95.1506 247.441 94.538 250.563 95.215 253.658C95.5627 255.24 95.7125 256.864 96.3526 258.377C97.0343 259.966 98.0244 261.251 99.7607 261.764C103.503 262.888 107.687 259.724 107.599 255.832C107.517 252.21 107.454 248.59 107.705 244.981C108.286 236.569 107.834 228.146 108.104 219.731ZM105.672 218.276C105.354 223.648 105.872 228.988 105.49 234.338C105.108 239.713 105.138 245.113 104.988 250.503C104.956 251.643 104.933 252.795 104.956 253.935C104.995 255.533 104.281 256.795 103.185 257.845C101.559 259.401 99.1044 258.741 98.4182 256.59C97.9853 255.252 97.8264 253.852 97.6675 252.463C97.1309 247.867 97.2047 243.25 97.1978 238.635C97.1932 232.473 97.1931 226.306 97.1931 220.141H97.0619C97.0619 211.683 97.0458 203.227 97.078 194.776C97.0872 191.962 97.4949 189.21 98.3906 186.518C98.9111 184.947 100.164 184.358 101.375 183.628C101.684 183.441 101.923 183.702 102.174 183.844C103.931 184.83 104.401 186.601 104.91 188.339C105.458 190.2 105.614 192.13 105.504 194.039C105.043 202.133 106.142 210.225 105.672 218.276Z" fill="#010101"/>
<path d="M247.476 238.386C247.773 236.343 248.001 234.381 248.353 232.438C249.859 223.97 249.979 215.376 250.732 206.847C250.826 205.822 250.978 204.797 251.464 203.869C251.676 203.469 252.008 203.08 252.526 203.08C253.152 203.08 253.15 203.66 253.306 204.065C253.758 205.295 253.783 206.598 253.802 207.872C253.877 213.801 255.093 219.602 255.72 225.465C256.231 230.262 256.802 235.058 257.339 239.846C257.458 240.887 257.451 241.96 258.17 243.049C258.727 242.126 258.789 241.253 258.888 240.415C259.572 234.757 260.118 229.085 260.339 223.388C260.862 209.891 261.412 196.394 262.575 182.937C262.651 182.087 262.529 181.092 263.892 181.159C265.196 181.221 265.343 182.057 265.283 183.077C265.044 187.333 264.804 191.589 264.574 195.842C263.945 207.485 263.386 219.128 262.686 230.768C262.126 240.097 260.963 249.37 259.637 258.618C259.448 259.938 258.957 261.098 257.652 261.727C256.353 262.344 255.552 261.911 255.496 260.458C255.381 257.69 255.337 254.915 255.241 252.143C254.944 243.733 254.598 235.314 253.672 226.936C253.56 225.877 253.461 224.82 252.8 223.805C252.13 224.551 252.19 225.419 252.074 226.193C250.497 236.449 249.735 246.796 248.897 257.133C248.837 257.746 248.823 258.367 248.722 258.968C248.6 259.696 248.203 260.207 247.404 260.235C246.635 260.265 246.124 259.871 245.903 259.16C245.746 258.674 245.551 258.151 245.592 257.66C245.832 254.605 245.06 251.657 244.685 248.663C243.837 241.981 243.807 235.236 243.743 228.514C243.706 224.666 242.799 220.995 242.198 217.258C241.166 210.865 240.687 204.411 239.959 197.983C239.434 193.389 238.969 188.8 238.274 184.224C238.184 183.667 238.166 183.103 238.138 182.541C238.096 181.848 238.318 181.304 239.084 181.198C239.81 181.092 240.226 181.475 240.473 182.138C241.062 183.791 241.419 185.507 241.615 187.234C242.239 192.692 242.778 198.156 243.374 203.614C244.146 210.762 245.106 217.887 245.647 225.055C245.933 228.793 246.2 232.532 246.497 236.267C246.55 237 246.4 237.84 247.476 238.386Z" fill="#010101"/>
<path d="M187.981 209.693C187.799 216.696 187.373 223.36 187.467 230.038C187.49 231.526 187.707 233.004 187.852 234.483C188.004 236.09 189.022 236.804 190.521 236.94C192.432 237.106 194.323 236.91 196.181 236.488C197.786 236.127 197.786 234.835 197.777 233.571C197.745 229.67 197.68 225.767 197.671 221.866C197.659 210.05 197.215 198.255 196.278 186.474C196.204 185.546 196.172 184.613 196.519 183.738C196.743 183.197 197.153 182.769 197.811 182.824C198.472 182.882 198.778 183.331 198.841 183.964C198.878 184.321 198.956 184.68 198.972 185.035C199.536 195.955 200.416 206.861 200.46 217.801C200.466 220.212 200.149 222.619 200.089 225.027C200.04 226.911 200.149 228.763 200.494 230.662C200.853 232.668 200.466 234.826 200.561 236.928C200.853 243.797 200.296 250.685 200.623 257.559C200.671 258.57 200.436 259.599 200.275 260.615C200.169 261.253 200.105 262.029 199.161 261.994C198.329 261.955 197.811 261.43 197.675 260.665C197.521 259.763 197.45 258.828 197.436 257.907C197.353 253.287 197.305 248.67 197.245 244.046C197.233 243.583 197.24 243.123 197.203 242.66C197.01 239.975 196.731 239.726 194.016 239.841C192.936 239.89 191.863 239.952 190.792 240.039C188.563 240.226 188.19 240.624 188.176 242.929C188.147 247.809 188.147 252.684 188.128 257.561C188.126 258.229 188.149 258.904 188.038 259.558C187.787 261.112 186.871 261.448 185.689 260.44C184.681 259.572 184.384 258.409 184.402 257.117C184.554 247.417 184.697 237.713 184.847 228.007C184.872 226.467 184.918 224.938 184.545 223.415C184.234 222.126 185.012 220.917 184.978 219.62C184.895 216.129 184.916 212.641 184.803 209.147C184.63 203.961 184.455 198.785 184.872 193.599C185.111 190.575 184.51 187.552 184.904 184.524C184.953 184.169 184.952 183.805 185.001 183.448C185.098 182.718 185.459 182.126 186.224 182.092C186.958 182.06 187.2 182.691 187.389 183.315C188.043 185.44 188.379 187.632 188.252 189.841C187.895 196.569 187.935 203.294 187.981 209.693Z" fill="#010101"/>
<path d="M280.608 185.06C280.889 187.312 280.841 189.574 280.788 191.833C280.484 207.342 281.207 222.842 281.152 238.342C281.131 243.945 280.767 249.578 280.721 255.204C280.71 256.88 281.184 258.229 282.764 259.026C283.439 259.298 284.146 259.351 284.864 259.351C285.272 259.351 285.686 259.332 286.096 259.362C286.992 259.422 287.805 259.763 287.798 260.753C287.793 261.718 286.914 261.941 286.128 261.946C284.641 261.958 283.153 262.084 281.67 261.87C281.571 261.856 281.472 261.836 281.368 261.824C278.039 261.518 277.882 261.278 277.813 257.889C277.633 248.963 278.144 240.042 278.174 231.119C278.179 228.929 278.239 226.727 278.55 224.533C278.838 222.495 278.515 220.411 278.174 218.419C277.536 214.73 277.748 211.11 278.14 207.425C278.545 203.658 278.333 199.842 278.225 196.052C278.177 194.412 278.124 192.772 278.142 191.133C278.174 188.62 278.048 186.11 277.96 183.603C277.93 182.67 278.248 182.113 279.178 181.988C280.305 181.843 280.127 182.797 280.353 183.414C280.56 183.948 280.286 184.551 280.608 185.06Z" fill="#010101"/>
<path d="M280.608 184.91C280.415 184.275 280.215 183.644 280.028 183.006C279.899 182.566 279.855 182.043 279.204 182.103C278.6 182.163 278.273 182.532 278.237 183.112C278.193 183.676 278.181 184.247 278.209 184.807C278.646 192.397 278.432 199.996 278.407 207.591C278.402 209.113 277.972 210.628 277.882 212.162C277.723 214.944 278.488 217.656 278.649 220.42C278.764 222.37 278.891 224.311 278.617 226.25C278.534 226.81 278.471 227.372 278.471 227.938C278.497 237.944 277.967 247.945 278.114 257.955C278.158 260.894 278.264 260.999 281.154 261.393C282.739 261.617 284.32 261.711 285.912 261.619C286.632 261.584 287.508 261.449 287.492 260.52C287.468 259.565 286.584 259.565 285.856 259.516C284.797 259.447 283.685 259.602 282.762 258.867C283.835 258.892 284.919 258.885 285.986 258.959C286.953 259.026 287.904 259.275 287.929 260.491C287.947 261.736 286.987 261.992 286.013 261.992C284.166 261.992 282.317 261.971 280.475 261.831C278.232 261.658 277.608 260.951 277.601 258.694C277.56 250.992 277.748 243.296 277.817 235.597C277.859 230.515 278.934 225.407 278.105 220.383C276.818 212.569 278.612 204.816 278.043 197.032C277.732 192.735 277.817 188.413 277.732 184.102C277.721 183.642 277.721 183.176 277.797 182.723C277.953 181.857 278.693 181.622 279.402 181.521C280.162 181.417 280.284 182.119 280.45 182.626C280.689 183.365 280.74 184.139 280.608 184.91Z" fill="#010101"/>
<path d="M227.015 221.325C227.167 213.854 226.253 206.361 226.751 200.169C226.642 194.09 226.774 189.3 224.977 184.733C223.587 181.208 220.945 180.167 217.556 181.882C216.149 182.592 215.303 183.81 214.728 185.215C213.45 188.293 212.888 191.52 212.957 194.843C213.067 199.568 213.399 204.293 213.305 209.014C213.1 219.998 213.613 230.969 213.641 241.949C213.659 244.157 213.959 246.365 213.883 248.564C213.786 251.422 214.085 254.225 214.783 256.961C215.363 259.247 216.319 261.389 219.041 261.884C223.02 262.614 226.513 259.655 226.481 255.512C226.465 253.103 226.2 250.685 226.405 248.274C227.163 239.312 226.834 230.308 227.015 221.325ZM224.393 226.978C224.533 236.123 224.261 245.255 223.785 254.393C223.753 255.065 223.633 255.689 223.287 256.297C222.196 258.213 221.049 259.042 219.601 258.745C217.791 258.381 217.252 257.034 216.991 255.385C216.082 249.78 216.059 244.136 216.054 238.49C216.05 232.484 216.054 226.474 216.054 220.463H215.994C215.994 212.095 216.006 203.72 215.987 195.347C215.976 192.657 216.374 190.032 217.127 187.462C217.286 186.928 217.523 186.398 217.823 185.926C219.207 183.722 221.146 183.633 222.537 185.818C223.762 187.748 224.358 189.931 224.365 192.229C224.379 197.726 224.174 203.232 224.406 208.717C224.669 214.81 224.296 220.89 224.393 226.978Z" fill="#010101"/>
<path d="M71.3648 118.692C71.0609 118.692 70.872 118.729 70.7891 118.812C70.7178 118.89 70.5289 118.92 70.2226 118.92C69.914 119.072 69.6931 119.152 69.5342 119.152C69.5342 119.763 69.6147 120.29 69.769 120.753C70.0707 120.449 70.4576 120.368 70.9066 120.523C71.3649 120.67 71.7494 120.523 72.0557 120.064C72.2076 119.91 72.2836 119.604 72.2836 119.152C72.2813 118.846 71.9728 118.692 71.3648 118.692Z" fill="#010101"/>
<path d="M258.665 123.607C259.807 123.227 260.867 122.771 261.861 122.232C262.856 121.703 263.349 120.975 263.349 120.065C263.349 119.457 263.082 118.845 262.545 118.232C262.013 117.622 261.29 117.323 260.381 117.323C259.46 117.323 258.854 117.585 258.555 118.122C258.239 118.656 257.553 118.921 256.491 118.921C255.759 118.921 254.916 118.937 253.995 118.965L252.533 124.397C252.731 124.372 252.841 124.3 252.841 124.178V123.95H253.069C253.366 123.95 253.601 124.031 253.753 124.178C253.901 124.335 254.207 124.404 254.665 124.404C254.513 124.404 254.854 124.376 255.695 124.296C256.533 124.213 257.521 123.987 258.665 123.607Z" fill="#010101"/>
<path d="M331.459 4.64071C330.538 3.87848 329.435 3.35112 328.145 3.04025C326.846 2.74088 325.474 2.5498 324.03 2.4715C322.584 2.40012 321.248 2.36096 320.03 2.36096C318.814 2.36096 317.592 2.40242 316.373 2.4715C315.155 2.5498 313.935 2.58662 312.716 2.58662C311.65 2.58662 310.623 2.51294 309.631 2.36096C308.645 2.20898 307.607 2.12835 306.55 2.12835C305.937 2.12835 305.403 2.20898 304.945 2.36096C304.493 2.51294 303.95 2.58662 303.346 2.58662H302.209C301.751 2.58662 301.442 2.66492 301.29 2.81691C299.464 2.36096 297.633 2.12835 295.807 2.12835C293.371 2.12835 291.043 2.51292 288.839 3.27054C286.628 4.03507 284.912 5.25558 283.692 6.92741C283.54 8.60615 283.162 10.0937 282.557 11.3856C281.942 12.6843 281.555 14.1697 281.41 15.8438C280.952 16.302 280.689 16.9883 280.609 17.9002C280.535 18.8167 280.454 19.7263 280.383 20.6428C280.3 21.5571 280.155 22.4022 279.922 23.1598C279.694 23.9266 279.199 24.4539 278.439 24.7579C278.131 25.6721 277.979 26.591 277.979 27.5006C277.979 28.4171 278.131 29.3336 278.439 30.2455C278.131 31.01 277.751 31.6939 277.293 32.2996C276.832 32.9144 276.606 33.596 276.606 34.356C276.606 35.8804 276.381 37.2552 275.92 38.4711C275.466 39.6939 275.089 41.0617 274.78 42.5862C274.78 44.7232 274.322 46.5908 273.41 48.1889C272.498 49.7847 272.035 51.3529 272.035 52.8705C272.035 53.3287 272.109 53.711 272.263 54.0172C271.496 55.3851 271.199 57.0247 271.351 58.9268C271.381 59.316 271.372 59.6752 271.338 60.0184C270.725 59.9608 270.124 59.8733 269.527 59.7604C268.385 59.5325 267.28 59.4196 266.216 59.4196C265.148 59.4196 264.16 59.6476 263.243 60.1035C262.635 59.9515 262.02 59.8755 261.419 59.8755C260.802 59.8755 260.121 59.8755 259.356 59.8755C257.677 59.8755 256.006 60.0667 254.329 60.4444C252.65 60.8266 251.126 61.0177 249.76 61.0177C248.996 61.0177 248.236 60.8658 247.474 60.5641C246.709 60.2555 245.947 60.1035 245.187 60.1035C244.425 60.1035 243.736 60.2555 243.131 60.5641C242.518 60.8658 241.91 61.1697 241.304 61.476C240.844 61.172 240.271 60.9441 239.589 60.7921C238.9 60.6355 238.175 60.5641 237.417 60.5641C236.045 60.5641 234.596 60.7092 233.074 61.0177C232.763 60.7092 232.079 60.5641 231.018 60.5641C229.797 60.5641 229.035 60.6355 228.731 60.7921C227.964 60.6355 227.133 60.5641 226.214 60.5641C225.36 60.5641 224.51 60.5641 223.656 60.5641C223.766 59.3574 224.008 58.5054 224.383 58.0218C224.918 57.3333 225.413 56.1542 225.871 54.4778C226.322 52.4974 226.742 50.5561 227.131 48.6471C227.508 46.7427 227.997 44.7278 228.611 42.5908C228.761 41.9852 228.955 41.1861 229.178 40.189C229.413 39.2011 229.712 38.1717 230.099 37.1032C230.479 36.0462 230.857 35.0468 231.237 34.1372C231.617 33.223 232.043 32.6128 232.501 32.3042C232.195 31.8482 232.043 31.1597 232.043 30.2501C232.043 29.4925 232.158 28.7256 232.383 27.9634C232.611 27.2058 232.8 26.439 232.952 25.6768C233.871 25.3728 234.44 24.7625 234.668 23.8483C234.893 22.9364 235.009 21.9854 235.009 20.9906C235.009 20.0073 235.045 19.0125 235.126 18.0246C235.2 17.0367 235.543 16.3067 236.155 15.8484C236.913 15.0908 237.364 13.8703 237.526 12.1962C237.671 10.5175 237.754 9.06897 237.754 7.8554C237.754 6.47833 237.304 5.41674 236.383 4.64991C235.465 3.88769 234.359 3.36033 233.07 3.04945C231.771 2.75009 230.398 2.55901 228.955 2.48071C227.508 2.40932 226.171 2.37017 224.955 2.37017C223.734 2.37017 222.516 2.41163 221.295 2.48071C220.08 2.55901 218.859 2.59582 217.641 2.59582C216.575 2.59582 215.548 2.52215 214.551 2.37017C213.565 2.21818 212.529 2.13755 211.472 2.13755C210.861 2.13755 210.327 2.21818 209.869 2.37017C209.418 2.52215 208.872 2.59582 208.271 2.59582H207.133C206.67 2.59582 206.366 2.67413 206.214 2.82612C204.388 2.37016 202.555 2.13755 200.731 2.13755C198.293 2.13755 195.967 2.52213 193.763 3.27975C191.552 4.04427 189.837 5.26478 188.616 6.93661C188.464 8.61535 188.087 10.103 187.479 11.3948C186.866 12.6936 186.479 14.1789 186.332 15.853C185.876 16.3112 185.611 16.9975 185.533 17.9094C185.459 18.8259 185.379 19.7355 185.303 20.6521C185.224 21.5663 185.079 22.4114 184.844 23.169C184.616 23.9358 184.124 24.4632 183.364 24.7671C183.055 25.6813 182.901 26.6002 182.901 27.5098C182.901 28.4263 183.055 29.3428 183.364 30.2547C183.055 31.0192 182.675 31.7032 182.215 32.3088C181.754 32.9237 181.528 33.6052 181.528 34.3652C181.528 35.8896 181.305 37.2644 180.844 38.4803C180.391 39.7031 180.013 41.0709 179.705 42.5954C179.705 44.7324 179.246 46.6 178.332 48.1981C177.42 49.7939 176.96 51.3621 176.96 52.8797C176.96 53.3379 177.031 53.7202 177.188 54.0265C176.421 55.3944 176.121 57.0339 176.276 58.936C176.421 60.8428 175.815 62.1761 174.443 62.9383C174.443 65.5313 174.217 67.705 173.756 69.4529C173.305 71.2076 172.538 72.9209 171.474 74.5928C171.781 75.8156 171.933 76.656 171.933 77.1097C171.933 78.9381 171.364 80.3106 170.217 81.2225C169.07 82.1344 168.423 83.4309 168.274 85.1096C167.818 85.7198 167.435 86.0238 167.131 86.0238C166.823 86.0238 166.489 85.6807 166.102 84.9922C165.724 84.3059 165.225 83.8891 164.617 83.7371C164.467 82.6686 163.85 82.0561 162.786 81.9087C161.722 81.7613 161.034 81.2985 160.734 80.5408C161.034 80.3866 161.186 80.0411 161.186 79.5069C161.186 78.9795 161.414 78.7078 161.874 78.7078V78.0193V75.2767C161.874 74.3648 161.722 73.7568 161.414 73.4483C160.656 72.5364 160.239 71.4771 160.156 70.252C160.087 69.0338 159.898 67.8916 159.59 66.8254C159.131 66.0586 158.634 65.4207 158.1 64.8795C157.568 64.3499 157.305 63.6199 157.305 62.7103C157.305 62.4064 157.377 62.0264 157.533 61.5681C157.683 61.1122 157.768 60.7322 157.768 60.4213C157.768 59.3597 157.533 58.335 157.08 57.3379C156.621 56.35 156.384 55.2493 156.384 54.0265C155.627 53.5705 155.168 52.9948 155.014 52.3086C154.869 51.6247 154.752 50.8256 154.673 49.9114C154.6 48.9972 154.528 48.1244 154.452 47.2793C154.372 46.4433 154.102 45.6466 153.648 44.8821C152.882 44.5781 152.502 43.7376 152.502 42.3697V40.7693C152.502 39.7054 152.276 38.9455 151.818 38.4826V37.7986C151.818 36.2742 151.475 35.056 150.795 34.1464C150.1 33.2322 149.759 32.1637 149.759 30.9456V30.485C149.759 29.4211 149.607 28.5852 149.308 27.9726C148.992 27.3624 148.693 26.6048 148.389 25.686C147.783 24.9214 147.512 23.9727 147.585 22.8328C147.668 21.686 147.403 20.7349 146.788 19.975C146.788 17.6883 146.367 15.8577 145.536 14.4921C144.695 13.115 144.278 11.3695 144.278 9.2302C144.278 8.3183 143.938 7.40176 143.251 6.48755C142.563 5.57795 141.835 4.8157 141.075 4.20085C140.318 3.59521 139.512 3.09782 138.68 2.71325C137.844 2.3379 137.347 2.14219 137.193 2.14219C136.426 2.14219 135.705 2.2527 135.017 2.48528C134.33 2.71095 133.683 2.83068 133.078 2.83068C129.575 2.52671 126.141 2.25272 122.791 2.03165C119.44 1.79446 115.931 1.68392 112.283 1.68392C111.056 1.68392 109.801 1.87738 108.507 2.25274C107.208 2.6373 106.027 2.83068 104.96 2.83068H104.732C104.428 4.04886 103.821 5.03912 102.909 5.79674C101.99 6.56588 101.223 7.55606 100.617 8.77194C99.7055 9.53646 99.3186 10.6763 99.4775 12.2008C99.6249 13.7206 99.4774 14.9434 99.0191 15.853C98.5701 16.9238 98.1074 18.0291 97.6468 19.169C97.1955 20.3066 96.8085 21.4925 96.5092 22.713C96.0486 23.9358 95.8598 25.4142 95.9381 27.1689C96.0118 28.9191 95.4361 30.333 94.2179 31.3946C94.0705 31.7032 94.0267 32.0854 94.1073 32.5391C94.1787 32.9973 93.9899 33.3819 93.5316 33.6812C93.5316 34.4435 93.6099 34.9801 93.7642 35.284C93.9185 35.588 93.9922 36.1199 93.9922 36.8798C93.9922 37.7941 93.8403 38.326 93.534 38.478C92.7741 38.9385 92.1961 39.7008 91.8253 40.7647C91.4384 41.8309 91.1759 43.0559 91.0216 44.4215C90.8696 45.794 90.7153 47.2009 90.5633 48.6471C90.4113 50.1002 90.112 51.4312 89.656 52.6448C89.3428 52.806 89.0343 53.3011 88.7372 54.1324C88.431 54.9729 88.1684 55.9608 87.9358 57.1053C87.7078 58.2521 87.4361 59.3552 87.1368 60.4167C86.8305 61.4875 86.4436 62.3257 85.9923 62.9337C85.8403 63.2399 85.7643 63.5462 85.7643 63.8502C85.7643 64.3039 85.838 64.7253 85.9923 65.1006C86.1443 65.4829 86.2202 65.9043 86.2202 66.3579C86.3699 67.8847 85.9577 69.0683 84.9629 69.8996C83.9681 70.7401 83.4799 71.9215 83.4799 73.4414C83.4799 75.4264 83.1736 77.8696 82.5634 80.7573C81.9531 83.6588 81.2715 85.4136 80.5116 86.0192C79.2888 86.0192 78.3723 85.8304 77.7666 85.4412C77.1541 85.0659 76.7029 84.6145 76.3943 84.0756C76.088 83.5437 75.8186 83.0854 75.5975 82.7032C75.3649 82.3232 75.0217 82.1298 74.5635 82.1298C73.9555 82.1298 73.3453 82.3969 72.7397 82.9334C72.1248 83.47 71.5123 83.8108 70.9043 83.9605C70.2987 83.6612 69.6908 83.5023 69.0805 83.5023C68.468 83.5023 68.164 83.1292 68.164 82.3624C68.164 80.9922 68.9285 80.306 70.4553 80.306C71.9728 80.306 73.3453 80.154 74.5635 79.8477C74.2572 78.7815 74.1467 77.6417 74.2273 76.4189C74.2963 75.203 74.0292 74.2104 73.4236 73.4436C73.4236 72.23 73.0806 71.2399 72.3943 70.4776C71.7081 69.7154 71.2106 68.7989 70.9043 67.735C71.0586 67.279 71.1416 66.6734 71.1416 65.9089C71.1416 64.5364 70.8329 63.2446 70.2227 62.0241C69.6147 60.8059 69.3085 59.4357 69.3085 57.909C69.3085 57.1513 69.3822 56.6125 69.5365 56.3108C68.772 56.0068 68.3551 55.3921 68.2838 54.4824C68.2009 53.5705 67.7127 52.9626 66.7962 52.6494C66.7962 52.0437 66.8745 51.5095 67.0288 51.0512C67.1808 50.5953 67.2545 50.1416 67.2545 49.6834V48.7668C67.2545 48.4629 67.3374 48.2372 67.4825 48.0829C67.6368 47.9355 67.7173 47.703 67.7173 47.3944C67.7173 46.1786 67.3396 45.0801 66.5797 44.083C65.8129 43.0951 65.4329 41.5338 65.4329 39.3945V37.7964C64.8204 37.3381 64.4795 36.6933 64.4058 35.8528C64.3229 35.0145 63.9822 34.2938 63.3765 33.6812C63.6759 32.767 63.8371 32.1591 63.8371 31.8528C63.8371 30.7912 63.5999 29.7964 63.1417 28.8799C62.6903 27.968 62.4646 26.9755 62.4646 25.9139V24.7671C62.4646 23.2473 62.2642 21.7597 61.8865 20.3066C61.5089 18.8651 61.0485 17.4512 60.5142 16.0856C59.9823 14.7154 59.5285 13.2647 59.1393 11.7402C58.7617 10.2181 58.5729 8.46564 58.5729 6.48523C57.3547 4.50943 55.6023 3.17383 53.3202 2.4876C51.0335 1.79906 48.5949 1.45595 46.002 1.45595C43.7222 1.45595 41.4309 1.57111 39.1419 1.79679C36.8575 2.03397 34.5754 2.14219 32.2888 2.14219C30.7643 2.14219 29.2398 1.9119 27.7222 1.45595C26.6491 1.15428 25.5807 1 24.5168 1C23.4506 1 22.3039 1 21.0857 1H14.6862H12.1761C11.4093 1.61024 10.578 1.99246 9.65687 2.14444C8.74496 2.29873 8.21076 2.98497 8.06569 4.20085C7.75251 4.50942 7.33792 5.3845 6.80367 6.83296C6.26482 8.27911 6 9.16106 6 9.46043C6 10.6809 6.42379 11.8255 7.26201 12.8824C8.10253 13.9532 8.51925 15.2497 8.51925 16.7695C8.51925 17.389 8.43867 17.9164 8.28438 18.3723C8.89693 18.8329 9.32058 19.5168 9.54626 20.4333C9.77423 21.3475 9.96306 22.2571 10.122 23.1759C10.2716 24.0901 10.4605 24.9675 10.6908 25.8011C10.9187 26.6439 11.4093 27.2887 12.1761 27.7446C12.0218 28.2075 11.9481 28.8154 11.9481 29.5731C11.9481 31.1021 12.2889 32.3157 12.9752 33.2345C13.6637 34.1487 14.2325 35.1389 14.6838 36.2005C14.6838 38.3352 14.9533 40.3133 15.4875 42.1441C16.0218 43.9748 16.6343 45.7663 17.3113 47.5164C18.0045 49.2689 18.6101 50.9845 19.1444 52.6563C19.6763 54.3328 19.9481 56.0875 19.9481 57.9159C20.7057 58.5262 21.2053 59.3252 21.431 60.3177C21.6636 61.3056 21.7742 62.3349 21.7742 63.4011V64.0851C21.7742 64.8519 22.0782 65.4552 22.693 65.9135C23.2987 66.3672 23.6786 67.058 23.8283 67.9676C23.6786 68.4305 23.6025 69.1098 23.6025 70.0286C23.6025 72.3152 24.3625 74.2174 25.8847 75.7372C26.6469 77.2663 27.0338 79.021 27.0338 80.9991C27.0338 82.9818 27.4045 84.5823 28.1691 85.7958C28.4776 86.7078 28.7033 87.7072 28.8576 88.771C29.0096 89.8326 29.2375 90.9034 29.5438 91.9673C30.1494 92.2713 30.61 92.923 30.9163 93.9132C31.2249 94.9057 31.4505 95.9351 31.6025 97.0012C31.7475 98.0628 31.8627 99.0945 31.9433 100.087C32.017 101.075 32.1344 101.798 32.2864 102.254C33.5069 103.631 34.1909 105.34 34.3452 107.398C34.4903 109.455 34.9531 111.318 35.7177 112.999C35.8627 114.06 36.1782 114.977 36.6318 115.741C37.0901 116.506 37.4609 117.34 37.7694 118.249C38.2254 119.32 38.4625 120.54 38.4625 121.911C38.4625 123.278 38.6077 124.577 38.914 125.791C40.4384 127.472 41.3526 129.415 41.6565 131.619C41.9559 133.83 42.4164 136.006 43.0313 138.136C43.9409 139.046 44.4038 140.31 44.4038 141.91C44.4038 143.506 44.6318 144.842 45.0901 145.908C45.3894 146.67 45.767 147.239 46.2253 147.619C46.6882 148.001 47.0566 148.418 47.3721 148.879V149.793C47.3721 151.773 47.752 153.678 48.5119 155.508C48.3577 155.962 48.2862 156.57 48.2862 157.335C48.2862 158.857 48.7422 160.04 49.6564 160.876C50.5684 161.712 51.0289 162.898 51.0289 164.413C51.3375 166.398 52.5925 168.116 54.7963 169.562C57.0093 171.004 58.8031 171.729 60.1756 171.729C61.0806 171.729 62.0363 171.692 63.0288 171.619C64.0213 171.54 64.9701 171.508 65.882 171.508C66.6465 171.508 67.4065 171.543 68.1664 171.619C68.9309 171.692 69.6931 171.729 70.4577 171.729C71.9752 171.729 73.0483 171.651 73.6562 171.506C74.2618 171.651 74.9895 171.729 75.8208 171.729C76.659 171.729 77.465 171.729 78.2226 171.729C79.1391 171.729 80.0166 171.729 80.8502 171.729C81.6907 171.729 82.492 171.651 83.2588 171.506C85.6906 171.045 87.8183 170.82 89.6583 170.82C91.4844 170.82 93.0803 170.778 94.4528 170.705C95.8275 170.619 96.9628 170.325 97.8839 169.786C98.7958 169.258 99.4797 168.303 99.9357 166.93C100.244 165.56 100.811 164.303 101.649 163.158C102.49 162.016 102.98 160.609 103.137 158.93C103.137 157.717 103.365 156.8 103.823 156.188C104.283 155.582 104.585 154.668 104.735 153.445V152.305C104.735 150.481 105.195 148.959 106.11 147.736C107.021 146.511 107.482 144.994 107.482 143.161V141.332C107.482 139.661 107.899 138.325 108.735 137.337C109.566 136.344 109.999 135.013 109.999 133.337V131.967C110.45 130.746 110.987 129.148 111.59 127.168C112.203 125.19 112.656 124.193 112.96 124.193C112.96 123.734 112.96 123.278 112.96 122.823C112.96 122.369 112.891 122.065 112.732 121.911C112.583 121.911 112.808 121.19 113.423 119.737C114.026 118.291 114.335 116.96 114.335 115.741C114.335 115.283 114.261 114.825 114.109 114.367C113.955 113.908 113.882 113.535 113.882 113.22C113.882 113.075 114.259 112.499 115.026 111.511C115.779 110.516 116.392 109.72 116.852 109.109C116.852 109.015 116.852 108.709 116.852 108.195C116.852 107.433 116.7 106.977 116.391 106.825V106.367C116.391 105.915 116.166 105.683 115.708 105.683C115.399 105.683 115.1 105.72 114.796 105.793C114.487 105.872 114.181 105.915 113.884 105.915C113.577 105.915 113.188 105.609 112.735 104.997C112.288 104.386 111.97 103.928 111.825 103.629C111.97 103.474 112.053 103.281 112.053 103.053C112.053 102.83 112.203 102.712 112.509 102.712C113.884 102.712 114.752 102.942 115.139 103.398C115.519 103.852 115.86 104.082 116.168 104.082C117.08 104.082 117.686 103.631 117.992 102.712C118.301 101.798 118.568 100.766 118.796 99.6264C119.021 98.4842 119.401 97.4181 119.942 96.4255C120.474 95.4399 121.34 94.938 122.57 94.938C123.942 94.938 124.737 95.5137 124.972 96.6558C125.195 97.8003 125.614 98.6777 126.227 99.2833C126.832 99.7416 127.247 100.391 127.484 101.229C127.717 102.067 127.825 102.942 127.825 103.852C127.825 104.771 127.862 105.611 127.933 106.369C128.014 107.136 128.359 107.741 128.972 108.197C129.269 110.79 129.957 112.999 131.028 114.825C131.028 116.347 131.256 118.33 131.71 120.773C132.168 123.207 132.935 124.962 133.999 126.026C133.685 126.482 133.54 127.173 133.54 128.082C133.54 129.3 133.881 130.337 134.57 131.166C135.254 132.008 135.671 132.966 135.825 134.03C135.825 135.707 136.124 136.996 136.741 137.91C137.349 138.827 137.656 139.971 137.656 141.337C137.656 141.952 137.573 142.484 137.421 142.94C137.57 143.852 137.877 144.846 138.33 145.913C138.793 146.981 139.251 147.893 139.705 148.651C140.32 149.876 140.624 151.163 140.624 152.54C140.624 153.908 141.004 154.974 141.771 155.736C142.072 156.805 142.298 157.793 142.45 158.709C142.602 159.619 142.678 160.694 142.678 161.91V163.508C144.2 166.251 146.07 168.307 148.281 169.677C150.487 171.05 153.573 171.734 157.538 171.734C158.754 171.734 160.011 171.587 161.312 171.28C162.604 170.972 163.94 170.824 165.312 170.824C166.376 170.824 167.396 170.859 168.398 170.935C169.384 171.008 170.41 171.05 171.479 171.05C172.543 171.05 174.104 171.05 176.17 171.05C178.219 171.05 180.28 171.008 182.337 170.935C184.398 170.856 186.222 170.783 187.82 170.709C189.425 170.624 190.293 170.442 190.447 170.14C190.753 168.92 191.486 168.079 192.621 167.623C193.768 167.165 194.643 166.403 195.251 165.337C195.251 165.035 195.214 164.687 195.14 164.305C195.06 163.93 195.023 163.584 195.023 163.276C195.023 162.518 195.324 161.79 195.935 161.109C196.543 160.42 196.849 159.474 196.849 158.251C196.849 157.947 196.81 157.678 196.738 157.452C196.658 157.222 196.621 156.959 196.621 156.648C196.621 154.672 197.153 153.374 198.217 152.763C198.822 151.849 199.168 150.746 199.246 149.447C199.32 148.158 199.587 146.977 200.05 145.908C200.356 144.531 200.847 143.317 201.54 142.251C202.219 141.187 202.558 139.886 202.558 138.362C202.558 138.062 202.521 137.788 202.443 137.567C202.369 137.337 202.332 137.07 202.332 136.768C202.332 134.783 202.829 133.072 203.813 131.619C204.81 130.178 205.457 128.616 205.763 126.931C205.763 125.107 206.254 123.202 207.246 121.222C208.239 119.246 208.879 117.183 209.197 115.053C209.342 113.832 209.457 112.617 209.533 111.396C209.553 111.074 209.604 110.763 209.671 110.461C210.24 110.44 210.797 110.415 211.338 110.383C212.559 110.305 213.929 110.192 215.456 110.042C216.064 110.648 216.975 110.952 218.196 110.952C218.958 110.952 219.608 110.843 220.139 110.611C220.674 110.385 221.242 110.27 221.85 110.27C222.159 110.27 222.498 110.348 222.88 110.505C223.257 110.65 223.683 110.728 224.135 110.728C225.201 110.728 225.966 110.505 226.424 110.047C227.647 110.047 228.823 110.162 229.965 110.387C231.108 110.613 232.215 110.728 233.277 110.728C234.348 110.728 235.336 110.505 236.252 110.047C236.86 110.199 237.473 110.272 238.076 110.272C238.691 110.272 239.372 110.272 240.139 110.272C241.816 110.272 243.488 110.083 245.164 109.699C246.845 109.319 248.365 109.128 249.735 109.128C250.497 109.128 251.259 109.287 252.019 109.581C252.786 109.892 253.544 110.044 254.308 110.044C255.068 110.044 255.759 109.892 256.362 109.581C256.429 109.549 256.498 109.517 256.563 109.485L254.932 115.534C255.494 115.281 256.054 115.011 256.616 114.712C257.908 114.024 259.015 113.082 259.927 111.859C260.685 111.555 261.415 111.322 262.103 111.17C262.787 111.018 263.278 110.565 263.591 109.802C263.552 109.708 263.529 109.621 263.497 109.526C264.438 109.462 265.41 109.337 266.417 109.13C266.73 109.441 267.414 109.584 268.475 109.584C269.696 109.584 270.458 109.512 270.764 109.358C271.529 109.512 272.362 109.584 273.279 109.584C273.408 109.584 273.537 109.584 273.666 109.584C273.521 109.812 273.366 110.037 273.191 110.261C271.964 110.869 270.555 111.212 268.956 111.285C267.358 111.366 265.79 111.555 264.273 111.861C263.812 112.773 263.593 113.763 263.593 114.832C263.738 115.442 264.346 115.748 265.419 115.748H266.792C267.397 115.748 267.858 115.822 268.155 115.972C268.464 116.133 268.922 116.202 269.53 116.202C269.834 116.202 270.251 116.17 270.785 116.091C271.315 116.013 271.74 115.972 272.047 115.972C272.652 115.972 273.256 116.05 273.873 116.202C274.479 116.354 274.789 116.812 274.789 117.574C274.789 117.883 274.711 118.072 274.557 118.148C274.405 118.226 274.329 118.413 274.329 118.717V118.947C273.562 119.714 272.54 120.172 271.248 120.317C269.951 120.476 268.65 120.662 267.358 120.893C266.06 121.116 264.922 121.54 263.932 122.145C262.939 122.763 262.366 123.976 262.216 125.802C262.829 126.569 263.552 127.062 264.39 127.29C265.221 127.52 265.79 128.013 266.103 128.775C266.103 129.39 266.446 129.922 267.133 130.373C267.812 130.832 268.535 131.06 269.3 131.06C270.366 131.06 271.206 130.643 271.817 129.805C272.422 128.964 273.191 128.547 274.101 128.547C274.709 128.547 275.16 128.626 275.473 128.773C274.557 129.993 273.682 131.248 272.839 132.547C272.001 133.841 270.518 134.486 268.388 134.486C268.079 134.486 267.393 134.408 266.327 134.256C265.261 134.113 264.731 133.881 264.731 133.572C264.731 131.896 264.305 130.716 263.474 130.026C262.635 129.346 261.68 128.393 260.613 127.175C260.459 127.322 260.236 127.4 259.927 127.4C259.621 127.4 259.312 127.285 259.015 127.06C258.709 126.829 258.327 126.719 257.871 126.719C257.562 126.567 257.033 126.449 256.273 126.371C255.506 126.302 254.702 126.219 253.871 126.141C253.217 126.083 252.639 126.03 252.125 125.968L240.883 167.713C241.657 168.475 242.481 169.134 243.359 169.682C245.565 171.055 248.65 171.738 252.616 171.738C253.832 171.738 255.089 171.591 256.39 171.285C257.684 170.976 259.018 170.829 260.39 170.829C261.454 170.829 262.474 170.863 263.476 170.939C264.461 171.013 265.491 171.055 266.557 171.055C267.623 171.055 269.184 171.055 271.248 171.055C273.302 171.055 275.358 171.013 277.415 170.939C279.476 170.861 281.302 170.787 282.898 170.714C284.503 170.629 285.371 170.447 285.525 170.145C285.831 168.924 286.564 168.084 287.703 167.628C288.846 167.17 289.721 166.408 290.329 165.341C290.329 165.04 290.292 164.692 290.218 164.31C290.138 163.934 290.101 163.589 290.101 163.28C290.101 162.523 290.402 161.795 291.013 161.113C291.621 160.425 291.927 159.478 291.927 158.256C291.927 157.952 291.89 157.682 291.816 157.457C291.736 157.226 291.699 156.964 291.699 156.653C291.699 154.677 292.231 153.378 293.295 152.768C293.905 151.854 294.246 150.751 294.326 149.452C294.398 148.162 294.667 146.981 295.13 145.913C295.436 144.536 295.927 143.322 296.618 142.256C297.297 141.192 297.638 139.891 297.638 138.366C297.638 138.067 297.599 137.793 297.52 137.572C297.449 137.342 297.41 137.074 297.41 136.773C297.41 134.788 297.907 133.077 298.891 131.624C299.888 130.182 300.537 128.621 300.841 126.935C300.841 125.111 301.331 123.207 302.324 121.227C303.316 119.251 303.959 117.188 304.274 115.057C304.419 113.837 304.537 112.621 304.611 111.401C304.691 110.18 305.108 109.114 305.875 108.2C306.635 107.898 307.012 107.06 307.012 105.687C307.012 105.383 306.976 105.158 306.902 105.001C306.824 104.854 306.784 104.621 306.784 104.313C306.784 103.099 307.128 102.222 307.814 101.69C308.5 101.153 308.836 100.202 308.836 98.8297V96.0825C308.836 94.8735 308.988 94.0329 309.301 93.5747C310.819 92.6651 311.544 91.2535 311.468 89.3467C311.388 87.4423 311.657 85.6553 312.265 83.9743C312.878 83.3733 313.299 82.6433 313.527 81.8051C313.755 80.9738 313.868 80.0872 313.868 79.1753C313.868 78.2657 313.942 77.3883 314.096 76.5432C314.243 75.7119 314.556 74.9842 315.008 74.3763C315.613 73.9203 315.92 73.2364 315.92 72.3199V70.2589C315.92 69.1927 316.069 68.3936 316.378 67.8594C316.687 67.332 316.984 66.8346 317.29 66.3718C317.596 65.9181 317.902 65.4276 318.209 64.8864C318.508 64.3568 318.662 63.4841 318.662 62.2636C318.662 60.1243 318.929 58.7219 319.464 58.0357C319.996 57.3471 320.491 56.1681 320.951 54.4917C321.405 52.5112 321.822 50.57 322.211 48.6609C322.589 46.7565 323.079 44.7416 323.692 42.6046C323.846 41.9989 324.035 41.1999 324.258 40.2028C324.495 39.2149 324.792 38.1855 325.179 37.117C325.559 36.06 325.937 35.0606 326.319 34.151C326.699 33.2368 327.123 32.6266 327.581 32.318C327.275 31.8621 327.123 31.1736 327.123 30.2639C327.123 29.5063 327.238 28.7395 327.464 27.9772C327.692 27.2196 327.88 26.4528 328.032 25.6905C328.951 25.3866 329.52 24.7763 329.748 23.8621C329.974 22.9502 330.089 21.9992 330.089 21.0043C330.089 20.0211 330.128 19.0263 330.206 18.0384C330.28 17.0505 330.623 16.3205 331.236 15.8622C331.993 15.1046 332.445 13.8841 332.606 12.21C332.753 10.5312 332.834 9.08282 332.834 7.86924C332.829 6.47145 332.38 5.40754 331.459 4.64071ZM34.1103 53.6695C34.1103 53.8998 33.9537 54.015 33.6566 54.015H32.2841H31.8259C31.5174 53.863 31.2203 53.7478 30.914 53.6695C30.6078 53.5981 30.4603 53.3287 30.4603 52.8681C30.4603 52.4145 30.6883 52.1474 31.1396 52.0737C31.6002 51.9908 31.9801 51.9539 32.2864 51.9539C32.74 51.9539 33.1615 51.9539 33.5438 51.9539C33.9237 51.9539 34.1126 52.1819 34.1126 52.6379C34.4188 52.6379 34.5708 52.8682 34.5708 53.3264C34.2622 53.3264 34.1103 53.4346 34.1103 53.6695ZM37.5391 69.0937C37.2328 69.0937 37.0878 68.8703 37.0878 68.4143C37.0878 68.1104 37.2328 67.8778 37.5391 67.7258C37.8453 67.7258 38.1448 67.7258 38.458 67.7258C38.7551 67.7258 38.9829 67.9538 39.1349 68.4143C38.9829 68.8726 38.4602 69.0937 37.5391 69.0937ZM178.903 78.5835C179.896 78.1989 180.997 78.0055 182.215 78.0055C182.975 78.0055 183.741 78.1206 184.501 78.3509C185.268 78.5835 186.106 78.694 187.018 78.694C187.018 79.0026 187.129 79.2282 187.361 79.3802C187.587 79.5322 187.702 79.7625 187.702 80.0596C187.702 80.679 187.433 81.1304 186.899 81.4366C186.36 81.7452 185.872 81.8926 185.418 81.8926C185.102 81.8926 184.801 81.8189 184.499 81.6646C184.193 81.5126 183.884 81.4343 183.587 81.4343H183.129C182.675 81.4343 181.563 81.1304 179.813 80.5224C178.063 79.9076 176.798 79.4563 176.048 79.1454C176.96 79.1523 177.906 78.9657 178.903 78.5835ZM181.989 96.9828H182.901C183.364 96.9828 183.589 97.2062 183.589 97.6668C183.435 97.9707 183.092 98.0859 182.56 98.0053C182.028 97.9339 181.531 97.9707 181.075 98.125C181.075 97.8211 181.148 97.6299 181.307 97.5516C181.452 97.4779 181.531 97.2845 181.531 96.9828H181.989ZM183.016 89.8971C182.719 89.3122 182.36 88.7273 181.931 88.1378C182.215 88.4141 182.572 88.5869 183.016 88.6375C183.705 88.7112 184.391 88.7895 185.079 88.8632C185.763 88.9438 186.33 89.0589 186.783 89.2109C187.244 89.3583 187.477 89.8165 187.477 90.5787V91.2673C187.018 91.5759 186.558 91.8016 186.106 91.9512C185.646 92.1078 185.031 92.1815 184.273 92.1815C183.822 91.4193 183.389 90.6571 183.016 89.8971ZM174.443 85.0958C175.661 85.0958 176.347 85.4757 176.504 86.238C176.195 86.3922 175.854 86.5466 175.474 86.6917C175.094 86.8505 174.599 86.9265 173.991 86.9265C173.991 86.6225 173.757 86.4682 173.305 86.4682C173.146 86.6202 172.999 86.6917 172.845 86.6917C172.999 86.6917 172.845 86.4683 172.396 86.0123C172.536 85.4067 173.22 85.0958 174.443 85.0958ZM169.872 91.4975C170.18 91.4975 170.489 91.5344 170.784 91.6081C171.092 91.6864 171.396 91.7233 171.705 91.7233C172.004 91.7233 172.193 91.6864 172.271 91.6081C172.345 91.5344 172.462 91.4975 172.612 91.4975C172.921 91.8015 173.526 91.9512 174.438 91.9512C175.205 91.9512 175.811 91.8775 176.271 91.7255C176.729 91.5781 177.264 91.4975 177.867 91.4975H179.242C179.541 91.8015 179.7 92.2552 179.7 92.8654C179.387 93.3214 179.014 93.7842 178.555 94.2379C177.789 95.0024 176.957 95.3824 176.043 95.3824H174.671C174.058 95.3824 173.669 95.4606 173.526 95.608C173.526 95.7669 172.877 95.4975 171.585 94.809C170.284 94.1228 169.252 93.3997 168.504 92.642C168.508 91.8752 168.962 91.4975 169.872 91.4975ZM162.558 87.8338C163.166 87.5322 163.698 87.1499 164.156 86.6893C164.31 86.8482 164.538 86.9242 164.842 86.9242C165.149 86.9242 165.413 86.8873 165.648 86.8137C165.874 86.7308 166.139 86.6917 166.443 86.6917C167.051 86.6917 167.364 86.9265 167.364 87.3825V87.6128C167.048 88.5224 166.406 89.174 165.413 89.554C164.421 89.9362 163.544 90.1274 162.784 90.1274C162.024 90.1274 161.637 89.8994 161.637 89.4366C161.639 88.6743 161.95 88.1424 162.558 87.8338ZM157.305 84.4118C157.605 84.4118 157.766 84.5639 157.766 84.8655C157.766 85.0221 157.72 85.0958 157.646 85.0958C157.566 85.0958 157.531 85.1741 157.531 85.3261C157.077 85.3261 156.764 85.2477 156.619 85.0958C156.619 84.6352 156.845 84.4118 157.305 84.4118ZM155.71 62.9268C156.007 62.9268 156.239 63.0811 156.384 63.3851C156.384 63.8433 156.08 64.069 155.475 64.069C155.166 64.069 155.014 63.8433 155.014 63.3851C155.014 63.0811 155.249 62.9268 155.71 62.9268ZM147.935 78.0055C149.153 76.7919 151.058 76.1816 153.648 76.1816C154.408 76.1816 155.014 76.4856 155.475 77.0958C155.475 78.3186 155.058 79.1523 154.217 79.6082C153.379 80.0619 152.384 80.3728 151.247 80.5271C150.1 80.679 148.919 80.8264 147.7 80.9807C146.482 81.1327 145.497 81.5149 144.73 82.1206C142.904 83.4907 140.315 84.1815 136.958 84.1815C134.98 84.1815 133.299 83.9513 131.935 83.493C131.935 82.5835 132.652 82.1229 134.102 82.1229C135.549 82.1229 136.801 82.1229 137.874 82.1229C138.326 81.3653 138.862 80.6836 139.475 80.0642C140.08 79.4631 140.769 79.1523 141.533 79.1523C141.985 79.1523 142.485 79.2628 143.021 79.4931C143.546 79.7234 143.961 79.8385 144.276 79.8385C145.497 79.8385 146.71 79.2306 147.935 78.0055ZM152.73 88.9806C152.278 89.8971 151.431 90.3508 150.217 90.3508C148.992 90.3508 147.889 90.2725 146.906 90.1251C145.913 89.9754 145.418 89.5149 145.418 88.755C145.879 88.1424 146.413 87.6127 147.016 87.1522H147.935H150.217C151.286 87.1522 152.043 87.3088 152.502 87.6128C152.651 87.9121 152.73 88.375 152.73 88.9806ZM141.073 64.2946H141.533H143.129C143.59 64.2946 143.887 64.3729 144.041 64.5249C143.742 64.8335 143.203 64.9809 142.445 64.9809C141.688 64.9832 141.229 64.7529 141.073 64.2946ZM144.73 72.0666H144.962V72.5225C144.962 72.9808 144.769 73.2479 144.396 73.3216C144.009 73.4022 143.746 73.591 143.592 73.895C143.44 73.895 143.284 73.9733 143.132 74.123C142.828 74.123 142.602 74.0101 142.448 73.7753C142.296 73.5542 142.07 73.4344 141.768 73.4344H141.533C141.533 73.2916 141.49 73.096 141.416 72.8657C141.335 72.6354 141.299 72.4488 141.299 72.2969C141.299 72.1449 141.379 72.0666 141.533 72.0666H141.985C142.293 71.7626 142.6 71.6497 142.901 71.7257C143.203 71.804 143.507 71.7626 143.815 71.6106C143.815 71.9146 143.885 72.0666 144.041 72.0666H144.73ZM126.906 29.7849C127.054 29.7849 127.134 29.9369 127.134 30.2432C126.528 30.2432 126.222 30.1695 126.222 30.0106C126.222 29.8678 126.448 29.7849 126.906 29.7849ZM122.791 45.6696C123.399 45.4416 124.009 45.1791 124.624 44.8682H125.31C125.764 44.8682 126.259 44.8314 126.793 44.7531C127.323 44.684 127.894 44.6426 128.507 44.6426C129.718 44.6426 130.568 45.0271 131.026 45.7848V46.2407C131.026 46.851 130.107 47.3069 128.283 47.6086C126.45 47.9217 124.999 48.0714 123.94 48.0714C123.176 48.0714 122.489 47.8458 121.884 47.3829C121.881 46.4687 122.178 45.8999 122.791 45.6696ZM122.33 56.4098C124.318 56.6378 125.612 57.3609 126.222 58.5814C126.528 58.5814 126.943 58.6183 127.479 58.7012C128.009 58.7749 128.426 58.8094 128.732 58.8094C130.411 58.8094 131.251 57.8192 131.251 55.8388C131.251 55.0742 130.908 54.6966 130.222 54.6966C129.538 54.6966 129.197 54.3926 129.197 53.7824C129.197 53.4784 129.386 53.3633 129.766 53.4346C130.144 53.5198 130.487 53.5567 130.793 53.5567C131.705 53.5567 132.58 53.635 133.421 53.7824C134.261 53.9297 135.136 54.0127 136.048 54.0127C136.806 54.0127 137.536 54.0495 138.222 54.1232C138.908 54.2015 139.629 54.2383 140.398 54.2383C141.156 54.2383 141.796 54.0909 142.339 53.7824C142.867 53.4784 143.286 53.3264 143.594 53.3264C143.442 53.3264 143.594 53.5567 144.046 54.0127C143.594 55.3805 142.563 56.0345 140.965 55.9539C139.362 55.8756 138.026 56.221 136.96 56.9786C135.742 57.8952 134.298 58.738 132.624 59.4956C130.945 60.2625 129.338 60.6424 127.823 60.6424C126.298 60.6424 124.806 60.5203 123.362 60.3016C121.914 60.069 120.815 59.5762 120.048 58.8116H119.136H116.617C115.249 58.8116 114.559 58.4364 114.559 57.6695C114.559 57.3656 114.713 57.1422 115.026 56.9833C115.325 56.8382 115.634 56.6816 115.933 56.525C116.24 56.525 116.465 56.4559 116.617 56.3016C116.771 56.1496 117.006 56.0714 117.308 56.0714C118.676 56.0691 120.355 56.1796 122.33 56.4098ZM115.708 27.0423C116.014 27.0423 116.237 27.2703 116.391 27.7262C116.391 27.8828 116.465 28.0371 116.617 28.1891C116.617 28.3411 116.467 28.4171 116.168 28.4171H115.482H115.028C114.869 28.1131 114.796 27.6526 114.796 27.0446C115.1 27.0423 115.399 27.0423 115.708 27.0423ZM113.992 41.1009C114.07 41.0226 114.109 40.8361 114.109 40.5229H114.559H115.708C116.318 40.5229 116.617 40.7555 116.617 41.2114C116.617 41.3634 116.583 41.4831 116.509 41.5522C116.428 41.6328 116.391 41.7433 116.391 41.8976C116.085 42.0496 115.825 42.2016 115.597 42.3536C115.362 42.5056 115.026 42.5816 114.559 42.5816H114.109V42.1233C114.109 41.976 114.07 41.9345 113.992 42.0082C113.911 42.0911 113.882 41.9737 113.882 41.6674C113.882 41.3634 113.909 41.1792 113.992 41.1009ZM110.909 48.5274C111.21 48.3754 111.519 48.152 111.823 47.8434C112.58 47.8434 113.186 47.8803 113.654 47.9517C114.107 48.0323 114.485 48.3731 114.793 48.9834C114.793 49.8976 114.107 50.5078 112.73 50.8117C112.283 50.6598 111.784 50.4709 111.249 50.2384C110.713 50.0104 110.446 49.6696 110.446 49.209C110.448 48.9097 110.605 48.6794 110.909 48.5274ZM111.134 64.8658C111.588 64.7921 112.048 64.7506 112.507 64.7506H113.882C114.639 64.7506 115.364 64.6032 116.048 64.2946C116.732 63.9907 117.455 63.841 118.222 63.841C118.98 63.841 119.737 64.3338 120.504 65.3286C121.264 66.3165 122.25 66.8116 123.477 66.8116C123.784 66.8116 124.389 66.6642 125.308 66.351C126.059 66.0448 126.904 65.8605 127.82 65.7822C128.732 65.7085 129.499 65.6717 130.102 65.6717C132.235 65.6717 134.181 65.8237 135.935 66.1254C137.679 66.434 138.563 67.6521 138.563 69.7822C138.257 70.2381 137.842 70.4385 137.306 70.3602C136.769 70.275 136.352 70.3164 136.044 70.4684C135.592 70.0125 135.095 69.6648 134.563 69.4391C134.022 69.2111 133.533 68.9463 133.075 68.6354C128.2 68.7897 123.477 69.6371 118.906 71.1524C117.99 70.5467 117.338 69.7431 116.965 68.7529C116.58 67.7673 115.777 67.2676 114.556 67.2676C114.257 67.2676 113.909 67.3459 113.536 67.4956C113.147 67.6498 112.808 67.7258 112.507 67.7258C111.894 67.7258 111.517 67.6521 111.362 67.4956C111.21 67.3459 111.134 67.1915 111.134 67.0418C110.985 67.0418 110.83 67.1156 110.676 67.2676V67.0418C110.676 66.7333 110.632 66.4685 110.568 66.2382C110.487 66.0079 110.448 65.7477 110.448 65.4368C110.448 65.1352 110.676 64.9464 111.134 64.8658ZM118.448 82.8045C118.756 82.8045 119.056 82.8874 119.36 83.0348C119.666 83.1868 119.965 83.2651 120.272 83.2651H120.732C120.732 83.5714 120.583 83.8016 120.272 83.949C119.965 84.1056 119.666 84.329 119.36 84.6329H118.674H117.534C116.769 84.6329 116.389 84.2576 116.389 83.4907C116.698 83.4907 117.004 83.4171 117.303 83.2651C117.916 82.9657 118.298 82.8045 118.448 82.8045ZM115.708 79.3826V80.0619C115.708 80.5271 115.48 80.7481 115.026 80.7481C114.411 80.7481 113.842 80.6376 113.306 80.4073C112.772 80.1793 112.507 79.8385 112.507 79.3826C112.507 79.2306 112.654 79.0026 112.958 78.6963C113.267 79.0049 113.725 79.0786 114.333 78.9266C114.948 78.7723 115.399 78.9266 115.708 79.3826ZM107.134 85.5495C107.208 85.5495 107.254 85.6323 107.254 85.7797C107.254 87.0025 106.639 87.7232 105.423 87.9535C104.205 88.1792 103.445 88.2944 103.137 88.2944C101.912 88.2944 100.431 88.1424 98.6761 87.8338C96.9259 87.5322 96.0486 86.9242 96.0486 86.01C98.6392 85.2455 101.223 84.8632 103.821 84.8632C105.195 84.8632 106.252 84.9415 107.019 85.0935V85.3237C107.019 85.4757 107.056 85.5495 107.134 85.5495ZM102.911 94.0099C102.142 94.155 101.575 94.3508 101.188 94.5833C100.808 94.809 100.318 94.9195 99.7055 94.9195C99.3992 94.9195 98.9018 94.809 98.2248 94.5833C97.5316 94.3531 97.1954 94.0859 97.1954 93.7842C97.1954 93.174 97.4234 92.8309 97.8817 92.7549C98.333 92.6812 98.7129 92.6444 99.0191 92.6444C100.852 92.6421 102.142 93.0957 102.911 94.0099ZM98.1096 55.1548H99.0215C99.4798 55.1548 99.7884 55.0765 99.9334 54.9246V55.6131C100.083 55.4588 100.242 55.3805 100.394 55.3805C100.539 55.3805 100.62 55.5371 100.62 55.8388C100.62 56.1473 100.62 56.3753 100.62 56.5204C100.014 56.3753 99.3646 56.3338 98.6761 56.4098C97.9921 56.4927 97.4947 56.2993 97.1954 55.8388C97.1977 55.3805 97.4948 55.1548 98.1096 55.1548ZM97.6491 64.5249H97.8839C98.6415 64.5249 99.367 64.2232 100.053 63.6061C100.735 63.005 101.458 62.6965 102.225 62.6965C103.284 62.6965 104.283 63.005 105.195 63.6061C104.583 64.5249 103.517 65.1766 101.99 65.5497C100.463 65.9342 99.3186 66.1254 98.5702 66.1254C97.9485 66.1254 97.4947 65.978 97.1954 65.6717C97.1977 64.9072 97.3428 64.5249 97.6491 64.5249ZM85.5386 76.9831C86.4459 76.6031 87.5536 76.2623 88.8524 75.9514C90.1442 75.6474 91.3993 75.3043 92.6174 74.922C93.8379 74.5421 94.7522 74.1229 95.3624 73.6716C95.9773 73.3607 96.4286 73.2134 96.7372 73.2134C97.801 73.2134 98.333 73.6716 98.333 74.5812C98.333 75.0418 98.2523 75.4194 98.1073 75.7211C97.7987 76.032 97.5316 76.4511 97.3082 76.9831C97.0756 77.5173 96.6543 77.7844 96.0463 77.7844H95.36C95.0561 77.7844 94.7913 77.865 94.5656 78.0078C94.3307 78.1597 94.0658 78.245 93.7596 78.245C93.4533 78.245 93.0734 78.162 92.6128 78.0078C92.1615 77.865 91.7746 77.7844 91.4776 77.7844C90.2571 77.7844 89.1126 78.123 88.0487 78.8115C86.9802 79.4954 86.0636 79.8408 85.3037 79.8408C84.9974 79.8408 84.735 79.6497 84.5093 79.2651C84.2744 78.8875 84.1662 78.6226 84.1662 78.4707C84.1685 77.8627 84.6221 77.3653 85.5386 76.9831ZM92.3941 101.547C92.3941 101.856 92.3158 102.086 92.1661 102.236C91.7102 102.848 91.1735 103.152 90.5633 103.152C89.8034 103.152 89.4258 102.922 89.4258 102.466C89.4258 102.01 89.6583 101.628 90.112 101.326C90.2617 101.473 90.4804 101.547 90.7959 101.547C90.9433 101.547 91.0953 101.515 91.2496 101.436C91.4016 101.363 91.6273 101.326 91.9382 101.326C92.2398 101.326 92.3941 101.404 92.3941 101.547ZM63.2499 52.2948C63.4848 52.3731 63.6666 52.2602 63.8278 51.9539H64.0558C64.3529 51.9539 64.5855 51.8803 64.7421 51.7237C64.8872 51.5763 65.1198 51.498 65.4261 51.498L65.654 51.9539C65.654 52.5642 65.3478 52.8681 64.7421 52.8681H63.3673H63.1324C62.9827 52.7162 62.9137 52.5642 62.9137 52.4145C62.916 52.2625 63.0265 52.2211 63.2499 52.2948ZM62.4577 77.5541V77.0982V76.8633H62.9159C63.6667 76.5616 64.4335 76.184 65.2003 75.7211C65.9603 75.2652 66.7916 74.8898 67.7104 74.5812C67.8647 74.5812 68.0097 74.6595 68.164 74.8115C67.2498 75.5783 66.5728 76.2991 66.1053 76.9831C65.6517 77.6647 64.8871 78.0078 63.8278 78.0078C63.213 78.0078 62.7547 77.9364 62.4554 77.7844V77.5541H62.4577ZM64.6246 85.2109C65.9165 85.5955 66.5728 86.3946 66.5728 87.6128C66.5728 88.2184 66.2574 88.5223 65.654 88.5223H64.2838H63.593C62.3771 87.9121 61.5435 87.493 61.076 87.2673C60.6246 87.0371 60.3161 86.8137 60.171 86.5811C60.0121 86.3531 59.9361 86.0906 59.9361 85.7797C59.9361 85.4757 59.8555 85.0221 59.7035 84.4118C59.7035 84.1079 59.8532 83.9513 60.1687 83.9513H61.0737H61.5412C62.2942 84.4119 63.3328 84.8287 64.6246 85.2109ZM59.4802 69.8927C59.6321 69.8213 59.7865 69.6371 59.9385 69.3239H60.3967H61.3086C61.6149 69.3239 61.7623 69.4022 61.7623 69.5542V69.7822C61.1567 70.397 60.468 70.6941 59.7035 70.6941C59.4018 70.6941 59.2499 70.6227 59.2499 70.4684C59.2522 70.1645 59.3236 69.9756 59.4802 69.8927ZM55.8279 72.2969C56.1296 72.2969 56.3184 72.1817 56.3967 71.9515C56.4704 71.7235 56.5856 71.6106 56.7422 71.6106V71.8363C56.7422 71.9929 56.7791 72.0666 56.8504 72.0666C56.931 72.0666 56.9678 72.1449 56.9678 72.2969C56.8135 72.4488 56.5856 72.5225 56.2816 72.5225C55.6668 72.5225 55.3697 72.3751 55.3697 72.0666C55.3697 72.2209 55.5171 72.2969 55.8279 72.2969ZM45.7647 53.4346C45.3134 53.2136 44.8529 53.0938 44.4015 53.0938C43.6347 53.0938 43.2915 52.9096 43.3721 52.5251C43.4458 52.1451 43.3283 51.9517 43.0313 51.9517C43.4826 51.346 44.1666 51.0375 45.0901 51.0375C45.8477 51.0375 46.6467 51.2286 47.4918 51.6108C48.3231 51.9908 49.0462 52.3339 49.6564 52.6356C49.4976 52.9488 49.1222 53.2136 48.5119 53.4346C47.9063 53.6672 47.3721 53.7824 46.9139 53.7824C46.6053 53.7824 46.223 53.6695 45.7647 53.4346ZM50.3404 85.7797C50.3404 86.3945 49.9604 86.8137 49.1936 87.0371C48.4291 87.2673 47.8212 87.3825 47.3698 87.3825C47.2201 87.2305 47.1348 87.0739 47.1348 86.9265C47.1348 86.3163 47.4067 85.8235 47.9386 85.4343C48.4729 85.0589 49.0417 84.8655 49.6542 84.8655C49.7993 84.8655 49.9167 84.907 49.9973 84.9807C50.0687 85.0589 50.1861 85.0958 50.3381 85.0958V85.7797H50.3404ZM51.478 70.0125C51.478 70.3164 51.3328 70.4684 51.0265 70.4684C50.7203 70.4684 50.4117 70.4684 50.1146 70.4684C49.8015 70.4684 49.6564 70.3164 49.6564 70.0125V69.7822C49.6564 69.3262 49.9627 69.0959 50.5683 69.0959C51.174 69.0959 51.4802 69.3262 51.4802 69.7822V70.0125H51.478ZM56.9678 108.863H56.5165C56.201 108.863 56.0559 108.941 56.0559 109.095C56.0559 109.247 55.9776 109.324 55.8279 109.324C55.0634 109.324 54.6858 109.017 54.6858 108.407C54.6858 108.108 54.7157 107.916 54.794 107.838C54.8746 107.765 54.9114 107.573 54.9114 107.265C55.2177 107.417 55.669 107.456 56.2839 107.38C56.8895 107.302 57.2027 107.495 57.2027 107.951C57.2004 108.405 57.1198 108.718 56.9678 108.863ZM58.3403 94.353C57.5758 93.2063 56.3576 92.642 54.6858 92.642C54.3772 92.642 54.1423 92.6789 53.9972 92.7526C53.8453 92.8309 53.6104 92.8631 53.3133 92.8631C53.6104 92.5592 53.7302 92.0641 53.6542 91.3755C53.5736 90.6985 53.843 90.3508 54.4578 90.3508H54.9091C55.2154 90.0468 55.5171 89.8971 55.8257 89.8971C55.8257 90.2011 56.0099 90.3163 56.3945 90.2357C56.7768 90.162 57.1175 90.2725 57.4238 90.5764H57.6517C57.4997 90.5764 57.5734 90.885 57.8797 91.4953C58.186 92.4072 59.1049 93.0934 60.6224 93.5494C62.1492 94.0076 62.9137 94.5396 62.9137 95.1475C62.9137 95.7624 62.6005 96.0571 61.9925 96.0571C60.3161 96.0594 59.1071 95.4952 58.3403 94.353ZM62.3402 115.725C61.502 115.873 60.6984 115.949 59.9385 115.949C59.1717 115.949 58.8009 115.573 58.8009 114.809C58.8009 114.507 59.2913 114.166 60.2838 113.782C61.2763 113.402 62.0685 113.206 62.6833 113.206L62.9182 113.436C63.3695 113.436 63.6344 113.551 63.7127 113.782C63.7864 114.005 63.9776 114.203 64.2862 114.353C63.8279 115.115 63.1785 115.571 62.3402 115.725ZM74.681 134.804C74.6004 134.887 74.5635 134.997 74.5635 135.145C73.6516 135.605 72.8111 135.831 72.0535 135.831C71.4363 135.831 71.0219 135.753 70.787 135.605C70.5682 135.453 70.453 134.995 70.453 134.228H70.6787H71.1392C71.4363 134.228 71.5883 134.085 71.5883 133.775L72.0511 134.007C72.3551 134.007 72.6567 133.963 72.963 133.887C73.2693 133.814 73.5779 133.777 73.8773 133.777C74.4875 133.777 74.7938 134.009 74.7938 134.461C74.7984 134.615 74.7546 134.73 74.681 134.804ZM76.6223 131.377C76.6223 131.914 76.1686 132.179 75.2498 132.179C74.0316 132.179 73.2717 131.642 72.9654 130.581C72.6591 129.514 71.9728 128.982 70.9043 128.982C70.1375 129.284 69.4628 129.63 68.8457 130.005C68.24 130.387 67.5538 130.581 66.7893 130.581C66.179 130.581 65.6494 130.277 65.1981 129.662V129.436C65.1981 129.137 65.1174 128.982 64.9631 128.982C64.8088 128.982 64.7375 128.904 64.7375 128.752C64.7375 128.448 65.0782 128.142 65.7668 127.838C66.4507 127.539 67.1715 127.382 67.9314 127.382C69.1496 127.382 70.1329 127.61 70.8997 128.066C71.5076 128.375 72.2008 128.448 72.9607 128.296C73.7184 128.144 74.3333 128.223 74.7938 128.527C76.164 128.679 76.9952 129.063 77.3038 129.662C76.857 130.274 76.6223 130.845 76.6223 131.377ZM83.3671 127.037C83.2864 127.721 82.8697 128.061 82.1121 128.061C81.1909 127.916 80.279 127.686 79.3671 127.377C78.4552 127.073 77.9946 126.316 77.9946 125.091C77.9946 124.787 78.1835 124.372 78.5634 123.84C78.9434 123.304 79.3671 123.032 79.8208 123.032C80.5853 123.032 81.2738 123.228 81.8841 123.608C82.4897 123.988 83.0217 124.402 83.4799 124.865C83.4822 125.627 83.4384 126.348 83.3671 127.037ZM85.8772 132.404C85.6515 132.713 85.382 132.87 85.0804 132.87C84.6221 132.404 84.3964 132.027 84.3964 131.718C84.3964 131.573 84.4702 131.419 84.6222 131.265C84.9307 130.961 85.1541 130.804 85.3083 130.804C85.6146 130.804 85.914 131.113 86.2202 131.716C86.2202 131.873 86.112 132.103 85.8772 132.404ZM87.3625 119.373C86.7523 120.289 85.8404 120.755 84.6222 120.755C84.0073 120.451 83.6734 119.992 83.5928 119.373C83.5214 118.767 83.3325 118.233 83.024 117.779C83.4822 117.475 83.8945 117.25 84.2813 117.093C84.6613 116.946 85.1564 116.713 85.7689 116.405C86.9871 116.405 87.8207 116.563 88.2882 116.867C88.2836 117.623 87.9727 118.463 87.3625 119.373ZM86.6786 112.064C85.6124 112.064 84.5392 112.331 83.4799 112.863C82.4068 113.402 81.4512 114.088 80.6291 114.924C79.7817 115.764 79.0977 116.605 78.5634 117.436C78.0315 118.277 77.7666 118.922 77.7666 119.375C77.7666 119.833 77.8403 120.147 77.9946 120.292C77.6883 120.6 77.571 121.019 77.6539 121.549C77.7253 122.086 77.4651 122.355 76.8571 122.355H75.024C73.799 122.355 72.6246 122.466 71.4847 122.696C70.3402 122.921 69.1566 123.032 67.9384 123.032C66.7202 123.032 65.5756 122.735 64.5071 122.12C64.6614 121.208 65.0852 120.524 65.7738 120.066C66.4577 119.605 67.0265 119 67.4778 118.233C67.3328 118.086 67.2499 117.858 67.2499 117.549C67.2499 116.177 67.8669 115.226 69.0828 114.691C70.301 114.164 71.7126 113.701 73.3085 113.323C74.9066 112.941 76.4311 112.485 77.8841 111.949C79.3303 111.421 80.1985 110.463 80.514 109.093C80.1985 108.787 79.8207 108.446 79.3671 108.062C78.9065 107.686 78.073 107.493 76.8571 107.493C75.632 107.949 74.3746 108.333 73.0827 108.64C71.7863 108.939 70.6004 109.475 69.5342 110.238C68.9286 110.542 68.3528 110.846 67.8278 111.147C67.2889 111.458 66.6441 111.606 65.8796 111.606C65.5733 111.606 65.1589 111.495 64.6246 111.262C64.0927 111.037 63.8278 110.39 63.8278 109.321C64.4335 108.863 65.1566 108.598 65.9925 108.52C66.8284 108.446 67.6643 108.333 68.5117 108.179C69.343 108.032 70.0685 107.762 70.6787 107.38C71.2867 106.995 71.5907 106.272 71.5907 105.208C71.5907 104.598 71.4387 104.29 71.1416 104.29H70.9043C70.1375 104.29 69.2739 104.181 68.2791 103.953C67.2843 103.721 66.2551 103.613 65.1981 103.613H61.3086C61.4606 102.848 61.7254 102.199 62.1123 101.669C62.483 101.132 62.9159 100.637 63.3673 100.181C63.5192 100.181 63.6666 100.26 63.8278 100.412C64.2815 100.412 64.6592 100.297 64.9655 100.071C65.274 99.8406 65.5734 99.7254 65.8774 99.7254C66.1813 99.7254 66.5267 99.8406 66.9044 100.071C67.2843 100.297 67.6275 100.412 67.9338 100.412C68.5463 100.412 69.1151 100.26 69.6494 99.9511C70.1813 99.6472 70.8306 99.4952 71.5883 99.4952C71.4363 99.3478 71.3603 99.1198 71.3603 98.809C71.3603 98.5096 71.434 98.2379 71.5883 98.0076C71.7449 97.7842 71.8255 97.4388 71.8255 96.9852V96.5292C72.8848 95.919 74.1075 95.7301 75.48 95.9512C76.8548 96.1838 77.6032 95.5344 77.7644 94.0122C76.9976 92.4878 75.8599 91.7255 74.3355 91.7255H72.5048C71.8969 91.7255 71.4017 91.6472 71.0194 91.4975C70.6418 91.3455 70.453 90.809 70.453 89.8994C70.7524 89.2891 71.1692 89.0243 71.708 89.098C72.24 89.1763 72.7374 89.0612 73.1887 88.7573C73.4973 89.0612 74.0292 89.1763 74.7961 89.098C75.5537 89.0243 76.0879 89.1395 76.3919 89.4342C77.1518 90.961 77.7206 91.7624 78.1075 91.8384C78.4851 91.9167 79.2106 91.9489 80.2745 91.9489C81.7989 91.9489 83.2818 91.8384 84.7349 91.6081C86.1787 91.3755 87.6665 91.1913 89.1863 91.0393C89.1863 91.645 89.4925 91.9903 90.1073 92.064C90.713 92.1423 91.0192 92.4832 91.0192 93.0934C91.1712 93.7037 91.0193 93.9339 90.561 93.7819C90.1097 93.6299 89.7205 93.7036 89.4234 94.0099C89.1148 94.0099 88.8524 93.9731 88.6175 93.8948C88.3918 93.8211 88.1224 93.7819 87.8138 93.7819C86.4414 93.7819 85.2255 94.0099 84.1662 94.4613C83.0931 94.9172 81.9509 95.1475 80.7373 95.1475C79.9682 95.1475 79.4431 95.0738 79.1369 94.9172C78.2204 95.2258 77.686 95.684 77.5387 96.2943C77.686 96.6028 77.8819 97.0933 78.1099 97.7819C78.3378 98.4635 78.4507 98.8803 78.4507 99.0323C78.4507 99.4905 78.1812 99.7991 77.6493 99.9465C77.1173 100.103 76.6199 100.177 76.1639 100.177C75.8576 100.177 75.4777 100.142 75.0194 100.066C74.5611 99.988 74.1813 99.9465 73.8773 99.9465C72.2031 99.9465 71.3603 100.787 71.3603 102.464C71.3603 103.23 71.5076 103.907 71.8231 104.52C73.0413 104.216 74.027 103.951 74.7938 103.718C75.5514 103.488 76.537 103.378 77.7621 103.378C79.1346 103.378 80.5807 103.567 82.1074 103.951C83.625 104.324 84.7695 104.672 85.5341 104.976C85.3775 105.588 85.0758 106.157 84.6175 106.694C84.1662 107.223 83.9382 107.797 83.9382 108.402C83.9382 109.319 84.3918 109.779 85.3037 109.779C86.2156 109.779 87.0562 109.701 87.8138 109.549C88.5807 109.397 89.4211 109.319 90.3353 109.319H91.4798C91.1712 109.931 90.7913 110.463 90.3353 110.915C89.8771 111.378 89.4235 111.834 88.9583 112.292C88.3573 112.142 87.5905 112.064 86.6786 112.064ZM85.0804 98.8066C85.0804 99.2649 84.5416 99.4929 83.4823 99.4929H83.024V99.2649C83.024 99.1175 83.1414 98.9655 83.3671 98.8066C83.5927 98.6616 83.7079 98.4267 83.7079 98.125C84.1684 98.125 84.431 98.1665 84.5139 98.2356C84.5853 98.3139 84.7741 98.5073 85.0804 98.8066ZM93.1954 116.745C92.5115 116.674 92.0118 116.789 91.7078 117.093C91.3992 116.488 90.9111 116.289 90.2248 116.52C89.5363 116.745 89.1863 116.563 89.1863 115.946C89.4926 115.345 89.9531 115 90.561 114.922C91.1736 114.843 91.7078 114.659 92.1637 114.348C92.1637 114.657 92.4263 114.806 92.9605 114.806C93.4948 114.806 93.9185 115.189 94.2179 115.946C94.2202 116.563 93.8747 116.826 93.1954 116.745ZM99.4797 110.466C99.3208 110.466 99.1389 110.429 98.904 110.351C98.6761 110.279 98.4872 110.24 98.3352 110.24H98.1096C98.1096 110.392 97.6122 110.24 96.6197 109.782C95.6272 109.321 94.6784 109.095 93.7665 109.095H93.3083C93.4602 108.642 93.8057 108.49 94.3377 108.642C94.8696 108.789 95.3647 108.72 95.8253 108.405C96.5829 108.718 97.1977 109.015 97.6491 109.321C98.1096 109.63 98.5702 109.782 99.0215 109.782H99.9334C99.9334 110.238 99.7883 110.466 99.4797 110.466ZM109.766 100.637C109.766 100.948 109.458 101.252 108.852 101.549C108.242 101.858 107.482 102.123 106.561 102.358C105.649 102.586 104.737 102.774 103.825 102.926C102.913 103.078 102.229 103.157 101.767 103.157C101.154 103.157 100.396 103.005 99.4821 102.696C98.5725 102.394 98.1119 102.09 98.1119 101.782C98.1119 100.87 98.4182 100.525 99.0238 100.75C99.6317 100.98 99.9357 100.792 99.9357 100.181C101.154 100.49 102.075 100.637 102.678 100.637C103.897 100.637 105.002 100.375 105.992 99.8383C106.985 99.3086 107.708 99.0346 108.166 99.0346C108.624 99.0346 108.924 99.1912 109.078 99.4929C109.23 99.8014 109.458 100.105 109.766 100.409V100.637ZM109.647 75.378C108.654 75.1523 107.777 74.6572 107.019 73.895C107.777 73.743 108.624 73.5542 109.538 73.3216C110.45 73.0936 111.362 72.9808 112.283 72.9808C113.34 72.9808 114.179 73.2917 114.793 73.895C114.793 75.1178 114.179 75.7188 112.958 75.7188C111.74 75.7211 110.635 75.6082 109.647 75.378ZM112.507 87.1522C112.507 86.8528 112.7 86.6225 113.078 86.4682C113.458 86.3163 113.799 86.238 114.107 86.238C114.257 86.238 114.485 86.3923 114.793 86.6917C114.485 87.0025 114.296 87.2673 114.222 87.493C114.142 87.7233 113.953 87.8338 113.654 87.8338C112.889 87.8338 112.507 87.6127 112.507 87.1522ZM128.732 87.1522C128.732 87.6127 128.237 88.1078 127.245 88.6398C126.259 89.174 125.114 89.6645 123.823 90.1274C122.524 90.581 121.195 91.0047 119.823 91.3778C118.45 91.7623 117.384 92.1078 116.617 92.4095C116.468 92.7181 116.168 92.8654 115.708 92.8654H114.559H114.109C113.801 92.7181 113.656 92.4855 113.656 92.1815C113.656 90.5051 114.452 89.5931 116.051 89.4342C117.656 89.2892 119.291 89.1372 120.963 88.9806C121.727 88.375 122.489 87.7647 123.254 87.1522C124.012 86.5465 124.926 86.2403 125.99 86.2403C126.298 86.2403 126.676 86.3186 127.134 86.4706C127.595 86.6226 128.129 86.6939 128.732 86.6939V87.1522ZM127.82 78.2427H127.592C127.277 78.2427 127.095 78.321 127.014 78.4707C126.943 78.6226 126.754 78.6963 126.446 78.6963C125.382 78.6963 124.315 78.4706 123.249 78.0078C122.176 77.5541 121.112 77.2502 120.044 77.0982C119.892 77.2502 119.735 77.3238 119.586 77.3238C119.286 77.3238 119.132 77.2133 119.132 76.9831C119.132 76.7528 119.054 76.5616 118.904 76.4096C119.357 75.9514 119.816 75.4194 120.269 74.8115C120.73 74.2012 121.49 73.8973 122.563 73.8973C122.708 73.8973 122.862 73.9387 123.014 74.0124C123.169 74.0907 123.394 74.1253 123.703 74.1253V74.3555C124.161 74.5075 124.919 74.5835 125.985 74.5835C126.593 74.5835 127.169 74.5467 127.707 74.4684C128.235 74.3993 128.804 74.3578 129.414 74.3578C130.941 74.3578 132.304 74.5858 133.531 75.0441C134.137 75.0441 134.517 75.3089 134.669 75.8454C134.821 76.3797 134.897 76.8679 134.897 77.3285C134.897 77.637 134.823 77.789 134.669 77.789L134.441 77.5588C133.989 78.0124 132.99 78.2472 131.473 78.2472H128.963H127.82V78.2427ZM145.653 107.039C144.578 107.647 143.629 108.294 142.791 108.978C141.952 109.664 140.921 110.086 139.703 110.24C139.855 109.174 140.354 108.336 141.19 107.723C142.022 107.117 142.828 106.576 143.592 106.12L144.043 106.351C144.352 106.351 144.575 106.316 144.73 106.235C144.884 106.159 145.11 106.12 145.416 106.12C145.725 106.12 145.877 106.199 145.877 106.351C145.877 106.655 145.794 106.885 145.653 107.039ZM148.845 113.662C148.078 113.662 147.7 113.365 147.7 112.75C147.7 112.446 147.889 112.22 148.276 112.064C148.656 111.916 148.919 111.608 149.073 111.15C149.225 111.15 149.342 111.191 149.423 111.265C149.49 111.345 149.605 111.382 149.759 111.382C150.528 111.382 151.134 110.961 151.592 110.123C152.043 109.291 152.651 108.865 153.418 108.865H153.876C154.788 108.561 155.709 108.407 156.619 108.407C157.377 108.407 158.217 108.559 159.131 108.865V109.554C159.131 110.777 158.6 111.5 157.533 111.718C156.458 111.951 155.323 112.066 154.102 112.066C152.433 112.066 151.366 112.333 150.906 112.865C150.445 113.399 149.759 113.662 148.845 113.662ZM148.845 103.834C148.845 103.38 149.153 103.154 149.757 103.154C150.823 103.154 151.362 103.458 151.362 104.066C151.507 104.22 151.59 104.372 151.59 104.524C151.59 104.676 151.362 104.755 150.903 104.755C150.443 104.755 150.215 104.907 150.215 105.213C149.757 105.213 149.421 105.061 149.188 104.755C148.955 104.449 148.845 104.142 148.845 103.834ZM156.619 141.093H155.247H155.012C155.012 140.789 154.867 140.674 154.56 140.747C154.252 140.828 154.1 140.713 154.1 140.407L154.56 140.169H155.012H156.156C156.916 140.169 157.303 140.407 157.303 140.863C157.153 141.017 156.918 141.093 156.619 141.093ZM165.991 138.12C164.918 138.12 164.232 137.551 163.933 136.404C163.626 135.264 162.86 134.686 161.639 134.686H160.962C160.504 134.686 159.815 134.424 158.903 133.887C157.992 133.358 157.531 132.943 157.531 132.632C157.531 132.328 157.872 132.142 158.558 132.064C159.244 131.985 159.661 131.948 159.813 131.948C160.732 131.948 161.531 132.216 162.215 132.748C162.901 133.286 163.544 133.924 164.156 134.686C164.614 134.845 165.222 134.997 165.989 135.145C166.747 135.301 167.129 135.831 167.129 136.752C167.131 137.664 166.749 138.12 165.991 138.12ZM176.96 141.547C176.96 142.157 176.501 142.574 175.587 142.804C174.675 143.039 173.989 143.145 173.529 143.145C173.068 143.145 172.688 142.997 172.391 142.691C172.075 142.387 171.85 142.235 171.705 142.235C171.55 142.235 171.394 142.313 171.244 142.461V141.547C171.244 140.936 171.55 140.554 172.156 140.407C172.773 140.255 173.303 140.169 173.754 140.169C174.362 140.169 175.279 140.331 176.499 140.637C176.499 140.789 176.577 140.863 176.732 140.863C176.877 140.863 176.96 140.936 176.96 141.093V141.547ZM177.756 132.522C176.918 133.816 175.433 134.461 173.303 134.461C172.997 134.461 172.31 134.383 171.244 134.231C170.178 134.088 169.646 133.855 169.646 133.547C169.646 131.87 169.222 130.691 168.391 130C167.553 129.321 166.597 128.368 165.531 127.149C165.377 127.297 165.149 127.375 164.842 127.375C164.538 127.375 164.23 127.26 163.931 127.034C163.624 126.804 163.242 126.694 162.784 126.694C162.477 126.542 161.948 126.424 161.186 126.346C160.421 126.277 159.617 126.194 158.786 126.116C157.948 126.044 157.222 125.968 156.619 125.892C156.004 125.814 155.707 125.701 155.707 125.547C155.707 125.247 155.822 125.012 156.041 124.863C156.276 124.715 156.458 124.48 156.619 124.174C156.764 124.174 156.882 124.211 156.96 124.292C157.034 124.372 157.151 124.4 157.303 124.4C157.602 124.4 157.764 124.331 157.764 124.174V123.946H157.989C158.289 123.946 158.523 124.027 158.675 124.174C158.821 124.331 159.129 124.4 159.587 124.4C159.433 124.4 159.776 124.372 160.614 124.292C161.455 124.211 162.44 123.985 163.587 123.605C164.729 123.226 165.789 122.77 166.784 122.231C167.778 121.701 168.271 120.973 168.271 120.064C168.271 119.456 168.004 118.843 167.47 118.231C166.938 117.62 166.215 117.321 165.305 117.321C164.384 117.321 163.778 117.584 163.479 118.12C163.164 118.654 162.477 118.919 161.414 118.919C160.195 118.919 158.715 118.963 156.96 119.03C155.201 119.108 153.793 119.371 152.727 119.831C152.879 118.919 153.416 118.233 154.332 117.779C155.244 117.323 156.347 116.867 157.644 116.402C158.94 115.946 160.237 115.378 161.531 114.689C162.823 114 163.931 113.059 164.842 111.836C165.602 111.532 166.33 111.299 167.016 111.147C167.705 110.995 168.195 110.542 168.506 109.779C168.193 109.013 168.119 108.333 168.269 107.721C168.416 107.115 167.504 106.807 165.529 106.807C164.762 106.959 164.112 107.152 163.587 107.38C163.046 107.61 162.404 107.721 161.635 107.721C161.183 107.721 160.803 107.645 160.499 107.493V106.807L160.271 106.574C160.122 106.574 160.036 106.503 160.036 106.348C160.036 106.196 160.119 106.118 160.271 106.118C160.416 106.118 160.499 106.049 160.499 105.897C160.651 104.978 161.105 104.405 161.872 104.179C162.629 103.951 163.477 103.758 164.382 103.61C165.303 103.456 166.137 103.304 166.901 103.152C167.659 103 168.039 102.618 168.039 102.008V100.635V100.179C167.739 100.032 167.587 99.7991 167.587 99.4929C167.587 99.1912 167.433 99.0346 167.129 99.0346H166.901C166.595 99.0346 166.215 99.0024 165.754 98.9241C165.305 98.8435 164.916 98.8066 164.614 98.8066C163.09 98.8066 162.024 99.0346 161.411 99.4929C160.803 99.9488 160.345 100.451 160.039 100.978C159.733 101.515 159.507 102.01 159.359 102.466C159.2 102.924 158.901 103.152 158.443 103.152H157.989C157.83 103.152 157.646 103.196 157.414 103.263C157.186 103.348 156.916 103.378 156.617 103.378C156.156 103.378 155.928 103.15 155.928 102.691C155.928 101.929 156.31 101.324 157.075 100.865C157.828 100.409 158.215 99.6425 158.215 98.5787C156.84 97.8164 155.281 97.4341 153.531 97.4341C151.776 97.4341 150.063 97.2822 148.384 96.9805C147.617 96.9805 147.166 97.1302 147.012 97.4341C146.867 97.7427 146.676 98.1227 146.443 98.5787C146.215 99.0323 145.874 99.4169 145.414 99.7208C144.96 100.029 144.041 100.177 142.673 100.177C141.605 100.177 140.999 99.8728 140.847 99.2626V98.8043C140.847 96.8262 140.007 95.8338 138.326 95.8338C137.11 95.8338 135.972 96.0571 134.899 96.5222C133.833 96.9782 132.622 97.2016 131.249 97.2016C130.634 97.2016 130.102 97.1279 129.651 96.9782V96.292V96.0548H129.416C129.264 96.0548 129.193 95.9857 129.193 95.8314C129.193 94.6133 129.987 93.8556 131.59 93.5447C133.188 93.2408 134.517 93.0888 135.59 93.0888C136.35 93.0888 137.107 93.1671 137.872 93.3144C138.632 93.4733 139.39 93.5447 140.159 93.5447C140.767 94.7675 141.683 95.638 142.899 96.1745C144.12 96.7088 145.492 96.9759 147.01 96.9759C147.776 96.3679 148.497 95.7577 149.183 95.1429C149.872 94.5326 150.745 94.1481 151.813 94.003C153.031 94.3116 154.095 94.4566 155.009 94.4566C155.318 94.4566 155.705 94.4221 156.154 94.3461C156.615 94.2724 157.073 94.231 157.529 94.231C160.879 94.231 163.279 94.8021 164.73 95.942C166.178 97.0888 167.813 98.1181 169.644 99.0277C170.095 99.3386 170.781 99.5228 171.705 99.6011C172.614 99.6794 173.529 99.7577 174.44 99.8314C175.359 99.9097 176.163 99.9834 176.842 100.062C177.377 100.122 177.692 100.248 177.814 100.442C177.759 100.52 177.669 100.847 177.538 101.432C177.303 102.424 175.965 102.919 173.531 102.919C173.22 102.919 172.923 102.885 172.617 102.807C172.313 102.726 172.006 102.689 171.707 102.689C170.18 102.689 169.34 103.15 169.188 104.059C169.646 104.826 169.948 105.469 170.1 106.003C170.252 106.539 171.246 106.804 173.07 106.804C174.597 106.804 175.893 106.463 176.96 105.773C178.024 105.093 179.391 104.748 181.072 104.748H181.987C182.595 104.748 183.09 104.706 183.47 104.633C183.847 104.559 184.193 104.518 184.499 104.518C184.957 104.518 185.563 104.748 186.327 105.204C186.178 105.971 185.418 106.344 184.045 106.344C183.431 106.344 183.053 106.265 182.899 106.113C182.747 105.971 182.521 105.892 182.212 105.892H181.303H181.07C180.154 106.344 179.585 106.991 179.359 107.831C179.124 108.672 178.71 109.471 178.102 110.233C176.877 110.841 175.467 111.184 173.869 111.258C172.271 111.338 170.701 111.527 169.185 111.834C168.725 112.745 168.506 113.736 168.506 114.804C168.651 115.414 169.254 115.721 170.328 115.721H171.705C172.31 115.721 172.771 115.794 173.068 115.944C173.376 116.105 173.835 116.174 174.44 116.174C174.747 116.174 175.163 116.142 175.695 116.064C176.227 115.985 176.653 115.944 176.96 115.944C177.565 115.944 178.169 116.022 178.786 116.174C179.391 116.326 179.702 116.785 179.702 117.547C179.702 117.855 179.622 118.044 179.467 118.12C179.318 118.198 179.242 118.385 179.242 118.689V118.919C178.475 119.686 177.452 120.144 176.161 120.289C174.862 120.448 173.563 120.635 172.271 120.865C170.972 121.089 169.832 121.512 168.84 122.118C167.85 122.735 167.279 123.949 167.129 125.775C167.742 126.542 168.462 127.034 169.303 127.262C170.132 127.493 170.701 127.985 171.016 128.748C171.016 129.362 171.359 129.894 172.046 130.346C172.723 130.804 173.448 131.032 174.212 131.032C175.276 131.032 176.117 130.615 176.729 129.777C177.335 128.936 178.102 128.52 179.014 128.52C179.619 128.52 180.073 128.598 180.386 128.745C179.47 129.968 178.595 131.225 177.756 132.522ZM187.016 117.779C186.71 117.323 186.212 116.904 185.528 116.52C184.84 116.147 184.154 115.799 183.467 115.49C182.781 115.189 182.175 114.885 181.644 114.578C181.105 114.275 180.84 113.814 180.84 113.201C180.84 112.444 181.3 112.062 182.21 112.062C183.428 112.062 184.19 112.711 184.497 114C184.801 115.302 185.641 115.944 187.014 115.944C187.313 116.253 187.619 116.485 187.926 116.633C188.234 116.785 188.379 117.015 188.379 117.319C188.237 117.623 187.778 117.779 187.016 117.779ZM204.386 54.2406C204.386 53.7847 204.692 53.559 205.298 53.559C205.45 53.559 205.606 53.6004 205.756 53.6695C205.901 53.7478 205.984 54.1669 205.984 54.9246C205.832 54.9246 205.756 54.966 205.756 55.0397C205.756 55.118 205.678 55.1548 205.521 55.1548C205.215 55.1548 205.072 55.0397 205.072 54.814C205.072 54.5837 204.911 54.4732 204.612 54.4732H204.384V54.2406H204.386ZM189.987 63.6061C189.987 63.1524 190.288 62.8485 190.903 62.6965C191.509 62.5445 192.045 62.4662 192.499 62.4662C192.805 62.4662 193.075 62.5076 193.303 62.5836C193.528 62.6642 193.793 62.6965 194.097 62.6965V62.9268L194.332 63.3851C194.18 63.9907 193.871 64.297 193.413 64.297C192.962 64.297 192.501 64.4512 192.048 64.7529C191.741 64.4512 191.327 64.297 190.793 64.297C190.251 64.2946 189.987 64.0689 189.987 63.6061ZM192.959 110.691H191.587H191.127V110.463C191.127 110.159 191.163 110.044 191.246 110.118C191.325 110.201 191.364 110.083 191.364 109.779H191.813H193.411C193.869 109.779 194.178 109.931 194.33 110.238C194.021 110.542 193.565 110.691 192.959 110.691ZM195.133 96.2966C194.901 96.6052 194.636 96.7502 194.33 96.7502C193.717 96.7502 193.411 96.444 193.411 95.8383C193.411 95.2304 193.793 94.9218 194.558 94.9218C194.864 94.9218 195.09 95.0047 195.244 95.1521C195.396 95.3041 195.622 95.4606 195.928 95.608C195.622 95.7646 195.359 95.9903 195.133 96.2966ZM197.989 80.2968C196.768 80.2968 195.702 80.1034 194.779 79.7234C193.867 79.3434 193.409 78.5398 193.409 77.3216C193.409 76.5593 193.95 76.1816 195.014 76.1816C195.774 76.1816 196.46 76.4096 197.072 76.861C197.537 77.2133 198.063 77.5081 198.622 77.7683V80.2484C198.433 80.2761 198.226 80.2968 197.989 80.2968ZM219.128 88.6697C218.822 88.6697 218.675 88.4441 218.675 87.9789C218.521 87.8315 218.445 87.6772 218.445 87.5253H218.901H219.584C219.584 87.9789 219.435 88.3657 219.128 88.6697ZM223.932 82.0446C223.776 81.5886 223.665 81.2409 223.591 81.0106C223.513 80.7803 223.474 80.5132 223.474 80.2115C223.474 80.0595 223.548 79.7165 223.702 79.1845C223.859 78.6503 224.082 78.3854 224.393 78.3854C224.538 78.3854 224.618 78.4959 224.618 78.7239C224.618 78.9588 224.768 79.0648 225.077 79.0648C225.074 80.2852 224.692 81.2778 223.932 82.0446ZM236.045 91.4055C236.045 91.5621 235.891 91.6403 235.584 91.6403C235.584 91.1844 235.739 90.9587 236.045 90.9587V91.4055ZM239.126 82.6111C239.052 82.3808 238.935 82.192 238.787 82.0423C238.787 81.4274 238.822 80.5892 238.9 79.5254C238.974 78.4569 239.246 77.9272 239.704 77.9272C240.008 77.9272 240.27 78.1897 240.503 78.7217C240.738 79.2513 240.844 79.9053 240.844 80.6698C240.844 81.7291 240.538 82.4959 239.932 82.9565H239.702C239.395 82.9588 239.204 82.8391 239.126 82.6111ZM241.988 97.5862V99.8659C241.988 100.329 241.91 100.697 241.756 101.013C241.452 101.312 241.226 101.466 241.072 101.466C240.459 101.466 240.045 101.086 239.812 100.329C239.587 99.562 239.469 98.9563 239.469 98.4957C239.469 98.1918 239.589 97.6552 239.812 96.8976C240.045 96.1308 240.388 95.7532 240.842 95.7532C241.302 95.7532 241.532 95.9051 241.532 96.2114C241.532 96.52 241.678 96.7456 241.986 96.8976V97.5862H241.988ZM245.42 90.0353C244.653 90.0353 244.155 89.8165 243.93 89.3514C243.699 88.8977 243.589 88.52 243.589 88.2114C243.589 87.6012 243.895 87.2995 244.501 87.2995C244.655 87.2995 244.922 87.6012 245.304 88.2114C245.68 88.8171 245.875 89.2776 245.875 89.5816C245.871 89.7382 245.719 89.881 245.42 90.0353ZM249.185 97.0128C248.959 97.8441 248.842 98.7283 248.842 99.6379C248.538 98.4128 248.082 97.2385 247.474 96.1009C246.861 94.9564 246.562 93.7727 246.562 92.5546C246.562 91.9397 246.787 91.638 247.246 91.638C248.003 91.638 248.579 92.0134 248.961 92.7802C249.339 93.547 249.532 94.1504 249.532 94.6063C249.53 95.3732 249.417 96.1676 249.185 97.0128ZM248.839 82.9588C247.927 82.6502 247.471 81.6577 247.471 79.9882C247.775 79.6704 247.927 79.2536 247.927 78.7239C247.927 78.192 248.307 77.9295 249.067 77.9295C249.219 77.9295 249.373 78.3463 249.528 79.1845C249.675 80.0227 249.758 80.5915 249.758 80.9001C249.76 81.6554 249.452 82.3463 248.839 82.9588ZM252.501 85.7014C252.346 85.7014 252.27 85.3906 252.27 84.7849C252.574 84.7849 252.726 85.006 252.726 85.4689L252.501 85.7014ZM251.692 141.093H250.32H250.085C250.085 140.789 249.94 140.674 249.636 140.747C249.327 140.828 249.173 140.713 249.173 140.407L249.636 140.169H250.085H251.23C251.989 140.169 252.376 140.407 252.376 140.863C252.227 141.017 251.992 141.093 251.692 141.093ZM261.065 138.12C259.992 138.12 259.305 137.551 259.006 136.404C258.7 135.264 257.935 134.686 256.715 134.686H256.035C255.577 134.686 254.891 134.424 253.977 133.887C253.065 133.358 252.604 132.943 252.604 132.632C252.604 132.328 252.945 132.142 253.631 132.064C254.32 131.985 254.734 131.948 254.889 131.948C255.807 131.948 256.604 132.216 257.291 132.748C257.974 133.286 258.617 133.924 259.229 134.686C259.69 134.845 260.296 134.997 261.062 135.145C261.82 135.301 262.202 135.831 262.202 136.752C262.205 137.664 261.822 138.12 261.065 138.12ZM272.033 141.547C272.033 142.157 271.575 142.574 270.66 142.804C269.749 143.039 269.062 143.145 268.602 143.145C268.141 143.145 267.761 142.997 267.464 142.691C267.149 142.387 266.925 142.235 266.778 142.235C266.624 142.235 266.469 142.313 266.317 142.461V141.547C266.317 140.936 266.624 140.554 267.229 140.407C267.846 140.255 268.379 140.169 268.828 140.169C269.435 140.169 270.354 140.331 271.572 140.637C271.572 140.789 271.651 140.863 271.805 140.863C271.95 140.863 272.033 140.936 272.033 141.093V141.547ZM263.81 91.9051C264.028 91.6334 264.406 91.4975 264.947 91.4975C265.254 91.4975 265.562 91.5344 265.859 91.6081C266.004 91.6449 266.149 91.6703 266.292 91.691C266.078 92.0894 265.898 92.5269 265.76 93.0105C265.659 93.3628 265.523 93.7059 265.371 94.0421C264.669 93.5885 264.065 93.1256 263.586 92.642C263.586 92.4509 263.616 92.2921 263.667 92.1516C263.713 92.0687 263.761 91.988 263.81 91.9051ZM273.224 78.8391C273.251 78.9128 273.279 78.9819 273.297 79.0671C273.369 79.4217 273.422 79.7395 273.456 80.0273C272.597 79.7234 271.909 79.4655 271.395 79.2651C271.409 79.2191 271.425 79.1776 271.443 79.1362C272.021 79.1062 272.613 79.0164 273.224 78.8391ZM263.117 100.179C263.149 100.32 263.186 100.446 263.241 100.554C263.241 100.764 263.195 100.946 263.117 101.105V100.635V100.179ZM263.013 99.1797C263.013 99.578 263.05 99.9097 263.117 100.181C262.815 100.029 262.665 99.8015 262.665 99.4952C262.665 99.2626 262.571 99.1221 262.398 99.0645C262.449 98.9909 262.502 98.9172 262.552 98.8389C262.716 98.5948 262.838 98.3346 262.942 98.0675C263.001 98.102 263.059 98.1388 263.117 98.1711C263.054 98.4958 263.013 98.8296 263.013 99.1797ZM269.387 102.901C269.7 102.33 269.871 101.556 269.871 100.554V99.8659C270.64 99.9327 271.328 99.9995 271.92 100.069C272.044 100.08 272.16 100.103 272.261 100.122C272.093 100.937 271.757 101.427 271.245 101.579C270.7 101.74 270.366 102.169 270.209 102.832C269.954 102.864 269.682 102.885 269.387 102.901ZM288.843 78.3854V78.8598C288.604 78.4569 288.487 77.9479 288.487 77.3238C288.487 77.3077 288.491 77.2939 288.491 77.2801C288.719 77.3676 288.843 77.7222 288.843 78.3854ZM262.552 77.9295C262.552 77.7706 262.704 77.7015 263.013 77.7015C263.773 77.7015 264.231 78.0746 264.383 78.8391C264.535 79.6059 264.618 80.2852 264.618 80.9001C264.618 81.1925 264.579 81.5587 264.514 81.9824C264.093 82.5074 263.784 83.1154 263.586 83.8085C263.478 83.8454 263.367 83.8684 263.243 83.8684C262.939 83.2559 262.635 82.6502 262.329 82.0446C262.02 81.4298 261.878 80.7481 261.878 79.9882C261.878 79.3733 262.182 78.7608 262.79 78.1552C262.785 77.9986 262.707 77.9295 262.552 77.9295ZM256.155 99.1797C255.243 98.7306 254.787 97.7382 254.787 96.2091C255.087 96.0571 255.317 95.8683 255.469 95.6311C255.621 95.41 255.847 95.2972 256.155 95.2972C256.461 95.2972 256.733 95.4492 256.957 95.7508C257.189 96.0548 257.3 96.3634 257.3 96.6674C257.3 97.8902 256.917 98.7283 256.155 99.1797ZM282.092 117.779C281.785 117.323 281.29 116.904 280.604 116.52C279.918 116.147 279.229 115.799 278.543 115.49C277.857 115.189 277.251 114.885 276.719 114.578C276.18 114.275 275.916 113.814 275.916 113.201C275.916 112.444 276.376 112.062 277.288 112.062C278.504 112.062 279.266 112.711 279.572 114C279.879 115.302 280.717 115.944 282.089 115.944C282.391 116.253 282.697 116.485 283.001 116.633C283.307 116.785 283.455 117.015 283.455 117.319C283.31 117.623 282.854 117.779 282.092 117.779ZM288.035 110.691H286.66H286.202V110.463C286.202 110.159 286.237 110.044 286.319 110.118C286.398 110.201 286.437 110.083 286.437 109.779H286.888H288.487C288.942 109.779 289.251 109.931 289.403 110.238C289.099 110.542 288.639 110.691 288.035 110.691ZM300.832 55.0397C300.832 55.118 300.756 55.1548 300.597 55.1548C300.293 55.1548 300.146 55.0397 300.146 54.814C300.146 54.5837 299.989 54.4732 299.687 54.4732H299.459V54.243C299.459 53.787 299.766 53.5613 300.371 53.5613C300.526 53.5613 300.68 53.6027 300.829 53.6718C300.979 53.7501 301.057 54.1693 301.057 54.9269C300.908 54.9223 300.832 54.966 300.832 55.0397Z" fill="#010101"/>
</g>
<defs>
<filter id="filter0_d_159_35026" x="0" y="0" width="338.834" height="273" filterUnits="userSpaceOnUse" color-interpolation-filters="sRGB">
<feFlood flood-opacity="0" result="BackgroundImageFix"/>
<feColorMatrix in="SourceAlpha" type="matrix" values="0 0 0 0 0 0 0 0 0 0 0 0 0 0 0 0 0 0 127 0" result="hardAlpha"/>
<feOffset dy="5"/>
<feGaussianBlur stdDeviation="3"/>
<feComposite in2="hardAlpha" operator="out"/>
<feColorMatrix type="matrix" values="0 0 0 0 0 0 0 0 0 0 0 0 0 0 0 0 0 0 0.28 0"/>
<feBlend mode="normal" in2="BackgroundImageFix" result="effect1_dropShadow_159_35026"/>
<feBlend mode="normal" in="SourceGraphic" in2="effect1_dropShadow_159_35026" result="shape"/>
</filter>
</defs>
</svg>
