<svg width="25" height="25" viewBox="0 0 25 25" fill="none" xmlns="http://www.w3.org/2000/svg">
<path d="M24.3227 20.7862C25.2994 21.7628 25.1714 23.2155 24.1968 24.1922C23.2201 25.1721 21.6946 25.2263 20.7177 24.2505L12.5082 16.0369L4.30289 24.241C3.32718 25.221 1.83403 25.1291 0.858258 24.1525C-0.117457 23.182 -0.215338 21.695 0.760407 20.7183L8.97526 12.5046L0.740771 4.27013C-0.233813 3.29442 -0.253568 1.69387 0.721944 0.718155C1.69766 -0.259702 3.30749 -0.228285 4.27904 0.747209L12.5082 8.97218L20.7611 0.719838C21.7378 -0.25802 23.2393 -0.179893 24.215 0.79584C25.1907 1.76947 25.2928 3.25215 24.3182 4.22792L16.0403 12.5041L24.3227 20.7862Z" fill="#F9AD19"/>
</svg>
