<svg width="17" height="12" viewBox="0 0 17 12" fill="none" xmlns="http://www.w3.org/2000/svg">
<path d="M7.9922 6.6005C8.10323 6.70377 8.24923 6.76109 8.40085 6.76109C8.55247 6.76109 8.69847 6.70377 8.8095 6.6005L15.743 0.163808C15.5104 0.0569227 15.2575 0.00106981 15.0014 0H1.80023C1.54413 0.00107152 1.29124 0.0569262 1.05859 0.163808L7.9922 6.6005Z" fill="#F9AD19"/>
<path d="M9.62592 7.48102C9.29201 7.78868 8.8547 7.95931 8.40065 7.95931C7.94659 7.95931 7.50927 7.78867 7.17537 7.48102L0.195552 0.999756C0.0687113 1.24714 0.00174187 1.52091 0 1.79899V10.1997C0 10.6772 0.189658 11.135 0.52719 11.4727C0.864855 11.8102 1.32265 11.9999 1.80016 11.9999H15.0013C15.4788 11.9999 15.9366 11.8102 16.2743 11.4727C16.6118 11.135 16.8015 10.6772 16.8015 10.1997V1.79899C16.7997 1.52093 16.7328 1.24715 16.6059 0.999756L9.62592 7.48102Z" fill="#F9AD19"/>
</svg>
