<svg width="58" height="46" viewBox="0 0 58 46" fill="none" xmlns="http://www.w3.org/2000/svg">
<path d="M9.83595 44.8256C9.8534 44.6032 9.80187 44.3479 9.7552 44.0914C9.56931 43.0629 9.5608 42.0195 9.52224 40.9801C9.51534 40.7918 9.50154 40.6014 9.51412 40.4139C9.56485 39.6314 9.39399 38.8765 9.24869 38.1159C9.12044 37.445 9.06808 36.7624 8.99299 36.0838C8.87895 35.0423 8.76368 34.0017 8.64639 32.9599C8.60864 32.6246 8.55792 32.2906 8.52139 31.9538C8.50759 31.8304 8.51164 31.696 8.68047 31.6672C8.83714 31.64 8.90087 31.737 8.94308 31.8677C9.09081 32.3215 9.15614 32.7935 9.20484 33.2639C9.34527 34.6093 9.47271 35.9563 9.64115 37.2997C9.8112 38.6492 9.92159 40.0052 9.99424 41.3644C10.0015 41.5061 10.0336 41.6473 10.0584 41.7881C10.0645 41.8243 10.0718 41.8726 10.1233 41.8701C10.1712 41.8681 10.1809 41.8218 10.1874 41.7849C10.2138 41.6181 10.2402 41.4509 10.2629 41.2828C10.452 39.8652 10.6692 38.4499 10.6798 37.0132C10.6826 36.639 10.7175 36.2595 10.8129 35.891C10.8242 35.8472 10.8311 35.8009 10.851 35.7603C10.9018 35.6532 10.9671 35.531 11.0957 35.5408C11.226 35.5497 11.2207 35.6954 11.2386 35.7908C11.2686 35.9555 11.2902 36.1256 11.293 36.294C11.3072 37.2863 11.4882 38.2616 11.6112 39.2422C11.7033 39.9845 11.791 40.7276 11.8766 41.4704C11.914 41.7869 11.9395 42.1051 11.9752 42.4213C11.9842 42.5012 11.9777 42.6315 12.0654 42.6356C12.1587 42.6404 12.1563 42.5098 12.1672 42.4326C12.2297 41.9761 12.2947 41.5186 12.3401 41.0592C12.4948 39.4508 12.498 37.8351 12.582 36.2238C12.6575 34.7688 12.778 33.3154 12.8779 31.8612C12.8856 31.7573 12.8986 31.6559 13.0244 31.6445C13.1498 31.6323 13.2533 31.6867 13.3186 31.7975C13.3556 31.8612 13.36 31.9335 13.3556 32.0057C13.166 35.2607 13.037 38.5189 12.7833 41.7707C12.6871 43.0033 12.5142 44.2282 12.3324 45.4498C12.293 45.7128 12.1469 45.8873 11.8953 45.9746C11.7248 46.0338 11.6355 45.9863 11.6051 45.8037C11.5921 45.7274 11.5937 45.6483 11.5929 45.5699C11.5836 43.7988 11.4809 42.0317 11.3356 40.267C11.31 39.9569 11.2877 39.644 11.2074 39.34C11.1928 39.2864 11.1964 39.204 11.1209 39.2048C11.0223 39.2057 11.0536 39.2994 11.0442 39.3566C10.7187 41.31 10.5722 43.2825 10.4241 45.2546C10.4188 45.3264 10.4074 45.3966 10.3969 45.4673C10.379 45.5894 10.3189 45.6742 10.187 45.6848C10.0559 45.6953 9.96138 45.6373 9.90497 45.518C9.838 45.3828 9.82012 45.2201 9.83595 44.8256Z" fill="#010101"/>
<path d="M27.6789 45.9953C27.4444 45.9953 27.2098 45.997 26.976 45.9945C26.7231 45.9917 26.6473 45.8975 26.6943 45.6496C26.8583 44.7879 27.0381 43.9283 27.1858 43.0634C27.3819 41.9225 27.5556 40.7776 27.7362 39.6343C27.8965 38.6197 28.0568 37.6042 28.2399 36.5932C28.4667 35.3391 28.6859 34.0842 28.9022 32.8289C28.9517 32.5395 28.8896 32.4745 28.6003 32.4753C28.2033 32.4758 27.8076 32.481 27.4099 32.4839C27.3709 32.4839 27.3315 32.4835 27.2934 32.4782C27.1481 32.4575 26.9723 32.4725 26.9594 32.2623C26.9476 32.0938 27.1026 31.9749 27.3258 31.9721C27.4756 31.9701 27.6254 31.9664 27.7747 31.9814C28.2675 32.0309 28.7577 32.0524 29.248 31.9498C29.3048 31.9368 29.3653 31.9356 29.4225 31.9433C29.5642 31.9632 29.6441 32.0869 29.5942 32.2014C29.3495 32.7672 29.2314 33.3686 29.123 33.9693C28.8271 35.6143 28.595 37.2681 28.2938 38.9123C28.0162 40.429 27.7845 41.9534 27.5803 43.4819C27.5089 44.0156 27.3522 44.5387 27.3957 45.085C27.4001 45.143 27.3985 45.2019 27.4018 45.2603C27.4135 45.4312 27.4951 45.5189 27.6761 45.5148C28.0406 45.5063 28.405 45.5067 28.7695 45.503C28.8462 45.5026 28.9274 45.486 28.9988 45.5262C29.0869 45.5761 29.1303 45.6552 29.1064 45.7551C29.0751 45.8878 28.9761 45.9406 28.8478 45.9531C28.459 45.9909 28.0694 46.0075 27.6789 45.9953Z" fill="#010101"/>
<path d="M23.4826 41.1829C23.5232 42.633 23.5629 44.084 23.6015 45.5341C23.6039 45.6177 23.606 45.705 23.5849 45.7849C23.5512 45.918 23.4546 45.9992 23.3166 45.9992C23.1782 45.9992 23.1181 45.8937 23.0808 45.776C23.0467 45.6656 23.084 45.5564 23.084 45.446C23.0877 44.2682 23.1486 43.0868 23.0743 41.9146C23.0086 40.8671 23.0658 39.8204 22.9947 38.7761C22.9838 38.6081 23.0017 38.4385 23.0625 38.2769C23.0824 38.2238 23.099 38.1572 23.0844 38.1052C22.9805 37.7327 23.0199 37.3516 23.0625 36.9806C23.1368 36.3316 23.0252 35.6952 22.9882 35.0544C22.9351 34.1246 22.9408 33.1935 22.9144 32.2641C22.9099 32.0839 22.9083 31.8988 23.0073 31.7328C23.1417 31.5072 23.3202 31.4467 23.5556 31.5595C23.6433 31.6013 23.7334 31.5883 23.8239 31.5936C24.173 31.6123 24.5261 31.5567 24.8694 31.6728C25.0042 31.7178 25.1146 31.7746 25.091 31.9414C25.0679 32.1074 24.9839 32.2239 24.8004 32.2211C24.4429 32.2158 24.0841 32.2264 23.7277 32.1841C23.4189 32.1476 23.3198 32.2389 23.345 32.5535C23.4051 33.3181 23.455 34.0848 23.5495 34.8462C23.5711 35.0134 23.6376 35.1149 23.8182 35.1112C23.9388 35.1084 24.048 35.1546 24.1567 35.1956C24.289 35.2456 24.4116 35.4607 24.3726 35.5755C24.3223 35.7269 24.1884 35.7509 24.0553 35.7472C23.6827 35.7395 23.6802 35.7354 23.5873 36.1015C23.5134 36.3913 23.4761 36.6847 23.4647 36.9867C23.4132 38.3861 23.4781 39.7843 23.4826 41.1829Z" fill="#010101"/>
<path d="M20.7237 37.286C20.757 38.8733 20.7895 40.4614 20.8232 42.0488C20.8276 42.2521 20.8101 42.4502 20.7383 42.6438C20.6929 42.7663 20.6933 42.8994 20.6993 43.0301C20.7245 43.6219 20.7314 44.214 20.7225 44.8066C20.716 45.279 20.8783 45.4507 21.3512 45.4884C21.4741 45.4986 21.5975 45.5083 21.7209 45.5197C21.8711 45.5347 22.001 45.5919 21.9945 45.7628C21.988 45.928 21.8569 45.9917 21.7083 45.9974C21.5265 46.0035 21.3439 45.9978 21.1616 45.9888C20.9477 45.9775 20.7342 45.9495 20.5195 45.9426C20.317 45.9361 20.2274 45.8184 20.2006 45.6406C20.1815 45.512 20.1742 45.3813 20.175 45.2518C20.1867 43.7814 20.1953 42.3097 20.2196 40.8397C20.2282 40.3519 20.2492 39.864 20.3304 39.3802C20.3962 38.9886 20.2777 38.6038 20.2322 38.2179C20.1705 37.6988 20.136 37.1845 20.2006 36.6626C20.2943 35.9036 20.2736 35.1422 20.2342 34.3808C20.1928 33.6008 20.2135 32.8191 20.2034 32.0386C20.201 31.8881 20.3284 31.7635 20.4887 31.7594C20.6385 31.7549 20.6356 31.8795 20.6535 31.9794C20.7643 32.5723 20.7359 33.1734 20.7326 33.7712C20.7261 34.9426 20.6986 36.1139 20.7237 37.286Z" fill="#010101"/>
<path d="M17.9954 38.5505C18.0145 37.9279 17.9166 37.3024 17.9288 36.6794C17.9467 35.7634 17.9308 34.8466 17.9544 33.78C17.9033 33.3818 17.8635 32.8282 17.6533 32.3087C17.5632 32.0896 17.4467 31.8879 17.247 31.747C17.1427 31.6732 17.0315 31.6208 16.9004 31.6492C16.7494 31.6829 16.598 31.7243 16.447 31.762C16.1686 31.8323 15.9811 32.0003 15.8736 32.269C15.5923 32.9683 15.471 33.6891 15.5152 34.444C15.5915 35.7569 15.5915 37.0711 15.5728 38.3861C15.5643 38.9961 15.5136 39.6053 15.6106 40.2169C15.6633 40.5493 15.6771 40.8894 15.639 41.2291C15.5797 41.7815 15.6073 42.3363 15.6601 42.8863C15.7124 43.4342 15.6045 43.9845 15.7238 44.53C15.7851 44.8088 15.8115 45.0949 15.9243 45.3616C16.0444 45.6416 16.2189 45.8681 16.525 45.9586C17.1845 46.1567 17.9219 45.599 17.9065 44.9131C17.8919 44.2747 17.8809 43.6367 17.9252 43.0007C18.0275 41.5181 17.9479 40.0335 17.9954 38.5505ZM17.5668 38.294C17.5108 39.2408 17.6021 40.182 17.5347 41.1248C17.4674 42.0721 17.4727 43.0238 17.4463 43.974C17.4406 44.1749 17.4365 44.3778 17.4406 44.5787C17.4475 44.8604 17.3217 45.0828 17.1285 45.2678C16.8419 45.5422 16.4093 45.4257 16.2883 45.0467C16.212 44.8108 16.184 44.5641 16.156 44.3194C16.0615 43.5093 16.0745 42.6955 16.0733 41.8822C16.0724 40.7961 16.0724 39.7092 16.0724 38.6227H16.0493C16.0493 37.132 16.0465 35.6417 16.0521 34.1521C16.0538 33.6562 16.1256 33.1712 16.2835 32.6967C16.3752 32.4199 16.596 32.316 16.8095 32.1874C16.8639 32.1545 16.9061 32.2004 16.9503 32.2255C17.26 32.3992 17.3428 32.7114 17.4325 33.0178C17.5291 33.3457 17.5567 33.6858 17.5372 34.0223C17.456 35.4489 17.6496 36.8751 17.5668 38.294Z" fill="#010101"/>
<path d="M42.5592 41.8385C42.6115 41.4785 42.6517 41.1327 42.7138 40.7902C42.9792 39.2978 43.0003 37.7832 43.1331 36.2799C43.1497 36.0993 43.1765 35.9187 43.2621 35.7551C43.2994 35.6845 43.3579 35.6159 43.4492 35.6159C43.5596 35.6159 43.5592 35.7182 43.5868 35.7896C43.6663 36.0063 43.6708 36.236 43.6741 36.4605C43.6875 37.5056 43.9018 38.5279 44.0121 39.5613C44.1022 40.4067 44.2029 41.2521 44.2975 42.0958C44.3186 42.2793 44.3173 42.4684 44.444 42.6604C44.5422 42.4976 44.5531 42.3438 44.5706 42.1961C44.6911 41.1989 44.7873 40.1993 44.8263 39.1952C44.9184 36.8164 45.0154 34.4377 45.2204 32.0658C45.2338 31.9161 45.2123 31.7407 45.4525 31.7525C45.6823 31.7635 45.7082 31.9108 45.6977 32.0906C45.6555 32.8406 45.6132 33.5907 45.5727 34.3403C45.4619 36.3923 45.3632 38.4443 45.2399 40.4959C45.1412 42.1401 44.9363 43.7745 44.7025 45.4044C44.6692 45.637 44.5828 45.8415 44.3527 45.9523C44.1238 46.0611 43.9825 45.9848 43.9728 45.7287C43.9525 45.2408 43.9448 44.7518 43.9277 44.2631C43.8754 42.7809 43.8145 41.2971 43.6513 39.8206C43.6314 39.6339 43.614 39.4476 43.4975 39.2686C43.3794 39.4001 43.39 39.5531 43.3697 39.6895C43.0917 41.4972 42.9573 43.3207 42.8096 45.1426C42.799 45.2506 42.7966 45.3602 42.7787 45.4661C42.7572 45.5943 42.6874 45.6845 42.5466 45.6893C42.411 45.6946 42.3209 45.6252 42.282 45.4998C42.2544 45.4141 42.2199 45.322 42.2272 45.2356C42.2694 44.697 42.1334 44.1775 42.0673 43.6499C41.9179 42.4721 41.9126 41.2833 41.9013 40.0986C41.8948 39.4204 41.7349 38.7735 41.6289 38.1148C41.4471 36.9881 41.3627 35.8505 41.2344 34.7177C41.1419 33.908 41.0599 33.0992 40.9374 32.2927C40.9215 32.1945 40.9183 32.0951 40.9134 31.996C40.9061 31.8739 40.9451 31.7781 41.0802 31.7594C41.2081 31.7407 41.2815 31.8081 41.3249 31.925C41.4288 32.2164 41.4918 32.5188 41.5263 32.8232C41.6362 33.7851 41.7312 34.7482 41.8363 35.7101C41.9723 36.9698 42.1415 38.2256 42.2369 39.489C42.2872 40.1477 42.3343 40.8068 42.3867 41.4651C42.396 41.5942 42.3696 41.7423 42.5592 41.8385Z" fill="#010101"/>
<path d="M32.0733 36.7814C32.0412 38.0156 31.9661 39.1901 31.9827 40.3671C31.9868 40.6293 32.025 40.8899 32.0505 41.1504C32.0773 41.4337 32.2567 41.5595 32.5209 41.5835C32.8578 41.6127 33.191 41.5782 33.5185 41.5039C33.8014 41.4402 33.8014 41.2125 33.7998 40.9897C33.7941 40.3022 33.7827 39.6142 33.7811 38.9267C33.7791 36.8443 33.7008 34.7654 33.5356 32.6891C33.5226 32.5255 33.5169 32.3611 33.5782 32.2069C33.6176 32.1115 33.6898 32.036 33.8059 32.0458C33.9224 32.0559 33.9763 32.1351 33.9873 32.2467C33.9938 32.3096 34.0076 32.3729 34.0104 32.4354C34.1099 34.36 34.2649 36.2821 34.2726 38.2104C34.2738 38.6353 34.2178 39.0594 34.2073 39.484C34.1987 39.816 34.2178 40.1423 34.2787 40.4771C34.342 40.8306 34.2738 41.2109 34.2905 41.5815C34.342 42.7921 34.2438 44.006 34.3014 45.2175C34.31 45.3957 34.2686 45.5771 34.2401 45.7561C34.2215 45.8685 34.2101 46.0053 34.0437 45.9992C33.8972 45.9923 33.8059 45.8998 33.7819 45.765C33.7547 45.6059 33.7422 45.4412 33.7397 45.2788C33.7251 44.4647 33.7166 43.6509 33.706 42.836C33.704 42.7544 33.7052 42.6732 33.6987 42.5916C33.6646 42.1184 33.6155 42.0746 33.137 42.0949C32.9467 42.1034 32.7575 42.1143 32.5688 42.1298C32.176 42.1626 32.1102 42.2329 32.1078 42.6391C32.1025 43.4991 32.1025 44.3583 32.0993 45.2179C32.0988 45.3356 32.1029 45.4546 32.0834 45.5698C32.0392 45.8438 31.8776 45.903 31.6694 45.7253C31.4917 45.5723 31.4393 45.3673 31.4426 45.1396C31.4693 43.4301 31.4945 41.7198 31.5209 40.0091C31.5253 39.7376 31.5335 39.4681 31.4677 39.1999C31.4129 38.9726 31.5501 38.7595 31.544 38.531C31.5294 37.9157 31.5331 37.3009 31.5132 36.6852C31.4827 35.7712 31.4519 34.8588 31.5254 33.9448C31.5676 33.4119 31.4616 32.879 31.531 32.3453C31.5396 32.2828 31.5396 32.2187 31.5481 32.1558C31.5651 32.0271 31.6288 31.9228 31.7636 31.9167C31.8931 31.911 31.9357 32.0222 31.969 32.1322C32.0842 32.5068 32.1435 32.8932 32.1211 33.2824C32.0582 34.4684 32.0651 35.6535 32.0733 36.7814Z" fill="#010101"/>
<path d="M48.3987 32.4403C48.4482 32.8372 48.4397 33.2358 48.4304 33.6339C48.3768 36.3674 48.5043 39.0992 48.4945 41.831C48.4909 42.8185 48.4267 43.8112 48.4186 44.8028C48.4166 45.0982 48.5002 45.3361 48.7786 45.4765C48.8975 45.5244 49.0221 45.5337 49.1488 45.5337C49.2206 45.5337 49.2937 45.5305 49.3659 45.5357C49.5238 45.5463 49.667 45.6064 49.6658 45.7809C49.665 45.9509 49.51 45.9903 49.3716 45.9911C49.1094 45.9931 48.8472 46.0155 48.5858 45.9777C48.5684 45.9753 48.5509 45.9716 48.5327 45.9696C47.9458 45.9156 47.9182 45.8734 47.906 45.276C47.8744 43.7029 47.9645 42.1306 47.9697 40.5579C47.9705 40.1719 47.9811 39.7839 48.0359 39.3971C48.0866 39.0379 48.0298 38.6706 47.9697 38.3196C47.8573 37.6694 47.8946 37.0314 47.9636 36.382C48.0351 35.718 47.9978 35.0455 47.9787 34.3774C47.9702 34.0885 47.9608 33.7995 47.9641 33.5105C47.9697 33.0677 47.9474 32.6253 47.932 32.1834C47.9267 32.019 47.9827 31.9208 48.1467 31.8989C48.3452 31.8733 48.3139 32.0413 48.3537 32.1501C48.3902 32.2442 48.3419 32.3506 48.3987 32.4403Z" fill="#010101"/>
<path d="M48.3988 32.4137C48.3647 32.3017 48.3294 32.1905 48.2965 32.078C48.2738 32.0005 48.2661 31.9084 48.1512 31.9189C48.0449 31.9295 47.9873 31.9944 47.9808 32.0967C47.9731 32.1962 47.971 32.2968 47.9759 32.3954C48.053 33.7331 48.0153 35.0725 48.0108 36.411C48.01 36.6793 47.9341 36.9463 47.9183 37.2166C47.8903 37.7069 48.025 38.185 48.0534 38.672C48.0737 39.0158 48.096 39.3579 48.0477 39.6997C48.0331 39.7983 48.0222 39.8973 48.0222 39.9972C48.0266 41.7606 47.9333 43.5233 47.9593 45.2875C47.967 45.8054 47.9856 45.8241 48.495 45.8935C48.7742 45.9329 49.0531 45.9495 49.3335 45.9333C49.4605 45.9272 49.6148 45.9032 49.6119 45.7397C49.6079 45.5712 49.452 45.5712 49.3238 45.5627C49.1371 45.5505 48.941 45.5777 48.7783 45.4483C48.9674 45.4527 49.1586 45.4515 49.3465 45.4645C49.517 45.4763 49.6846 45.5201 49.689 45.7344C49.6923 45.954 49.523 45.999 49.3514 45.999C49.0259 45.999 48.7 45.9954 48.3753 45.9706C47.98 45.9402 47.87 45.8156 47.8688 45.4178C47.8615 44.0602 47.8947 42.7038 47.9069 41.3471C47.9142 40.4513 48.1038 39.5511 47.9577 38.6655C47.7308 37.2885 48.0469 35.9219 47.9467 34.5501C47.8919 33.7928 47.9069 33.031 47.8919 32.2712C47.8899 32.1901 47.8899 32.1081 47.9033 32.0281C47.9309 31.8755 48.0611 31.8341 48.1861 31.8163C48.3201 31.798 48.3416 31.9218 48.3708 32.0111C48.413 32.1413 48.4219 32.2777 48.3988 32.4137Z" fill="#010101"/>
<path d="M38.9533 38.8312C38.98 37.5146 38.8189 36.194 38.9066 35.1026C38.8875 34.0311 38.9106 33.187 38.5941 32.3821C38.3489 31.7608 37.8834 31.5773 37.286 31.8797C37.038 32.0047 36.889 32.2194 36.7876 32.467C36.5623 33.0096 36.4633 33.5782 36.4755 34.1639C36.495 34.9967 36.5534 35.8295 36.5368 36.6615C36.5006 38.5975 36.5912 40.531 36.596 42.4661C36.5993 42.8553 36.652 43.2445 36.6386 43.6321C36.6216 44.1358 36.6743 44.6298 36.7973 45.1119C36.8996 45.5149 37.068 45.8924 37.5478 45.9796C38.2491 46.1083 38.8648 45.5868 38.8591 44.8566C38.8563 44.4321 38.8096 44.0059 38.8457 43.581C38.9792 42.0014 38.9212 40.4145 38.9533 38.8312ZM38.491 39.8276C38.5157 41.4393 38.4679 43.0489 38.3838 44.6594C38.3782 44.7779 38.3571 44.8879 38.2962 44.995C38.1038 45.3327 37.9017 45.4788 37.6464 45.4265C37.3274 45.3623 37.2324 45.1249 37.1866 44.8343C37.0262 43.8464 37.0222 42.8517 37.0214 41.8565C37.0205 40.798 37.0214 39.7387 37.0214 38.6794H37.0108C37.0108 37.2045 37.0128 35.7284 37.0096 34.2527C37.0076 33.7787 37.0778 33.316 37.2105 32.8631C37.2385 32.7689 37.2803 32.6756 37.3331 32.5924C37.577 32.204 37.9187 32.1881 38.1639 32.5733C38.3798 32.9134 38.4849 33.2982 38.4861 33.7032C38.4885 34.672 38.4524 35.6424 38.4934 36.6092C38.5397 37.6831 38.4739 38.7545 38.491 39.8276Z" fill="#010101"/>
<path d="M11.5203 20.7424C11.4667 20.7424 11.4334 20.7489 11.4188 20.7635C11.4062 20.7773 11.3729 20.7826 11.3189 20.7826C11.2645 20.8094 11.2256 20.8236 11.1976 20.8236C11.1976 20.9311 11.2118 21.0241 11.239 21.1057C11.2922 21.0521 11.3604 21.0379 11.4395 21.0651C11.5203 21.0911 11.588 21.0651 11.642 20.9843C11.6688 20.9571 11.6822 20.9031 11.6822 20.8236C11.6818 20.7696 11.6274 20.7424 11.5203 20.7424Z" fill="#010101"/>
<path d="M44.5313 21.6093C44.7326 21.5423 44.9193 21.462 45.0946 21.367C45.27 21.2736 45.3568 21.1454 45.3568 20.9851C45.3568 20.8779 45.3098 20.77 45.2152 20.662C45.1214 20.5545 44.994 20.5017 44.8337 20.5017C44.6713 20.5017 44.5646 20.548 44.5118 20.6425C44.4562 20.7367 44.3353 20.7834 44.1482 20.7834C44.0191 20.7834 43.8706 20.7862 43.7082 20.7911L43.4505 21.7485C43.4854 21.744 43.5049 21.7315 43.5049 21.7099V21.6698H43.5451C43.5974 21.6698 43.6388 21.684 43.6656 21.7099C43.6916 21.7375 43.7456 21.7497 43.8263 21.7497C43.7996 21.7497 43.8596 21.7449 44.0078 21.7306C44.1555 21.716 44.3296 21.6763 44.5313 21.6093Z" fill="#010101"/>
<path d="M57.361 0.641661C57.1986 0.507322 57.0042 0.414377 56.7769 0.359586C56.548 0.306824 56.3061 0.273147 56.0517 0.259347C55.7968 0.246766 55.5614 0.239864 55.3467 0.239864C55.1324 0.239864 54.9169 0.247172 54.7022 0.259347C54.4875 0.273147 54.2724 0.279635 54.0577 0.279635C53.8698 0.279635 53.6888 0.266651 53.5138 0.239864C53.3401 0.213078 53.1571 0.198867 52.9708 0.198867C52.8628 0.198867 52.7687 0.213078 52.6879 0.239864C52.6083 0.266651 52.5126 0.279635 52.4062 0.279635H52.2057C52.125 0.279635 52.0706 0.293437 52.0438 0.320224C51.722 0.239864 51.3993 0.198867 51.0775 0.198867C50.6481 0.198867 50.2377 0.266647 49.8493 0.400174C49.4597 0.53492 49.1573 0.750031 48.9422 1.04468C48.9154 1.34056 48.8489 1.60273 48.7421 1.83042C48.6338 2.05932 48.5656 2.3211 48.54 2.61616C48.4592 2.69693 48.413 2.81788 48.3988 2.9786C48.3858 3.14013 48.3716 3.30045 48.359 3.46198C48.3444 3.62311 48.3188 3.77205 48.2778 3.90558C48.2377 4.04073 48.1504 4.13367 48.0164 4.18725C47.9621 4.34837 47.9353 4.51032 47.9353 4.67063C47.9353 4.83216 47.9621 4.99369 48.0164 5.15441C47.9621 5.28915 47.8951 5.40969 47.8143 5.51644C47.7332 5.6248 47.6934 5.74494 47.6934 5.87887C47.6934 6.14755 47.6536 6.38985 47.5724 6.60415C47.4925 6.81966 47.4259 7.06073 47.3715 7.32941C47.3715 7.70605 47.2908 8.03521 47.1301 8.31688C46.9693 8.59814 46.8877 8.87452 46.8877 9.14198C46.8877 9.22275 46.9007 9.29012 46.9279 9.3441C46.7928 9.58518 46.7404 9.87416 46.7672 10.2094C46.7725 10.278 46.7709 10.3413 46.7648 10.4018C46.6568 10.3916 46.5509 10.3762 46.4458 10.3563C46.2445 10.3161 46.0497 10.2962 45.8621 10.2962C45.6738 10.2962 45.4997 10.3364 45.3382 10.4168C45.231 10.39 45.1227 10.3766 45.0167 10.3766C44.908 10.3766 44.7878 10.3766 44.6531 10.3766C44.3572 10.3766 44.0626 10.4103 43.7671 10.4769C43.4712 10.5442 43.2025 10.5779 42.9619 10.5779C42.8271 10.5779 42.6932 10.5511 42.5589 10.498C42.4241 10.4436 42.2898 10.4168 42.1558 10.4168C42.0215 10.4168 41.9002 10.4436 41.7934 10.498C41.6855 10.5511 41.5783 10.6047 41.4716 10.6587C41.3904 10.6051 41.2893 10.5649 41.1692 10.5381C41.0478 10.5105 40.92 10.498 40.7865 10.498C40.5446 10.498 40.2893 10.5235 40.021 10.5779C39.9662 10.5235 39.8457 10.498 39.6586 10.498C39.4435 10.498 39.3091 10.5105 39.2556 10.5381C39.1204 10.5105 38.9739 10.498 38.812 10.498C38.6614 10.498 38.5116 10.498 38.361 10.498C38.3805 10.2853 38.4231 10.1351 38.4893 10.0499C38.5835 9.92854 38.6707 9.72074 38.7515 9.42527C38.831 9.07623 38.9049 8.73409 38.9735 8.39763C39.04 8.06199 39.1261 7.70687 39.2344 7.33023C39.2608 7.22349 39.2949 7.08266 39.3343 6.90692C39.3757 6.73281 39.4284 6.55138 39.4966 6.36306C39.5636 6.17677 39.6302 6.00063 39.6971 5.84031C39.7641 5.67919 39.8392 5.57164 39.92 5.51725C39.866 5.43689 39.8392 5.31554 39.8392 5.15523C39.8392 5.0217 39.8595 4.88654 39.8992 4.7522C39.9394 4.61868 39.9727 4.48353 39.9995 4.34919C40.1614 4.29562 40.2617 4.18806 40.3019 4.02694C40.3416 3.86622 40.3619 3.6986 40.3619 3.52327C40.3619 3.34996 40.3684 3.17464 40.3826 3.00052C40.3956 2.82641 40.4561 2.69775 40.564 2.61698C40.6976 2.48345 40.7771 2.26835 40.8055 1.97329C40.8311 1.67742 40.8457 1.42213 40.8457 1.20824C40.8457 0.965536 40.7666 0.778435 40.6042 0.643284C40.4423 0.508944 40.2475 0.416 40.0202 0.361209C39.7913 0.308447 39.5494 0.274769 39.2949 0.26097C39.0401 0.248388 38.8043 0.241487 38.59 0.241487C38.3749 0.241487 38.1601 0.248794 37.945 0.26097C37.7307 0.274769 37.5156 0.281258 37.3009 0.281258C37.113 0.281258 36.932 0.268274 36.7563 0.241487C36.5826 0.2147 36.3999 0.20049 36.2136 0.20049C36.1061 0.20049 36.0119 0.2147 35.9312 0.241487C35.8516 0.268274 35.7554 0.281258 35.6495 0.281258H35.449C35.3674 0.281258 35.3139 0.29506 35.2871 0.321846C34.9652 0.241486 34.6421 0.20049 34.3207 0.20049C33.8909 0.20049 33.481 0.268269 33.0926 0.401797C32.7029 0.536542 32.4006 0.751653 32.1855 1.04631C32.1587 1.34218 32.0921 1.60437 31.985 1.83205C31.877 2.06096 31.8088 2.32273 31.7829 2.61779C31.7025 2.69855 31.6558 2.8195 31.642 2.98022C31.6291 3.14175 31.6148 3.30207 31.6014 3.4636C31.5876 3.62473 31.5621 3.77368 31.5207 3.9072C31.4805 4.04235 31.3937 4.1353 31.2597 4.18887C31.2053 4.35 31.1781 4.51194 31.1781 4.67225C31.1781 4.83378 31.2053 4.99531 31.2597 5.15603C31.2053 5.29078 31.1384 5.41133 31.0572 5.51807C30.976 5.62643 30.9362 5.74656 30.9362 5.88049C30.9362 6.14917 30.8969 6.39148 30.8157 6.60577C30.7358 6.82128 30.6692 7.06236 30.6148 7.33104C30.6148 7.70767 30.534 8.03683 30.3729 8.3185C30.2122 8.59976 30.131 8.87615 30.131 9.14361C30.131 9.22437 30.1436 9.29175 30.1712 9.34573C30.036 9.58681 29.9833 9.87578 30.0105 10.211C30.036 10.5471 29.9293 10.7821 29.6874 10.9164C29.6874 11.3734 29.6476 11.7565 29.5665 12.0646C29.4869 12.3738 29.3518 12.6758 29.1643 12.9705C29.2183 13.186 29.245 13.3341 29.245 13.4141C29.245 13.7363 29.1448 13.9782 28.9427 14.1389C28.7406 14.2997 28.6265 14.5281 28.6001 14.824C28.5198 14.9316 28.4524 14.9851 28.3988 14.9851C28.3444 14.9851 28.2856 14.9247 28.2174 14.8033C28.1508 14.6824 28.0628 14.6089 27.9556 14.5821C27.9292 14.3938 27.8205 14.2858 27.633 14.2599C27.4455 14.2339 27.3241 14.1523 27.2713 14.0188C27.3241 13.9916 27.3509 13.9307 27.3509 13.8366C27.3509 13.7436 27.3911 13.6957 27.4722 13.6957V13.5744V13.091C27.4722 12.9303 27.4455 12.8231 27.3911 12.7687C27.2575 12.608 27.1841 12.4213 27.1695 12.2054C27.1573 11.9907 27.124 11.7894 27.0696 11.6015C26.9889 11.4663 26.9012 11.3539 26.807 11.2585C26.7133 11.1652 26.667 11.0365 26.667 10.8762C26.667 10.8227 26.6796 10.7557 26.7072 10.6749C26.7336 10.5946 26.7486 10.5276 26.7486 10.4728C26.7486 10.2857 26.7072 10.1051 26.6272 9.92935C26.5465 9.75524 26.5047 9.56124 26.5047 9.34573C26.3711 9.26537 26.2904 9.16391 26.2632 9.04296C26.2376 8.92242 26.2169 8.78158 26.2031 8.62045C26.1901 8.45933 26.1775 8.3055 26.1642 8.15655C26.1499 8.00923 26.1025 7.8688 26.0225 7.73406C25.8874 7.68049 25.8204 7.53235 25.8204 7.29127V7.00919C25.8204 6.82168 25.7806 6.68776 25.6999 6.60618V6.48563C25.6999 6.21695 25.6394 6.00225 25.5196 5.84194C25.3971 5.68081 25.337 5.4925 25.337 5.2778V5.19662C25.337 5.00911 25.3102 4.86178 25.2575 4.75383C25.2019 4.64627 25.1491 4.51275 25.0955 4.35081C24.9888 4.21607 24.9409 4.04885 24.9539 3.84795C24.9685 3.64583 24.9218 3.47821 24.8134 3.34428C24.8134 2.94126 24.7392 2.61861 24.5927 2.37793C24.4445 2.13523 24.3711 1.82759 24.3711 1.45054C24.3711 1.28982 24.311 1.12829 24.19 0.967162C24.0687 0.806847 23.9404 0.672503 23.8065 0.564138C23.673 0.457397 23.5309 0.369733 23.3844 0.301955C23.2371 0.2358 23.1494 0.201307 23.1222 0.201307C22.9871 0.201307 22.86 0.220783 22.7387 0.261775C22.6177 0.301549 22.5037 0.322651 22.397 0.322651C21.7797 0.269078 21.1745 0.220787 20.584 0.181824C19.9935 0.140021 19.3749 0.120539 18.732 0.120539C18.5157 0.120539 18.2945 0.154635 18.0664 0.22079C17.8375 0.288569 17.6293 0.322651 17.4414 0.322651H17.4012C17.3477 0.537351 17.2405 0.711881 17.0798 0.845409C16.9179 0.980966 16.7827 1.15548 16.676 1.36978C16.5152 1.50452 16.4471 1.70542 16.4751 1.97409C16.501 2.24196 16.4751 2.45747 16.3943 2.61779C16.3151 2.80651 16.2336 3.00132 16.1524 3.20223C16.0729 3.40272 16.0047 3.61174 15.9519 3.82684C15.8707 4.04236 15.8375 4.30292 15.8513 4.61218C15.8643 4.92063 15.7628 5.16984 15.5481 5.35694C15.5221 5.41133 15.5144 5.47869 15.5286 5.55865C15.5412 5.63941 15.5079 5.70719 15.4271 5.75995C15.4271 5.89429 15.4409 5.98886 15.4681 6.04244C15.4953 6.09601 15.5083 6.18976 15.5083 6.3237C15.5083 6.48482 15.4815 6.57858 15.4275 6.60536C15.2936 6.68653 15.1917 6.82088 15.1264 7.00839C15.0582 7.1963 15.0119 7.41221 14.9848 7.65288C14.958 7.89477 14.9308 8.14275 14.904 8.39763C14.8772 8.65373 14.8244 8.88832 14.7441 9.10221C14.6889 9.13062 14.6345 9.21788 14.5821 9.3644C14.5282 9.51254 14.4819 9.68664 14.4409 9.88836C14.4007 10.0905 14.3528 10.2849 14.3001 10.472C14.2461 10.6607 14.1779 10.8084 14.0983 10.9156C14.0716 10.9696 14.0582 11.0236 14.0582 11.0771C14.0582 11.1571 14.0712 11.2314 14.0983 11.2975C14.1251 11.3649 14.1385 11.4391 14.1385 11.5191C14.1649 11.7882 14.0923 11.9968 13.9169 12.1433C13.7416 12.2914 13.6556 12.4997 13.6556 12.7675C13.6556 13.1174 13.6016 13.548 13.494 14.0569C13.3865 14.5683 13.2663 14.8776 13.1324 14.9843C12.9169 14.9843 12.7553 14.9511 12.6486 14.8825C12.5406 14.8163 12.4611 14.7368 12.4067 14.6418C12.3528 14.548 12.3053 14.4673 12.2663 14.3999C12.2253 14.3329 12.1648 14.2988 12.0841 14.2988C11.9769 14.2988 11.8694 14.3459 11.7626 14.4405C11.6543 14.535 11.5463 14.5951 11.4392 14.6215C11.3324 14.5687 11.2253 14.5407 11.1177 14.5407C11.0098 14.5407 10.9562 14.475 10.9562 14.3398C10.9562 14.0983 11.0909 13.9774 11.36 13.9774C11.6275 13.9774 11.8694 13.9506 12.0841 13.8966C12.0301 13.7087 12.0106 13.5078 12.0248 13.2923C12.037 13.078 11.9899 12.9031 11.8832 12.7679C11.8832 12.554 11.8227 12.3795 11.7018 12.2452C11.5808 12.1108 11.4931 11.9493 11.4392 11.7618C11.4663 11.6814 11.481 11.5747 11.481 11.44C11.481 11.1981 11.4266 10.9704 11.319 10.7553C11.2119 10.5406 11.1579 10.2991 11.1579 10.03C11.1579 9.89647 11.1709 9.8015 11.1981 9.74833C11.0633 9.69476 10.9899 9.58641 10.9773 9.42609C10.9627 9.26537 10.8766 9.15822 10.7151 9.10302C10.7151 8.99628 10.7289 8.90212 10.7561 8.82135C10.7829 8.74099 10.7959 8.66104 10.7959 8.58027V8.41874C10.7959 8.36516 10.8105 8.32539 10.8361 8.2982C10.8633 8.27222 10.8775 8.23124 10.8775 8.17685C10.8775 7.96256 10.8109 7.76896 10.677 7.59322C10.5418 7.41911 10.4748 7.14394 10.4748 6.7669V6.48523C10.3669 6.40447 10.3068 6.29081 10.2938 6.14268C10.2792 5.99494 10.2191 5.86791 10.1124 5.75995C10.1652 5.59883 10.1936 5.49168 10.1936 5.4377C10.1936 5.2506 10.1518 5.07527 10.071 4.91374C9.99146 4.75302 9.95169 4.5781 9.95169 4.39099V4.18887C9.95169 3.921 9.91636 3.65882 9.8498 3.40273C9.78324 3.14866 9.70209 2.89946 9.60793 2.65878C9.51418 2.4173 9.4342 2.16161 9.36561 1.89293C9.29905 1.62466 9.26578 1.31579 9.26578 0.966753C9.05108 0.618525 8.74222 0.38313 8.34002 0.262184C7.937 0.140832 7.5072 0.0803594 7.0502 0.0803594C6.6484 0.0803594 6.24457 0.100657 5.84114 0.140431C5.43853 0.182234 5.03632 0.201307 4.6333 0.201307C4.36462 0.201307 4.09593 0.16072 3.82847 0.0803594C3.63934 0.0271918 3.45103 0 3.26352 0C3.07561 0 2.8735 0 2.6588 0H1.53092H1.08852C0.953367 0.107553 0.806854 0.174917 0.64451 0.201704C0.48379 0.228896 0.389639 0.349845 0.36407 0.564138C0.308873 0.618524 0.235804 0.772752 0.141645 1.02804C0.0466735 1.28292 0 1.43836 0 1.49112C0 1.70623 0.0746923 1.90795 0.222425 2.09424C0.370564 2.28296 0.444008 2.51146 0.444008 2.77932C0.444008 2.8885 0.429807 2.98145 0.402615 3.06181C0.510573 3.14298 0.585241 3.26351 0.625015 3.42505C0.665195 3.58617 0.698476 3.74649 0.72648 3.90843C0.752861 4.06956 0.786145 4.22418 0.826731 4.3711C0.866911 4.51965 0.953367 4.63329 1.08852 4.71365C1.06133 4.79522 1.04834 4.90237 1.04834 5.0359C1.04834 5.30539 1.1084 5.51928 1.22935 5.68122C1.3507 5.84234 1.45095 6.01686 1.5305 6.20396C1.5305 6.58019 1.57798 6.92884 1.67214 7.25149C1.7663 7.57415 1.87425 7.8899 1.99358 8.19836C2.11574 8.50721 2.22249 8.80959 2.31665 9.10424C2.4104 9.39971 2.45829 9.70897 2.45829 10.0312C2.59182 10.1388 2.67989 10.2796 2.71966 10.4545C2.76065 10.6287 2.78015 10.8101 2.78015 10.998V11.1185C2.78015 11.2537 2.83372 11.36 2.94209 11.4408C3.04883 11.5207 3.11579 11.6425 3.14217 11.8028C3.11579 11.8844 3.10238 12.0041 3.10238 12.166C3.10238 12.5691 3.23633 12.9043 3.5046 13.1722C3.63894 13.4417 3.70714 13.7509 3.70714 14.0996C3.70714 14.449 3.77247 14.7311 3.90722 14.945C3.9616 15.1057 4.00138 15.2818 4.02857 15.4693C4.05536 15.6564 4.09553 15.8452 4.14951 16.0327C4.25625 16.0862 4.33743 16.2011 4.3914 16.3756C4.44579 16.5505 4.48555 16.732 4.51234 16.9199C4.53791 17.107 4.55821 17.2888 4.57241 17.4637C4.5854 17.6378 4.60609 17.7653 4.63288 17.8456C4.84798 18.0884 4.96854 18.3895 4.99574 18.7523C5.0213 19.1148 5.10289 19.4431 5.23763 19.7394C5.2632 19.9265 5.31879 20.088 5.39875 20.2228C5.47951 20.3575 5.54486 20.5044 5.59925 20.6647C5.67961 20.8535 5.7214 21.0686 5.7214 21.3101C5.7214 21.5511 5.74698 21.78 5.80096 21.9939C6.06964 22.2902 6.23076 22.6328 6.28433 23.0212C6.3371 23.4108 6.41826 23.7943 6.52663 24.1698C6.68694 24.3301 6.76852 24.5529 6.76852 24.8349C6.76852 25.1162 6.80872 25.3516 6.88948 25.5395C6.94224 25.6739 7.0088 25.7741 7.08956 25.8411C7.17114 25.9084 7.23607 25.9819 7.29168 26.0631V26.2242C7.29168 26.5732 7.35864 26.9089 7.49258 27.2316C7.46538 27.3115 7.45279 27.4187 7.45279 27.5534C7.45279 27.8217 7.53316 28.0303 7.69429 28.1776C7.85501 28.3249 7.93619 28.5339 7.93619 28.801C7.99057 29.1509 8.21176 29.4536 8.60017 29.7085C8.9902 29.9626 9.30636 30.0904 9.54825 30.0904C9.70776 30.0904 9.87619 30.0839 10.0511 30.0709C10.226 30.0571 10.3933 30.0515 10.554 30.0515C10.6887 30.0515 10.8227 30.0575 10.9566 30.0709C11.0913 30.0839 11.2257 30.0904 11.3604 30.0904C11.6279 30.0904 11.817 30.0766 11.9242 30.0511C12.0309 30.0766 12.1592 30.0904 12.3057 30.0904C12.4534 30.0904 12.5954 30.0904 12.729 30.0904C12.8905 30.0904 13.0452 30.0904 13.1921 30.0904C13.3402 30.0904 13.4814 30.0766 13.6166 30.0511C14.0452 29.9699 14.4202 29.9301 14.7445 29.9301C15.0663 29.9301 15.3476 29.9228 15.5895 29.9098C15.8318 29.8948 16.0319 29.8428 16.1942 29.7479C16.3549 29.6549 16.4755 29.4865 16.5558 29.2446C16.6102 29.0031 16.7101 28.7815 16.8578 28.5798C17.0059 28.3785 17.0924 28.1305 17.12 27.8347C17.12 27.6208 17.1601 27.4592 17.2409 27.3513C17.3221 27.2445 17.3752 27.0834 17.4016 26.8679V26.667C17.4016 26.3456 17.4828 26.0773 17.6439 25.8618C17.8047 25.6459 17.8858 25.3784 17.8858 25.0553V24.7331C17.8858 24.4384 17.9593 24.203 18.1066 24.0289C18.2531 23.854 18.3294 23.6194 18.3294 23.3239V23.0824C18.409 22.8673 18.5036 22.5857 18.6099 22.2366C18.7179 21.888 18.7978 21.7123 18.8514 21.7123C18.8514 21.6315 18.8514 21.5511 18.8514 21.4708C18.8514 21.3908 18.8392 21.3372 18.8112 21.3101C18.7848 21.3101 18.8246 21.183 18.9329 20.9269C19.0393 20.672 19.0937 20.4375 19.0937 20.2228C19.0937 20.142 19.0807 20.0612 19.0539 19.9805C19.0267 19.8997 19.0137 19.8339 19.0137 19.7783C19.0137 19.7528 19.0803 19.6513 19.2154 19.4772C19.3482 19.3019 19.4561 19.1614 19.5373 19.0539C19.5373 19.0372 19.5373 18.9833 19.5373 18.8928C19.5373 18.7584 19.5105 18.6781 19.4561 18.6513V18.5705C19.4561 18.491 19.4163 18.45 19.3356 18.45C19.2812 18.45 19.2284 18.4565 19.1748 18.4694C19.1205 18.4832 19.0665 18.491 19.0141 18.491C18.9601 18.491 18.8916 18.437 18.8116 18.329C18.7329 18.2215 18.6769 18.1407 18.6513 18.0879C18.6769 18.0607 18.6915 18.0267 18.6915 17.9865C18.6915 17.9471 18.7178 17.9264 18.7718 17.9264C19.0141 17.9264 19.1671 17.967 19.2353 18.0473C19.3023 18.1273 19.3623 18.1679 19.4167 18.1679C19.5775 18.1679 19.6842 18.0884 19.7382 17.9264C19.7926 17.7653 19.8396 17.5835 19.8798 17.3826C19.9196 17.1812 19.9866 16.9933 20.0819 16.8184C20.1757 16.6447 20.3283 16.5562 20.545 16.5562C20.7869 16.5562 20.9269 16.6577 20.9683 16.859C21.0077 17.0607 21.0816 17.2153 21.1895 17.3221C21.2963 17.4028 21.3693 17.5173 21.4111 17.665C21.4521 17.8128 21.4712 17.967 21.4712 18.1273C21.4712 18.2892 21.4777 18.4374 21.4903 18.5709C21.5045 18.7061 21.5654 18.8128 21.6733 18.8932C21.7257 19.3502 21.847 19.7394 22.0357 20.0612C22.0357 20.3295 22.0759 20.6789 22.1559 21.1096C22.2367 21.5386 22.3718 21.8478 22.5593 22.0353C22.5041 22.1157 22.4785 22.2375 22.4785 22.3978C22.4785 22.6125 22.5386 22.7951 22.66 22.9412C22.7805 23.0898 22.854 23.2586 22.8812 23.4461C22.8812 23.7416 22.9339 23.9688 23.0427 24.13C23.1498 24.2915 23.2038 24.4932 23.2038 24.7339C23.2038 24.8423 23.1892 24.936 23.1624 25.0164C23.1888 25.1771 23.2428 25.3524 23.3227 25.5403C23.4043 25.7286 23.4851 25.8894 23.565 26.0229C23.6734 26.2388 23.727 26.4657 23.727 26.7084C23.727 26.9495 23.7939 27.1374 23.9291 27.2717C23.9822 27.4601 24.022 27.6342 24.0488 27.7957C24.0756 27.956 24.089 28.1456 24.089 28.3598V28.6415C24.3573 29.1249 24.6868 29.4873 25.0765 29.7288C25.4653 29.9707 26.0091 30.0912 26.708 30.0912C26.9223 30.0912 27.1439 30.0653 27.3732 30.0113C27.6009 29.9569 27.8363 29.9309 28.0782 29.9309C28.2657 29.9309 28.4455 29.937 28.622 29.9504C28.7958 29.9634 28.9768 29.9707 29.1651 29.9707C29.3526 29.9707 29.6278 29.9707 29.9918 29.9707C30.353 29.9707 30.7163 29.9634 31.0787 29.9504C31.442 29.9366 31.7634 29.9236 32.0451 29.9106C32.3279 29.8956 32.4809 29.8635 32.5081 29.8104C32.5621 29.5953 32.6912 29.4471 32.8913 29.3668C33.0934 29.286 33.2476 29.1517 33.3548 28.9638C33.3548 28.9106 33.3483 28.8493 33.3353 28.7819C33.3211 28.7158 33.3146 28.6549 33.3146 28.6005C33.3146 28.467 33.3677 28.3387 33.4753 28.2186C33.5824 28.0972 33.6364 27.9304 33.6364 27.7149C33.6364 27.6614 33.6295 27.6139 33.6169 27.5741C33.6027 27.5335 33.5963 27.4872 33.5963 27.4325C33.5963 27.0842 33.69 26.8553 33.8775 26.7478C33.9843 26.5866 34.0451 26.3922 34.0589 26.1633C34.0719 25.936 34.119 25.7278 34.2006 25.5395C34.2546 25.2968 34.341 25.0829 34.4632 24.895C34.5829 24.7075 34.6426 24.4782 34.6426 24.2095C34.6426 24.1568 34.6361 24.1085 34.6223 24.0695C34.6093 24.0289 34.6028 23.9818 34.6028 23.9287C34.6028 23.5788 34.6904 23.2773 34.8638 23.0212C35.0395 22.7671 35.1535 22.4919 35.2075 22.1948C35.2075 21.8734 35.294 21.5378 35.4689 21.1887C35.6438 20.8405 35.7566 20.4768 35.8127 20.1014C35.8382 19.8863 35.8585 19.672 35.8719 19.4569C35.8756 19.4001 35.8845 19.3453 35.8963 19.2921C35.9965 19.2885 36.0947 19.284 36.1901 19.2783C36.4052 19.2645 36.6467 19.2446 36.9158 19.2183C37.0229 19.325 37.1837 19.3786 37.3988 19.3786C37.5331 19.3786 37.6476 19.3595 37.7413 19.3185C37.8355 19.2787 37.9357 19.2584 38.0429 19.2584C38.0972 19.2584 38.1569 19.2722 38.2243 19.2998C38.2908 19.3254 38.3659 19.3392 38.4455 19.3392C38.6334 19.3392 38.7681 19.2998 38.8489 19.2191C39.0644 19.2191 39.2718 19.2394 39.4731 19.2791C39.6744 19.3189 39.8696 19.3392 40.0567 19.3392C40.2454 19.3392 40.4196 19.2998 40.5811 19.2191C40.6882 19.2459 40.7962 19.2588 40.9025 19.2588C41.0109 19.2588 41.131 19.2588 41.2662 19.2588C41.5617 19.2588 41.8563 19.2256 42.1518 19.1578C42.4481 19.0908 42.7159 19.0571 42.9574 19.0571C43.0918 19.0571 43.2261 19.0851 43.36 19.1371C43.4952 19.1919 43.6287 19.2187 43.7634 19.2187C43.8974 19.2187 44.0191 19.1919 44.1255 19.1371C44.1372 19.1314 44.1494 19.1257 44.1608 19.12L43.8734 20.1862C43.9725 20.1416 44.0711 20.0941 44.1701 20.0413C44.3978 19.92 44.593 19.754 44.7537 19.5385C44.8873 19.4849 45.0159 19.4439 45.1373 19.4171C45.2578 19.3903 45.3443 19.3104 45.3995 19.176C45.3926 19.1594 45.3885 19.144 45.3828 19.1273C45.5488 19.116 45.7201 19.0941 45.8975 19.0575C45.9527 19.1123 46.0732 19.1375 46.2603 19.1375C46.4754 19.1375 46.6098 19.1249 46.6637 19.0977C46.7985 19.1249 46.9454 19.1375 47.1069 19.1375C47.1297 19.1375 47.1524 19.1375 47.1751 19.1375C47.1495 19.1777 47.1223 19.2174 47.0915 19.2568C46.8752 19.364 46.6268 19.4244 46.3451 19.4374C46.0634 19.4516 45.7871 19.4849 45.5196 19.5389C45.4384 19.6996 45.3999 19.8741 45.3999 20.0625C45.4254 20.17 45.5326 20.224 45.7217 20.224H45.9636C46.0704 20.224 46.1515 20.237 46.2039 20.2634C46.2583 20.2918 46.339 20.3039 46.4462 20.3039C46.4998 20.3039 46.5732 20.2983 46.6674 20.2845C46.7607 20.2707 46.8358 20.2634 46.8898 20.2634C46.9965 20.2634 47.1029 20.2772 47.2116 20.3039C47.3184 20.3307 47.3732 20.4115 47.3732 20.5458C47.3732 20.6002 47.3594 20.6335 47.3322 20.6469C47.3054 20.6607 47.292 20.6936 47.292 20.7471V20.7877C47.1568 20.9229 46.9766 21.0036 46.7489 21.0292C46.5204 21.0572 46.2911 21.0901 46.0635 21.1307C45.8346 21.17 45.634 21.2447 45.4595 21.3515C45.2846 21.4602 45.1835 21.6741 45.1572 21.996C45.2651 22.1311 45.3926 22.218 45.5403 22.2581C45.6868 22.2987 45.7871 22.3856 45.8423 22.5199C45.8423 22.6283 45.9027 22.722 46.0237 22.8016C46.1434 22.8824 46.2708 22.9225 46.4056 22.9225C46.5935 22.9225 46.7416 22.8491 46.8492 22.7013C46.9559 22.5532 47.0915 22.4797 47.2518 22.4797C47.359 22.4797 47.4385 22.4935 47.4937 22.5195C47.3322 22.7346 47.1779 22.9558 47.0294 23.1847C46.8817 23.4128 46.6203 23.5265 46.2449 23.5265C46.1905 23.5265 46.0696 23.5127 45.8816 23.4859C45.6937 23.4607 45.6004 23.4197 45.6004 23.3653C45.6004 23.0699 45.5253 22.8621 45.3788 22.7403C45.231 22.6206 45.0626 22.4526 44.8747 22.2379C44.8475 22.2638 44.8081 22.2776 44.7537 22.2776C44.6998 22.2776 44.6454 22.2573 44.593 22.2176C44.539 22.177 44.4717 22.1575 44.3913 22.1575C44.3369 22.1307 44.2436 22.11 44.1096 22.0962C43.9745 22.084 43.8328 22.0694 43.6863 22.0556C43.5711 22.0455 43.4692 22.0361 43.3787 22.0252L41.3973 29.3826C41.5337 29.5169 41.679 29.633 41.8336 29.7296C42.2224 29.9715 42.7662 30.092 43.4651 30.092C43.6794 30.092 43.901 30.0661 44.1304 30.0121C44.3584 29.9577 44.5934 29.9317 44.8353 29.9317C45.0228 29.9317 45.2026 29.9378 45.3792 29.9512C45.5529 29.9642 45.7343 29.9715 45.9222 29.9715C46.1101 29.9715 46.3853 29.9715 46.7489 29.9715C47.111 29.9715 47.4734 29.9642 47.8358 29.9512C48.1991 29.9374 48.5209 29.9244 48.8022 29.9114C49.0851 29.8964 49.2381 29.8644 49.2653 29.8112C49.3193 29.5961 49.4483 29.448 49.6492 29.3676C49.8505 29.2868 50.0048 29.1525 50.1119 28.9646C50.1119 28.9114 50.1054 28.8501 50.0924 28.7827C50.0782 28.7166 50.0717 28.6557 50.0717 28.6013C50.0717 28.4678 50.1249 28.3396 50.2324 28.2194C50.3396 28.0981 50.3936 27.9313 50.3936 27.7157C50.3936 27.6622 50.3871 27.6147 50.3741 27.5749C50.3599 27.5343 50.3534 27.4881 50.3534 27.4333C50.3534 27.085 50.4472 26.8561 50.6347 26.7486C50.7422 26.5875 50.8023 26.393 50.8165 26.1641C50.8291 25.9369 50.8766 25.7286 50.9581 25.5403C51.0121 25.2976 51.0986 25.0837 51.2203 24.8958C51.34 24.7083 51.4001 24.479 51.4001 24.2103C51.4001 24.1576 51.3932 24.1093 51.3794 24.0703C51.3668 24.0297 51.3599 23.9826 51.3599 23.9295C51.3599 23.5796 51.4476 23.2781 51.6209 23.022C51.7966 22.7679 51.9111 22.4927 51.9647 22.1956C51.9647 21.8742 52.0511 21.5386 52.226 21.1895C52.4009 20.8413 52.5142 20.4776 52.5698 20.1022C52.5953 19.8871 52.6161 19.6728 52.6291 19.4577C52.6433 19.2426 52.7167 19.0547 52.8519 18.8936C52.9858 18.8404 53.0524 18.6927 53.0524 18.4508C53.0524 18.3972 53.0459 18.3574 53.0329 18.3298C53.0191 18.3039 53.0122 18.2629 53.0122 18.2085C53.0122 17.9946 53.0727 17.84 53.1936 17.7462C53.3145 17.6516 53.3738 17.484 53.3738 17.2421V16.7579C53.3738 16.5449 53.4006 16.3967 53.4558 16.316C53.7232 16.1556 53.8511 15.9068 53.8377 15.5708C53.8235 15.2352 53.871 14.9202 53.9781 14.6239C54.0861 14.518 54.1603 14.3893 54.2005 14.2416C54.2407 14.0951 54.2606 13.9388 54.2606 13.7781C54.2606 13.6178 54.2736 13.4632 54.3008 13.3142C54.3268 13.1677 54.3819 13.0394 54.4615 12.9323C54.5682 12.8519 54.6222 12.7314 54.6222 12.5699V12.2066C54.6222 12.0187 54.6486 11.8779 54.703 11.7837C54.7574 11.6908 54.8097 11.6031 54.8637 11.5215C54.9177 11.4416 54.9717 11.3551 55.0256 11.2598C55.0784 11.1664 55.1056 11.0126 55.1056 10.7975C55.1056 10.4204 55.1527 10.1733 55.2468 10.0523C55.3406 9.93098 55.4278 9.72318 55.509 9.42771C55.589 9.07867 55.6624 8.73653 55.731 8.40007C55.7976 8.06443 55.884 7.7093 55.992 7.33266C56.0192 7.22592 56.0525 7.08508 56.0918 6.90935C56.1336 6.73523 56.186 6.55382 56.2542 6.3655C56.3211 6.17921 56.3877 6.00307 56.4551 5.84275C56.5221 5.68163 56.5967 5.57408 56.6775 5.51969C56.6235 5.43933 56.5967 5.31798 56.5967 5.15767C56.5967 5.02414 56.617 4.88898 56.6568 4.75464C56.697 4.62112 56.7303 4.48596 56.757 4.35162C56.919 4.29805 57.0192 4.19049 57.0594 4.02937C57.0992 3.86864 57.1195 3.70103 57.1195 3.52569C57.1195 3.35239 57.1264 3.17706 57.1402 3.00295C57.1532 2.82884 57.2136 2.70018 57.3216 2.61941C57.4551 2.48588 57.5347 2.27078 57.5631 1.97572C57.5891 1.67984 57.6033 1.42457 57.6033 1.21068C57.6025 0.964323 57.5233 0.776813 57.361 0.641661ZM4.95434 9.28281C4.95434 9.3234 4.92673 9.3437 4.87438 9.3437H4.63248H4.55173C4.49734 9.31691 4.44499 9.29661 4.39101 9.28281C4.33703 9.27023 4.31105 9.22275 4.31105 9.14158C4.31105 9.06162 4.35122 9.01454 4.43077 9.00155C4.51194 8.98694 4.5789 8.98045 4.63288 8.98045C4.71283 8.98045 4.78711 8.98045 4.85449 8.98045C4.92145 8.98045 4.95474 9.02063 4.95474 9.10099C5.00872 9.10099 5.03549 9.14158 5.03549 9.22234C4.98111 9.22234 4.95434 9.24141 4.95434 9.28281ZM5.55865 12.0013C5.50467 12.0013 5.47911 11.9619 5.47911 11.8815C5.47911 11.828 5.50467 11.787 5.55865 11.7602C5.61263 11.7602 5.66541 11.7602 5.7206 11.7602C5.77296 11.7602 5.81312 11.8004 5.83991 11.8815C5.81312 11.9623 5.72099 12.0013 5.55865 12.0013ZM30.4736 13.6738C30.6485 13.606 30.8425 13.5719 31.0572 13.5719C31.1911 13.5719 31.3263 13.5922 31.4602 13.6328C31.5954 13.6738 31.7431 13.6933 31.9038 13.6933C31.9038 13.7477 31.9233 13.7874 31.9643 13.8142C32.0041 13.841 32.0244 13.8816 32.0244 13.934C32.0244 14.0431 31.9769 14.1227 31.8827 14.1767C31.7878 14.2311 31.7017 14.257 31.6218 14.257C31.5662 14.257 31.513 14.244 31.4598 14.2169C31.4058 14.1901 31.3514 14.1763 31.2991 14.1763H31.2183C31.1384 14.1763 30.9423 14.1227 30.6339 14.0155C30.3254 13.9072 30.1026 13.8276 29.9703 13.7728C30.131 13.7741 30.2978 13.7412 30.4736 13.6738ZM31.0174 16.9166H31.1781C31.2597 16.9166 31.2995 16.956 31.2995 17.0372C31.2723 17.0907 31.2118 17.111 31.1181 17.0968C31.0243 17.0843 30.9366 17.0907 30.8563 17.1179C30.8563 17.0644 30.8693 17.0307 30.8973 17.0169C30.9229 17.0039 30.9367 16.9698 30.9367 16.9166H31.0174ZM31.1984 15.6678C31.1461 15.5647 31.0828 15.4616 31.0073 15.3577C31.0572 15.4064 31.1201 15.4369 31.1984 15.4458C31.3198 15.4588 31.4407 15.4726 31.5621 15.4856C31.6826 15.4998 31.7825 15.5201 31.8624 15.5469C31.9436 15.5728 31.9846 15.6536 31.9846 15.7879V15.9093C31.9038 15.9637 31.8227 16.0034 31.7431 16.0298C31.6619 16.0574 31.5536 16.0704 31.42 16.0704C31.3405 15.9361 31.2642 15.8017 31.1984 15.6678ZM29.6874 14.8216C29.9021 14.8216 30.0231 14.8885 30.0507 15.0229C29.9963 15.0501 29.9362 15.0773 29.8693 15.1028C29.8023 15.1309 29.715 15.1442 29.6079 15.1442C29.6079 15.0907 29.5665 15.0635 29.4869 15.0635C29.4589 15.0903 29.4329 15.1028 29.4058 15.1028C29.4329 15.1028 29.4058 15.0635 29.3266 14.9831C29.3514 14.8764 29.4719 14.8216 29.6874 14.8216ZM28.8818 15.9499C28.9362 15.9499 28.9906 15.9564 29.0425 15.9693C29.0969 15.9831 29.1505 15.9897 29.2049 15.9897C29.2576 15.9897 29.2909 15.9831 29.3047 15.9693C29.3177 15.9564 29.3384 15.9499 29.3648 15.9499C29.4191 16.0034 29.5259 16.0298 29.6866 16.0298C29.8218 16.0298 29.9285 16.0168 30.0097 15.99C30.0904 15.9641 30.1846 15.9499 30.2909 15.9499H30.5332C30.586 16.0034 30.614 16.0834 30.614 16.191C30.5588 16.2713 30.493 16.3529 30.4123 16.4328C30.2771 16.5676 30.1306 16.6346 29.9695 16.6346H29.7276C29.6197 16.6346 29.5511 16.6484 29.5259 16.6743C29.5259 16.7023 29.4114 16.6549 29.1837 16.5335C28.9544 16.4126 28.7726 16.2851 28.6407 16.1516C28.6415 16.0164 28.7215 15.9499 28.8818 15.9499ZM27.5928 15.3042C27.6999 15.251 27.7937 15.1836 27.8744 15.1024C27.9016 15.1304 27.9418 15.1438 27.9954 15.1438C28.0494 15.1438 28.096 15.1373 28.1374 15.1243C28.1772 15.1097 28.2239 15.1028 28.2775 15.1028C28.3846 15.1028 28.4398 15.1442 28.4398 15.2246V15.2652C28.3842 15.4255 28.271 15.5404 28.096 15.6073C27.9211 15.6747 27.7665 15.7084 27.6325 15.7084C27.4986 15.7084 27.4304 15.6682 27.4304 15.5866C27.4308 15.4523 27.4856 15.3585 27.5928 15.3042ZM26.667 14.701C26.7198 14.701 26.7482 14.7278 26.7482 14.781C26.7482 14.8086 26.7401 14.8216 26.7271 14.8216C26.7129 14.8216 26.7068 14.8354 26.7068 14.8622C26.6268 14.8622 26.5716 14.8484 26.5461 14.8216C26.5461 14.7404 26.5858 14.701 26.667 14.701ZM26.3858 10.9144C26.4381 10.9144 26.4791 10.9416 26.5047 10.9951C26.5047 11.0759 26.4511 11.1157 26.3444 11.1157C26.29 11.1157 26.2632 11.0759 26.2632 10.9951C26.2632 10.9416 26.3046 10.9144 26.3858 10.9144ZM25.0156 13.5719C25.2303 13.3581 25.5659 13.2505 26.0225 13.2505C26.1564 13.2505 26.2632 13.3041 26.3444 13.4116C26.3444 13.6271 26.2709 13.7741 26.1228 13.8544C25.975 13.9344 25.7997 13.9892 25.5992 14.0164C25.3971 14.0431 25.1889 14.0691 24.9742 14.0963C24.7595 14.1231 24.5858 14.1905 24.4506 14.2972C24.1288 14.5387 23.6726 14.6604 23.0808 14.6604C22.7322 14.6604 22.4359 14.6199 22.1957 14.5391C22.1957 14.3788 22.3219 14.2976 22.5776 14.2976C22.8325 14.2976 23.0532 14.2976 23.2424 14.2976C23.3219 14.1641 23.4165 14.044 23.5245 13.9348C23.6312 13.8288 23.7525 13.7741 23.8873 13.7741C23.9668 13.7741 24.0549 13.7935 24.1495 13.8341C24.242 13.8747 24.3151 13.895 24.3707 13.895C24.5858 13.895 24.7996 13.7879 25.0156 13.5719ZM25.8606 15.5063C25.781 15.6678 25.6317 15.7478 25.4178 15.7478C25.2019 15.7478 25.0075 15.734 24.8342 15.708C24.6592 15.6816 24.572 15.6004 24.572 15.4665C24.6531 15.3585 24.7473 15.2652 24.8536 15.184H25.0156H25.4178C25.6061 15.184 25.7396 15.2116 25.8204 15.2652C25.8468 15.318 25.8606 15.3995 25.8606 15.5063ZM23.8061 11.1555H23.8873H24.1685C24.2497 11.1555 24.3021 11.1693 24.3293 11.196C24.2765 11.2504 24.1815 11.2764 24.048 11.2764C23.9145 11.2768 23.8337 11.2362 23.8061 11.1555ZM24.4506 12.5252H24.4916V12.6056C24.4916 12.6864 24.4575 12.7334 24.3918 12.7464C24.3236 12.7606 24.2773 12.7939 24.2501 12.8475C24.2233 12.8475 24.1957 12.8613 24.1689 12.8877C24.1154 12.8877 24.0756 12.8678 24.0484 12.8264C24.0216 12.7874 23.9818 12.7663 23.9287 12.7663H23.8873C23.8873 12.7411 23.8796 12.7067 23.8666 12.6661C23.8524 12.6255 23.8459 12.5926 23.8459 12.5658C23.8459 12.539 23.8601 12.5252 23.8873 12.5252H23.9668C24.0212 12.4717 24.0752 12.4518 24.1284 12.4652C24.1815 12.479 24.2351 12.4717 24.2895 12.4449C24.2895 12.4984 24.3017 12.5252 24.3293 12.5252H24.4506ZM21.3093 5.07324C21.3352 5.07324 21.3494 5.10003 21.3494 5.15401C21.2427 5.15401 21.1887 5.14102 21.1887 5.11302C21.1887 5.08785 21.2285 5.07324 21.3093 5.07324ZM20.584 7.87286C20.6911 7.83268 20.7987 7.78641 20.907 7.73162H21.028C21.108 7.73162 21.1952 7.72513 21.2894 7.71133C21.3827 7.69916 21.4834 7.69185 21.5913 7.69185C21.8048 7.69185 21.9546 7.75963 22.0354 7.89316V7.97352C22.0354 8.08107 21.8734 8.16143 21.552 8.21459C21.2289 8.26979 20.9732 8.29617 20.7865 8.29617C20.6518 8.29617 20.5308 8.2564 20.4241 8.17482C20.4237 8.0137 20.476 7.91344 20.584 7.87286ZM20.5028 9.76579C20.8531 9.80597 21.0812 9.93341 21.1887 10.1485C21.2427 10.1485 21.3157 10.155 21.4103 10.1696C21.5037 10.1826 21.5771 10.1887 21.6311 10.1887C21.927 10.1887 22.0751 10.0142 22.0751 9.66514C22.0751 9.53039 22.0147 9.46383 21.8937 9.46383C21.7732 9.46383 21.7131 9.41026 21.7131 9.3027C21.7131 9.24913 21.7464 9.22884 21.8133 9.24142C21.8799 9.25643 21.9404 9.26293 21.9944 9.26293C22.1551 9.26293 22.3093 9.27673 22.4574 9.3027C22.6056 9.32868 22.7598 9.34329 22.9205 9.34329C23.054 9.34329 23.1827 9.34979 23.3037 9.36277C23.4246 9.37657 23.5516 9.38306 23.6872 9.38306C23.8207 9.38306 23.9335 9.35709 24.0293 9.3027C24.1223 9.24913 24.1961 9.22234 24.2505 9.22234C24.2237 9.22234 24.2505 9.26293 24.3301 9.34329C24.2505 9.58437 24.0687 9.69963 23.787 9.68543C23.5046 9.67163 23.2692 9.73251 23.0812 9.86604C22.8665 10.0276 22.6121 10.1761 22.317 10.3096C22.0211 10.4448 21.7378 10.5118 21.4708 10.5118C21.2021 10.5118 20.9391 10.4902 20.6846 10.4517C20.4294 10.4107 20.2358 10.3238 20.1006 10.1891H19.9399H19.4959C19.2548 10.1891 19.133 10.123 19.133 9.9878C19.133 9.93423 19.1602 9.89486 19.2154 9.86685C19.2682 9.84128 19.3226 9.81368 19.3753 9.78609C19.4293 9.78609 19.4691 9.7739 19.4959 9.74671C19.5231 9.71992 19.5645 9.70613 19.6176 9.70613C19.8587 9.70573 20.1546 9.7252 20.5028 9.76579ZM19.3356 4.58986C19.3895 4.58986 19.4289 4.63004 19.4561 4.7104C19.4561 4.738 19.4691 4.7652 19.4959 4.79199C19.4959 4.81877 19.4695 4.83217 19.4167 4.83217H19.2958H19.2158C19.1878 4.77859 19.1748 4.69742 19.1748 4.59027C19.2284 4.58986 19.2812 4.58986 19.3356 4.58986ZM19.0332 7.06764C19.047 7.05384 19.0539 7.02096 19.0539 6.96577H19.133H19.3356C19.4431 6.96577 19.4959 7.00676 19.4959 7.08712C19.4959 7.11391 19.4898 7.135 19.4768 7.14718C19.4626 7.16139 19.4561 7.18086 19.4561 7.20806C19.4021 7.23484 19.3563 7.26164 19.3161 7.28843C19.2747 7.31522 19.2154 7.32861 19.133 7.32861H19.0539V7.24784C19.0539 7.22187 19.047 7.21455 19.0332 7.22754C19.019 7.24215 19.0137 7.22146 19.0137 7.16748C19.0137 7.11391 19.0186 7.08144 19.0332 7.06764ZM18.4898 8.37654C18.5429 8.34975 18.5973 8.31037 18.6509 8.25599C18.7844 8.25599 18.8912 8.26249 18.9735 8.27507C19.0535 8.28928 19.1201 8.34935 19.1744 8.4569C19.1744 8.61802 19.0535 8.72557 18.8108 8.77914C18.7321 8.75235 18.644 8.71908 18.5498 8.67808C18.4553 8.6379 18.4082 8.57784 18.4082 8.49667C18.4086 8.44391 18.4362 8.40333 18.4898 8.37654ZM18.5295 11.2561C18.6095 11.2431 18.6906 11.2358 18.7714 11.2358H19.0137C19.1473 11.2358 19.2751 11.2098 19.3956 11.1555C19.5162 11.1019 19.6436 11.0755 19.7788 11.0755C19.9123 11.0755 20.0458 11.1624 20.181 11.3377C20.3149 11.5118 20.4886 11.5991 20.7049 11.5991C20.7589 11.5991 20.8657 11.5731 21.0276 11.5179C21.1599 11.4639 21.3089 11.4314 21.4704 11.4176C21.6311 11.4046 21.7663 11.3982 21.8726 11.3982C22.2484 11.3982 22.5914 11.4249 22.9006 11.4781C23.2079 11.5325 23.3637 11.7472 23.3637 12.1226C23.3097 12.203 23.2367 12.2383 23.1421 12.2245C23.0476 12.2095 22.9741 12.2168 22.9197 12.2436C22.8402 12.1632 22.7525 12.1019 22.6587 12.0621C22.5634 12.022 22.4773 11.9753 22.3965 11.9205C21.5373 11.9477 20.7049 12.097 19.8993 12.3641C19.7378 12.2574 19.6229 12.1157 19.5572 11.9412C19.4894 11.7675 19.3477 11.6794 19.1326 11.6794C19.0799 11.6794 19.0186 11.6932 18.9528 11.7196C18.8842 11.7468 18.8246 11.7602 18.7714 11.7602C18.6634 11.7602 18.5969 11.7472 18.5697 11.7196C18.5429 11.6932 18.5295 11.666 18.5295 11.6396C18.5032 11.6396 18.4759 11.6526 18.4488 11.6794V11.6396C18.4488 11.5853 18.441 11.5386 18.4297 11.498C18.4155 11.4574 18.4086 11.4116 18.4086 11.3568C18.4086 11.3036 18.4488 11.2703 18.5295 11.2561ZM19.8185 14.4177C19.8729 14.4177 19.9257 14.4324 19.9792 14.4583C20.0332 14.4851 20.086 14.4989 20.14 14.4989H20.2211C20.2211 14.5529 20.1948 14.5935 20.14 14.6195C20.086 14.6471 20.0332 14.6864 19.9792 14.74H19.8583H19.6574C19.5227 14.74 19.4557 14.6738 19.4557 14.5387C19.5101 14.5387 19.5641 14.5257 19.6168 14.4989C19.7248 14.4462 19.7922 14.4177 19.8185 14.4177ZM19.3356 13.8146V13.9344C19.3356 14.0164 19.2954 14.0553 19.2154 14.0553C19.1071 14.0553 19.0068 14.0358 18.9123 13.9953C18.8181 13.9551 18.7714 13.895 18.7714 13.8146C18.7714 13.7879 18.7974 13.7477 18.851 13.6937C18.9054 13.7481 18.9861 13.7611 19.0933 13.7343C19.2016 13.7071 19.2812 13.7343 19.3356 13.8146ZM17.8246 14.9015C17.8375 14.9015 17.8457 14.9161 17.8457 14.9421C17.8457 15.1576 17.7373 15.2847 17.523 15.3252C17.3083 15.365 17.1744 15.3853 17.12 15.3853C16.9041 15.3853 16.6431 15.3585 16.3338 15.3042C16.0254 15.251 15.8707 15.1438 15.8707 14.9827C16.3273 14.848 16.7827 14.7806 17.2405 14.7806C17.4828 14.7806 17.6691 14.7944 17.8042 14.8212V14.8618C17.8042 14.8885 17.8108 14.9015 17.8246 14.9015ZM17.0802 16.3927C16.9446 16.4182 16.8448 16.4527 16.7766 16.4937C16.7096 16.5335 16.6232 16.553 16.5152 16.553C16.4613 16.553 16.3736 16.5335 16.2543 16.4937C16.1321 16.4531 16.0729 16.4061 16.0729 16.3529C16.0729 16.2453 16.113 16.1849 16.1938 16.1715C16.2734 16.1585 16.3403 16.152 16.3943 16.152C16.7174 16.1516 16.9446 16.2315 17.0802 16.3927ZM16.234 9.5446H16.3947C16.4755 9.5446 16.5299 9.5308 16.5554 9.50401V9.62537C16.5818 9.59817 16.6098 9.58437 16.6366 9.58437C16.6622 9.58437 16.6764 9.61197 16.6764 9.66514C16.6764 9.71952 16.6764 9.7597 16.6764 9.78527C16.5696 9.7597 16.4552 9.75239 16.3338 9.76579C16.2133 9.7804 16.1256 9.74631 16.0729 9.66514C16.0733 9.58437 16.1256 9.5446 16.234 9.5446ZM16.1528 11.196H16.1942C16.3277 11.196 16.4556 11.1429 16.5765 11.0341C16.6967 10.9282 16.8241 10.8738 16.9593 10.8738C17.146 10.8738 17.3221 10.9282 17.4828 11.0341C17.3748 11.196 17.1869 11.3109 16.9179 11.3767C16.6488 11.4444 16.4471 11.4781 16.3152 11.4781C16.2056 11.4781 16.1256 11.4521 16.0729 11.3982C16.0733 11.2634 16.0988 11.196 16.1528 11.196ZM14.0184 13.3917C14.1783 13.3248 14.3735 13.2647 14.6024 13.2099C14.8301 13.1563 15.0513 13.0959 15.266 13.0285C15.4811 12.9615 15.6423 12.8877 15.7498 12.8081C15.8582 12.7533 15.9377 12.7274 15.9921 12.7274C16.1796 12.7274 16.2734 12.8081 16.2734 12.9684C16.2734 13.0496 16.2591 13.1162 16.2336 13.1693C16.1792 13.2241 16.1321 13.298 16.0927 13.3917C16.0518 13.4859 15.9775 13.533 15.8703 13.533H15.7494C15.6958 13.533 15.6491 13.5472 15.6094 13.5723C15.568 13.5991 15.5213 13.6142 15.4673 13.6142C15.4133 13.6142 15.3464 13.5995 15.2652 13.5723C15.1856 13.5472 15.1175 13.533 15.0651 13.533C14.85 13.533 14.6483 13.5926 14.4608 13.714C14.2725 13.8345 14.1109 13.8954 13.977 13.8954C13.923 13.8954 13.8768 13.8617 13.837 13.7939C13.7956 13.7274 13.7765 13.6807 13.7765 13.6539C13.7769 13.5468 13.8569 13.4591 14.0184 13.3917ZM15.2266 17.721C15.2266 17.7754 15.2129 17.816 15.1865 17.8424C15.1061 17.9504 15.0115 18.0039 14.904 18.0039C14.77 18.0039 14.7035 17.9633 14.7035 17.883C14.7035 17.8026 14.7445 17.7352 14.8244 17.6821C14.8508 17.7081 14.8894 17.721 14.945 17.721C14.9709 17.721 14.9977 17.7154 15.0249 17.7016C15.0517 17.6886 15.0915 17.6821 15.1463 17.6821C15.1995 17.6821 15.2266 17.6959 15.2266 17.721ZM10.0901 9.04052C10.1315 9.05432 10.1635 9.03443 10.1919 8.98045H10.2321C10.2845 8.98045 10.3255 8.96747 10.3531 8.93987C10.3787 8.9139 10.4196 8.90009 10.4736 8.90009L10.5138 8.98045C10.5138 9.088 10.4598 9.14158 10.3531 9.14158H10.1108H10.0694C10.043 9.11479 10.0308 9.08801 10.0308 9.06162C10.0312 9.03484 10.0507 9.02753 10.0901 9.04052ZM9.95047 13.4924V13.412V13.3706H10.0312C10.1635 13.3175 10.2987 13.2509 10.4338 13.1693C10.5678 13.089 10.7143 13.0228 10.8762 12.9684C10.9034 12.9684 10.929 12.9822 10.9562 13.009C10.7951 13.1442 10.6757 13.2712 10.5933 13.3917C10.5134 13.5119 10.3786 13.5723 10.1919 13.5723C10.0836 13.5723 10.0028 13.5598 9.95005 13.533V13.4924H9.95047ZM10.3324 14.8419C10.5601 14.9097 10.6757 15.0505 10.6757 15.2652C10.6757 15.3719 10.6201 15.4255 10.5138 15.4255H10.2723H10.1506C9.93626 15.3179 9.78933 15.2441 9.70694 15.2043C9.62739 15.1637 9.57301 15.1244 9.54744 15.0834C9.51943 15.0432 9.50604 14.9969 9.50604 14.9421C9.50604 14.8885 9.49183 14.8086 9.46505 14.701C9.46505 14.6475 9.49144 14.6199 9.54704 14.6199H9.70655H9.78894C9.92165 14.701 10.1047 14.7745 10.3324 14.8419ZM9.42568 12.1421C9.45247 12.1295 9.47968 12.097 9.50646 12.0418H9.58722H9.74794C9.80192 12.0418 9.8279 12.0556 9.8279 12.0824V12.1226C9.72116 12.231 9.59979 12.2833 9.46505 12.2833C9.41188 12.2833 9.38511 12.2708 9.38511 12.2436C9.38551 12.19 9.39809 12.1567 9.42568 12.1421ZM8.78199 12.5658C8.83516 12.5658 8.86844 12.5455 8.88224 12.5049C8.89523 12.4648 8.91553 12.4449 8.94313 12.4449V12.4846C8.94313 12.5122 8.94962 12.5252 8.96221 12.5252C8.97641 12.5252 8.98289 12.539 8.98289 12.5658C8.9557 12.5926 8.91553 12.6056 8.86195 12.6056C8.75359 12.6056 8.70124 12.5796 8.70124 12.5252C8.70124 12.5524 8.7272 12.5658 8.78199 12.5658ZM7.00839 9.24142C6.92884 9.20246 6.84767 9.18135 6.76813 9.18135C6.63298 9.18135 6.57249 9.14889 6.5867 9.08111C6.59969 9.01414 6.57898 8.98005 6.52663 8.98005C6.60618 8.87331 6.72673 8.81892 6.88948 8.81892C7.02301 8.81892 7.16383 8.85261 7.31278 8.91998C7.4593 8.98695 7.58674 9.04742 7.69429 9.10059C7.66629 9.15579 7.60013 9.20246 7.49258 9.24142C7.38583 9.28241 7.29169 9.3027 7.21092 9.3027C7.15654 9.3027 7.08915 9.28281 7.00839 9.24142ZM7.81483 14.9421C7.81483 15.0505 7.74787 15.1244 7.61272 15.1637C7.47797 15.2043 7.37083 15.2246 7.29128 15.2246C7.2649 15.1978 7.24986 15.1702 7.24986 15.1442C7.24986 15.0367 7.29778 14.9498 7.39153 14.8812C7.48569 14.8151 7.58594 14.781 7.69389 14.781C7.71946 14.781 7.74016 14.7883 7.75436 14.8013C7.76694 14.8151 7.78765 14.8216 7.81443 14.8216V14.9421H7.81483ZM8.01533 12.1632C8.01533 12.2168 7.98975 12.2436 7.93577 12.2436C7.88179 12.2436 7.8274 12.2436 7.77505 12.2436C7.71985 12.2436 7.69429 12.2168 7.69429 12.1632V12.1226C7.69429 12.0423 7.74827 12.0017 7.85501 12.0017C7.96175 12.0017 8.01573 12.0423 8.01573 12.1226V12.1632H8.01533ZM8.98289 19.0105H8.90335C8.84775 19.0105 8.82217 19.0243 8.82217 19.0514C8.82217 19.0782 8.80837 19.0916 8.78199 19.0916C8.64725 19.0916 8.5807 19.0377 8.5807 18.9301C8.5807 18.8773 8.58597 18.8436 8.59977 18.8298C8.61398 18.8169 8.62046 18.7832 8.62046 18.7288C8.67443 18.7556 8.75399 18.7625 8.86235 18.7491C8.96909 18.7353 9.02428 18.7694 9.02428 18.8497C9.02388 18.9297 9.00968 18.9849 8.98289 19.0105ZM9.22479 16.4531C9.09004 16.251 8.87535 16.1516 8.5807 16.1516C8.52631 16.1516 8.48491 16.1581 8.45934 16.1711C8.43255 16.1849 8.39116 16.1905 8.3388 16.1905C8.39116 16.137 8.41227 16.0497 8.39887 15.9284C8.38467 15.809 8.43215 15.7478 8.54052 15.7478H8.62006C8.67404 15.6942 8.72721 15.6678 8.7816 15.6678C8.7816 15.7214 8.81407 15.7417 8.88185 15.7275C8.94922 15.7145 9.00927 15.734 9.06325 15.7875H9.10343C9.07664 15.7875 9.08963 15.8419 9.14361 15.9495C9.19759 16.1102 9.35954 16.2311 9.627 16.3115C9.89609 16.3923 10.0308 16.486 10.0308 16.5932C10.0308 16.7015 9.97563 16.7535 9.86848 16.7535C9.57301 16.7539 9.35994 16.6544 9.22479 16.4531ZM9.92976 20.2199C9.78203 20.2459 9.6404 20.2593 9.50646 20.2593C9.37131 20.2593 9.30596 20.1931 9.30596 20.0584C9.30596 20.0052 9.3924 19.9451 9.56733 19.8774C9.74226 19.8104 9.88187 19.7759 9.99023 19.7759L10.0316 19.8165C10.1112 19.8165 10.1579 19.8368 10.1717 19.8774C10.1846 19.9167 10.2183 19.9517 10.2727 19.978C10.192 20.1124 10.0775 20.1927 9.92976 20.2199ZM12.1048 23.5825C12.0906 23.5971 12.0841 23.6166 12.0841 23.6425C11.9233 23.7237 11.7752 23.7635 11.6417 23.7635C11.5329 23.7635 11.4599 23.7497 11.4185 23.7237C11.3799 23.6969 11.3596 23.6161 11.3596 23.481H11.3994H11.4805C11.5329 23.481 11.5597 23.4558 11.5597 23.401L11.6413 23.442C11.6948 23.442 11.748 23.4343 11.802 23.4209C11.856 23.408 11.9104 23.4015 11.9631 23.4015C12.0707 23.4015 12.1247 23.4424 12.1247 23.522C12.1255 23.5492 12.1178 23.5695 12.1048 23.5825ZM12.4469 22.9786C12.4469 23.0731 12.367 23.1198 12.205 23.1198C11.9903 23.1198 11.8564 23.0252 11.8024 22.8381C11.7484 22.6502 11.6275 22.5565 11.4392 22.5565C11.304 22.6096 11.1851 22.6705 11.0763 22.7367C10.9696 22.804 10.8486 22.8381 10.7139 22.8381C10.6063 22.8381 10.513 22.7845 10.4334 22.6762V22.6364C10.4334 22.5836 10.4192 22.5565 10.392 22.5565C10.3648 22.5565 10.3523 22.5427 10.3523 22.5159C10.3523 22.4623 10.4123 22.4083 10.5337 22.3547C10.6542 22.302 10.7812 22.2744 10.9152 22.2744C11.1299 22.2744 11.3032 22.3146 11.4383 22.3949C11.5455 22.4493 11.6677 22.4623 11.8016 22.4355C11.9351 22.4087 12.0435 22.4225 12.1247 22.4761C12.3661 22.5029 12.5126 22.5707 12.567 22.6762C12.4883 22.7841 12.4469 22.8848 12.4469 22.9786ZM13.6357 22.2135C13.6215 22.334 13.548 22.3941 13.4145 22.3941C13.2521 22.3685 13.0914 22.328 12.9307 22.2736C12.77 22.22 12.6888 22.0865 12.6888 21.8706C12.6888 21.817 12.7221 21.7439 12.789 21.6502C12.856 21.5556 12.9307 21.5077 13.0106 21.5077C13.1454 21.5077 13.2667 21.5422 13.3743 21.6092C13.481 21.6761 13.5748 21.7492 13.6556 21.8308C13.656 21.9651 13.6482 22.0922 13.6357 22.2135ZM14.0781 23.1596C14.0383 23.2139 13.9908 23.2415 13.9376 23.2415C13.8569 23.1596 13.8171 23.093 13.8171 23.0386C13.8171 23.013 13.8301 22.9859 13.8569 22.9587C13.9113 22.9051 13.9506 22.8775 13.9778 22.8775C14.0318 22.8775 14.0845 22.9319 14.1385 23.0382C14.1385 23.0658 14.1195 23.1064 14.0781 23.1596ZM14.3398 20.8628C14.2323 21.0243 14.0716 21.1063 13.8569 21.1063C13.7485 21.0527 13.6896 20.972 13.6754 20.8628C13.6629 20.7561 13.6296 20.6619 13.5752 20.582C13.656 20.5284 13.7286 20.4886 13.7968 20.461C13.8638 20.435 13.951 20.394 14.059 20.3396C14.2737 20.3396 14.4206 20.3676 14.503 20.4212C14.5022 20.5543 14.4474 20.7025 14.3398 20.8628ZM14.2193 19.5746C14.0314 19.5746 13.8422 19.6217 13.6556 19.7154C13.4664 19.8104 13.298 19.9314 13.1531 20.0787C13.0038 20.2268 12.8832 20.375 12.789 20.5215C12.6953 20.6696 12.6486 20.7833 12.6486 20.8632C12.6486 20.944 12.6616 20.9992 12.6888 21.0247C12.6348 21.0791 12.6141 21.153 12.6287 21.2463C12.6413 21.3409 12.5955 21.3884 12.4883 21.3884H12.1652C11.9493 21.3884 11.7423 21.4079 11.5414 21.4485C11.3397 21.4882 11.1311 21.5077 10.9164 21.5077C10.7017 21.5077 10.5 21.4554 10.3117 21.347C10.3389 21.1863 10.4136 21.0657 10.5349 20.985C10.6555 20.9038 10.7557 20.7971 10.8352 20.6619C10.8097 20.6359 10.7951 20.5957 10.7951 20.5414C10.7951 20.2995 10.9038 20.1319 11.1181 20.0377C11.3328 19.9448 11.5816 19.8632 11.8629 19.7966C12.1445 19.7292 12.4132 19.6489 12.6693 19.5543C12.9242 19.4614 13.0772 19.2925 13.1328 19.051C13.0772 18.9971 13.0106 18.937 12.9307 18.8692C12.8495 18.8031 12.7026 18.769 12.4883 18.769C12.2724 18.8493 12.0508 18.9171 11.8231 18.9711C11.5946 19.0238 11.3856 19.1184 11.1977 19.2528C11.0909 19.3063 10.9895 19.3599 10.8969 19.4131C10.802 19.4679 10.6883 19.4938 10.5536 19.4938C10.4996 19.4938 10.4265 19.4744 10.3324 19.4334C10.2386 19.3936 10.1919 19.2795 10.1919 19.0912C10.2987 19.0105 10.4261 18.9638 10.5735 18.95C10.7208 18.937 10.8681 18.9171 11.0175 18.8899C11.164 18.8639 11.2918 18.8165 11.3994 18.7491C11.5065 18.6813 11.5601 18.5539 11.5601 18.3664C11.5601 18.2588 11.5333 18.2044 11.481 18.2044H11.4392C11.304 18.2044 11.1518 18.1854 10.9765 18.1452C10.8011 18.1042 10.6197 18.0851 10.4334 18.0851H9.74794C9.77473 17.9504 9.8214 17.8359 9.88958 17.7426C9.95493 17.648 10.0312 17.5607 10.1108 17.4804C10.1376 17.4804 10.1635 17.4942 10.1919 17.521C10.2719 17.521 10.3385 17.5007 10.3925 17.4609C10.4468 17.4203 10.4996 17.4 10.5532 17.4C10.6067 17.4 10.6676 17.4203 10.7342 17.4609C10.8011 17.5007 10.8616 17.521 10.9156 17.521C11.0236 17.521 11.1238 17.4942 11.218 17.4398C11.3117 17.3862 11.4262 17.3594 11.5597 17.3594C11.5329 17.3335 11.5195 17.2933 11.5195 17.2385C11.5195 17.1857 11.5325 17.1378 11.5597 17.0972C11.5873 17.0579 11.6015 16.997 11.6015 16.917V16.8367C11.7882 16.7291 12.0037 16.6958 12.2456 16.7348C12.4879 16.7758 12.6198 16.6613 12.6482 16.3931C12.5131 16.1244 12.3126 15.99 12.0439 15.99H11.7212C11.6141 15.99 11.5268 15.9762 11.4594 15.9499C11.3929 15.9231 11.3596 15.8285 11.3596 15.6682C11.4124 15.5606 11.4858 15.514 11.5808 15.527C11.6746 15.5408 11.7622 15.5205 11.8418 15.4669C11.8962 15.5205 11.9899 15.5408 12.1251 15.527C12.2586 15.514 12.3527 15.5343 12.4063 15.5862C12.5402 15.8553 12.6405 15.9965 12.7087 16.0099C12.7752 16.0237 12.9031 16.0294 13.0906 16.0294C13.3593 16.0294 13.6206 16.0099 13.8767 15.9693C14.1312 15.9284 14.3934 15.8959 14.6613 15.8691C14.6613 15.9759 14.7152 16.0367 14.8236 16.0497C14.9304 16.0635 14.9843 16.1236 14.9843 16.2311C15.0111 16.3387 14.9843 16.3793 14.9036 16.3525C14.824 16.3257 14.7554 16.3387 14.7031 16.3927C14.6487 16.3927 14.6024 16.3862 14.561 16.3724C14.5213 16.3594 14.4738 16.3525 14.4194 16.3525C14.1775 16.3525 13.9632 16.3927 13.7765 16.4722C13.5874 16.5526 13.3861 16.5932 13.1722 16.5932C13.0366 16.5932 12.9441 16.5802 12.8901 16.5526C12.7286 16.607 12.6344 16.6877 12.6084 16.7953C12.6344 16.8497 12.6689 16.9361 12.7091 17.0575C12.7493 17.1776 12.7692 17.2511 12.7692 17.2778C12.7692 17.3586 12.7217 17.413 12.6279 17.439C12.5342 17.4666 12.4465 17.4796 12.3661 17.4796C12.3122 17.4796 12.2452 17.4735 12.1644 17.4601C12.0837 17.4463 12.0167 17.439 11.9631 17.439C11.6681 17.439 11.5195 17.5871 11.5195 17.8826C11.5195 18.0177 11.5455 18.137 11.6011 18.245C11.8158 18.1914 11.9895 18.1448 12.1247 18.1038C12.2582 18.0632 12.4319 18.0437 12.6478 18.0437C12.8897 18.0437 13.1446 18.077 13.4137 18.1448C13.6811 18.2105 13.8828 18.2718 14.0176 18.3254C13.99 18.4333 13.9368 18.5336 13.8561 18.6281C13.7765 18.7215 13.7363 18.8225 13.7363 18.9293C13.7363 19.0908 13.8163 19.172 13.977 19.172C14.1377 19.172 14.2859 19.1582 14.4194 19.1314C14.5545 19.1046 14.7027 19.0908 14.8638 19.0908H15.0655C15.0111 19.1988 14.9442 19.2925 14.8638 19.3721C14.783 19.4537 14.7031 19.534 14.6211 19.6148C14.5152 19.5884 14.38 19.5746 14.2193 19.5746ZM13.9376 17.2381C13.9376 17.3188 13.8427 17.359 13.656 17.359H13.5752V17.3188C13.5752 17.2929 13.5959 17.2661 13.6357 17.2381C13.6754 17.2125 13.6957 17.1711 13.6957 17.1179C13.7769 17.1179 13.8232 17.1252 13.8378 17.1374C13.8504 17.1512 13.8836 17.1853 13.9376 17.2381ZM15.3679 20.3997C15.2473 20.3871 15.1593 20.4074 15.1057 20.461C15.0513 20.3543 14.9653 20.3194 14.8443 20.3599C14.723 20.3997 14.6613 20.3677 14.6613 20.2589C14.7153 20.153 14.7964 20.0921 14.9036 20.0783C15.0115 20.0645 15.1057 20.032 15.186 19.9772C15.186 20.0316 15.2323 20.058 15.3265 20.058C15.4206 20.058 15.4953 20.1254 15.5481 20.2589C15.5485 20.3677 15.4876 20.4139 15.3679 20.3997ZM16.4755 19.2929C16.4475 19.2929 16.4154 19.2864 16.374 19.2726C16.3338 19.2601 16.3005 19.2532 16.2738 19.2532H16.234C16.234 19.2799 16.1463 19.2532 15.9714 19.1724C15.7965 19.0912 15.6292 19.0514 15.4685 19.0514H15.3878C15.4146 18.9715 15.4754 18.9447 15.5692 18.9715C15.6629 18.9975 15.7502 18.9853 15.8314 18.9297C15.9649 18.9849 16.0733 19.0372 16.1528 19.0912C16.234 19.1456 16.3152 19.1724 16.3947 19.1724H16.5554C16.5554 19.2528 16.5299 19.2929 16.4755 19.2929ZM18.2885 17.5607C18.2885 17.6155 18.2341 17.6691 18.1273 17.7215C18.0198 17.7758 17.8858 17.8225 17.7235 17.8639C17.5628 17.9041 17.4021 17.9374 17.2413 17.9642C17.0806 17.9909 16.9601 18.0047 16.8785 18.0047C16.7705 18.0047 16.637 17.9779 16.4759 17.9236C16.3156 17.8704 16.2344 17.8168 16.2344 17.7624C16.2344 17.6017 16.2884 17.5408 16.3951 17.5806C16.5023 17.6212 16.5558 17.5879 16.5558 17.4804C16.7705 17.5348 16.9329 17.5607 17.0392 17.5607C17.2539 17.5607 17.4487 17.5145 17.6232 17.4199C17.7982 17.3265 17.9256 17.2782 18.0064 17.2782C18.0871 17.2782 18.1399 17.3059 18.1671 17.359C18.1939 17.4134 18.2341 17.467 18.2885 17.5206V17.5607ZM18.2674 13.1089C18.0924 13.0691 17.9378 12.9818 17.8042 12.8475C17.9378 12.8207 18.0872 12.7874 18.2483 12.7464C18.409 12.7062 18.5697 12.6864 18.732 12.6864C18.9183 12.6864 19.0661 12.7411 19.1744 12.8475C19.1744 13.063 19.0661 13.1689 18.851 13.1689C18.6363 13.1693 18.4415 13.1494 18.2674 13.1089ZM18.7714 15.184C18.7714 15.1313 18.8055 15.0907 18.8721 15.0635C18.939 15.0367 18.9991 15.0229 19.0535 15.0229C19.0799 15.0229 19.1201 15.0501 19.1744 15.1028C19.1201 15.1576 19.0868 15.2043 19.0738 15.2441C19.0596 15.2847 19.0263 15.3042 18.9735 15.3042C18.8388 15.3042 18.7714 15.2652 18.7714 15.184ZM21.6311 15.184C21.6311 15.2652 21.5438 15.3524 21.3689 15.4462C21.1952 15.5404 20.9935 15.6268 20.7658 15.7084C20.5369 15.7883 20.3027 15.863 20.0608 15.9288C19.8189 15.9965 19.631 16.0574 19.4959 16.1106C19.4695 16.165 19.4167 16.191 19.3356 16.191H19.133H19.0539C18.9995 16.165 18.9739 16.124 18.9739 16.0704C18.9739 15.775 19.1144 15.6142 19.396 15.5862C19.6789 15.5606 19.9671 15.5339 20.2617 15.5063C20.3965 15.3995 20.5308 15.292 20.6656 15.184C20.7991 15.0773 20.9602 15.0233 21.1477 15.0233C21.2021 15.0233 21.2687 15.0371 21.3494 15.0639C21.4306 15.0907 21.5248 15.1032 21.6311 15.1032V15.184ZM21.4704 13.6137H21.4302C21.3746 13.6137 21.3425 13.6275 21.3283 13.6539C21.3158 13.6807 21.2825 13.6937 21.2281 13.6937C21.0406 13.6937 20.8527 13.6539 20.6648 13.5723C20.4756 13.4924 20.2881 13.4388 20.0998 13.412C20.073 13.4388 20.0454 13.4518 20.019 13.4518C19.9663 13.4518 19.9391 13.4323 19.9391 13.3917C19.9391 13.3512 19.9253 13.3175 19.8989 13.2907C19.9788 13.2099 20.0596 13.1162 20.1396 13.009C20.2207 12.9015 20.3547 12.8479 20.5438 12.8479C20.5694 12.8479 20.5966 12.8552 20.6234 12.8682C20.6506 12.882 20.6903 12.8881 20.7447 12.8881V12.9286C20.8255 12.9554 20.959 12.9688 21.1469 12.9688C21.2541 12.9688 21.3555 12.9623 21.4505 12.9485C21.5434 12.9364 21.6437 12.9291 21.7512 12.9291C22.0203 12.9291 22.2606 12.9692 22.4769 13.05C22.5836 13.05 22.6506 13.0967 22.6774 13.1912C22.7042 13.2854 22.7176 13.3714 22.7176 13.4526C22.7176 13.507 22.7046 13.5338 22.6774 13.5338L22.6372 13.4932C22.5577 13.5732 22.3815 13.6146 22.1141 13.6146H21.6717H21.4704V13.6137ZM24.6134 18.689C24.4238 18.7962 24.2566 18.9102 24.1089 19.0307C23.9611 19.1517 23.7793 19.226 23.5646 19.2532C23.5914 19.0652 23.6795 18.9175 23.8268 18.8096C23.9733 18.7028 24.1154 18.6074 24.2501 18.5271L24.3297 18.5677C24.384 18.5677 24.4234 18.5616 24.4506 18.5474C24.4778 18.534 24.5176 18.5271 24.5716 18.5271C24.6259 18.5271 24.6527 18.5409 24.6527 18.5677C24.6527 18.6212 24.6381 18.6618 24.6134 18.689ZM25.1759 19.8563C25.0407 19.8563 24.9742 19.8039 24.9742 19.6955C24.9742 19.642 25.0074 19.6022 25.0756 19.5746C25.1426 19.5486 25.1889 19.4942 25.2161 19.4135C25.2429 19.4135 25.2635 19.4208 25.2777 19.4338C25.2895 19.448 25.3098 19.4545 25.337 19.4545C25.4726 19.4545 25.5793 19.3802 25.6601 19.2325C25.7396 19.0859 25.8468 19.0109 25.9819 19.0109H26.0627C26.2234 18.9573 26.3857 18.9301 26.5461 18.9301C26.6796 18.9301 26.8277 18.9569 26.9889 19.0109V19.1322C26.9889 19.3477 26.8951 19.4752 26.7072 19.5137C26.5177 19.5547 26.3176 19.575 26.1025 19.575C25.8082 19.575 25.6203 19.6221 25.5391 19.7158C25.458 19.81 25.337 19.8563 25.1759 19.8563ZM25.1759 18.1241C25.1759 18.0441 25.2303 18.0043 25.3366 18.0043C25.5245 18.0043 25.6195 18.0579 25.6195 18.1651C25.6451 18.1922 25.6597 18.219 25.6597 18.2458C25.6597 18.2726 25.6195 18.2864 25.5387 18.2864C25.4575 18.2864 25.4174 18.3132 25.4174 18.3672C25.3366 18.3672 25.2773 18.3404 25.2364 18.2864C25.1954 18.2324 25.1759 18.1785 25.1759 18.1241ZM26.5461 24.6909H26.3042H26.2628C26.2628 24.6373 26.2372 24.617 26.1832 24.63C26.1288 24.6442 26.102 24.6239 26.102 24.5699L26.1832 24.5281H26.2628H26.4645C26.5984 24.5281 26.6666 24.5699 26.6666 24.6503C26.6402 24.6775 26.5988 24.6909 26.5461 24.6909ZM28.1979 24.1669C28.0088 24.1669 27.8878 24.0667 27.8351 23.8645C27.7811 23.6636 27.646 23.5618 27.4309 23.5618H27.3115C27.2308 23.5618 27.1094 23.5155 26.9487 23.4209C26.788 23.3276 26.7068 23.2545 26.7068 23.1997C26.7068 23.1462 26.7669 23.1133 26.8878 23.0995C27.0088 23.0857 27.0822 23.0792 27.109 23.0792C27.2709 23.0792 27.4118 23.1263 27.5323 23.22C27.6533 23.315 27.7665 23.4274 27.8744 23.5618C27.9552 23.5898 28.0624 23.6166 28.1975 23.6425C28.331 23.6701 28.3984 23.7635 28.3984 23.9258C28.3988 24.0865 28.3314 24.1669 28.1979 24.1669ZM30.131 24.7708C30.131 24.8784 30.0502 24.9518 29.8891 24.9924C29.7284 25.0338 29.6075 25.0525 29.5263 25.0525C29.4451 25.0525 29.3781 25.0265 29.3258 24.9725C29.2702 24.919 29.2304 24.8922 29.2049 24.8922C29.1777 24.8922 29.1501 24.906 29.1237 24.9319V24.7708C29.1237 24.6633 29.1777 24.5959 29.2844 24.5699C29.3932 24.5431 29.4865 24.5281 29.5661 24.5281C29.6732 24.5281 29.8347 24.5565 30.0498 24.6105C30.0498 24.6373 30.0636 24.6503 30.0908 24.6503C30.1164 24.6503 30.131 24.6633 30.131 24.6909V24.7708ZM30.2715 23.1803C30.1237 23.4083 29.8619 23.522 29.4865 23.522C29.4325 23.522 29.3116 23.5082 29.1237 23.4814C28.9358 23.4562 28.842 23.4153 28.842 23.3609C28.842 23.0654 28.7673 22.8576 28.6208 22.7358C28.4731 22.6161 28.3046 22.4481 28.1167 22.2334C28.0895 22.2594 28.0494 22.2732 27.9954 22.2732C27.9418 22.2732 27.8874 22.2529 27.8347 22.2131C27.7807 22.1725 27.7133 22.153 27.6325 22.153C27.5786 22.1262 27.4852 22.1055 27.3509 22.0918C27.2161 22.0796 27.0745 22.065 26.928 22.0512C26.7803 22.0386 26.6524 22.0252 26.5461 22.0118C26.4377 21.998 26.3853 21.9781 26.3853 21.9509C26.3853 21.8981 26.4056 21.8568 26.4442 21.8304C26.4856 21.8044 26.5176 21.763 26.5461 21.709C26.5716 21.709 26.5923 21.7155 26.6061 21.7297C26.6191 21.7439 26.6398 21.7488 26.6666 21.7488C26.7194 21.7488 26.7478 21.7366 26.7478 21.709V21.6688H26.7876C26.8403 21.6688 26.8817 21.683 26.9085 21.709C26.9341 21.7366 26.9884 21.7488 27.0692 21.7488C27.042 21.7488 27.1025 21.7439 27.2502 21.7297C27.3984 21.7155 27.5721 21.6757 27.7742 21.6088C27.9755 21.5418 28.1622 21.4614 28.3375 21.3665C28.5129 21.2731 28.5997 21.1449 28.5997 20.9846C28.5997 20.8774 28.5526 20.7695 28.4585 20.6615C28.3647 20.5539 28.2373 20.5012 28.077 20.5012C27.9146 20.5012 27.8079 20.5474 27.7551 20.642C27.6995 20.7362 27.5786 20.7829 27.3911 20.7829C27.1764 20.7829 26.9154 20.7906 26.6061 20.8023C26.2961 20.8161 26.0481 20.8624 25.8602 20.9436C25.8869 20.7828 25.9815 20.6619 26.143 20.582C26.3038 20.5016 26.4982 20.4212 26.7267 20.3392C26.9552 20.2589 27.1837 20.1586 27.4118 20.0373C27.6394 19.9159 27.8347 19.7499 27.9954 19.5344C28.1293 19.4808 28.2576 19.4399 28.3785 19.4131C28.4999 19.3863 28.5863 19.3063 28.6411 19.172C28.5859 19.0368 28.5729 18.9171 28.5993 18.8092C28.6253 18.7024 28.4646 18.648 28.1163 18.648C27.9812 18.6748 27.8667 18.7089 27.7742 18.7491C27.6788 18.7897 27.5656 18.8092 27.43 18.8092C27.3505 18.8092 27.2835 18.7958 27.2299 18.769V18.648L27.1898 18.607C27.1634 18.607 27.1484 18.5944 27.1484 18.5673C27.1484 18.5405 27.163 18.5267 27.1898 18.5267C27.2153 18.5267 27.2299 18.5145 27.2299 18.4877C27.2567 18.3258 27.3367 18.2247 27.4718 18.1849C27.6054 18.1448 27.7547 18.1107 27.9142 18.0847C28.0766 18.0575 28.2235 18.0307 28.3582 18.0039C28.4918 17.9771 28.5587 17.9098 28.5587 17.8022V17.5603V17.48C28.506 17.454 28.4792 17.413 28.4792 17.359C28.4792 17.3059 28.452 17.2782 28.3984 17.2782H28.3582C28.3043 17.2782 28.2373 17.2726 28.1561 17.2588C28.077 17.2446 28.0084 17.2381 27.9552 17.2381C27.6865 17.2381 27.4986 17.2783 27.3906 17.359C27.2835 17.4394 27.2028 17.5279 27.1488 17.6208C27.0948 17.7154 27.055 17.8026 27.029 17.883C27.001 17.9637 26.9483 18.0039 26.8675 18.0039H26.7876C26.7596 18.0039 26.7271 18.0116 26.6861 18.0234C26.6459 18.0384 26.5984 18.0437 26.5457 18.0437C26.4645 18.0437 26.4243 18.0035 26.4243 17.9228C26.4243 17.7884 26.4917 17.6817 26.6264 17.6009C26.7591 17.5206 26.8273 17.3854 26.8273 17.1979C26.585 17.0636 26.3103 16.9962 26.0018 16.9962C25.6925 16.9962 25.3906 16.9694 25.0947 16.9162C24.9596 16.9162 24.88 16.9426 24.8528 16.9962C24.8272 17.0506 24.7936 17.1175 24.7526 17.1979C24.7124 17.2778 24.6523 17.3456 24.5712 17.3992C24.4912 17.4536 24.3293 17.4796 24.0882 17.4796C23.8999 17.4796 23.7931 17.426 23.7663 17.3184V17.2377C23.7663 16.889 23.6182 16.7141 23.3219 16.7141C23.1076 16.7141 22.9071 16.7535 22.718 16.8355C22.5301 16.9158 22.3166 16.9552 22.0747 16.9552C21.9663 16.9552 21.8726 16.9422 21.793 16.9158V16.7949V16.7531H21.7516C21.7249 16.7531 21.7123 16.7409 21.7123 16.7137C21.7123 16.499 21.8523 16.3655 22.1348 16.3107C22.4165 16.2571 22.6506 16.2303 22.8398 16.2303C22.9737 16.2303 23.1072 16.2441 23.242 16.2701C23.3759 16.2981 23.5094 16.3107 23.645 16.3107C23.7521 16.5262 23.9137 16.6796 24.128 16.7742C24.3431 16.8683 24.585 16.9154 24.8524 16.9154C24.9876 16.8083 25.1146 16.7007 25.2355 16.5923C25.3569 16.4848 25.5107 16.417 25.699 16.3914C25.9137 16.4458 26.1012 16.4714 26.2624 16.4714C26.3168 16.4714 26.3849 16.4653 26.4641 16.4519C26.5453 16.4389 26.626 16.4316 26.7064 16.4316C27.2969 16.4316 27.7198 16.5323 27.9755 16.7332C28.2308 16.9353 28.5189 17.1167 28.8416 17.277C28.9212 17.3318 29.0421 17.3643 29.2049 17.3781C29.3652 17.3919 29.5263 17.4057 29.687 17.4187C29.8489 17.4325 29.9906 17.4455 30.1103 17.4593C30.2045 17.4698 30.2601 17.4921 30.2816 17.5262C30.2719 17.54 30.256 17.5977 30.2329 17.7008C30.1915 17.8757 29.9557 17.9629 29.5267 17.9629C29.4719 17.9629 29.4196 17.9568 29.3656 17.943C29.312 17.9288 29.258 17.9224 29.2052 17.9224C28.9362 17.9224 28.788 18.0035 28.7612 18.1638C28.842 18.299 28.8952 18.4122 28.922 18.5064C28.9487 18.6009 29.1241 18.6476 29.4455 18.6476C29.7146 18.6476 29.9431 18.5876 30.131 18.4658C30.3185 18.3461 30.5596 18.2852 30.8559 18.2852H31.017C31.1242 18.2852 31.2114 18.2779 31.2784 18.2649C31.345 18.2519 31.4058 18.2446 31.4598 18.2446C31.5406 18.2446 31.6473 18.2852 31.7821 18.3656C31.7557 18.5007 31.6218 18.5665 31.3799 18.5665C31.2715 18.5665 31.2049 18.5527 31.1777 18.5259C31.151 18.5007 31.1112 18.4869 31.0568 18.4869H30.8965H30.8555C30.694 18.5664 30.5937 18.6805 30.5539 18.8286C30.5125 18.9768 30.4395 19.1176 30.3323 19.2519C30.1164 19.3591 29.868 19.4196 29.5864 19.4326C29.3047 19.4468 29.0279 19.48 28.7608 19.534C28.6797 19.6947 28.6411 19.8693 28.6411 20.0576C28.6667 20.1651 28.773 20.2191 28.9621 20.2191H29.2049C29.3116 20.2191 29.3928 20.2321 29.4451 20.2585C29.4995 20.2869 29.5803 20.2991 29.687 20.2991C29.741 20.2991 29.8144 20.2934 29.9082 20.2796C30.002 20.2658 30.077 20.2585 30.131 20.2585C30.2378 20.2585 30.3441 20.2723 30.4529 20.2991C30.5596 20.3258 30.6144 20.4066 30.6144 20.541C30.6144 20.5953 30.6002 20.6286 30.573 20.642C30.5466 20.6558 30.5332 20.6887 30.5332 20.7423V20.7829C30.3981 20.918 30.2179 20.9988 29.9902 21.0243C29.7613 21.0523 29.5324 21.0852 29.3047 21.1258C29.0758 21.1652 28.8749 21.2399 28.7 21.3466C28.5254 21.4554 28.4248 21.6692 28.3984 21.9911C28.5064 22.1262 28.6334 22.2131 28.7815 22.2533C28.9276 22.2939 29.0279 22.3807 29.0835 22.5151C29.0835 22.6234 29.144 22.7172 29.2649 22.7967C29.3842 22.8775 29.5121 22.9177 29.6468 22.9177C29.8343 22.9177 29.9825 22.8442 30.0904 22.6965C30.1972 22.5483 30.3323 22.4749 30.4931 22.4749C30.5998 22.4749 30.6798 22.4887 30.735 22.5147C30.5734 22.7302 30.4192 22.9518 30.2715 23.1803ZM31.9034 20.582C31.8494 20.5016 31.7618 20.4277 31.6412 20.3599C31.5199 20.2942 31.3989 20.2329 31.278 20.1785C31.157 20.1254 31.0503 20.0718 30.9565 20.0178C30.8616 19.9642 30.8149 19.8831 30.8149 19.7751C30.8149 19.6416 30.8961 19.5742 31.0564 19.5742C31.2711 19.5742 31.4054 19.6886 31.4594 19.9159C31.513 20.1452 31.6611 20.2585 31.903 20.2585C31.9558 20.3129 32.0098 20.3539 32.0637 20.3798C32.1181 20.4066 32.1437 20.4472 32.1437 20.5008C32.1185 20.5543 32.0378 20.582 31.9034 20.582ZM34.9648 9.38347C34.9648 9.30311 35.0188 9.26334 35.1255 9.26334C35.1523 9.26334 35.1799 9.27064 35.2063 9.28281C35.2319 9.29661 35.2465 9.37048 35.2465 9.50401C35.2197 9.50401 35.2063 9.51131 35.2063 9.5243C35.2063 9.5381 35.1925 9.5446 35.1649 9.5446C35.1109 9.5446 35.0858 9.5243 35.0858 9.48453C35.0858 9.44394 35.0573 9.42447 35.0046 9.42447H34.9644V9.38347H34.9648ZM32.427 11.0341C32.427 10.9541 32.4801 10.9006 32.5885 10.8738C32.6952 10.847 32.7898 10.8332 32.8698 10.8332C32.9237 10.8332 32.9712 10.8405 33.0114 10.8539C33.0512 10.8681 33.0979 10.8738 33.1514 10.8738V10.9144L33.1928 10.9951C33.166 11.1019 33.1117 11.1559 33.0309 11.1559C32.9513 11.1559 32.8702 11.1831 32.7902 11.2362C32.7362 11.1831 32.6632 11.1559 32.569 11.1559C32.4736 11.1555 32.427 11.1157 32.427 11.0341ZM32.9509 19.3327H32.709H32.6279V19.2925C32.6279 19.239 32.6344 19.2187 32.649 19.2316C32.6628 19.2463 32.6697 19.2256 32.6697 19.172H32.7488H33.0305C33.1113 19.172 33.1656 19.1988 33.1924 19.2528C33.138 19.3063 33.0577 19.3327 32.9509 19.3327ZM33.3341 16.7957C33.2931 16.8501 33.2464 16.8756 33.1924 16.8756C33.0845 16.8756 33.0305 16.8217 33.0305 16.7149C33.0305 16.6078 33.0979 16.5534 33.2326 16.5534C33.2866 16.5534 33.3264 16.568 33.3535 16.594C33.3803 16.6208 33.4201 16.6484 33.4741 16.6743C33.4201 16.7019 33.3738 16.7417 33.3341 16.7957ZM33.8373 13.9758C33.6222 13.9758 33.4343 13.9417 33.2716 13.8747C33.1109 13.8077 33.0301 13.6661 33.0301 13.4514C33.0301 13.3171 33.1255 13.2505 33.313 13.2505C33.4469 13.2505 33.5678 13.2907 33.6758 13.3702C33.7578 13.4323 33.8503 13.4843 33.949 13.5301V13.9673C33.9157 13.9721 33.8791 13.9758 33.8373 13.9758ZM37.5631 15.4515C37.5091 15.4515 37.4832 15.4117 37.4832 15.3297C37.456 15.3037 37.4426 15.2766 37.4426 15.2498H37.5229H37.6435C37.6435 15.3297 37.6171 15.3979 37.5631 15.4515ZM38.4097 14.2838C38.3821 14.2035 38.3627 14.1422 38.3497 14.1016C38.3359 14.061 38.329 14.0139 38.329 13.9607C38.329 13.934 38.342 13.8735 38.3692 13.7797C38.3968 13.6856 38.4361 13.6389 38.4909 13.6389C38.5165 13.6389 38.5307 13.6584 38.5307 13.6986C38.5307 13.74 38.5571 13.7586 38.6115 13.7586C38.6111 13.9737 38.5437 14.1487 38.4097 14.2838ZM40.5446 15.9336C40.5446 15.9612 40.5174 15.975 40.4634 15.975C40.4634 15.8947 40.4906 15.8549 40.5446 15.8549V15.9336ZM41.0876 14.3837C41.0746 14.3431 41.0539 14.3098 41.0279 14.2834C41.0279 14.175 41.034 14.0273 41.0478 13.8398C41.0608 13.6515 41.1087 13.5581 41.1895 13.5581C41.2431 13.5581 41.2893 13.6044 41.3303 13.6982C41.3717 13.7915 41.3904 13.9068 41.3904 14.0415C41.3904 14.2282 41.3364 14.3634 41.2297 14.4445H41.1891C41.1351 14.4449 41.1014 14.4238 41.0876 14.3837ZM41.5921 17.023V17.4248C41.5921 17.5063 41.5783 17.5713 41.5511 17.6269C41.4975 17.6796 41.4578 17.7068 41.4306 17.7068C41.3226 17.7068 41.2495 17.6399 41.2086 17.5063C41.1688 17.3712 41.1481 17.2644 41.1481 17.1833C41.1481 17.1297 41.1692 17.0351 41.2086 16.9016C41.2495 16.7665 41.31 16.6999 41.39 16.6999C41.4712 16.6999 41.5117 16.7267 41.5117 16.7807C41.5117 16.8351 41.5373 16.8748 41.5917 16.9016V17.023H41.5921ZM42.1968 15.6922C42.0617 15.6922 41.974 15.6536 41.9342 15.5716C41.8937 15.4917 41.8742 15.4251 41.8742 15.3707C41.8742 15.2632 41.9282 15.21 42.0349 15.21C42.0621 15.21 42.1092 15.2632 42.1765 15.3707C42.2427 15.4774 42.2772 15.5586 42.2772 15.6122C42.2764 15.6398 42.2496 15.665 42.1968 15.6922ZM42.8604 16.9219C42.8206 17.0684 42.7999 17.2243 42.7999 17.3846C42.7464 17.1687 42.666 16.9617 42.5589 16.7612C42.4509 16.5595 42.3981 16.3509 42.3981 16.1362C42.3981 16.0278 42.4379 15.9746 42.5187 15.9746C42.6522 15.9746 42.7537 16.0408 42.821 16.1759C42.8876 16.3111 42.9217 16.4174 42.9217 16.4978C42.9213 16.6329 42.9014 16.773 42.8604 16.9219ZM42.7995 14.4449C42.6388 14.3906 42.5584 14.2156 42.5584 13.9214C42.612 13.8654 42.6388 13.7919 42.6388 13.6986C42.6388 13.6048 42.7058 13.5585 42.8397 13.5585C42.8665 13.5585 42.8937 13.632 42.9209 13.7797C42.9468 13.9275 42.9615 14.0277 42.9615 14.0821C42.9619 14.2152 42.9075 14.337 42.7995 14.4449ZM43.4448 14.9283C43.4177 14.9283 43.4043 14.8735 43.4043 14.7668C43.4578 14.7668 43.4846 14.8058 43.4846 14.8873L43.4448 14.9283ZM43.3024 24.6909H43.0605H43.0191C43.0191 24.6373 42.9935 24.617 42.9399 24.63C42.8856 24.6442 42.8584 24.6239 42.8584 24.5699L42.9399 24.5281H43.0191H43.2208C43.3547 24.5281 43.4229 24.5699 43.4229 24.6503C43.3965 24.6775 43.3551 24.6909 43.3024 24.6909ZM44.9542 24.1669C44.7651 24.1669 44.6442 24.0667 44.5914 23.8645C44.5374 23.6636 44.4027 23.5618 44.1876 23.5618H44.0678C43.9871 23.5618 43.8661 23.5155 43.705 23.4209C43.5443 23.3276 43.4631 23.2545 43.4631 23.1997C43.4631 23.1462 43.5232 23.1133 43.6441 23.0995C43.7655 23.0857 43.8385 23.0792 43.8657 23.0792C44.0277 23.0792 44.1681 23.1263 44.289 23.22C44.4096 23.315 44.5228 23.4274 44.6308 23.5618C44.7119 23.5898 44.8187 23.6166 44.9538 23.6425C45.0874 23.6701 45.1547 23.7635 45.1547 23.9258C45.1551 24.0865 45.0878 24.1669 44.9542 24.1669ZM46.8873 24.7708C46.8873 24.8784 46.8066 24.9518 46.6455 24.9924C46.4847 25.0338 46.3638 25.0525 46.2826 25.0525C46.2014 25.0525 46.1345 25.0265 46.0821 24.9725C46.0265 24.919 45.9872 24.8922 45.9612 24.8922C45.934 24.8922 45.9068 24.906 45.88 24.9319V24.7708C45.88 24.6633 45.934 24.5959 46.0407 24.5699C46.1495 24.5431 46.2433 24.5281 46.3224 24.5281C46.4296 24.5281 46.5915 24.5565 46.8062 24.6105C46.8062 24.6373 46.82 24.6503 46.8472 24.6503C46.8727 24.6503 46.8873 24.6633 46.8873 24.6909V24.7708ZM45.438 16.0217C45.4766 15.9738 45.5432 15.9499 45.6385 15.9499C45.6925 15.9499 45.7469 15.9564 45.7992 15.9693C45.8248 15.9758 45.8504 15.9803 45.8755 15.984C45.8378 16.0542 45.8061 16.1313 45.7818 16.2165C45.7639 16.2786 45.74 16.3391 45.7132 16.3983C45.5894 16.3184 45.4831 16.2368 45.3987 16.1516C45.3987 16.1179 45.4039 16.0899 45.4129 16.0651C45.421 16.0505 45.4295 16.0363 45.438 16.0217ZM47.0972 13.7189C47.1021 13.7319 47.1069 13.744 47.1102 13.759C47.1227 13.8215 47.1321 13.8776 47.1382 13.9283C46.9868 13.8747 46.8654 13.8293 46.7749 13.7939C46.7774 13.7858 46.7802 13.7785 46.7835 13.7712C46.8853 13.7659 46.9896 13.7501 47.0972 13.7189ZM45.3159 17.48C45.3215 17.5047 45.328 17.527 45.3378 17.5461C45.3378 17.5831 45.3297 17.6151 45.3159 17.6431V17.5603V17.48ZM45.2976 17.3038C45.2976 17.374 45.3041 17.4325 45.3159 17.4804C45.2627 17.4536 45.2363 17.4134 45.2363 17.3594C45.2363 17.3184 45.2197 17.2937 45.1892 17.2835C45.1982 17.2705 45.2075 17.2576 45.2164 17.2438C45.2452 17.2007 45.2668 17.1549 45.285 17.1078C45.2956 17.1139 45.3057 17.1204 45.3159 17.1261C45.3049 17.1833 45.2976 17.2421 45.2976 17.3038ZM46.421 17.9597C46.4762 17.859 46.5063 17.7227 46.5063 17.5461V17.4248C46.6418 17.4365 46.7631 17.4483 46.8675 17.4605C46.8894 17.4625 46.9097 17.4666 46.9275 17.4698C46.8979 17.6135 46.8386 17.6999 46.7486 17.7267C46.6524 17.7551 46.5935 17.8306 46.5659 17.9475C46.5209 17.9532 46.473 17.9569 46.421 17.9597ZM49.8501 13.6389V13.7225C49.8079 13.6515 49.7872 13.5618 49.7872 13.4518C49.7872 13.449 49.788 13.4465 49.788 13.4441C49.8282 13.4595 49.8501 13.522 49.8501 13.6389ZM45.2164 13.5585C45.2164 13.5305 45.2432 13.5184 45.2976 13.5184C45.4315 13.5184 45.5123 13.5841 45.5391 13.7189C45.5659 13.854 45.5805 13.9737 45.5805 14.0821C45.5805 14.1336 45.5736 14.1982 45.5622 14.2729C45.4879 14.3654 45.4336 14.4725 45.3987 14.5947C45.3796 14.6012 45.3601 14.6053 45.3382 14.6053C45.2846 14.4973 45.231 14.3906 45.1771 14.2838C45.1227 14.1755 45.0975 14.0553 45.0975 13.9214C45.0975 13.813 45.1511 13.7051 45.2582 13.5983C45.2574 13.5707 45.2436 13.5585 45.2164 13.5585ZM44.0889 17.3038C43.9282 17.2247 43.8479 17.0498 43.8479 16.7803C43.9006 16.7535 43.9412 16.7202 43.968 16.6784C43.9948 16.6394 44.0345 16.6195 44.0889 16.6195C44.1429 16.6195 44.1908 16.6463 44.2302 16.6995C44.2712 16.7531 44.2906 16.8075 44.2906 16.861C44.2906 17.0765 44.2233 17.2243 44.0889 17.3038ZM48.6601 20.582C48.6062 20.5016 48.5189 20.4277 48.3979 20.3599C48.277 20.2942 48.1557 20.2329 48.0347 20.1785C47.9138 20.1254 47.807 20.0718 47.7133 20.0178C47.6183 19.9642 47.5716 19.8831 47.5716 19.7751C47.5716 19.6416 47.6528 19.5742 47.8135 19.5742C48.0278 19.5742 48.1621 19.6886 48.2161 19.9159C48.2701 20.1452 48.4178 20.2585 48.6597 20.2585C48.7129 20.3129 48.7669 20.3539 48.8205 20.3798C48.8744 20.4066 48.9004 20.4472 48.9004 20.5008C48.8749 20.5543 48.7945 20.582 48.6601 20.582ZM49.7077 19.3327H49.4654H49.3846V19.2925C49.3846 19.239 49.3907 19.2187 49.4053 19.2316C49.4191 19.2463 49.426 19.2256 49.426 19.172H49.5055H49.7872C49.8676 19.172 49.922 19.1988 49.9488 19.2528C49.8952 19.3063 49.814 19.3327 49.7077 19.3327ZM51.963 9.5243C51.963 9.5381 51.9496 9.5446 51.9216 9.5446C51.8681 9.5446 51.8421 9.5243 51.8421 9.48453C51.8421 9.44394 51.8145 9.42447 51.7613 9.42447H51.7211V9.38388C51.7211 9.30352 51.7751 9.26374 51.8819 9.26374C51.9091 9.26374 51.9362 9.27104 51.9626 9.28322C51.989 9.29702 52.0028 9.37089 52.0028 9.50442C51.9764 9.50361 51.963 9.51131 51.963 9.5243Z" fill="#010101"/>
</svg>
